G04 ================== begin FILE IDENTIFICATION RECORD ==================*
G04 Layout Name:  MB1136_BOOSTPACK_V10A.brd*
G04 Film Name:    BOTTOM*
G04 File Format:  Gerber RS274X*
G04 File Origin:  Cadence Allegro 16.6-2015-S082*
G04 Origin Date:  Mon Feb 20 14:00:57 2017*
G04 *
G04 Layer:  BOARD GEOMETRY/OUTLINE*
G04 Layer:  ETCH/BOTTOM*
G04 Layer:  PIN/BOTTOM*
G04 Layer:  VIA CLASS/BOTTOM*
G04 *
G04 Offset:    (0.0000 0.0000)*
G04 Mirror:    No*
G04 Mode:      Positive*
G04 Rotation:  0*
G04 FullContactRelief:  No*
G04 UndefLineWidth:     0.1524*
G04 ================== end FILE IDENTIFICATION RECORD ====================*
%FSLAX55Y55*MOMM*%
%IR0*IPPOS*OFA0.00000B0.00000*MIA0B0*SFA1.00000B1.00000*%
%ADD14C,.762*%
%ADD13C,.6096*%
%ADD15C,2.2*%
%ADD19C,1.524*%
%ADD10C,6.35*%
%ADD17C,3.048*%
%ADD16C,1.905*%
%ADD18R,1.524X1.524*%
%ADD11C,1.778*%
%ADD12R,1.778X1.778*%
%ADD20C,.2032*%
%ADD21C,.17*%
%ADD22C,.127*%
%ADD23C,.254*%
%ADD24C,.1524*%
%ADD25C,.508*%
%ADD27C,.6328*%
%ADD29C,1.4146*%
%ADD26C,4.0644*%
%ADD28C,3.4932*%
G75*
%LPD*%
G75*
G36*
G01X11564160Y1458700D02*
X11570660D01*
G03X11628680Y1483730I-663J81298D01*
G01X11631600Y1486640D01*
X11712100D01*
X11976500Y1751030D01*
G02X12006540Y1749180I14181J-14551D01*
G03X12012010Y1743020I63449J50834D01*
G03X12142600Y1836590I57989J56981D01*
G03X12130880Y1853890I-72612J-36572D01*
G01X12130700Y1854090D01*
X12124800Y1861520D01*
Y2406380D01*
X12029080Y2502100D01*
Y3486410D01*
G02X12063580Y3500960I20321J-6D01*
G01X12290300Y3274240D01*
Y3269030D01*
G03X12370970Y3349700I81300J-630D01*
G01X12365760D01*
X12083360Y3632100D01*
Y3650440D01*
G02X12112830Y3668580I20322J-6D01*
G03X12279490Y3717600I57178J113423D01*
G02X12314510I17510J-10299D01*
G03X12498520Y3884860I109486J64399D01*
G02X12499470Y3918420I11924J16456D01*
G03X12509020Y4146880I-75470J117584D01*
G02Y4179120I12364J16120D01*
G03X12313120Y4375020I-85020J110880D01*
G02X12280880I-16120J12364D01*
G03X12267190Y4390390I-110899J-84995D01*
G01X12267130Y4390450D01*
X12236060Y4421520D01*
Y4499150D01*
G02X12264460Y4517790I20319J-3D01*
G03X12395470Y4763580I55538J128208D01*
G02X12394520Y4797140I10974J17104D01*
G03Y5002860I-74520J102860D01*
G02X12395180Y5036230I11924J16456D01*
G03X12365090Y5286240I-75181J117767D01*
G03X12180280Y5153410I-45093J-132241D01*
G01Y5107700D01*
X12103940Y5031360D01*
Y4421520D01*
X12100710Y4418290D01*
G02X12083360Y4425470I-7189J7180D01*
G01Y5251420D01*
X11939980Y5394800D01*
X11479980D01*
X11394800Y5479980D01*
Y6288060D01*
G03X11394810Y6289010I-53349J1037D01*
G01Y6348970D01*
X10714700Y7029080D01*
X10146380D01*
X10123360Y7052100D01*
Y7856760D01*
X9931040Y8049080D01*
X7148960D01*
X5806740Y6706860D01*
X1483210D01*
X1480830Y6708260D01*
G03X1479840Y6708830I-32188J-54761D01*
G01X1468670Y6715120D01*
X1468180Y6715490D01*
G03X1445050Y6727350I-48185J-65487D01*
G03X1340620Y6667580I-25050J-77348D01*
G03X1478680Y6593730I79378J-17580D01*
G01X1478760Y6593800D01*
X1485100Y6600140D01*
X1508540D01*
G02X1518700Y6589980I0J-10160D01*
G03X1521470Y6568940I81302J1D01*
G02X1501850Y6543360I-19625J-5262D01*
G01X997900D01*
X76630Y5622090D01*
Y5562130D01*
G03X76640Y5561270I53358J190D01*
G01Y1847900D01*
X229510Y1695030D01*
X225390Y1688220D01*
G03X259980Y1505120I119609J-72222D01*
G02Y1472880I-12364J-16120D01*
G03Y1251120I85020J-110880D01*
G02Y1218880I-12364J-16120D01*
G03Y997120I85020J-110880D01*
G02Y964880I-12364J-16120D01*
G03X346300Y714280I85013J-110884D01*
G01X410250D01*
G02X392090Y680160I-14617J-14113D01*
G03X46520Y544720I-62088J-350159D01*
G02X10000Y556980I-16200J12265D01*
G01Y6703020D01*
G02X46520Y6715280I20320J-5D01*
G03Y7144720I283480J214720D01*
G02X10000Y7156980I-16200J12265D01*
G01Y7920000D01*
G02X330000Y8240000I319615J385D01*
G01X12300000D01*
G02X12620000Y7920000I-2692J-322692D01*
G01Y7156980D01*
G02X12583480Y7144720I-20320J5D01*
G03X12329060Y7284430I-283479J-214721D01*
G02X12320840Y7322440I1661J20253D01*
G03X12174500Y7302410I-98844J177560D01*
G02X12176790Y7263590I-4752J-19758D01*
G03X11948470Y6983770I123209J-333592D01*
G02X11910560Y6977090I-20086J3076D01*
G03X11702980Y6799120I-122558J-67094D01*
G02Y6766880I-12364J-16120D01*
G03Y6545120I85020J-110880D01*
G02Y6512880I-12364J-16120D01*
G03Y6291120I85020J-110880D01*
G02Y6258880I-12364J-16120D01*
G03Y6037120I85020J-110880D01*
G02Y6004880I-12364J-16120D01*
G03Y5783120I85020J-110880D01*
G02Y5750880I-12364J-16120D01*
G03X11873020I85020J-110880D01*
G02Y5783120I12364J16120D01*
G03Y6004880I-85020J110880D01*
G02Y6037120I12364J16120D01*
G03Y6258880I-85020J110880D01*
G02Y6291120I12364J16120D01*
G03Y6512880I-85020J110880D01*
G02Y6545120I12364J16120D01*
G03Y6766880I-85020J110880D01*
G02Y6799120I12364J16120D01*
G03X11915420Y6852680I-85026J110872D01*
G02X11953730Y6848970I18527J-8343D01*
G03X12583480Y6715280I346267J81029D01*
G02X12620000Y6703020I16200J-12265D01*
G01Y556980D01*
G02X12583480Y544720I-20320J5D01*
G03X12364920Y679640I-283476J-214724D01*
G02X12359170Y717600I3713J19978D01*
G03X12352720Y945560I-59170J112397D01*
G02X12351920Y982150I8432J18488D01*
G03Y1185850I-51920J101850D01*
G02X12352720Y1222440I9232J18102D01*
G03X12364400Y1447490I-52719J115564D01*
G02Y1482510I10299J17510D01*
G03Y1701490I-64400J109490D01*
G02Y1736510I10299J17510D01*
G03X12387630Y1937950I-64399J109486D01*
G02X12401650Y1972980I14019J14710D01*
G01X12427020D01*
Y2227020D01*
X12172980D01*
Y1972980D01*
X12198350D01*
G02X12212370Y1937950I1J-20320D01*
G03X12235600Y1736510I87629J-91954D01*
G02Y1701490I-10299J-17510D01*
G03Y1482510I64400J-109490D01*
G02Y1447490I-10299J-17510D01*
G03X12247280Y1222440I64399J-109486D01*
G02X12248080Y1185850I-8432J-18488D01*
G03Y982150I51920J-101850D01*
G02X12247280Y945560I-9232J-18102D01*
G03X12240830Y717600I52720J-115563D01*
G02X12235080Y679640I-9463J-17982D01*
G03X12085280Y46520I64921J-349643D01*
G02X12073020Y10000I-12265J-16200D01*
G01X11265520D01*
G02X11255930Y48230I3J20319D01*
G03X11311910Y282000I-75928J141770D01*
G02X11328570Y313940I16667J11622D01*
G01X11347360D01*
X11600060Y566640D01*
Y838480D01*
X11631280Y869710D01*
X11631330Y869760D01*
G03X11651770Y894820I-97324J100248D01*
G02X11685140Y895480I16914J-11264D01*
G03Y1044520I102860J74520D01*
G02X11651770Y1045180I-16456J11924D01*
G03X11564680Y1106310I-117769J-75180D01*
G03X11487450Y1101740I-30684J-136309D01*
G02X11460360Y1120900I-6771J19158D01*
G01Y1354900D01*
X11564160Y1458700D01*
G37*
G36*
G01X1443940Y3342610D02*
Y702640D01*
X1922640Y223940D01*
X2773870D01*
G02X2791980Y194410I-3J-20320D01*
G03X2888020I48020J-24410D01*
G02X2906130Y223940I18113J9210D01*
G01X3577090D01*
G02X3595010Y194040I1J-20320D01*
G03X3684990I44990J-24040D01*
G02X3702910Y223940I17919J9580D01*
G01X4737360D01*
X4827360Y313940D01*
X7599320D01*
G02X7617340Y284240I-4J-20319D01*
G03X7902660I142660J-74240D01*
G02X7920680Y313940I18024J9381D01*
G01X8239320D01*
G02X8257340Y284240I-4J-20319D01*
G03X8542660I142660J-74240D01*
G02X8560680Y313940I18024J9381D01*
G01X9009980D01*
G02X9026870Y282330I-5J-20320D01*
G03X9273130I123130J-82330D01*
G02X9290020Y313940I16895J11290D01*
G01X9649980D01*
G02X9666870Y282330I-5J-20320D01*
G03X9913130I123130J-82330D01*
G02X9930020Y313940I16895J11290D01*
G01X10384930D01*
G02X10402320Y283120I-3J-20318D01*
G03X10677680I137680J-83120D01*
G02X10695070Y313940I17393J10502D01*
G01X11031430D01*
G02X11048090Y282000I-7J-20318D01*
G03X11104070Y48230I131908J-92000D01*
G02X11094480Y10000I-9593J-17911D01*
G01X556980D01*
G02X544720Y46520I5J20320D01*
G03X522170Y629220I-214721J283477D01*
G02X533140Y666640I10982J17099D01*
G01X742100D01*
X1161120Y1085660D01*
G02X1190100Y1085030I14180J-14556D01*
G03X1289820Y1069120I59900J54970D01*
G03X1306280Y1198680I-39817J70884D01*
G01X1303360Y1201600D01*
Y5263920D01*
X1866080Y5826640D01*
X2132130D01*
G02X2146680Y5792140I-6J-20321D01*
G01X1746640Y5392100D01*
Y1201600D01*
X1743720Y1198670D01*
G03X1856280I56280J-58670D01*
G01X1853360Y1201600D01*
Y5347900D01*
X2252100Y5746640D01*
X4472100D01*
X4593360Y5867900D01*
Y6237900D01*
X4662100Y6306640D01*
X5502900D01*
G02X5517270Y6271950I0J-20321D01*
G01X4951050Y5705740D01*
X2301050D01*
X2064260Y5468950D01*
Y3591050D01*
X2151050Y3504260D01*
X2173940D01*
Y2557390D01*
G03X2306060I66060J-47390D01*
G01Y3504260D01*
X2328950D01*
X2415740Y3591050D01*
Y5251050D01*
X2568950Y5404260D01*
X5122320D01*
X5437740Y5088840D01*
Y5011190D01*
G03X5569860I66060J-47390D01*
G01Y5143560D01*
X5234050Y5479370D01*
X5648950Y5894260D01*
X5761050D01*
G03X6108950I173950J15740D01*
G01X7634260D01*
G02X7641450Y5876920I2J-10160D01*
G01X7629480Y5864940D01*
Y5244540D01*
G02X7594980Y5229990I-20320J4D01*
G03X7479370Y5228320I-56979J-57991D01*
G01X7476400Y5225360D01*
X7465880D01*
G02X7448710Y5256540I3J20319D01*
G03X7459260Y5318100I-68710J43459D01*
G02X7473040Y5342030I19809J4526D01*
G03X7516730Y5373560I-23044J77966D01*
G03X7449040Y5501290I-66729J46438D01*
G03X7408500Y5489910I953J-81293D01*
G01X7407640Y5489400D01*
X7397690Y5485890D01*
G03X7386670Y5480760I21175J-59888D01*
G01X7384290Y5479360D01*
X6839230D01*
X6795290Y5523280D01*
X6795240Y5523330D01*
G03X6612660Y5538880I-100242J-97330D01*
G02X6580720Y5555550I-11619J16671D01*
G01Y5565720D01*
X6301280D01*
Y5361740D01*
X6091640Y5152100D01*
Y1392900D01*
X6302900Y1181640D01*
X6304980D01*
G02X6314900Y1169280I0J-10161D01*
G01X6314430Y1167200D01*
X6313990Y1166220D01*
G03X6355980Y997120I127011J-58225D01*
G02Y964880I-12364J-16120D01*
G03X6551880Y768980I85020J-110880D01*
G02X6584120I16120J-12364D01*
G03X6780020Y964880I110880J85020D01*
G02Y997120I12364J16120D01*
G03X6826740Y1154550I-85019J110878D01*
G02X6845900Y1181640I19158J6771D01*
G01X7962900D01*
X8000330Y1144210D01*
G02X7984950Y1109550I-14370J-14366D01*
G03X7867120Y1055020I-6951J-139549D01*
G02X7834880I-16120J12364D01*
G03X7641970Y1083100I-110874J-85021D01*
G02X7609720Y1099550I-11929J16451D01*
G01Y1109720D01*
X7330280D01*
Y830280D01*
X7609720D01*
Y840450D01*
G02X7641970Y856900I20321J-1D01*
G03X7669970Y841150I82044J113092D01*
G02X7673090Y805310I-7858J-18740D01*
G03X7812430Y822030I86910J-135311D01*
G02X7806980Y857590I6620J19212D01*
G03X7834880Y884980I-82970J112419D01*
G02X7867120I16120J-12364D01*
G03X8088880I110880J85020D01*
G02X8121120I16120J-12364D01*
G03X8342880I110880J85020D01*
G02X8375120I16120J-12364D01*
G03X8596880I110880J85020D01*
G02X8629120I16120J-12364D01*
G03X8850880I110880J85020D01*
G02X8883120I16120J-12364D01*
G03X9104880I110880J85020D01*
G02X9137120I16120J-12364D01*
G03X9358880I110880J85020D01*
G02X9391120I16120J-12364D01*
G03X9612880I110880J85020D01*
G02X9645120I16120J-12364D01*
G03X9866880I110880J85020D01*
G02X9899120I16120J-12364D01*
G03X9909390Y873050I110857J85046D01*
G02X9909120Y844590I-14636J-14092D01*
G01X9875350Y810820D01*
X9790000D01*
G03X9638200Y703100I0J-160819D01*
G03X9653800Y564480I151798J-53105D01*
G02X9636590Y533360I-17210J-10801D01*
G01X9296650D01*
G02X9280200Y565610I2J20321D01*
G03X9019800I-130200J94390D01*
G02X9003350Y533360I-16452J-11929D01*
G01X8602100D01*
X8588220Y547240D01*
X8560820Y574650D01*
Y660000D01*
G03X8400000Y499180I-160820J0D01*
G01X8485350D01*
X8495470Y489060D01*
X8503980Y480560D01*
G02X8489430Y446060I-14556J-14179D01*
G01X4772640D01*
X4682640Y356060D01*
X1977360D01*
X1576060Y757360D01*
Y3342610D01*
G03X1443940I-66060J47390D01*
G37*
G36*
G01X434900Y777970D02*
X433890Y854170D01*
X342740Y856230D01*
X345000Y765100D01*
X422200D01*
G03X434900Y777970I0J12701D01*
G37*
G36*
G01X743230Y1161360D02*
X699430Y1205140D01*
X699370Y1205200D01*
G03X684020Y1218880I-100383J-97186D01*
G02Y1251120I12364J16120D01*
G03Y1472880I-85020J110880D01*
G02Y1505120I12364J16120D01*
G03Y1726880I-85020J110880D01*
G02Y1759120I12364J16120D01*
G03Y1980880I-85020J110880D01*
G02Y2013120I12364J16120D01*
G03Y2234880I-85020J110880D01*
G02Y2267120I12364J16120D01*
G03Y2488880I-85020J110880D01*
G02Y2521120I12364J16120D01*
G03X730740Y2678550I-85019J110878D01*
G02X749900Y2705640I19158J6771D01*
G01X1005380D01*
X1019300Y2719550D01*
G02X1036640Y2712360I7180J-7188D01*
G01Y1252100D01*
X945900Y1161360D01*
X743230D01*
G37*
G36*
G01X715740Y1116980D02*
X661850Y1170850D01*
X595820Y1108000D01*
X661850Y1045150D01*
X715740Y1099020D01*
G03Y1116980I-8980J8980D01*
G37*
G36*
G01X440850Y1032960D02*
X433840Y1109160D01*
X342660Y1110140D01*
X345000Y1019100D01*
X428200D01*
G03X440850Y1032960I0J12703D01*
G37*
G36*
G01X510100Y1697200D02*
Y1616000D01*
X601170Y1613680D01*
X599830Y1704860D01*
X523630Y1709870D01*
G03X510100Y1697200I-833J-12670D01*
G37*
G36*
G01Y1947200D02*
Y1870000D01*
X601230Y1867740D01*
X599170Y1958890D01*
X522970Y1959900D01*
G03X510100Y1947200I-169J-12700D01*
G37*
G36*
G01X743230Y5118640D02*
X744100D01*
X956420Y5330960D01*
G02X990920Y5316410I14179J-14556D01*
G01Y2842100D01*
X961180Y2812360D01*
X736350D01*
G02X717410Y2840030I3J20320D01*
G03X663400Y2995490I-118410J45974D01*
G02Y3030510I10299J17510D01*
G03X673520Y3242860I-64399J109485D01*
G02X674470Y3276420I11924J16456D01*
G03X684020Y3504880I-75470J117584D01*
G02Y3537120I12364J16120D01*
G03Y3758880I-85020J110880D01*
G02Y3791120I12364J16120D01*
G03Y4012880I-85020J110880D01*
G02Y4045120I12364J16120D01*
G03Y4266880I-85020J110880D01*
G02Y4299120I12364J16120D01*
G03X674470Y4527580I-85020J110876D01*
G02X673520Y4561140I10974J17104D01*
G03Y4766860I-74520J102860D01*
G02X674470Y4800420I11924J16456D01*
G03X684020Y5028880I-75470J117584D01*
G02Y5061120I12364J16120D01*
G03X699370Y5074800I-85033J110866D01*
G01X699430Y5074860D01*
X743230Y5118640D01*
G37*
G36*
G01X428200Y2720900D02*
X345000D01*
X342660Y2629860D01*
X433840Y2630840D01*
X440850Y2707040D01*
G03X428200Y2720900I-12650J1157D01*
G37*
G36*
G01X660510Y4757820D02*
X597010Y4752810D01*
X594680Y4659340D01*
X687900Y4664000D01*
Y4732500D01*
G03X660510Y4757820I-25398J0D01*
G37*
G36*
G01X687900Y4597500D02*
Y4664000D01*
X594610Y4668590D01*
X597800Y4575140D01*
X661300Y4572130D01*
G03X687900Y4597500I1202J25370D01*
G37*
G36*
G01X706760Y4681960D02*
X661850Y4726850D01*
X592650Y4664000D01*
X661850Y4601150D01*
X706760Y4646040D01*
G03Y4681960I-17960J17960D01*
G37*
G36*
G01X1366640Y5892100D02*
X735540Y5261010D01*
G02X710480Y5258100I-14367J14366D01*
G01X699320Y5269250D01*
X699270Y5269310D01*
G03X684020Y5282880I-100259J-97317D01*
G02Y5315120I12364J16120D01*
G03X516970Y5539100I-85019J110875D01*
G02X484720Y5555550I-11929J16451D01*
G01Y5565720D01*
X447490D01*
X398360Y5614760D01*
Y5642900D01*
X1002100Y6246640D01*
X1318450D01*
G02X1338750Y6227060I-5J-20319D01*
G03X1363730Y6171320I81248J2944D01*
G01X1366640Y6168400D01*
Y5892100D01*
G37*
G36*
G01X715740Y5180980D02*
X661850Y5234850D01*
X595820Y5172000D01*
X661850Y5109150D01*
X715740Y5163020D01*
G03Y5180980I-8980J8980D01*
G37*
G36*
G01X337190Y5588420D02*
X263530Y5514900D01*
X345000Y5422820D01*
X426470Y5514900D01*
X352810Y5588420D01*
G03X337190I-7810J-10020D01*
G37*
G36*
G01X1241020Y1174120D02*
X1228460Y1161540D01*
X1250000Y1136820D01*
X1271540Y1161540D01*
X1258980Y1174120D01*
G03X1241020I-8980J-8980D01*
G37*
G36*
G01X1473360Y5892530D02*
Y6168400D01*
X1476270Y6171320D01*
G03X1501250Y6227060I-56268J58684D01*
G02X1521550Y6246640I20305J-739D01*
G01X1538400D01*
X1541370Y6243680D01*
G03X1679460Y6282800I58631J56321D01*
G03X1661600Y6353060I-79457J17202D01*
G02X1676990Y6386640I15396J13261D01*
G01X1967470D01*
G02X1981830Y6351950I-7J-20320D01*
G01X1508050Y5878170D01*
G02X1473360Y5892530I-14370J14367D01*
G37*
G36*
G01X1428980Y6195880D02*
X1441540Y6208460D01*
X1420000Y6233180D01*
X1398460Y6208460D01*
X1411020Y6195880D01*
G03X1428980I8980J8980D01*
G37*
G36*
G01X1454880Y6664560D02*
X1438810Y6673620D01*
X1416850Y6649610D01*
X1441540Y6628460D01*
X1457620Y6644520D01*
G03X1454880Y6664560I-8980J8979D01*
G37*
G36*
G01X1791020Y1174120D02*
X1778460Y1161540D01*
X1800000Y1136820D01*
X1821540Y1161540D01*
X1808980Y1174120D01*
G03X1791020I-8980J-8980D01*
G37*
G36*
G01X2170000Y3550000D02*
X2110000Y3610000D01*
Y5450000D01*
X2320000Y5660000D01*
X4970000D01*
X5589280Y6279280D01*
X5593920Y6278930D01*
G03X5641350Y6290000I6085J81071D01*
G01X6264540D01*
X6347900Y6206640D01*
X7582100D01*
X7665460Y6290000D01*
X7870000D01*
X7900000Y6260000D01*
Y6135460D01*
X7704540Y5940000D01*
X6107260D01*
X6105490Y5947950D01*
G03X5764510I-170490J-37950D01*
G01X5762740Y5940000D01*
X5630000D01*
X5140000Y5450000D01*
X2550000D01*
X2370000Y5270000D01*
Y3610000D01*
X2310000Y3550000D01*
X2170000D01*
G37*
G36*
G01X1942830Y5968050D02*
X2011420Y6036640D01*
X4291850D01*
G02X4311470Y6011060I-5J-20318D01*
G03X4314070Y5960940I78529J-21054D01*
G02X4295090Y5933360I-18978J-7261D01*
G01X1957200D01*
G02X1942830Y5968050I-3J20320D01*
G37*
G36*
G01X1565880Y6291020D02*
X1578460Y6278460D01*
X1603180Y6300000D01*
X1578460Y6321540D01*
X1565880Y6308980D01*
G03Y6291020I8980J-8980D01*
G37*
G36*
G01X1634120Y6598980D02*
X1621540Y6611540D01*
X1596820Y6590000D01*
X1621540Y6568460D01*
X1634120Y6581020D01*
G03Y6598980I-8980J8980D01*
G37*
G36*
G01X4355880Y5871020D02*
X4368460Y5858460D01*
X4393180Y5880000D01*
X4368460Y5901540D01*
X4355880Y5888980D01*
G03Y5871020I8980J-8980D01*
G37*
G36*
G01X4407780Y6020480D02*
X4390000D01*
X4387750Y5987750D01*
X4420480Y5990000D01*
Y6007780D01*
G03X4407780Y6020480I-12700J0D01*
G37*
G36*
G01X4355880Y6281020D02*
X4368460Y6268460D01*
X4393180Y6290000D01*
X4368460Y6311540D01*
X4355880Y6298980D01*
G03Y6281020I8980J-8980D01*
G37*
G36*
G01Y6181020D02*
X4368460Y6168460D01*
X4393180Y6190000D01*
X4368460Y6211540D01*
X4355880Y6198980D01*
G03Y6181020I8980J-8980D01*
G37*
G36*
G01Y6081020D02*
X4368460Y6068460D01*
X4393180Y6090000D01*
X4368460Y6111540D01*
X4355880Y6098980D01*
G03Y6081020I8980J-8980D01*
G37*
G36*
G01X9571480Y7840540D02*
X9506030D01*
G03X9396340Y7785840I1190J-139718D01*
G02X9364100I-16120J12364D01*
G03X9142340I-110880J-85020D01*
G02X9110100I-16120J12364D01*
G03X8867480Y7654270I-110882J-85014D01*
G02X8848320Y7627180I-19158J-6771D01*
G01X8771720D01*
X8608100Y7463560D01*
G02X8573890Y7473570I-14364J14371D01*
G03X8525590Y7553710I-142665J-31358D01*
G02Y7584730I13131J15510D01*
G03X8319730Y7790590I-94370J111490D01*
G02X8288710I-15510J13131D01*
G03X8065730I-111490J-94370D01*
G02X8034710I-15510J13131D01*
G03X7804700Y7781600I-111492J-94370D01*
G02X7772480Y7780620I-16486J11881D01*
G03X7584820Y7592960I-103260J-84400D01*
G02X7583840Y7560740I-12861J-15734D01*
G03X7780710Y7347850I85377J-118520D01*
G02X7811730I15510J-13131D01*
G03X8034710I111490J94370D01*
G02X8065730I15510J-13131D01*
G03X8288710I111490J94370D01*
G02X8319730I15510J-13131D01*
G03X8399870Y7299550I111498J94365D01*
G02X8409880Y7265340I-4361J-19846D01*
G01X7507900Y6363360D01*
X6412100D01*
X6232100Y6543360D01*
X5907870D01*
G02X5893510Y6578050I7J20320D01*
G01X7212100Y7896640D01*
X9578530D01*
G02X9593080Y7862140I-6J-20321D01*
G01X9571480Y7840540D01*
G37*
G36*
G01X5565880Y6351020D02*
X5578460Y6338460D01*
X5603180Y6360000D01*
X5578460Y6381540D01*
X5565880Y6368980D01*
G03Y6351020I8980J-8980D01*
G37*
G36*
G01X6364790Y3023820D02*
X6349210Y3033380D01*
X6326840Y3009660D01*
X6351540Y2988460D01*
X6367120Y3004020D01*
G03X6364790Y3023820I-8980J8980D01*
G37*
G36*
G01X6513830Y3249440D02*
X6437630Y3228430D01*
X6439040Y3137500D01*
X6529900Y3140000D01*
Y3237200D01*
G03X6513830Y3249440I-12696J0D01*
G37*
G36*
G01X6530900Y3571970D02*
X6529890Y3648170D01*
X6438740Y3650230D01*
X6441000Y3559100D01*
X6518200D01*
G03X6530900Y3571970I0J12701D01*
G37*
G36*
G01X6529900Y3822800D02*
Y3902000D01*
X6438800Y3904290D01*
X6440500Y3813120D01*
X6516700Y3810110D01*
G03X6529900Y3822800I500J12690D01*
G37*
G36*
G01X6516370Y4249870D02*
X6440170Y4244860D01*
X6438830Y4153680D01*
X6529900Y4156000D01*
Y4237200D01*
G03X6516370Y4249870I-12697J0D01*
G37*
G36*
G01X6517200Y5260900D02*
X6441000D01*
X6438750Y5169750D01*
X6529900Y5172000D01*
Y5248200D01*
G03X6517200Y5260900I-12700J0D01*
G37*
G36*
G01X6294120Y5053980D02*
X6281540Y5066540D01*
X6256820Y5045000D01*
X6281540Y5023460D01*
X6294120Y5036020D01*
G03Y5053980I-8980J8980D01*
G37*
G36*
G01X11488700Y1539330D02*
Y1534160D01*
X11353640Y1399100D01*
Y1120900D01*
G02X11326550Y1101740I-20319J-2D01*
G03X11169120Y1055020I-46552J-131739D01*
G02X11136880I-16120J12364D01*
G03X10915120I-110880J-85020D01*
G02X10882880I-16120J12364D01*
G03X10661120I-110880J-85020D01*
G02X10628880I-16120J12364D01*
G03X10407120I-110880J-85020D01*
G02X10374880I-16120J12364D01*
G03X10153120I-110880J-85020D01*
G02X10120880I-16120J12364D01*
G03X9899120I-110880J-85020D01*
G02X9866880I-16120J12364D01*
G03X9645120I-110880J-85020D01*
G02X9612880I-16120J12364D01*
G03X9391120I-110880J-85020D01*
G02X9358880I-16120J12364D01*
G03X9137120I-110880J-85020D01*
G02X9104880I-16120J12364D01*
G03X8883120I-110880J-85020D01*
G02X8850880I-16120J12364D01*
G03X8629120I-110880J-85020D01*
G02X8596880I-16120J12364D01*
G03X8375120I-110880J-85020D01*
G02X8342880I-16120J12364D01*
G03X8241250Y1109420I-110882J-85017D01*
G01X8240410Y1109470D01*
X8169150Y1126320D01*
X8007100Y1288360D01*
X6845900D01*
G02X6826740Y1315450I-2J20319D01*
G03X6780020Y1472880I-131739J46552D01*
G02Y1505120I12364J16120D01*
G03Y1726880I-85020J110880D01*
G02Y1759120I12364J16120D01*
G03X6795370Y1772800I-85033J110866D01*
G01X6795430Y1772860D01*
X6839230Y1816640D01*
X11567900D01*
X11633620Y1750920D01*
X11776410D01*
G02X11790960Y1716420I-6J-20321D01*
G01X11667900Y1593360D01*
X11631600D01*
X11628680Y1596270D01*
G03X11488700Y1539370I-58682J-56270D01*
G01Y1539330D01*
G37*
G36*
G01X6606100Y1451200D02*
Y1362000D01*
X6697060Y1359590D01*
X6697130Y1450710D01*
X6620940Y1463720D01*
G03X6606100Y1451200I-2139J-12520D01*
G37*
G36*
G01X6839230Y2070640D02*
X11393900D01*
X11506680Y1957860D01*
G02X11492130Y1923360I-14556J-14179D01*
G01X6839230D01*
X6795430Y1967140D01*
X6795370Y1967200D01*
G03X6780020Y1980880I-100383J-97186D01*
G02Y2013120I12364J16120D01*
G03X6795370Y2026800I-85033J110866D01*
G01X6795430Y2026860D01*
X6839230Y2070640D01*
G37*
G36*
G01Y2324640D02*
X11377900D01*
X11648280Y2054260D01*
Y2005860D01*
G02X11615650Y1999820I-18450J8513D01*
G01X11438100Y2177360D01*
X6839230D01*
X6795430Y2221140D01*
X6795370Y2221200D01*
G03X6780020Y2234880I-100383J-97186D01*
G02Y2267120I12364J16120D01*
G03X6795370Y2280800I-85033J110866D01*
G01X6795430Y2280860D01*
X6839230Y2324640D01*
G37*
G36*
G01X6811740Y1878980D02*
X6757850Y1932850D01*
X6691820Y1870000D01*
X6757850Y1807150D01*
X6811740Y1861020D01*
G03Y1878980I-8980J8980D01*
G37*
G36*
G01Y2132980D02*
X6757850Y2186850D01*
X6691820Y2124000D01*
X6757850Y2061150D01*
X6811740Y2115020D01*
G03Y2132980I-8980J8980D01*
G37*
G36*
G01X8474160Y3038700D02*
X8480650D01*
G03X8507970Y3043660I-650J81298D01*
G03X8544230Y3070160I-27975J76336D01*
G02X8575770I15770J-12822D01*
G03X8712890Y3083990I64231J49840D01*
G03X8639370Y3201300I-72888J36013D01*
G01X8634160D01*
X8515100Y3320360D01*
X6845900D01*
G02X6826740Y3347450I-2J20319D01*
G03Y3440550I-131740J46550D01*
G02X6845900Y3467640I19158J6771D01*
G01X8147760D01*
X8832140Y4152020D01*
G02X8866640Y4137470I14179J-14556D01*
G01Y3031600D01*
X8863720Y3028670D01*
G03X8847440Y3006680I56273J-58682D01*
G03X8892540Y2893480I72558J-36676D01*
G03X8991320Y3009040I27463J76523D01*
G02X9007170Y3039020I17823J9757D01*
G03X9063250Y3068920I-7166J80983D01*
G03X9056280Y3178670I-63250J51079D01*
G01X9053360Y3181600D01*
Y4288400D01*
X9056280Y4291320D01*
G03X9000510Y4431300I-56276J58679D01*
G03X8914670Y4501120I-80508J-11303D01*
G02X8893360Y4521420I-988J20298D01*
G01Y6287900D01*
X9209040Y6603570D01*
G02X9242570Y6595210I14179J-14553D01*
G03X9378680Y6563720I77432J24787D01*
G01X9381600Y6566640D01*
X10896900D01*
X11196640Y6266900D01*
Y5397900D01*
X11397900Y5196640D01*
X11658710D01*
G02X11675120Y5164340I-2J-20320D01*
G03X11702980Y4971120I112879J-82343D01*
G02Y4938880I-12364J-16120D01*
G03Y4717120I85020J-110880D01*
G02Y4684880I-12364J-16120D01*
G03Y4463120I85020J-110880D01*
G02Y4430880I-12364J-16120D01*
G03X11847650Y4193650I85011J-110885D01*
G02X11876640Y4175280I8671J-18376D01*
G01Y3912720D01*
G02X11847650Y3894350I-20319J6D01*
G03X11702980Y3657120I-59659J-126345D01*
G02Y3624880I-12364J-16120D01*
G03Y3403120I85020J-110880D01*
G02Y3370880I-12364J-16120D01*
G03Y3149120I85020J-110880D01*
G02Y3116880I-12364J-16120D01*
G03Y2895120I85020J-110880D01*
G02Y2862880I-12364J-16120D01*
G03Y2641120I85020J-110880D01*
G02Y2608880I-12364J-16120D01*
G03Y2387120I85020J-110880D01*
G02Y2354880I-12364J-16120D01*
G03X11648550Y2252670I85022J-110875D01*
G02X11614090Y2239370I-20282J1258D01*
G01X11422100Y2431360D01*
X6839230D01*
X6795430Y2475140D01*
X6795370Y2475200D01*
G03X6780020Y2488880I-100383J-97186D01*
G02Y2521120I12364J16120D01*
G03X6829260Y2670690I-85019J110879D01*
G02X6848780Y2696640I19523J5631D01*
G01X10352100D01*
X10993360Y3337900D01*
Y4348400D01*
X10996280Y4351320D01*
G03X10937100Y4491250I-56275J58679D01*
G02X10916060Y4511550I-721J20306D01*
G01Y5174260D01*
X10958950D01*
X10983260Y5198570D01*
X10983520Y5198800D01*
X10983540Y5198820D01*
G03X10991180Y5206460I-53540J61180D01*
G01X10991200Y5206480D01*
X10991430Y5206740D01*
X11025740Y5241050D01*
Y5908950D01*
X10888950Y6045740D01*
X10181400D01*
X10177910Y6046360D01*
G03X10122090I-27910J-76360D01*
G01X10120400Y6045740D01*
X10081400D01*
X10077910Y6046360D01*
G03X10022090I-27910J-76360D01*
G01X10020400Y6045740D01*
X9981400D01*
X9977910Y6046360D01*
G03X9922090I-27910J-76360D01*
G01X9920400Y6045740D01*
X9901050D01*
X9854260Y5998950D01*
Y5891050D01*
X9911050Y5834260D01*
X9968600D01*
X9972090Y5833640D01*
G03X10027910I27910J76360D01*
G01X10029600Y5834260D01*
X10068600D01*
X10072090Y5833640D01*
G03X10127910I27910J76360D01*
G01X10129600Y5834260D01*
X10701050D01*
X10764260Y5771050D01*
Y5241050D01*
X10773850Y5231460D01*
X10774630Y5229540D01*
G03X10783940Y5212610I75386J30431D01*
G01Y4157390D01*
G03X10863060Y4029760I66060J-47387D01*
G02X10886640Y4009700I3259J-20058D01*
G01Y3382100D01*
X10307900Y2803360D01*
X6853100D01*
X6834720Y2821740D01*
Y2885000D01*
G03X6826740Y2932550I-139719J997D01*
G02X6845900Y2959640I19158J6771D01*
G01X8395100D01*
X8474160Y3038700D01*
G37*
G36*
G01X6783900Y2809800D02*
Y2886000D01*
X6692750Y2888250D01*
X6695000Y2797100D01*
X6771200D01*
G03X6783900Y2809800I0J12700D01*
G37*
G36*
G01X6811740Y2386980D02*
X6757850Y2440850D01*
X6691820Y2378000D01*
X6757850Y2315150D01*
X6811740Y2369020D01*
G03Y2386980I-8980J8980D01*
G37*
G36*
G01X8398700Y3119330D02*
Y3114160D01*
X8350900Y3066360D01*
X6832350D01*
G02X6813410Y3094030I3J20320D01*
G03Y3185970I-118410J45970D01*
G02X6832350Y3213640I18943J7350D01*
G01X8409640D01*
G02X8423820Y3178770I-2J-20319D01*
G03X8413860Y3167270I56205J-58742D01*
G03X8398700Y3119370I66137J-47281D01*
G01Y3119330D01*
G37*
G36*
G01X6802760Y3157960D02*
X6757850Y3202850D01*
X6688650Y3140000D01*
X6757850Y3077150D01*
X6802760Y3122040D01*
G03Y3157960I-17960J17960D01*
G37*
G36*
G01X8706640Y6242130D02*
Y4242100D01*
X8292900Y3828360D01*
X6845900D01*
G02X6826740Y3855450I-2J20319D01*
G03X6834720Y3902900I-131739J46551D01*
G01Y3942960D01*
G02X6852110Y3952780I17396J-10499D01*
G01X7772900D01*
X8039080Y4218960D01*
Y5333620D01*
X8222100Y5516640D01*
X8254750D01*
X8256820Y5510710D01*
G03X8356910Y5458630I77067J25892D01*
G03X8395940Y5589140I-23014J77974D01*
G01X8394810Y5590470D01*
X8392280Y5597140D01*
X8394810Y5603820D01*
X8395940Y5605150D01*
G03X8402800Y5700830I-62049J52535D01*
G03X8254880Y5676850I-68910J-43140D01*
G01X8253000Y5669080D01*
X8158960D01*
X7907860Y5417980D01*
G02X7873360Y5432530I-14179J14556D01*
G01Y5457900D01*
X8671950Y6256490D01*
G02X8706640Y6242130I14370J-14367D01*
G37*
G36*
G01X6783900Y4079800D02*
Y4156000D01*
X6692750Y4158250D01*
X6695000Y4067100D01*
X6771200D01*
G03X6783900Y4079800I0J12700D01*
G37*
G36*
G01X6771200Y3990900D02*
X6695000D01*
X6692750Y3899750D01*
X6783900Y3902000D01*
Y3978200D01*
G03X6771200Y3990900I-12700J0D01*
G37*
G36*
G01X6826740Y4617450D02*
G03Y4710550I-131740J46550D01*
G02X6845900Y4737640I19158J6771D01*
G01X7603100D01*
X7686230Y4820770D01*
G02X7720920Y4806400I14370J-14367D01*
G01Y4696380D01*
X7614900Y4590360D01*
X6845900D01*
G02X6826740Y4617450I-2J20319D01*
G37*
G36*
G01X7886640Y4332130D02*
Y4282100D01*
X7709760Y4105220D01*
X6852110D01*
G02X6834720Y4115040I6J20319D01*
G01Y4155100D01*
G03X6826740Y4202550I-139719J899D01*
G02X6845900Y4229640I19158J6771D01*
G01X7735100D01*
X7851950Y4346490D01*
G02X7886640Y4332130I14370J-14367D01*
G37*
G36*
G01X6811740Y5180980D02*
X6757850Y5234850D01*
X6691820Y5172000D01*
X6757850Y5109150D01*
X6811740Y5163020D01*
G03Y5180980I-8980J8980D01*
G37*
G36*
G01Y4926980D02*
X6757850Y4980850D01*
X6691820Y4918000D01*
X6757850Y4855150D01*
X6811740Y4909020D01*
G03Y4926980I-8980J8980D01*
G37*
G36*
G01Y5434980D02*
X6757850Y5488850D01*
X6691820Y5426000D01*
X6757850Y5363150D01*
X6811740Y5417020D01*
G03Y5434980I-8980J8980D01*
G37*
G36*
G01X7503880Y5163020D02*
X7516460Y5150460D01*
X7541180Y5172000D01*
X7516460Y5193540D01*
X7503880Y5180980D01*
G03Y5163020I8980J-8980D01*
G37*
G36*
G01X7345880Y5291020D02*
X7358460Y5278460D01*
X7383180Y5300000D01*
X7358460Y5321540D01*
X7345880Y5308980D01*
G03Y5291020I8980J-8980D01*
G37*
G36*
G01X7344830Y5033340D02*
X7362410Y5025780D01*
X7383130Y5050520D01*
X7358460Y5071540D01*
X7340880Y5053980D01*
G03X7344830Y5033340I8980J-8979D01*
G37*
G36*
G01X8344160Y6428700D02*
X8350670D01*
G03X8268700Y6509370I-670J81300D01*
G01Y6504160D01*
X7980240Y6215700D01*
G02X7945740Y6230250I-14179J14556D01*
G01Y6278950D01*
X7888950Y6335740D01*
X7760250D01*
G02X7745700Y6370240I6J20321D01*
G01X8172100Y6796640D01*
X8898400D01*
X8901330Y6793720D01*
G03Y6906280I58670J56280D01*
G01X8898400Y6903360D01*
X8247870D01*
G02X8233510Y6938050I7J20320D01*
G01X8815920Y7520460D01*
X8861870D01*
G02X8880810Y7492790I-3J-20320D01*
G03X9102080Y7372300I118410J-45967D01*
G02X9135640Y7371350I16456J-11924D01*
G03X9364100Y7361800I117584J75470D01*
G02X9396340I16120J-12364D01*
G03X9410020Y7346450I110866J85033D01*
G01X9410080Y7346390D01*
X9453860Y7302590D01*
Y7189320D01*
X8434090Y6169560D01*
G02X8405780Y6169140I-14371J14365D01*
G03X8404860Y6170000I-55975J-58958D01*
G02X8404770Y6199920I13707J15001D01*
G03X8375030Y6337350I-54771J60080D01*
G03X8268700Y6259370I-25032J-77351D01*
G01Y6254160D01*
X7770700Y5756160D01*
G02X7736200Y5770710I-14179J14556D01*
G01Y5820740D01*
X8344160Y6428700D01*
G37*
G36*
G01X7409880Y5417020D02*
X7428460Y5398460D01*
X7453120Y5419400D01*
X7433200Y5444530D01*
X7414620Y5437970D01*
G03X7409880Y5417020I4240J-11971D01*
G37*
G36*
G01X8510000Y562700D02*
Y660000D01*
X8397750Y662250D01*
X8400000Y550000D01*
X8497300D01*
G03X8510000Y562700I0J12700D01*
G37*
G36*
G01X8143100Y1064200D02*
Y970000D01*
X8234000Y967530D01*
X8234920Y1058550D01*
X8158720Y1076560D01*
G03X8143100Y1064200I-2920J-12360D01*
G37*
G36*
G01X8316110Y5627210D02*
X8333890D01*
X8336140Y5659940D01*
X8303410Y5657690D01*
Y5639910D01*
G03X8316110Y5627210I12700J0D01*
G37*
G36*
G01X8303410Y5554380D02*
Y5536600D01*
X8336140Y5534350D01*
X8333890Y5567080D01*
X8316110D01*
G03X8303410Y5554380I0J-12700D01*
G37*
G36*
G01X8332220Y6229520D02*
X8350000D01*
X8352250Y6262250D01*
X8319520Y6260000D01*
Y6242220D01*
G03X8332220Y6229520I12700J0D01*
G37*
G36*
G01Y6479520D02*
X8350000D01*
X8352250Y6512250D01*
X8319520Y6510000D01*
Y6492220D01*
G03X8332220Y6479520I12700J0D01*
G37*
G36*
G01Y6079520D02*
X8350000D01*
X8352250Y6112250D01*
X8319520Y6110000D01*
Y6092220D01*
G03X8332220Y6079520I12700J0D01*
G37*
G36*
G01X8911020Y3004120D02*
X8898460Y2991540D01*
X8920000Y2966820D01*
X8941540Y2991540D01*
X8928980Y3004120D01*
G03X8911020I-8980J-8980D01*
G37*
G36*
G01X8991020Y3154120D02*
X8978460Y3141540D01*
X9000000Y3116820D01*
X9021540Y3141540D01*
X9008980Y3154120D01*
G03X8991020I-8980J-8980D01*
G37*
G36*
G01X8462220Y3089520D02*
X8480000D01*
X8482250Y3122250D01*
X8449520Y3120000D01*
Y3102220D01*
G03X8462220Y3089520I12700J0D01*
G37*
G36*
G01X8609520Y3137780D02*
Y3120000D01*
X8642250Y3117750D01*
X8640000Y3150480D01*
X8622220D01*
G03X8609520Y3137780I0J-12700D01*
G37*
G36*
G01X8928980Y4385880D02*
X8941540Y4398460D01*
X8920000Y4423180D01*
X8898460Y4398460D01*
X8911020Y4385880D01*
G03X8928980I8980J8980D01*
G37*
G36*
G01X9008980Y4315880D02*
X9021540Y4328460D01*
X9000000Y4353180D01*
X8978460Y4328460D01*
X8991020Y4315880D01*
G03X9008980I8980J8980D01*
G37*
G36*
G01X8925880Y6841020D02*
X8938460Y6828460D01*
X8963180Y6850000D01*
X8938460Y6871540D01*
X8925880Y6858980D01*
G03Y6841020I8980J-8980D01*
G37*
G36*
G01X9354120Y6628980D02*
X9341540Y6641540D01*
X9316820Y6620000D01*
X9341540Y6598460D01*
X9354120Y6611020D01*
G03Y6628980I-8980J8980D01*
G37*
G36*
G01X10083240Y6876640D02*
X10651560D01*
X10820150Y6708050D01*
G02X10805790Y6673360I-14367J-14370D01*
G01X9381600D01*
X9378680Y6676280D01*
G03X9344790Y6697430I-58670J-56284D01*
G02X9336430Y6730960I6193J19351D01*
G01X9936420Y7330960D01*
G02X9970920Y7316410I14179J-14556D01*
G01Y6988960D01*
X10083240Y6876640D01*
G37*
G36*
G01X9583420Y7789720D02*
X9507220D01*
X9504970Y7698570D01*
X9596120Y7700820D01*
Y7777020D01*
G03X9583420Y7789720I-12700J0D01*
G37*
G36*
G01X9516200Y7330080D02*
X9570070Y7383970D01*
X9507220Y7450000D01*
X9444370Y7383970D01*
X9498240Y7330080D01*
G03X9516200I8980J8980D01*
G37*
G36*
G01X9164320Y7532980D02*
Y7446820D01*
X9255320Y7444440D01*
X9254860Y7535600D01*
X9178670Y7545570D01*
G03X9164320Y7532980I-1652J-12590D01*
G37*
G36*
G01X9950820Y650000D02*
Y735350D01*
X9963090Y747630D01*
X9972100Y756640D01*
X10395360D01*
G02X10412810Y725910I0J-20320D01*
G03X10418490Y565300I127190J-75907D01*
G02X10401820Y533360I-16671J-11619D01*
G01X9943410D01*
G02X9926200Y564480I0J20319D01*
G03X9948060Y620330I-136200J85513D01*
G03X9950820Y650000I-158060J29667D01*
G37*
G36*
G01X9887300Y760000D02*
X9790000D01*
X9787750Y647750D01*
X9900000Y650000D01*
Y747300D01*
G03X9887300Y760000I-12700J0D01*
G37*
G36*
G01X10850000Y5220000D02*
X10810000Y5260000D01*
Y5790000D01*
X10720000Y5880000D01*
X10024510D01*
X10023660Y5880140D01*
G03X9996340I-13660J-80140D01*
G01X9995490Y5880000D01*
X9930000D01*
X9900000Y5910000D01*
Y5980000D01*
X9920000Y6000000D01*
X10870000D01*
X10980000Y5890000D01*
Y5260000D01*
X10940000Y5220000D01*
X10850000D01*
G37*
G36*
G01X9770200Y7330080D02*
X9824070Y7383970D01*
X9761220Y7450000D01*
X9698370Y7383970D01*
X9752240Y7330080D01*
G03X9770200I8980J8980D01*
G37*
G36*
G01X11467940Y813430D02*
Y621360D01*
X11292640Y446060D01*
X10970700D01*
G02X10950570Y469100I5J20318D01*
G03X10811320Y536270I-80567J10901D01*
G01X10808400Y533360D01*
X10678180D01*
G02X10661510Y565300I1J20321D01*
G03X10667190Y725910I-121510J84703D01*
G02X10684640Y756640I17450J10410D01*
G01X11035360D01*
G02X11052810Y725910I0J-20320D01*
G03X11307190I127190J-75910D01*
G02X11324640Y756640I17450J10410D01*
G01X11362100D01*
X11433440Y827980D01*
G02X11467940Y813430I14179J-14556D01*
G37*
G36*
G01X10835880Y471020D02*
X10848460Y458460D01*
X10873180Y480000D01*
X10848460Y501540D01*
X10835880Y488980D01*
G03Y471020I8980J-8980D01*
G37*
G36*
G01X10948980Y4375880D02*
X10961540Y4388460D01*
X10940000Y4413180D01*
X10918460Y4388460D01*
X10931020Y4375880D01*
G03X10948980I8980J8980D01*
G37*
G36*
G01X11551960Y862240D02*
X11596850Y907150D01*
X11534000Y976350D01*
X11471150Y907150D01*
X11516040Y862240D01*
G03X11551960I17960J17960D01*
G37*
G36*
G01X11604120Y1548980D02*
X11591540Y1561540D01*
X11566820Y1540000D01*
X11591540Y1518460D01*
X11604120Y1531020D01*
G03Y1548980I-8980J8980D01*
G37*
G36*
G01X11552220Y1509520D02*
X11570000D01*
X11572250Y1542250D01*
X11539520Y1540000D01*
Y1522220D01*
G03X11552220Y1509520I12700J0D01*
G37*
G36*
G01X11876900Y2167800D02*
Y2244000D01*
X11785750Y2246250D01*
X11788000Y2155100D01*
X11864200D01*
G03X11876900Y2167800I0J12700D01*
G37*
G36*
G01X11699100Y2066200D02*
Y1990000D01*
X11790250Y1987750D01*
X11788000Y2078900D01*
X11711800D01*
G03X11699100Y2066200I0J-12700D01*
G37*
G36*
G01X12062460Y1835560D02*
X12048460Y1821540D01*
X12069830Y1796830D01*
X12092510Y1820460D01*
X12081380Y1834480D01*
G03X12062460Y1835560I-9942J-7901D01*
G37*
G36*
G01X11876900Y2421800D02*
Y2498000D01*
X11785750Y2500250D01*
X11788000Y2409100D01*
X11864200D01*
G03X11876900Y2421800I0J12700D01*
G37*
G36*
G01X12187960Y3674240D02*
X12232850Y3719150D01*
X12170000Y3788350D01*
X12107150Y3719150D01*
X12152040Y3674240D01*
G03X12187960I17960J17960D01*
G37*
G36*
G01X12152040Y4397760D02*
X12107150Y4352850D01*
X12170000Y4283650D01*
X12232850Y4352850D01*
X12187960Y4397760D01*
G03X12152040I-17960J-17960D01*
G37*
G36*
G01X12341120Y3286180D02*
Y3268400D01*
X12373850Y3266150D01*
X12371600Y3298880D01*
X12353820D01*
G03X12341120Y3286180I0J-12700D01*
G37*
G36*
G01X12375870Y5007730D02*
X12312370Y4987720D01*
X12316160Y4894950D01*
X12408900Y4900000D01*
Y4983500D01*
G03X12375870Y5007730I-25402J0D01*
G37*
G36*
G01X12408900Y4826500D02*
Y4900000D01*
X12315850Y4904810D01*
X12316050Y4811420D01*
X12379550Y4801410D01*
G03X12408900Y4826500I3951J25090D01*
G37*
G36*
G01X12427760Y4917960D02*
X12382850Y4962850D01*
X12313650Y4900000D01*
X12382850Y4837150D01*
X12427760Y4882040D01*
G03Y4917960I-17960J17960D01*
G37*
G36*
G01X12256500Y5065100D02*
X12320000D01*
X12324490Y5158490D01*
X12231100Y5154000D01*
Y5090500D01*
G03X12256500Y5065100I25400J0D01*
G37*
%LPC*%
G75*
G36*
G01X12405020Y5692120D02*
G03Y5659880I12364J-16120D01*
G02X12234980I-85020J-110880D01*
G03Y5692120I-12364J16120D01*
G02X12244530Y5920580I85020J110876D01*
G03X12245480Y5954140I-10974J17104D01*
G02X12255600Y6166490I74519J102865D01*
G03Y6201510I-10299J17510D01*
G02X12384400I64400J109490D01*
G03Y6166490I10299J-17510D01*
G02X12394520Y5954140I-64399J-109485D01*
G03X12395470Y5920580I11924J-16456D01*
G02X12405020Y5692120I-75470J-117584D01*
G37*
G36*
G01X3155740Y6976060D02*
X3322610D01*
G02Y6843940I47390J-66060D01*
G01X2682640D01*
X2483940Y7042640D01*
Y7272610D01*
G02X2616060I66060J47390D01*
G01Y7097360D01*
X2737360Y6976060D01*
X2884730D01*
G03X2891910Y6993400I-6J10159D01*
G01X2884260Y7001050D01*
Y7728950D01*
X2918570Y7763260D01*
X2918800Y7763520D01*
G02X2926480Y7771200I61200J-53520D01*
G01X2926740Y7771430D01*
X2951050Y7795740D01*
X3088950D01*
X3113260Y7771430D01*
X3113520Y7771200D01*
G02X3121200Y7763520I-53520J-61200D01*
G01X3121430Y7763260D01*
X3155740Y7728950D01*
Y6976060D01*
G37*
G36*
G01X5765740Y7461050D02*
X5708950Y7404260D01*
X4021050D01*
X3996740Y7428570D01*
X3996480Y7428800D01*
G02X3988800Y7436480I53520J61200D01*
G01X3988570Y7436740D01*
X3964260Y7461050D01*
Y7628950D01*
X4021050Y7685740D01*
X5708950D01*
X5765740Y7628950D01*
Y7461050D01*
G37*
G36*
G01X4739720Y8189720D02*
Y7910280D01*
X4460280D01*
Y7936510D01*
G03X4427000Y7952160I-20320J-1D01*
G02Y8147840I-81000J97840D01*
G03X4460280Y8163490I12960J15651D01*
G01Y8189720D01*
X4739720D01*
G37*
G36*
G01X3052910Y7921630D02*
X3005840Y7968700D01*
X2999340D01*
G02X2927250Y8013700I659J81300D01*
G02X2972160Y8126380I72748J36295D01*
G02X3050000Y8114110I27847J-76383D01*
G02X3158680Y8106280I50003J-64108D01*
G01X3161600Y8103360D01*
X3676700D01*
X3913360Y7866700D01*
Y7312100D01*
X4254160Y6971300D01*
X4260660D01*
G02X4310940Y6953360I-666J-81296D01*
G02X4340190Y6876580I-50937J-63366D01*
G03X4360300Y6853360I20111J-2901D01*
G01X5037900D01*
X5066640Y6882100D01*
Y6978400D01*
X5063720Y6981330D01*
G02X5176280I56280J58670D01*
G01X5173360Y6978400D01*
Y6837900D01*
X5082100Y6746640D01*
X4227900D01*
X3756640Y7217900D01*
Y7747490D01*
X3582500Y7921630D01*
X3052910D01*
G37*
G36*
G01X4688360Y4673400D02*
Y1782900D01*
X4516820Y1611360D01*
G03X4531370Y1576860I14556J-14179D01*
G01X4986740D01*
X5246640Y1836760D01*
Y4562100D01*
X5288700Y4604160D01*
Y4609370D01*
G02X5400880Y4685210I81298J633D01*
G02X5427190Y4552220I-30881J-75207D01*
G03Y4537780I7152J-7220D01*
G02X5445590Y4450060I-57189J-57786D01*
G02X5426280Y4421330I-75584J29947D01*
G01X5423360Y4418400D01*
Y1797900D01*
X5032100Y1406640D01*
X3407600D01*
X3404670Y1403720D01*
G02X3385490Y1388940I-58660J56288D01*
G02X3326820Y1380990I-39502J71058D01*
G03X3302060Y1361170I-4441J-19828D01*
G01Y561390D01*
G02X3169940I-66060J-47390D01*
G01Y1361170D01*
G03X3145180Y1380990I-20319J-8D01*
G02X3045190Y1468960I-19182J79008D01*
G03X3010770Y1485310I-20241J1794D01*
G01X2989880Y1464420D01*
X2986750Y1450510D01*
X2986680Y1450020D01*
G02X2954100Y1394450I-80686J9970D01*
G02X2871890Y1386200I-48097J65547D01*
G02X2906000Y1541300I34110J73799D01*
G01X2915840D01*
X3007900Y1633360D01*
X4387900D01*
X4581640Y1827100D01*
Y4673400D01*
X4578720Y4676330D01*
G02X4691280I56280J58670D01*
G01X4688360Y4673400D01*
G37*
G54D27*
X2510000Y7830000D03*
X2110000D03*
G54D29*
X3730000Y2790000D03*
X2980000D03*
G54D26*
X11714000Y7500000D03*
X11206000D03*
X10698000D03*
G54D28*
X4405000Y560000D03*
X1105000Y5910000D03*
%LPD*%
G75*
G36*
G01X3380120Y1468980D02*
X3367540Y1481540D01*
X3342820Y1460000D01*
X3367540Y1438460D01*
X3380120Y1451020D01*
G03Y1468980I-8980J8980D01*
G37*
G36*
G01X3143780Y1490480D02*
X3126000D01*
X3123750Y1457750D01*
X3156480Y1460000D01*
Y1477780D01*
G03X3143780Y1490480I-12700J0D01*
G37*
G36*
G01X2927780D02*
X2906000D01*
X2903540Y1457990D01*
X2936160Y1457210D01*
X2940170Y1474990D01*
G03X2927780Y1490480I-12390J2790D01*
G37*
G36*
G01X3110000Y6990000D02*
X3090000Y6970000D01*
X2980000D01*
X2930000Y7020000D01*
Y7710000D01*
X2970000Y7750000D01*
X3070000D01*
X3110000Y7710000D01*
Y6990000D01*
G37*
G36*
G01X3030480Y8032220D02*
Y8050000D01*
X2997750Y8052250D01*
X3000000Y8019520D01*
X3017780D01*
G03X3030480Y8032220I0J12700D01*
G37*
G36*
G01X3134120Y8058980D02*
X3121540Y8071540D01*
X3096820Y8050000D01*
X3121540Y8028460D01*
X3134120Y8041020D01*
G03Y8058980I-8980J8980D01*
G37*
G36*
G01X5720000Y7610000D02*
Y7480000D01*
X5690000Y7450000D01*
X4040000D01*
X4010000Y7480000D01*
Y7610000D01*
X4040000Y7640000D01*
X5690000D01*
X5720000Y7610000D01*
G37*
G36*
G01X4643980Y4700880D02*
X4656540Y4713460D01*
X4635000Y4738180D01*
X4613460Y4713460D01*
X4626020Y4700880D01*
G03X4643980I8980J8980D01*
G37*
G36*
G01X4229520Y6907780D02*
Y6890000D01*
X4262250Y6887750D01*
X4260000Y6920480D01*
X4242220D01*
G03X4229520Y6907780I0J-12700D01*
G37*
G36*
G01X5128980Y7005880D02*
X5141540Y7018460D01*
X5120000Y7043180D01*
X5098460Y7018460D01*
X5111020Y7005880D01*
G03X5128980I8980J8980D01*
G37*
G36*
G01X5378980Y4445880D02*
X5391540Y4458460D01*
X5370000Y4483180D01*
X5348460Y4458460D01*
X5361020Y4445880D01*
G03X5378980I8980J8980D01*
G37*
G36*
G01X5352220Y4579520D02*
X5370000D01*
X5372250Y4612250D01*
X5339520Y4610000D01*
Y4592220D01*
G03X5352220Y4579520I12700J0D01*
G37*
G54D10*
X330000Y330000D03*
Y6930000D03*
X12300000Y330000D03*
Y6930000D03*
G54D20*
G01X2890000Y170000D02*
G03I-50000J0D01*
G01X3690000D02*
G03I-50000J0D01*
G54D11*
X345000Y854000D03*
Y1108000D03*
Y1362000D03*
Y1616000D03*
Y1870000D03*
Y2124000D03*
Y2378000D03*
Y2632000D03*
Y2886000D03*
Y3140000D03*
Y3394000D03*
Y3648000D03*
Y3902000D03*
Y4156000D03*
Y4410000D03*
Y4664000D03*
Y4918000D03*
Y5172000D03*
X599000Y854000D03*
Y1108000D03*
Y1362000D03*
Y1616000D03*
Y1870000D03*
Y2124000D03*
Y2378000D03*
Y2632000D03*
Y2886000D03*
Y3140000D03*
Y3394000D03*
Y3648000D03*
Y3902000D03*
Y4156000D03*
Y4410000D03*
Y4664000D03*
Y4918000D03*
Y5172000D03*
Y5426000D03*
X4346000Y8050000D03*
X6441000Y854000D03*
Y1108000D03*
Y1362000D03*
Y1616000D03*
Y1870000D03*
Y2124000D03*
Y2378000D03*
Y2632000D03*
Y2886000D03*
Y3140000D03*
Y3394000D03*
Y3648000D03*
Y3902000D03*
Y4156000D03*
Y4410000D03*
Y4664000D03*
Y4918000D03*
Y5172000D03*
X6695000Y854000D03*
Y1108000D03*
Y1362000D03*
Y1616000D03*
Y1870000D03*
Y2124000D03*
Y2378000D03*
Y2632000D03*
Y2886000D03*
Y3140000D03*
Y3394000D03*
Y3648000D03*
Y3902000D03*
Y4156000D03*
Y4410000D03*
Y4664000D03*
Y4918000D03*
Y5172000D03*
Y5426000D03*
X7724000Y970000D03*
X8486000D03*
X8232000D03*
X7978000D03*
X8994000D03*
X8740000D03*
X8999220Y7700820D03*
Y7446820D03*
X9756000Y970000D03*
X9502000D03*
X9248000D03*
X9761220Y7700820D03*
Y7446820D03*
X9507220Y7700820D03*
Y7446820D03*
X9253220Y7700820D03*
Y7446820D03*
X10264000Y970000D03*
X10010000D03*
X11026000D03*
X10772000D03*
X10518000D03*
X11534000D03*
X11280000D03*
X11788000D03*
Y2244000D03*
Y1990000D03*
Y2752000D03*
Y2498000D03*
Y3514000D03*
Y3260000D03*
Y3006000D03*
Y3768000D03*
X12170000Y3782000D03*
Y4036000D03*
X11788000Y4574000D03*
Y4320000D03*
X12170000Y4290000D03*
X11788000Y5082000D03*
Y4828000D03*
Y5894000D03*
Y5640000D03*
Y6656000D03*
Y6402000D03*
Y6148000D03*
Y6910000D03*
X12424000Y3782000D03*
Y4036000D03*
Y4290000D03*
X12320000Y4646000D03*
Y5154000D03*
Y4900000D03*
Y6057000D03*
Y5803000D03*
Y5549000D03*
Y6311000D03*
G54D21*
G01X2140000Y7830000D02*
G03I-30000J0D01*
G01X2540000D02*
G03I-30000J0D01*
G54D12*
X345000Y5426000D03*
X4600000Y8050000D03*
X6441000Y5426000D03*
X7470000Y970000D03*
G54D22*
G01X3055000Y2790000D02*
G03I-75000J0D01*
G01X3805000D02*
G03I-75000J0D01*
G54D13*
X158480Y7538710D03*
Y8046710D03*
X747520Y71290D03*
X867520Y721290D03*
Y1491290D03*
X847520Y1751290D03*
X872230Y2610610D03*
X862230Y2380610D03*
X872230Y3180610D03*
X862230Y2910610D03*
X886230Y7090610D03*
X666480Y7538710D03*
Y8046710D03*
X1255520Y71290D03*
X1375520Y721290D03*
X1465520Y441290D03*
X957520D03*
X1337520Y981290D03*
X1375520Y1491290D03*
X1250000Y1140000D03*
X1355520Y1751290D03*
X1380230Y2610610D03*
X1370230Y2380610D03*
X1380230Y3180610D03*
X1370230Y2910610D03*
X1510000Y3390000D03*
X1412230Y3970610D03*
X1422230Y4310610D03*
X928710Y4725520D03*
Y4217520D03*
Y5233520D03*
X1540000Y5970000D03*
X928710Y5741520D03*
X1550000Y6160000D03*
X1420000Y6650000D03*
Y6230000D03*
X1223150Y6743580D03*
X1394230Y7090610D03*
X1174480Y7538710D03*
Y8046710D03*
X1763520Y71290D03*
X1845520Y981290D03*
X2007520Y681290D03*
X1660000Y1520000D03*
X1800000Y1140000D03*
X1660000Y1890000D03*
Y2080000D03*
X2047520Y1661290D03*
X2110000Y2650000D03*
X2100000Y2300000D03*
Y2910000D03*
X2120230Y3110610D03*
X1612230D03*
X2120230Y3310610D03*
X1612230D03*
X1920230Y3970610D03*
X2150000Y3660000D03*
X1930230Y4310610D03*
X1930000Y4730000D03*
X2090000Y5980000D03*
X1720000Y6170000D03*
X1870000Y6320000D03*
X1600000Y6590000D03*
Y6300000D03*
X1731150Y6743580D03*
X1902230Y7090610D03*
X1682480Y7538710D03*
Y8046710D03*
X2271520Y71290D03*
X2515520Y681290D03*
X2555520Y1661290D03*
X2738480Y2098710D03*
Y2518710D03*
X2240000Y2510000D03*
X2718480Y3118710D03*
Y3428710D03*
X2688480Y3868710D03*
X2290000Y3740000D03*
X2190000D03*
Y3590000D03*
X2290000D03*
X2240000Y3660000D03*
X2330000D03*
X2698480Y4248710D03*
X2510000Y5210000D03*
X2500000Y5100000D03*
X2240000Y4850000D03*
Y5330000D03*
X2730000Y5990000D03*
X2410000Y5980000D03*
X2747150Y6743580D03*
X2239150D03*
X2410230Y7090610D03*
X2760000Y7320000D03*
X2550000D03*
X2770000Y8200000D03*
X2937520Y61290D03*
X3023520Y681290D03*
X3236000Y514000D03*
X3355520Y1141290D03*
X2847520D03*
X3236000Y1460000D03*
X3346000D03*
X3126000D03*
X2906000D03*
X3246480Y2098710D03*
Y2518710D03*
X3226480Y3118710D03*
Y3428710D03*
X3196480Y3868710D03*
X3206480Y4248710D03*
X3152230Y4880610D03*
X3240000Y5990000D03*
X3366200Y5556200D03*
X3220000Y6740000D03*
X2980000Y7150000D03*
X3060000D03*
X2980000Y7080000D03*
X3060000D03*
X2980000Y7010000D03*
X3060000D03*
X3370000Y6910000D03*
X3060000Y7570000D03*
X2980000D03*
X3060000Y7640000D03*
X2980000D03*
X3060000Y7710000D03*
X2980000D03*
X2990000Y8200000D03*
X3000000Y8050000D03*
X3100000D03*
X3953520Y61290D03*
X3445520D03*
X3531520Y681290D03*
X3847520Y1341290D03*
X3767520Y1201290D03*
X3927520Y1821290D03*
X3754480Y2098710D03*
Y2518710D03*
X3734480Y3118710D03*
Y3428710D03*
X3704480Y3868710D03*
X3714480Y4248710D03*
X3660230Y4880610D03*
X3780000Y5990000D03*
X3500000Y5980000D03*
X3800000Y6750000D03*
X3500000D03*
X3980000Y7870000D03*
X4050000Y7490000D03*
Y7590000D03*
X3920000Y8190000D03*
X4461520Y61290D03*
X4355520Y1341290D03*
X4275520Y1201290D03*
X4435520Y1821290D03*
X4262480Y2098710D03*
Y2518710D03*
X4242480Y3118710D03*
Y3428710D03*
X4212480Y3868710D03*
X4222480Y4248710D03*
X4635000Y4735000D03*
X4630230Y4870610D03*
X4122230D03*
X4130000Y6000000D03*
X4660000Y6010000D03*
X4390000Y5880000D03*
Y5990000D03*
Y6290000D03*
Y6190000D03*
Y6090000D03*
X4640000Y6890000D03*
Y7240000D03*
X4150000Y6750000D03*
X4260000Y6890000D03*
X4200000Y7870000D03*
X4670000Y7740000D03*
X4450000D03*
X4580000Y7340000D03*
X4340000D03*
X4130000Y7490000D03*
Y7590000D03*
X4140000Y8190000D03*
X4987520Y61290D03*
X5317520Y551290D03*
X5325520Y1371290D03*
X4817520D03*
X4977520Y1221290D03*
X4988710Y2167520D03*
Y2675520D03*
Y3183520D03*
Y3691520D03*
X5022230Y4260610D03*
X4730000Y5790000D03*
X4930000D03*
X5080000Y6010000D03*
X4860000D03*
X5270000Y6840000D03*
X4740000Y6890000D03*
Y7240000D03*
X5170000Y6750000D03*
X5120000Y7040000D03*
X4980000Y7860000D03*
X4760000D03*
X5100000Y7740000D03*
X4880000D03*
X5000000Y7340000D03*
X4800000D03*
X5495520Y61290D03*
X5825520Y551290D03*
X5485520Y1221290D03*
X5608710Y2057520D03*
Y2565520D03*
Y3073520D03*
Y3581520D03*
X5620000Y4700000D03*
X5900000D03*
X5530230Y4260610D03*
X5370000Y4480000D03*
Y4610000D03*
X5810000Y4860000D03*
X5503800Y4963800D03*
X5800000Y5560000D03*
X5400000D03*
X5600000D03*
Y6360000D03*
X5680000Y7160000D03*
Y7050000D03*
Y6930000D03*
X5690000Y6790000D03*
X5830000D03*
X5660000Y7280000D03*
X5760000Y6830000D03*
Y6740000D03*
X5470000Y6840000D03*
Y6740000D03*
X5510000Y7490000D03*
X5590000D03*
X5670000D03*
Y7590000D03*
X6511520Y61290D03*
X6003520D03*
X6357520Y561290D03*
X5958710Y1467520D03*
Y1975520D03*
Y2483520D03*
Y2991520D03*
X6330000Y3010000D03*
X6000000Y4850000D03*
X6260000Y5045000D03*
X6220000Y5710000D03*
X6000000Y5560000D03*
X6450000Y6650000D03*
Y6560000D03*
X6370000D03*
Y6650000D03*
Y6750000D03*
X6350000Y6850000D03*
X6060000Y7410000D03*
Y7290000D03*
X6254230Y8170610D03*
X7057520Y51290D03*
X6865520Y561290D03*
X7150230Y1630610D03*
X6952230Y4180610D03*
X7060000Y4650000D03*
X7130000Y5830000D03*
X7040000Y5580000D03*
X6890000Y5720000D03*
X7060000Y6550000D03*
Y6660000D03*
Y6780000D03*
X6970000Y6940000D03*
X7060000Y6930000D03*
X7050000Y7030000D03*
Y7160000D03*
X6920000D03*
X6790000D03*
X6762230Y8170610D03*
X7565520Y51290D03*
X7477520Y551290D03*
X7634230Y1630610D03*
X7522230Y3130610D03*
X7460230Y4180610D03*
X7600000Y5350000D03*
X7538000Y5172000D03*
X7380000Y5300000D03*
Y5050000D03*
X7590000Y5660000D03*
X7460000Y5820000D03*
X7270000Y5520000D03*
X7260000Y5680000D03*
X7450000Y5420000D03*
X7810000Y6100000D03*
X7760000Y6170000D03*
Y6250000D03*
X7270230Y8170610D03*
X8073520Y51290D03*
X7985520Y551290D03*
X8142230Y1630610D03*
X8030230Y3130610D03*
X8262230Y3980610D03*
X8042230Y4160610D03*
X8124230Y4530610D03*
X8114230Y4950610D03*
X8340000Y5780000D03*
X8333890Y5657690D03*
Y5536600D03*
X8170000Y6510000D03*
X8000000Y6520000D03*
X8010000Y6330000D03*
X8160000Y6190000D03*
X7850000Y6170000D03*
Y6250000D03*
X8350000Y6260000D03*
Y6510000D03*
Y6110000D03*
X8170000Y6730000D03*
X8362230Y8180610D03*
X7854230D03*
X8581520Y51290D03*
X8890000Y1770000D03*
X8920000Y2000000D03*
X8650230Y1630610D03*
X8690230Y2230610D03*
X8660230Y2000610D03*
X8830230Y2870610D03*
X8920000Y2970000D03*
X9000000Y3120000D03*
X8480000D03*
X8640000D03*
X8770230Y3980610D03*
X8652230Y3520610D03*
X8550230Y4160610D03*
X8632230Y4530610D03*
X8920000Y4420000D03*
X9000000Y4350000D03*
X8622230Y4950610D03*
X8940000Y5660000D03*
X8500000Y5780000D03*
X8560000Y6650000D03*
X8650000Y7210000D03*
X8930000Y6730000D03*
X8770000Y6740000D03*
X8960000Y6850000D03*
X8870230Y8180610D03*
X9377520Y41290D03*
X9370000Y1510000D03*
X9150000D03*
X9180000Y1740000D03*
X9570230Y1780610D03*
X9360230Y2010610D03*
X9480230Y2240610D03*
X9720230Y1990610D03*
X9314230Y2870610D03*
X9270230Y2490610D03*
X9120230Y2260610D03*
X9160230Y3520610D03*
X9654230Y4040610D03*
X9170230D03*
X9624230Y4530610D03*
X9140230D03*
X9634230Y4950610D03*
X9130230D03*
X9480000Y5400000D03*
X9310000D03*
X9290000Y5670000D03*
X9500000Y6160000D03*
Y6370000D03*
X9320000Y6620000D03*
X9560000Y6730000D03*
X9220000Y7200000D03*
X9414230Y8190610D03*
X9885520Y41290D03*
X9860000Y1500000D03*
X9964230Y2240610D03*
X10204230Y1990610D03*
X9930230Y1760610D03*
X10330230Y2870610D03*
X10262230Y2490610D03*
X9754230D03*
X9830000Y3390000D03*
X9850000Y3700000D03*
X10162230Y4040610D03*
X10132230Y4530610D03*
X10142230Y4950610D03*
X9850000Y5440000D03*
X9990000Y5400000D03*
X10010000Y5800000D03*
X10150000Y5720000D03*
X10240000Y5790000D03*
X9830000Y5780000D03*
X10100000Y5910000D03*
X10000000D03*
X10150000Y5970000D03*
X10050000D03*
X9950000D03*
X10340000Y6200000D03*
X10150000Y6210000D03*
X10240000Y6430000D03*
X10120000D03*
X10340000Y7190000D03*
X9780000Y7020000D03*
X10290000Y6720000D03*
X9922230Y8190610D03*
X10901520Y41290D03*
X10393520D03*
X10870000Y480000D03*
X10881520Y1361290D03*
X10373520D03*
X10980230Y2240610D03*
X10472230D03*
X10712230Y1990610D03*
X10922230Y1760610D03*
X10414230D03*
X10822230Y2880610D03*
X10770230Y2490610D03*
X10712230Y3410610D03*
X10950230Y3150610D03*
X10442230D03*
X10710000Y3720000D03*
X10670230Y4040610D03*
X10850000Y4110000D03*
X10640230Y4530610D03*
X10940000Y4410000D03*
X10540000Y5390000D03*
X10740000Y4920000D03*
X10750000Y5090000D03*
X10850000Y5340000D03*
X10930000Y5260000D03*
Y5340000D03*
X10850000Y5260000D03*
Y5650000D03*
Y5570000D03*
X10940000Y5650000D03*
X10510000Y6090000D03*
X10520000Y6230000D03*
X10370000Y6440000D03*
X10450000Y6510000D03*
X10640000Y6200000D03*
X10890000Y6460000D03*
X10640000Y6340000D03*
X10690000Y6520000D03*
X10830000Y7030000D03*
X10570000Y6830000D03*
X10400000Y7570000D03*
X10430230Y8190610D03*
X11403520Y291290D03*
X11413520Y51290D03*
X11600000Y1150000D03*
X11570000Y1540000D03*
X11220230Y1990610D03*
X11430230Y1760610D03*
X11330230Y2880610D03*
X11220230Y3410610D03*
X11280000Y3680000D03*
X11560000Y5090000D03*
X11250000Y4830000D03*
X11010000D03*
X11590000Y5630000D03*
X11450000Y5770000D03*
X11530000Y6560000D03*
Y6240000D03*
X11160000Y6230000D03*
X11510000Y7030000D03*
X11110000Y6840000D03*
X11514230Y7860610D03*
X11512230Y8180610D03*
X11004230D03*
X11911520Y291290D03*
X11921520Y51290D03*
X12060000Y860000D03*
X12080000Y1250000D03*
X12070000Y1800000D03*
X12140000Y2520000D03*
X12090000Y5930000D03*
X11980000Y5770000D03*
X12090000Y6180000D03*
X11990000Y6030000D03*
Y6270000D03*
X12022230Y7860610D03*
X12020230Y8180610D03*
X12350000Y2530000D03*
X12330000Y3490000D03*
X12450000Y3460000D03*
X12371600Y3268400D03*
X12530230Y7860610D03*
G54D23*
G01X599000Y1616000D02*
Y1621000D01*
X477000Y1743000D01*
X257000D01*
X130000Y1870000D01*
Y5562120D01*
X129990Y5562130D01*
Y5599990D01*
X1020000Y6490000D01*
X6210000D01*
X6390000Y6310000D01*
X7530000D01*
X8793820Y7573820D01*
X9136180D01*
X9253220Y7456780D01*
Y7446820D01*
G01X599000Y1870000D02*
Y1871000D01*
X473000Y1997000D01*
X233000D01*
X175720Y2054280D01*
Y5581060D01*
X1034660Y6440000D01*
X6190000D01*
X6370000Y6260000D01*
X7560000D01*
X8150000Y6850000D01*
X8960000D01*
G01X345000Y854000D02*
X346000D01*
X480000Y720000D01*
X720000D01*
X1181440Y1181440D01*
Y5282120D01*
X1989320Y6090000D01*
X4390000D01*
G01X599000Y1108000D02*
X968000D01*
X1090000Y1230000D01*
Y5320000D01*
X2060000Y6290000D01*
X4390000D01*
G01X345000Y1108000D02*
X352000D01*
X479000Y981000D01*
X905660D01*
X1135720Y1211060D01*
Y5301060D01*
X2024660Y6190000D01*
X4390000D01*
G01X345000Y2632000D02*
X352000D01*
X479000Y2759000D01*
X983280D01*
X1044280Y2820000D01*
Y5338940D01*
X2075340Y6370000D01*
X4434600D01*
X4470000Y6334600D01*
Y6070000D01*
X4390000Y5990000D01*
G01X599000Y5172000D02*
X722000D01*
X1420000Y5870000D01*
Y6230000D01*
G01X345000Y5426000D02*
Y5665000D01*
X980000Y6300000D01*
X1600000D01*
G01X4390000Y5880000D02*
X1843980D01*
X1250000Y5286020D01*
Y1140000D01*
G01X1267000Y5910000D02*
G03I-160000J0D01*
G01X12371600Y3268400D02*
X12030000Y3610000D01*
Y5229320D01*
X11917880Y5341440D01*
X11457880D01*
X11341440Y5457880D01*
Y6289000D01*
X11341450Y6289010D01*
Y6326870D01*
X10692600Y6975720D01*
X10124280D01*
X10070000Y7030000D01*
Y7834660D01*
X9908940Y7995720D01*
X7171060D01*
X5828840Y6653500D01*
X1423500D01*
X1420000Y6650000D01*
G01X5600000Y6360000D02*
X4640000D01*
X4540000Y6260000D01*
Y5890000D01*
X4450000Y5800000D01*
X2230000D01*
X1800000Y5370000D01*
Y1140000D01*
G01X1600000Y6590000D02*
X5830000D01*
X7190000Y7950000D01*
X9890000D01*
X10024280Y7815720D01*
Y7011060D01*
X10105340Y6930000D01*
X10673660D01*
X11295720Y6307940D01*
Y5438940D01*
X11438940Y5295720D01*
X11898940D01*
X11975720Y5218940D01*
Y2480000D01*
X12071440Y2384280D01*
Y1801440D01*
X12070000Y1800000D01*
G01X5370000Y4480000D02*
Y1820000D01*
X5010000Y1460000D01*
X3346000D01*
G01X3126000D02*
X3189500Y1523500D01*
X5008840D01*
X5300000Y1814660D01*
Y4540000D01*
X5370000Y4610000D01*
G01X4635000Y4735000D02*
Y1805000D01*
X4410000Y1580000D01*
X3030000D01*
X2910000Y1460000D01*
X2906000D01*
G01X3000000Y8050000D02*
X3075010Y7974990D01*
X3604600D01*
X3810000Y7769590D01*
Y7240000D01*
X4250000Y6800000D01*
X5060000D01*
X5120000Y6860000D01*
Y7040000D01*
G01X4260000Y6890000D02*
X3860000Y7290000D01*
Y7844600D01*
X3654600Y8050000D01*
X3100000D01*
G01X4569000Y560000D02*
G03I-160000J0D01*
G01X6093000Y5910000D02*
G03I-160000J0D01*
G01X6441000Y5426000D02*
X6145000Y5130000D01*
Y1415000D01*
X6325000Y1235000D01*
X7985000D01*
X8232000Y988000D01*
Y970000D01*
G01X6695000Y1362000D02*
Y1375000D01*
X6581000Y1489000D01*
X6371000D01*
X6210000Y1650000D01*
Y2370000D01*
X6345000Y2505000D01*
X6515000D01*
X6568000Y2558000D01*
Y2684620D01*
X6493620Y2759000D01*
X6385660D01*
X6260000Y2884660D01*
Y4420000D01*
X6377000Y4537000D01*
X7637000D01*
X7774280Y4674280D01*
Y5534280D01*
X8350000Y6110000D01*
G01X6441000Y2632000D02*
Y2639000D01*
X6200000Y2880000D01*
Y4690000D01*
X6301000Y4791000D01*
X7581000D01*
X7728560Y4938560D01*
Y5638560D01*
X8350000Y6260000D01*
G01X6330000Y3010000D02*
X6333000Y3013000D01*
X8373000D01*
X8480000Y3120000D01*
G01X6441000Y3140000D02*
Y3161000D01*
X6547000Y3267000D01*
X8493000D01*
X8640000Y3120000D01*
G01X6441000Y3648000D02*
X6442000D01*
X6569000Y3521000D01*
X8125660D01*
X8840000Y4235340D01*
Y6310000D01*
X9900000Y7370000D01*
Y7780000D01*
X9830000Y7850000D01*
X9656400D01*
X9507220Y7700820D01*
G01X6441000Y3902000D02*
Y3899000D01*
X6565000Y3775000D01*
X8315000D01*
X8760000Y4220000D01*
Y6330000D01*
X9761220Y7331220D01*
Y7446820D01*
G01X6441000Y4156000D02*
Y4161000D01*
X6563000Y4283000D01*
X7713000D01*
X7820000Y4390000D01*
Y5480000D01*
X9507220Y7167220D01*
Y7446820D01*
G01X6441000Y5172000D02*
X6568000Y5299000D01*
X7299000D01*
X7300000Y5300000D01*
X7380000D01*
G01Y5050000D02*
X7370000D01*
X7365000Y5045000D01*
X6260000D01*
G01X6695000Y1870000D02*
X11590000D01*
X11655720Y1804280D01*
X11884280D01*
X11980000Y1900000D01*
Y2306000D01*
X11788000Y2498000D01*
G01X6695000Y2124000D02*
X11416000D01*
X11690000Y1850000D01*
X11860000D01*
X11930000Y1920000D01*
Y2102000D01*
X11788000Y2244000D01*
G01X6695000Y2886000D02*
X6831000Y2750000D01*
X10330000D01*
X10940000Y3360000D01*
Y4410000D01*
G01X6695000Y2378000D02*
X11400000D01*
X11788000Y1990000D01*
G01X6695000Y4156000D02*
X6799140Y4051860D01*
X7731860D01*
X7940000Y4260000D01*
Y5374660D01*
X8181060Y5615720D01*
X8291920D01*
X8333890Y5657690D01*
G01X6695000Y3902000D02*
X6799140Y4006140D01*
X7750800D01*
X7985720Y4241060D01*
Y5355720D01*
X8200000Y5570000D01*
X8300490D01*
X8333890Y5536600D01*
G01X6695000Y5172000D02*
X7538000D01*
G01X6695000Y4918000D02*
X7538000D01*
X7682840Y5062840D01*
Y5842840D01*
X8350000Y6510000D01*
G01X6695000Y5426000D02*
X7444000D01*
X7450000Y5420000D01*
G01X10870000Y480000D02*
X8580000D01*
X8400000Y660000D01*
G01X8920000Y4420000D02*
Y2970000D01*
G01X9000000Y4350000D02*
Y3120000D01*
G01X9320000Y6620000D02*
X10919000D01*
X11250000Y6289000D01*
Y5420000D01*
X11420000Y5250000D01*
X11880000D01*
X11930000Y5200000D01*
Y2450000D01*
X12025720Y2354280D01*
Y1875720D01*
X11690000Y1540000D01*
X11570000D01*
G01D02*
X11407000Y1377000D01*
Y877000D01*
X11340000Y810000D01*
X9950000D01*
X9790000Y650000D01*
G54D14*
G01X330000Y330000D02*
Y695780D01*
G01Y330000D02*
X695780D01*
G01X330000Y6564220D02*
Y6930000D01*
G01D02*
Y7295780D01*
G01Y6930000D02*
X695780D01*
G01X4346000Y7912820D02*
Y8050000D01*
G01D02*
Y8187180D01*
G01X4208820Y8050000D02*
X4346000D01*
G01X7669220Y7696220D02*
Y7839750D01*
G01X7525690Y7696220D02*
X7669220D01*
G01X8991720Y200000D02*
X9150000D01*
G01X8999220Y7309640D02*
Y7446820D01*
G01X8862040D02*
X8999220D01*
G01X9631720Y200000D02*
X9790000D01*
G01X9150000Y41720D02*
Y200000D01*
G01D02*
X9308280D01*
G01X9790000Y41720D02*
Y200000D01*
G01D02*
X9948280D01*
G01X10381720Y650000D02*
X10540000D01*
G01D02*
X10698280D01*
G01X11180000Y491720D02*
Y650000D01*
G01X11021720D02*
X11180000D01*
G01D02*
X11338280D01*
G01X11788000Y832820D02*
Y970000D01*
G01D02*
Y1107180D01*
G01Y970000D02*
X11925180D01*
G01X12175520Y1084000D02*
X12300000D01*
G01X12182820Y6311000D02*
X12320000D01*
G01X12182820Y6057000D02*
X12320000D01*
G01X12300000Y1084000D02*
X12424480D01*
G01X12424000Y3644820D02*
Y3782000D01*
G01D02*
X12561180D01*
G01X12320000Y6311000D02*
Y6448180D01*
G01Y6311000D02*
X12457180D01*
G01X12320000Y6057000D02*
X12457180D01*
X4640000Y7100000D03*
Y6980000D03*
X4690000Y7040000D03*
X4740000Y7100000D03*
Y6980000D03*
G54D24*
G01X330000Y0D02*
X12300000D01*
G03X12630000Y330000I0J330000D01*
G01Y7920000D01*
G03X12300000Y8250000I-330000J0D01*
G01X330000D01*
G03X0Y7920000I0J-330000D01*
G01Y330000D01*
G03X330000Y0I330000J0D01*
G54D15*
X7760000Y210000D03*
Y670000D03*
X8400000Y210000D03*
Y660000D03*
X9150000Y200000D03*
Y660000D03*
X9790000Y200000D03*
Y650000D03*
X10540000Y200000D03*
Y650000D03*
X11180000Y190000D03*
Y650000D03*
G54D25*
G01X599000Y4664000D02*
X746000D01*
G01X710000Y4550000D02*
X599000Y4661000D01*
Y4664000D01*
G01X710000Y4780000D02*
X599000Y4669000D01*
Y4664000D01*
G01X1510000Y3390000D02*
Y730000D01*
X1950000Y290000D01*
X4710000D01*
X4800000Y380000D01*
X11320000D01*
X11534000Y594000D01*
Y970000D01*
G01X2240000Y2510000D02*
Y3560000D01*
G01X3370000Y6910000D02*
X2710000D01*
X2550000Y7070000D01*
Y7320000D01*
G01X3236000Y1460000D02*
Y514000D01*
G01X5140000Y5480000D02*
X5503800Y5116200D01*
Y4963800D01*
G01X6695000Y3140000D02*
X6860000D01*
G01X10850000Y4110000D02*
Y5260000D01*
G01X12170000Y3782000D02*
Y3610000D01*
G01Y4290000D02*
Y5004000D01*
X12320000Y5154000D01*
G01X12030000Y6640000D02*
X12300000Y6910000D01*
Y6930000D01*
G01X12020000Y7180000D02*
X12270000Y6930000D01*
X12300000D01*
G01X12320000Y4900000D02*
X12470000D01*
G01X12430000Y4780000D02*
X12320000Y4890000D01*
Y4900000D01*
G01X12410000Y5010000D02*
X12320000Y4920000D01*
Y4900000D01*
G54D16*
X7669220Y7696220D03*
Y7442220D03*
X8431220Y7696220D03*
Y7442220D03*
X8177220Y7696220D03*
Y7442220D03*
X7923220Y7696220D03*
Y7442220D03*
G54D17*
X10698000Y7500000D03*
X11206000D03*
X11714000D03*
X12222000D03*
G54D18*
X12300000Y2100000D03*
G54D19*
Y830000D03*
Y1084000D03*
Y1338000D03*
Y1592000D03*
Y1846000D03*
M02*
