G04 ================== begin FILE IDENTIFICATION RECORD ==================*
G04 Layout Name:  MB1136_BOOSTPACK_V10A.brd*
G04 Film Name:    DRILL_LEGEND*
G04 File Format:  Gerber RS274X*
G04 File Origin:  Cadence Allegro 16.6-2015-S082*
G04 Origin Date:  Mon Feb 20 14:00:57 2017*
G04 *
G04 Layer:  MANUFACTURING/NCDRILL_FIGURE*
G04 Layer:  BOARD GEOMETRY/OUTLINE*
G04 Layer:  MANUFACTURING/NCLEGEND-1-2*
G04 Layer:  MANUFACTURING/NCDRILL_LEGEND*
G04 *
G04 Offset:    (0.0000 0.0000)*
G04 Mirror:    No*
G04 Mode:      Positive*
G04 Rotation:  0*
G04 FullContactRelief:  No*
G04 UndefLineWidth:     0.1524*
G04 ================== end FILE IDENTIFICATION RECORD ====================*
%FSLAX55Y55*MOMM*%
%IR0*IPPOS*OFA0.00000B0.00000*MIA0B0*SFA1.00000B1.00000*%
%AMMACRO14*
1,1,.1524,.6,0.0*
20,1,.1524,.6,0.0,0.0,-.6,0.0*
1,1,.1524,0.0,-.6*
20,1,.1524,0.0,-.6,-.6,0.0,0.0*
1,1,.1524,-.6,0.0*
20,1,.1524,-.6,0.0,0.0,.6,0.0*
1,1,.1524,0.0,.6*
20,1,.1524,0.0,.6,.6,0.0,0.0*
1,1,.1524,.6,0.0*
%
%ADD14MACRO14*%
%AMMACRO17*
1,1,.1524,.21042,-.508*
20,1,.1524,.21042,-.508,-.21042,-.508,0.0*
1,1,.1524,-.21042,-.508*
20,1,.1524,-.21042,-.508,-.508,-.21042,0.0*
1,1,.1524,-.508,-.21042*
20,1,.1524,-.508,-.21042,-.508,.21042,0.0*
1,1,.1524,-.508,.21042*
20,1,.1524,-.508,.21042,-.21042,.508,0.0*
1,1,.1524,-.21042,.508*
20,1,.1524,-.21042,.508,.21042,.508,0.0*
1,1,.1524,.21042,.508*
20,1,.1524,.21042,.508,.508,.21042,0.0*
1,1,.1524,.508,.21042*
20,1,.1524,.508,.21042,.508,-.21042,0.0*
1,1,.1524,.508,-.21042*
20,1,.1524,.508,-.21042,.21042,-.508,0.0*
1,1,.1524,.21042,-.508*
%
%ADD17MACRO17*%
%AMMACRO12*
1,1,.1524,.1524,0.0*
20,1,.1524,.1524,0.0,-.1524,0.0,0.0*
1,1,.1524,-.1524,0.0*
1,1,.1524,0.0,.1524*
20,1,.1524,0.0,.1524,0.0,-.1524,0.0*
1,1,.1524,0.0,-.1524*
%
%ADD12MACRO12*%
%AMMACRO13*
1,1,.1524,.2286,.2286*
20,1,.1524,.2286,.2286,.2286,-.2286,0.0*
1,1,.1524,.2286,-.2286*
20,1,.1524,.2286,-.2286,-.2286,-.2286,0.0*
1,1,.1524,-.2286,-.2286*
20,1,.1524,-.2286,-.2286,-.2286,.2286,0.0*
1,1,.1524,-.2286,.2286*
20,1,.1524,-.2286,.2286,.2286,.2286,0.0*
1,1,.1524,.2286,.2286*
%
%ADD13MACRO13*%
%AMMACRO16*
1,1,.1524,0.0,1.016*
20,1,.1524,0.0,1.016,1.016,-1.016,0.0*
1,1,.1524,1.016,-1.016*
20,1,.1524,1.016,-1.016,-1.016,-1.016,0.0*
1,1,.1524,-1.016,-1.016*
20,1,.1524,-1.016,-1.016,0.0,1.016,0.0*
1,1,.1524,0.0,1.016*
%
%ADD16MACRO16*%
%AMMACRO10*
1,1,.1524,-.42545,1.27635*
20,1,.1524,-.42545,1.27635,.42545,1.27635,0.0*
1,1,.1524,.42545,1.27635*
20,1,.1524,.42545,1.27635,.647086,1.256959,0.0*
1,1,.1524,.647086,1.256959*
20,1,.1524,.647086,1.256959,.861987,1.199377,0.0*
1,1,.1524,.861987,1.199377*
20,1,.1524,.861987,1.199377,1.063625,1.105352,0.0*
1,1,.1524,1.063625,1.105352*
20,1,.1524,1.063625,1.105352,1.245872,.977741,0.0*
1,1,.1524,1.245872,.977741*
20,1,.1524,1.245872,.977741,1.403191,.820422,0.0*
1,1,.1524,1.403191,.820422*
20,1,.1524,1.403191,.820422,1.530802,.638175,0.0*
1,1,.1524,1.530802,.638175*
20,1,.1524,1.530802,.638175,1.624827,.436537,0.0*
1,1,.1524,1.624827,.436537*
20,1,.1524,1.624827,.436537,1.682409,.221636,0.0*
1,1,.1524,1.682409,.221636*
20,1,.1524,1.682409,.221636,1.7018,0.0,0.0*
1,1,.1524,1.7018,0.0*
20,1,.1524,1.7018,0.0,1.682409,-.221636,0.0*
1,1,.1524,1.682409,-.221636*
20,1,.1524,1.682409,-.221636,1.624827,-.436537,0.0*
1,1,.1524,1.624827,-.436537*
20,1,.1524,1.624827,-.436537,1.530802,-.638175,0.0*
1,1,.1524,1.530802,-.638175*
20,1,.1524,1.530802,-.638175,1.403191,-.820422,0.0*
1,1,.1524,1.403191,-.820422*
20,1,.1524,1.403191,-.820422,1.245872,-.977741,0.0*
1,1,.1524,1.245872,-.977741*
20,1,.1524,1.245872,-.977741,1.063625,-1.105352,0.0*
1,1,.1524,1.063625,-1.105352*
20,1,.1524,1.063625,-1.105352,.861987,-1.199377,0.0*
1,1,.1524,.861987,-1.199377*
20,1,.1524,.861987,-1.199377,.647086,-1.256959,0.0*
1,1,.1524,.647086,-1.256959*
20,1,.1524,.647086,-1.256959,.42545,-1.27635,0.0*
1,1,.1524,.42545,-1.27635*
20,1,.1524,.42545,-1.27635,-.42545,-1.27635,0.0*
1,1,.1524,-.42545,-1.27635*
20,1,.1524,-.42545,-1.27635,-.647086,-1.256959,0.0*
1,1,.1524,-.647086,-1.256959*
20,1,.1524,-.647086,-1.256959,-.861987,-1.199377,0.0*
1,1,.1524,-.861987,-1.199377*
20,1,.1524,-.861987,-1.199377,-1.063625,-1.105352,0.0*
1,1,.1524,-1.063625,-1.105352*
20,1,.1524,-1.063625,-1.105352,-1.245872,-.977741,0.0*
1,1,.1524,-1.245872,-.977741*
20,1,.1524,-1.245872,-.977741,-1.403191,-.820422,0.0*
1,1,.1524,-1.403191,-.820422*
20,1,.1524,-1.403191,-.820422,-1.530802,-.638175,0.0*
1,1,.1524,-1.530802,-.638175*
20,1,.1524,-1.530802,-.638175,-1.624827,-.436537,0.0*
1,1,.1524,-1.624827,-.436537*
20,1,.1524,-1.624827,-.436537,-1.682409,-.221636,0.0*
1,1,.1524,-1.682409,-.221636*
20,1,.1524,-1.682409,-.221636,-1.7018,0.0,0.0*
1,1,.1524,-1.7018,0.0*
20,1,.1524,-1.7018,0.0,-1.682409,.221636,0.0*
1,1,.1524,-1.682409,.221636*
20,1,.1524,-1.682409,.221636,-1.624827,.436537,0.0*
1,1,.1524,-1.624827,.436537*
20,1,.1524,-1.624827,.436537,-1.530802,.638175,0.0*
1,1,.1524,-1.530802,.638175*
20,1,.1524,-1.530802,.638175,-1.403191,.820422,0.0*
1,1,.1524,-1.403191,.820422*
20,1,.1524,-1.403191,.820422,-1.245872,.977741,0.0*
1,1,.1524,-1.245872,.977741*
20,1,.1524,-1.245872,.977741,-1.063625,1.105352,0.0*
1,1,.1524,-1.063625,1.105352*
20,1,.1524,-1.063625,1.105352,-.861987,1.199377,0.0*
1,1,.1524,-.861987,1.199377*
20,1,.1524,-.861987,1.199377,-.647086,1.256959,0.0*
1,1,.1524,-.647086,1.256959*
20,1,.1524,-.647086,1.256959,-.42545,1.27635,0.0*
1,1,.1524,-.42545,1.27635*
%
%ADD10MACRO10*%
%AMMACRO15*
1,1,.1524,0.0,.4826*
20,1,.1524,0.0,.4826,-.417944,.2413,0.0*
1,1,.1524,-.417944,.2413*
20,1,.1524,-.417944,.2413,-.417944,-.2413,0.0*
1,1,.1524,-.417944,-.2413*
20,1,.1524,-.417944,-.2413,0.0,-.4826,0.0*
1,1,.1524,0.0,-.4826*
20,1,.1524,0.0,-.4826,.417944,-.2413,0.0*
1,1,.1524,.417944,-.2413*
20,1,.1524,.417944,-.2413,.417944,.2413,0.0*
1,1,.1524,.417944,.2413*
20,1,.1524,.417944,.2413,0.0,.4826,0.0*
1,1,.1524,0.0,.4826*
%
%ADD15MACRO15*%
%AMMACRO11*
1,1,.1524,.4445,0.0*
20,1,.1524,.4445,0.0,.22225,.384948,0.0*
1,1,.1524,.22225,.384948*
20,1,.1524,.22225,.384948,-.22225,.384948,0.0*
1,1,.1524,-.22225,.384948*
20,1,.1524,-.22225,.384948,-.4445,0.0,0.0*
1,1,.1524,-.4445,0.0*
20,1,.1524,-.4445,0.0,-.22225,-.384948,0.0*
1,1,.1524,-.22225,-.384948*
20,1,.1524,-.22225,-.384948,.22225,-.384948,0.0*
1,1,.1524,.22225,-.384948*
20,1,.1524,.22225,-.384948,.4445,0.0,0.0*
1,1,.1524,.4445,0.0*
%
%ADD11MACRO11*%
%ADD18C,.2032*%
%ADD19C,.17*%
%ADD20C,.127*%
%ADD21C,.254*%
%ADD22C,.1524*%
G75*
%LPD*%
G75*
G54D10*
X330000Y330000D03*
Y6930000D03*
X12300000Y330000D03*
Y6930000D03*
X14191730Y377500D03*
G54D20*
G01X3055000Y2790000D02*
G03I-75000J0D01*
G01X3805000D02*
G03I-75000J0D01*
G54D11*
X345000Y854000D03*
Y1108000D03*
Y1362000D03*
Y1616000D03*
Y1870000D03*
Y2124000D03*
Y2378000D03*
Y2632000D03*
Y2886000D03*
Y3140000D03*
Y3394000D03*
Y3648000D03*
Y3902000D03*
Y4156000D03*
Y4410000D03*
Y4664000D03*
Y4918000D03*
Y5172000D03*
Y5426000D03*
X599000Y854000D03*
Y1108000D03*
Y1362000D03*
Y1616000D03*
Y1870000D03*
Y2124000D03*
Y2378000D03*
Y2632000D03*
Y2886000D03*
Y3140000D03*
Y3394000D03*
Y3648000D03*
Y3902000D03*
Y4156000D03*
Y4410000D03*
Y4664000D03*
Y4918000D03*
Y5172000D03*
Y5426000D03*
X4600000Y8050000D03*
X4346000D03*
X6441000Y854000D03*
Y1108000D03*
Y1362000D03*
Y1616000D03*
Y1870000D03*
Y2124000D03*
Y2378000D03*
Y2632000D03*
Y2886000D03*
Y3140000D03*
Y3394000D03*
Y3648000D03*
Y3902000D03*
Y4156000D03*
Y4410000D03*
Y4664000D03*
Y4918000D03*
Y5172000D03*
Y5426000D03*
X6695000Y854000D03*
Y1108000D03*
Y1362000D03*
Y1616000D03*
Y1870000D03*
Y2124000D03*
Y2378000D03*
Y2632000D03*
Y2886000D03*
Y3140000D03*
Y3394000D03*
Y3648000D03*
Y3902000D03*
Y4156000D03*
Y4410000D03*
Y4664000D03*
Y4918000D03*
Y5172000D03*
Y5426000D03*
X7470000Y970000D03*
X7724000D03*
X8486000D03*
X8232000D03*
X7978000D03*
X8994000D03*
X8740000D03*
X8999220Y7700820D03*
Y7446820D03*
X9756000Y970000D03*
X9502000D03*
X9248000D03*
X9761220Y7700820D03*
Y7446820D03*
X9507220Y7700820D03*
Y7446820D03*
X9253220Y7700820D03*
Y7446820D03*
X10264000Y970000D03*
X10010000D03*
X11026000D03*
X10772000D03*
X10518000D03*
X11534000D03*
X11280000D03*
X11788000D03*
Y2244000D03*
Y1990000D03*
Y2752000D03*
Y2498000D03*
Y3514000D03*
Y3260000D03*
Y3006000D03*
Y3768000D03*
X12170000Y3782000D03*
Y4036000D03*
X11788000Y4574000D03*
Y4320000D03*
X12170000Y4290000D03*
X11788000Y5082000D03*
Y4828000D03*
Y5894000D03*
Y5640000D03*
Y6656000D03*
Y6402000D03*
Y6148000D03*
Y6910000D03*
X12424000Y3782000D03*
Y4036000D03*
Y4290000D03*
X12320000Y4646000D03*
Y5154000D03*
Y4900000D03*
Y6057000D03*
Y5803000D03*
Y5549000D03*
Y6311000D03*
X14191730Y3552500D03*
G54D21*
G01X1267000Y5910000D02*
G03I-160000J0D01*
G01X4569000Y560000D02*
G03I-160000J0D01*
G01X6093000Y5910000D02*
G03I-160000J0D01*
G54D12*
X158480Y7538710D03*
Y8046710D03*
X747520Y71290D03*
X867520Y721290D03*
Y1491290D03*
X847520Y1751290D03*
X872230Y2610610D03*
X862230Y2380610D03*
X872230Y3180610D03*
X862230Y2910610D03*
X886230Y7090610D03*
X666480Y7538710D03*
Y8046710D03*
X1255520Y71290D03*
X1375520Y721290D03*
X1465520Y441290D03*
X957520D03*
X1337520Y981290D03*
X1375520Y1491290D03*
X1250000Y1140000D03*
X1355520Y1751290D03*
X1380230Y2610610D03*
X1370230Y2380610D03*
X1380230Y3180610D03*
X1370230Y2910610D03*
X1510000Y3390000D03*
X1412230Y3970610D03*
X1422230Y4310610D03*
X928710Y4725520D03*
Y4217520D03*
Y5233520D03*
X1540000Y5970000D03*
X928710Y5741520D03*
X1550000Y6160000D03*
X1420000Y6650000D03*
Y6230000D03*
X1223150Y6743580D03*
X1394230Y7090610D03*
X1174480Y7538710D03*
Y8046710D03*
X1763520Y71290D03*
X1845520Y981290D03*
X2007520Y681290D03*
X1660000Y1520000D03*
X1800000Y1140000D03*
X1660000Y1890000D03*
Y2080000D03*
X2047520Y1661290D03*
X2110000Y2650000D03*
X2100000Y2300000D03*
Y2910000D03*
X2120230Y3110610D03*
X1612230D03*
X2120230Y3310610D03*
X1612230D03*
X1920230Y3970610D03*
X2150000Y3660000D03*
X1930230Y4310610D03*
X1930000Y4730000D03*
X2090000Y5980000D03*
X1720000Y6170000D03*
X1870000Y6320000D03*
X1600000Y6590000D03*
Y6300000D03*
X1731150Y6743580D03*
X1902230Y7090610D03*
X1682480Y7538710D03*
Y8046710D03*
X2271520Y71290D03*
X2515520Y681290D03*
X2555520Y1661290D03*
X2738480Y2098710D03*
Y2518710D03*
X2240000Y2510000D03*
X2718480Y3118710D03*
Y3428710D03*
X2688480Y3868710D03*
X2290000Y3740000D03*
X2190000D03*
Y3590000D03*
X2290000D03*
X2240000Y3660000D03*
X2330000D03*
X2698480Y4248710D03*
X2510000Y5210000D03*
X2500000Y5100000D03*
X2240000Y4850000D03*
Y5330000D03*
X2730000Y5990000D03*
X2410000Y5980000D03*
X2747150Y6743580D03*
X2239150D03*
X2410230Y7090610D03*
X2760000Y7320000D03*
X2550000D03*
X2770000Y8200000D03*
X2937520Y61290D03*
X3023520Y681290D03*
X3236000Y514000D03*
X3355520Y1141290D03*
X2847520D03*
X3236000Y1460000D03*
X3346000D03*
X3126000D03*
X2906000D03*
X3246480Y2098710D03*
Y2518710D03*
X3226480Y3118710D03*
Y3428710D03*
X3196480Y3868710D03*
X3206480Y4248710D03*
X3152230Y4880610D03*
X3240000Y5990000D03*
X3366200Y5556200D03*
X3220000Y6740000D03*
X2980000Y7150000D03*
X3060000D03*
X2980000Y7080000D03*
X3060000D03*
X2980000Y7010000D03*
X3060000D03*
X3370000Y6910000D03*
X3060000Y7570000D03*
X2980000D03*
X3060000Y7640000D03*
X2980000D03*
X3060000Y7710000D03*
X2980000D03*
X2990000Y8200000D03*
X3000000Y8050000D03*
X3100000D03*
X3953520Y61290D03*
X3445520D03*
X3531520Y681290D03*
X3847520Y1341290D03*
X3767520Y1201290D03*
X3927520Y1821290D03*
X3754480Y2098710D03*
Y2518710D03*
X3734480Y3118710D03*
Y3428710D03*
X3704480Y3868710D03*
X3714480Y4248710D03*
X3660230Y4880610D03*
X3780000Y5990000D03*
X3500000Y5980000D03*
X3800000Y6750000D03*
X3500000D03*
X3980000Y7870000D03*
X4050000Y7490000D03*
Y7590000D03*
X3920000Y8190000D03*
X4461520Y61290D03*
X4355520Y1341290D03*
X4275520Y1201290D03*
X4435520Y1821290D03*
X4262480Y2098710D03*
Y2518710D03*
X4242480Y3118710D03*
Y3428710D03*
X4212480Y3868710D03*
X4222480Y4248710D03*
X4635000Y4735000D03*
X4630230Y4870610D03*
X4122230D03*
X4130000Y6000000D03*
X4660000Y6010000D03*
X4390000Y5880000D03*
Y5990000D03*
Y6290000D03*
Y6190000D03*
Y6090000D03*
X4640000Y6890000D03*
Y7240000D03*
X4150000Y6750000D03*
X4260000Y6890000D03*
X4200000Y7870000D03*
X4670000Y7740000D03*
X4450000D03*
X4580000Y7340000D03*
X4340000D03*
X4130000Y7490000D03*
Y7590000D03*
X4140000Y8190000D03*
X4987520Y61290D03*
X5317520Y551290D03*
X5325520Y1371290D03*
X4817520D03*
X4977520Y1221290D03*
X4988710Y2167520D03*
Y2675520D03*
Y3183520D03*
Y3691520D03*
X5022230Y4260610D03*
X4730000Y5790000D03*
X4930000D03*
X5080000Y6010000D03*
X4860000D03*
X5270000Y6840000D03*
X4740000Y6890000D03*
Y7240000D03*
X5170000Y6750000D03*
X5120000Y7040000D03*
X4980000Y7860000D03*
X4760000D03*
X5100000Y7740000D03*
X4880000D03*
X5000000Y7340000D03*
X4800000D03*
X5495520Y61290D03*
X5825520Y551290D03*
X5485520Y1221290D03*
X5608710Y2057520D03*
Y2565520D03*
Y3073520D03*
Y3581520D03*
X5620000Y4700000D03*
X5900000D03*
X5530230Y4260610D03*
X5370000Y4480000D03*
Y4610000D03*
X5810000Y4860000D03*
X5503800Y4963800D03*
X5800000Y5560000D03*
X5400000D03*
X5600000D03*
Y6360000D03*
X5680000Y7160000D03*
Y7050000D03*
Y6930000D03*
X5690000Y6790000D03*
X5830000D03*
X5660000Y7280000D03*
X5760000Y6830000D03*
Y6740000D03*
X5470000Y6840000D03*
Y6740000D03*
X5510000Y7490000D03*
X5590000D03*
X5670000D03*
Y7590000D03*
X6511520Y61290D03*
X6003520D03*
X6357520Y561290D03*
X5958710Y1467520D03*
Y1975520D03*
Y2483520D03*
Y2991520D03*
X6330000Y3010000D03*
X6000000Y4850000D03*
X6260000Y5045000D03*
X6220000Y5710000D03*
X6000000Y5560000D03*
X6450000Y6650000D03*
Y6560000D03*
X6370000D03*
Y6650000D03*
Y6750000D03*
X6350000Y6850000D03*
X6060000Y7410000D03*
Y7290000D03*
X6254230Y8170610D03*
X7057520Y51290D03*
X6865520Y561290D03*
X7150230Y1630610D03*
X6952230Y4180610D03*
X7060000Y4650000D03*
X7130000Y5830000D03*
X7040000Y5580000D03*
X6890000Y5720000D03*
X7060000Y6550000D03*
Y6660000D03*
Y6780000D03*
X6970000Y6940000D03*
X7060000Y6930000D03*
X7050000Y7030000D03*
Y7160000D03*
X6920000D03*
X6790000D03*
X6762230Y8170610D03*
X7565520Y51290D03*
X7477520Y551290D03*
X7634230Y1630610D03*
X7522230Y3130610D03*
X7460230Y4180610D03*
X7600000Y5350000D03*
X7538000Y5172000D03*
X7380000Y5300000D03*
Y5050000D03*
X7590000Y5660000D03*
X7460000Y5820000D03*
X7270000Y5520000D03*
X7260000Y5680000D03*
X7450000Y5420000D03*
X7810000Y6100000D03*
X7760000Y6170000D03*
Y6250000D03*
X7270230Y8170610D03*
X8073520Y51290D03*
X7985520Y551290D03*
X8142230Y1630610D03*
X8030230Y3130610D03*
X8262230Y3980610D03*
X8042230Y4160610D03*
X8124230Y4530610D03*
X8114230Y4950610D03*
X8340000Y5780000D03*
X8333890Y5657690D03*
Y5536600D03*
X8170000Y6510000D03*
X8000000Y6520000D03*
X8010000Y6330000D03*
X8160000Y6190000D03*
X7850000Y6170000D03*
Y6250000D03*
X8350000Y6260000D03*
Y6510000D03*
Y6110000D03*
X8170000Y6730000D03*
X8362230Y8180610D03*
X7854230D03*
X8581520Y51290D03*
X8890000Y1770000D03*
X8920000Y2000000D03*
X8650230Y1630610D03*
X8690230Y2230610D03*
X8660230Y2000610D03*
X8830230Y2870610D03*
X8920000Y2970000D03*
X9000000Y3120000D03*
X8480000D03*
X8640000D03*
X8770230Y3980610D03*
X8652230Y3520610D03*
X8550230Y4160610D03*
X8632230Y4530610D03*
X8920000Y4420000D03*
X9000000Y4350000D03*
X8622230Y4950610D03*
X8940000Y5660000D03*
X8500000Y5780000D03*
X8560000Y6650000D03*
X8650000Y7210000D03*
X8930000Y6730000D03*
X8770000Y6740000D03*
X8960000Y6850000D03*
X8870230Y8180610D03*
X9377520Y41290D03*
X9370000Y1510000D03*
X9150000D03*
X9180000Y1740000D03*
X9570230Y1780610D03*
X9360230Y2010610D03*
X9480230Y2240610D03*
X9720230Y1990610D03*
X9314230Y2870610D03*
X9270230Y2490610D03*
X9120230Y2260610D03*
X9160230Y3520610D03*
X9654230Y4040610D03*
X9170230D03*
X9624230Y4530610D03*
X9140230D03*
X9634230Y4950610D03*
X9130230D03*
X9480000Y5400000D03*
X9310000D03*
X9290000Y5670000D03*
X9500000Y6160000D03*
Y6370000D03*
X9320000Y6620000D03*
X9560000Y6730000D03*
X9220000Y7200000D03*
X9414230Y8190610D03*
X9885520Y41290D03*
X9860000Y1500000D03*
X9964230Y2240610D03*
X10204230Y1990610D03*
X9930230Y1760610D03*
X10330230Y2870610D03*
X10262230Y2490610D03*
X9754230D03*
X9830000Y3390000D03*
X9850000Y3700000D03*
X10162230Y4040610D03*
X10132230Y4530610D03*
X10142230Y4950610D03*
X9850000Y5440000D03*
X9990000Y5400000D03*
X10010000Y5800000D03*
X10150000Y5720000D03*
X10240000Y5790000D03*
X9830000Y5780000D03*
X10100000Y5910000D03*
X10000000D03*
X10150000Y5970000D03*
X10050000D03*
X9950000D03*
X10340000Y6200000D03*
X10150000Y6210000D03*
X10240000Y6430000D03*
X10120000D03*
X10340000Y7190000D03*
X9780000Y7020000D03*
X10290000Y6720000D03*
X9922230Y8190610D03*
X10901520Y41290D03*
X10393520D03*
X10870000Y480000D03*
X10881520Y1361290D03*
X10373520D03*
X10980230Y2240610D03*
X10472230D03*
X10712230Y1990610D03*
X10922230Y1760610D03*
X10414230D03*
X10822230Y2880610D03*
X10770230Y2490610D03*
X10712230Y3410610D03*
X10950230Y3150610D03*
X10442230D03*
X10710000Y3720000D03*
X10670230Y4040610D03*
X10850000Y4110000D03*
X10640230Y4530610D03*
X10940000Y4410000D03*
X10540000Y5390000D03*
X10740000Y4920000D03*
X10750000Y5090000D03*
X10850000Y5340000D03*
X10930000Y5260000D03*
Y5340000D03*
X10850000Y5260000D03*
Y5650000D03*
Y5570000D03*
X10940000Y5650000D03*
X10510000Y6090000D03*
X10520000Y6230000D03*
X10370000Y6440000D03*
X10450000Y6510000D03*
X10640000Y6200000D03*
X10890000Y6460000D03*
X10640000Y6340000D03*
X10690000Y6520000D03*
X10830000Y7030000D03*
X10570000Y6830000D03*
X10400000Y7570000D03*
X10430230Y8190610D03*
X11403520Y291290D03*
X11413520Y51290D03*
X11600000Y1150000D03*
X11570000Y1540000D03*
X11220230Y1990610D03*
X11430230Y1760610D03*
X11330230Y2880610D03*
X11220230Y3410610D03*
X11280000Y3680000D03*
X11560000Y5090000D03*
X11250000Y4830000D03*
X11010000D03*
X11590000Y5630000D03*
X11450000Y5770000D03*
X11530000Y6560000D03*
Y6240000D03*
X11160000Y6230000D03*
X11510000Y7030000D03*
X11110000Y6840000D03*
X11514230Y7860610D03*
X11512230Y8180610D03*
X11004230D03*
X11911520Y291290D03*
X11921520Y51290D03*
X12060000Y860000D03*
X12080000Y1250000D03*
X12070000Y1800000D03*
X12140000Y2520000D03*
X12090000Y5930000D03*
X11980000Y5770000D03*
X12090000Y6180000D03*
X11990000Y6030000D03*
Y6270000D03*
X12022230Y7860610D03*
X12020230Y8180610D03*
X12350000Y2530000D03*
X12330000Y3490000D03*
X12450000Y3460000D03*
X12371600Y3268400D03*
X12530230Y7860610D03*
X14191730Y4822500D03*
G54D22*
G01X330000Y0D02*
X12300000D01*
G03X12630000Y330000I0J330000D01*
G01Y7920000D01*
G03X12300000Y8250000I-330000J0D01*
G01X330000D01*
G03X0Y7920000I0J-330000D01*
G01Y330000D01*
G03X330000Y0I330000J0D01*
G01X13050000Y60000D02*
Y7060000D01*
X25333440D01*
Y60000D01*
X13050000D01*
G01Y695000D02*
X25333440D01*
G01X13050000Y1330000D02*
X25333440D01*
G01X13050000Y1965000D02*
X25333440D01*
G01X13050000Y2600000D02*
X25333440D01*
G01X13050000Y3235000D02*
X25333440D01*
G01X13050000Y3870000D02*
X25333440D01*
G01X13050000Y4505000D02*
X25333440D01*
G01X13329520Y5298750D02*
Y5616250D01*
X13479140D01*
G01X13424010Y5462800D02*
X13329520D01*
G01X13672050Y5616250D02*
X13766530D01*
G01X13719290D02*
Y5298750D01*
G01X13672050D02*
X13766530D01*
G01X14057870Y5457500D02*
X14136620D01*
Y5362250D01*
X14112990Y5330490D01*
X14085430Y5309330D01*
X14046060Y5298750D01*
X14006690Y5309330D01*
X13979130Y5330490D01*
X13955510Y5362250D01*
X13939760Y5399290D01*
X13931880Y5441620D01*
Y5478670D01*
X13939760Y5510410D01*
X13955510Y5547460D01*
X13979130Y5579210D01*
X14002750Y5600370D01*
X14034250Y5616250D01*
X14061810D01*
X14093300Y5605670D01*
X14116930Y5584500D01*
G01X14262600Y5616250D02*
Y5388710D01*
X14278340Y5341070D01*
X14309840Y5309330D01*
X14349210Y5298750D01*
X14388580Y5309330D01*
X14420080Y5341070D01*
X14435820Y5388710D01*
Y5616250D01*
G01X14585430Y5298750D02*
Y5616250D01*
X14683850D01*
X14715350Y5600370D01*
X14735040Y5579210D01*
X14742910Y5536870D01*
X14735040Y5494540D01*
X14711410Y5468090D01*
X14683850Y5452200D01*
X14585430D01*
G01X14683850D02*
X14742910Y5298750D01*
G01X15057870D02*
X14900390D01*
Y5616250D01*
X15057870D01*
G01X14994880Y5462800D02*
X14900390D01*
G01X13050000Y5140000D02*
X25333440D01*
G01X13050000Y5775000D02*
X25333440D01*
G01X13050000Y6410000D02*
X25333440D01*
G01X15333460Y5775000D02*
Y60000D01*
G01X14841330Y5933750D02*
X14939760Y6251250D01*
X15038190Y5933750D01*
G01X15002750Y6044870D02*
X14876760D01*
G01X15175980Y6251250D02*
Y5933750D01*
X15333460D01*
G01X15490940Y6251250D02*
Y5933750D01*
X15648420D01*
G01X16112990Y6251250D02*
Y6023710D01*
X16128730Y5976070D01*
X16160230Y5944330D01*
X16199600Y5933750D01*
X16238970Y5944330D01*
X16270470Y5976070D01*
X16286210Y6023710D01*
Y6251250D01*
G01X16424010Y5933750D02*
Y6251250D01*
X16605110Y5933750D01*
Y6251250D01*
G01X16782280D02*
X16876760D01*
G01X16829520D02*
Y5933750D01*
G01X16782280D02*
X16876760D01*
G01X17144480Y6251250D02*
Y5933750D01*
G01X17053930Y6251250D02*
X17235030D01*
G01X17376760Y5976070D02*
X17408260Y5949620D01*
X17443690Y5933750D01*
X17475190D01*
X17506680Y5949620D01*
X17530310Y5976070D01*
X17542120Y6013130D01*
X17534250Y6050160D01*
X17514560Y6081910D01*
X17479120Y6103090D01*
X17431880Y6113670D01*
X17404320Y6134830D01*
X17392510Y6171870D01*
X17400390Y6208920D01*
X17420070Y6235370D01*
X17447630Y6251250D01*
X17475190D01*
X17502750Y6240670D01*
X17526370Y6214210D01*
G01X17990930Y5933750D02*
X18089360Y6251250D01*
X18187790Y5933750D01*
G01X18152350Y6044870D02*
X18026360D01*
G01X18325580Y5933750D02*
Y6251250D01*
X18424000D01*
X18455500Y6235370D01*
X18475190Y6214210D01*
X18483060Y6171870D01*
X18475190Y6129540D01*
X18451560Y6103090D01*
X18424000Y6087200D01*
X18325580D01*
G01X18424000D02*
X18483060Y5933750D01*
G01X18798020D02*
X18640540D01*
Y6251250D01*
X18798020D01*
G01X18735030Y6097800D02*
X18640540D01*
G01X19301960Y6251250D02*
X19396440D01*
G01X19349200D02*
Y5933750D01*
G01X19301960D02*
X19396440D01*
G01X19573610D02*
Y6251250D01*
X19754710Y5933750D01*
Y6251250D01*
G01X20191710Y5933750D02*
Y6251250D01*
X20294080Y5986670D01*
X20396450Y6251250D01*
Y5933750D01*
G01X20561800Y6251250D02*
X20656280D01*
G01X20609040D02*
Y5933750D01*
G01X20561800D02*
X20656280D01*
G01X20845260Y6251250D02*
Y5933750D01*
X21002740D01*
G01X21160220Y6251250D02*
Y5933750D01*
X21317700D01*
G01X21506680Y6251250D02*
X21601160D01*
G01X21553920D02*
Y5933750D01*
G01X21506680D02*
X21601160D01*
G01X21766510D02*
Y6251250D01*
X21868880Y5986670D01*
X21971250Y6251250D01*
Y5933750D01*
G01X22262580D02*
X22105100D01*
Y6251250D01*
X22262580D01*
G01X22199590Y6097800D02*
X22105100D01*
G01X22498800Y6251250D02*
Y5933750D01*
G01X22408250Y6251250D02*
X22589350D01*
G01X22892500Y5933750D02*
X22735020D01*
Y6251250D01*
X22892500D01*
G01X22829510Y6097800D02*
X22735020D01*
G01X23049980Y5933750D02*
Y6251250D01*
X23148400D01*
X23179900Y6235370D01*
X23199590Y6214210D01*
X23207460Y6171870D01*
X23199590Y6129540D01*
X23175960Y6103090D01*
X23148400Y6087200D01*
X23049980D01*
G01X23148400D02*
X23207460Y5933750D01*
G01X23361000Y5976070D02*
X23392500Y5949620D01*
X23427930Y5933750D01*
X23459430D01*
X23490920Y5949620D01*
X23514550Y5976070D01*
X23526360Y6013130D01*
X23518490Y6050160D01*
X23498800Y6081910D01*
X23463360Y6103090D01*
X23416120Y6113670D01*
X23388560Y6134830D01*
X23376750Y6171870D01*
X23384630Y6208920D01*
X23404310Y6235370D01*
X23431870Y6251250D01*
X23459430D01*
X23486990Y6240670D01*
X23510610Y6214210D01*
G01X15168110Y6583750D02*
Y6901250D01*
X15246840D01*
X15278340Y6885370D01*
X15301960Y6864210D01*
X15321650Y6832460D01*
X15337400Y6795410D01*
X15341330Y6742500D01*
X15337400Y6689580D01*
X15321650Y6652540D01*
X15301960Y6620780D01*
X15278340Y6599620D01*
X15246840Y6583750D01*
X15168110D01*
G01X15490940D02*
Y6901250D01*
X15589360D01*
X15620860Y6885370D01*
X15640550Y6864210D01*
X15648420Y6821870D01*
X15640550Y6779540D01*
X15616920Y6753090D01*
X15589360Y6737200D01*
X15490940D01*
G01X15589360D02*
X15648420Y6583750D01*
G01X15837400Y6901250D02*
X15931880D01*
G01X15884640D02*
Y6583750D01*
G01X15837400D02*
X15931880D01*
G01X16120860Y6901250D02*
Y6583750D01*
X16278340D01*
G01X16435820Y6901250D02*
Y6583750D01*
X16593300D01*
G01X17231090Y6874790D02*
X17207470Y6890670D01*
X17179920Y6901250D01*
X17148420D01*
X17112980Y6885370D01*
X17085430Y6858920D01*
X17065740Y6827160D01*
X17049990Y6774250D01*
X17046050Y6726620D01*
X17053930Y6679000D01*
X17065740Y6647250D01*
X17089360Y6615490D01*
X17116920Y6594330D01*
X17144480Y6583750D01*
X17172040D01*
X17199600Y6594330D01*
X17223220Y6610200D01*
X17242910Y6631360D01*
G01X17376760Y6583750D02*
Y6901250D01*
G01X17542120D02*
Y6583750D01*
G01Y6742500D02*
X17376760D01*
G01X17675970Y6583750D02*
X17774400Y6901250D01*
X17872830Y6583750D01*
G01X17837390Y6694870D02*
X17711400D01*
G01X18010620Y6583750D02*
Y6901250D01*
X18109040D01*
X18140540Y6885370D01*
X18160230Y6864210D01*
X18168100Y6821870D01*
X18160230Y6779540D01*
X18136600Y6753090D01*
X18109040Y6737200D01*
X18010620D01*
G01X18109040D02*
X18168100Y6583750D01*
G01X18404320Y6901250D02*
Y6583750D01*
G01X18313770Y6901250D02*
X18494870D01*
G01X18719280Y6573170D02*
X18711400Y6578460D01*
Y6589040D01*
X18719280Y6594330D01*
X18727160Y6589040D01*
Y6578460D01*
X18719280Y6573170D01*
G01Y6716030D02*
X18711400Y6721330D01*
Y6731910D01*
X18719280Y6737200D01*
X18727160Y6731910D01*
Y6721330D01*
X18719280Y6716030D01*
G01X19349200Y6901250D02*
Y6583750D01*
G01X19258650Y6901250D02*
X19439750D01*
G01X19664160Y6583750D02*
X19632660Y6589040D01*
X19605110Y6610200D01*
X19581480Y6641960D01*
X19565730Y6679000D01*
X19557860Y6721330D01*
Y6763670D01*
X19565730Y6806000D01*
X19581480Y6843040D01*
X19605110Y6874790D01*
X19632660Y6895960D01*
X19664160Y6901250D01*
X19695650Y6895960D01*
X19723210Y6874790D01*
X19746840Y6843040D01*
X19762590Y6806000D01*
X19770460Y6763670D01*
Y6721330D01*
X19762590Y6679000D01*
X19746840Y6641960D01*
X19723210Y6610200D01*
X19695650Y6589040D01*
X19664160Y6583750D01*
G01X19900380D02*
Y6901250D01*
X19994870D01*
X20026360Y6885370D01*
X20049990Y6848330D01*
X20057860Y6806000D01*
X20049990Y6763670D01*
X20030300Y6731910D01*
X19994870Y6716030D01*
X19900380D01*
G01X20609040Y6901250D02*
Y6583750D01*
G01X20553920Y6795410D02*
X20664160D01*
G01X20924000Y6583750D02*
X20900380Y6589040D01*
X20876760Y6610200D01*
X20861000Y6647250D01*
X20853130Y6689580D01*
X20861000Y6731910D01*
X20876760Y6768960D01*
X20900380Y6790120D01*
X20924000Y6795410D01*
X20947620Y6790120D01*
X20971240Y6768960D01*
X20986990Y6731910D01*
X20990930Y6689580D01*
X20986990Y6647250D01*
X20971240Y6610200D01*
X20947620Y6589040D01*
X20924000Y6583750D01*
G01X21585410Y6753090D02*
X21601160Y6768960D01*
X21612970Y6795410D01*
X21620850Y6832460D01*
X21612970Y6864210D01*
X21597230Y6885370D01*
X21569670Y6901250D01*
X21463370D01*
Y6583750D01*
X21593290D01*
X21620850Y6604910D01*
X21636600Y6636670D01*
X21644470Y6673710D01*
X21636600Y6710740D01*
X21612970Y6742500D01*
X21585410Y6753090D01*
X21463370D01*
G01X21868880Y6583750D02*
X21837380Y6589040D01*
X21809830Y6610200D01*
X21786200Y6641960D01*
X21770450Y6679000D01*
X21762580Y6721330D01*
Y6763670D01*
X21770450Y6806000D01*
X21786200Y6843040D01*
X21809830Y6874790D01*
X21837380Y6895960D01*
X21868880Y6901250D01*
X21900370Y6895960D01*
X21927930Y6874790D01*
X21951560Y6843040D01*
X21967310Y6806000D01*
X21975180Y6763670D01*
Y6721330D01*
X21967310Y6679000D01*
X21951560Y6641960D01*
X21927930Y6610200D01*
X21900370Y6589040D01*
X21868880Y6583750D01*
G01X22183840Y6901250D02*
Y6583750D01*
G01X22093290Y6901250D02*
X22274390D01*
G01X22498800D02*
Y6583750D01*
G01X22408250Y6901250D02*
X22589350D01*
G01X22813760Y6583750D02*
X22782260Y6589040D01*
X22754710Y6610200D01*
X22731080Y6641960D01*
X22715330Y6679000D01*
X22707460Y6721330D01*
Y6763670D01*
X22715330Y6806000D01*
X22731080Y6843040D01*
X22754710Y6874790D01*
X22782260Y6895960D01*
X22813760Y6901250D01*
X22845250Y6895960D01*
X22872810Y6874790D01*
X22896440Y6843040D01*
X22912190Y6806000D01*
X22920060Y6763670D01*
Y6721330D01*
X22912190Y6679000D01*
X22896440Y6641960D01*
X22872810Y6610200D01*
X22845250Y6589040D01*
X22813760Y6583750D01*
G01X23026350D02*
Y6901250D01*
X23128720Y6636670D01*
X23231090Y6901250D01*
Y6583750D01*
G01X16861020Y282250D02*
X16884630Y245200D01*
X16916130Y224040D01*
X16951570Y218750D01*
X16983070Y224040D01*
X17014560Y250490D01*
X17034240Y282250D01*
X17038180Y314000D01*
X17030310Y351030D01*
X17002750Y377500D01*
X16975190Y388090D01*
X16939750D01*
G01X16975190D02*
X16998810Y403960D01*
X17018500Y430410D01*
X17026370Y462160D01*
X17018500Y493920D01*
X16998810Y520370D01*
X16963380Y536250D01*
X16927950Y530960D01*
X16892510Y509790D01*
G01X17262590Y208170D02*
X17254710Y213460D01*
Y224040D01*
X17262590Y229330D01*
X17270470Y224040D01*
Y213460D01*
X17262590Y208170D01*
G01X17624790Y218750D02*
Y536250D01*
X17479120Y308710D01*
X17675980D01*
G01X17892510Y536250D02*
X17861010Y525670D01*
X17837390Y499210D01*
X17821640Y467460D01*
X17809830Y425120D01*
X17805900Y377500D01*
X17809830Y329870D01*
X17821640Y287540D01*
X17837390Y255780D01*
X17861010Y229330D01*
X17892510Y218750D01*
X17924000Y229330D01*
X17947630Y255780D01*
X17963380Y287540D01*
X17975190Y329870D01*
X17979120Y377500D01*
X17975190Y425120D01*
X17963380Y467460D01*
X17947630Y499210D01*
X17924000Y525670D01*
X17892510Y536250D01*
G01X18120860Y282250D02*
X18144470Y245200D01*
X18175970Y224040D01*
X18211410Y218750D01*
X18242910Y224040D01*
X18274400Y250490D01*
X18294080Y282250D01*
X18298020Y314000D01*
X18290150Y351030D01*
X18262590Y377500D01*
X18235030Y388090D01*
X18199590D01*
G01X18235030D02*
X18258650Y403960D01*
X18278340Y430410D01*
X18286210Y462160D01*
X18278340Y493920D01*
X18258650Y520370D01*
X18223220Y536250D01*
X18187790Y530960D01*
X18152350Y509790D01*
G01X18447620Y351030D02*
X18475190Y388090D01*
X18498810Y409250D01*
X18530310Y419830D01*
X18557870Y409250D01*
X18577550Y388090D01*
X18593300Y356330D01*
X18597240Y319290D01*
X18593300Y287540D01*
X18577550Y255780D01*
X18553920Y229330D01*
X18526370Y218750D01*
X18494870Y229330D01*
X18467310Y261070D01*
X18451560Y308710D01*
X18447620Y361620D01*
X18455500Y430410D01*
X18467310Y467460D01*
X18486990Y504500D01*
X18514550Y530960D01*
X18542110Y536250D01*
X18569670Y525670D01*
X18589360Y499210D01*
G01X17030300Y1118330D02*
X17053930Y1150080D01*
X17081490Y1165960D01*
X17112990Y1171250D01*
X17152350Y1160670D01*
X17179920Y1134210D01*
X17187790Y1102460D01*
X17183850Y1070700D01*
X17168100Y1044250D01*
X17089360Y991330D01*
X17053930Y954290D01*
X17030300Y901360D01*
X17022430Y853750D01*
X17187790D01*
G01X17420070Y843170D02*
X17412190Y848460D01*
Y859040D01*
X17420070Y864330D01*
X17427950Y859040D01*
Y848460D01*
X17420070Y843170D01*
G01X17735030Y1171250D02*
X17703530Y1160670D01*
X17679910Y1134210D01*
X17664160Y1102460D01*
X17652350Y1060120D01*
X17648420Y1012500D01*
X17652350Y964870D01*
X17664160Y922540D01*
X17679910Y890780D01*
X17703530Y864330D01*
X17735030Y853750D01*
X17766520Y864330D01*
X17790150Y890780D01*
X17805900Y922540D01*
X17817710Y964870D01*
X17821640Y1012500D01*
X17817710Y1060120D01*
X17805900Y1102460D01*
X17790150Y1134210D01*
X17766520Y1160670D01*
X17735030Y1171250D01*
G01X17963380Y917250D02*
X17986990Y880200D01*
X18018490Y859040D01*
X18053930Y853750D01*
X18085430Y859040D01*
X18116920Y885490D01*
X18136600Y917250D01*
X18140540Y949000D01*
X18132670Y986030D01*
X18105110Y1012500D01*
X18077550Y1023090D01*
X18042110D01*
G01X18077550D02*
X18101170Y1038960D01*
X18120860Y1065410D01*
X18128730Y1097160D01*
X18120860Y1128920D01*
X18101170Y1155370D01*
X18065740Y1171250D01*
X18030310Y1165960D01*
X17994870Y1144790D01*
G01X18290140Y1118330D02*
X18313770Y1150080D01*
X18341330Y1165960D01*
X18372830Y1171250D01*
X18412190Y1160670D01*
X18439760Y1134210D01*
X18447630Y1102460D01*
X18443690Y1070700D01*
X18427940Y1044250D01*
X18349200Y991330D01*
X18313770Y954290D01*
X18290140Y901360D01*
X18282270Y853750D01*
X18447630D01*
G01X17105110Y2123750D02*
Y2441250D01*
X17057870Y2377750D01*
G01Y2123750D02*
X17152350D01*
G01X17420070Y2113170D02*
X17412190Y2118460D01*
Y2129040D01*
X17420070Y2134330D01*
X17427950Y2129040D01*
Y2118460D01*
X17420070Y2113170D01*
G01X17735030Y2441250D02*
X17703530Y2430670D01*
X17679910Y2404210D01*
X17664160Y2372460D01*
X17652350Y2330120D01*
X17648420Y2282500D01*
X17652350Y2234870D01*
X17664160Y2192540D01*
X17679910Y2160780D01*
X17703530Y2134330D01*
X17735030Y2123750D01*
X17766520Y2134330D01*
X17790150Y2160780D01*
X17805900Y2192540D01*
X17817710Y2234870D01*
X17821640Y2282500D01*
X17817710Y2330120D01*
X17805900Y2372460D01*
X17790150Y2404210D01*
X17766520Y2430670D01*
X17735030Y2441250D01*
G01X18049990Y2123750D02*
Y2441250D01*
X18002750Y2377750D01*
G01Y2123750D02*
X18097230D01*
G01X18290140Y2256030D02*
X18317710Y2293090D01*
X18341330Y2314250D01*
X18372830Y2324830D01*
X18400390Y2314250D01*
X18420070Y2293090D01*
X18435820Y2261330D01*
X18439760Y2224290D01*
X18435820Y2192540D01*
X18420070Y2160780D01*
X18396440Y2134330D01*
X18368890Y2123750D01*
X18337390Y2134330D01*
X18309830Y2166070D01*
X18294080Y2213710D01*
X18290140Y2266620D01*
X18298020Y2335410D01*
X18309830Y2372460D01*
X18329510Y2409500D01*
X18357070Y2435960D01*
X18384630Y2441250D01*
X18412190Y2430670D01*
X18431880Y2404210D01*
G01X16947630Y3076250D02*
X16916130Y3065670D01*
X16892510Y3039210D01*
X16876760Y3007460D01*
X16864950Y2965120D01*
X16861020Y2917500D01*
X16864950Y2869870D01*
X16876760Y2827540D01*
X16892510Y2795780D01*
X16916130Y2769330D01*
X16947630Y2758750D01*
X16979120Y2769330D01*
X17002750Y2795780D01*
X17018500Y2827540D01*
X17030310Y2869870D01*
X17034240Y2917500D01*
X17030310Y2965120D01*
X17018500Y3007460D01*
X17002750Y3039210D01*
X16979120Y3065670D01*
X16947630Y3076250D01*
G01X17262590Y2748170D02*
X17254710Y2753460D01*
Y2764040D01*
X17262590Y2769330D01*
X17270470Y2764040D01*
Y2753460D01*
X17262590Y2748170D01*
G01X17510620Y2795780D02*
X17538180Y2769330D01*
X17569670Y2758750D01*
X17601170Y2769330D01*
X17628730Y2801070D01*
X17648420Y2848710D01*
X17656290Y2896330D01*
Y2954540D01*
X17648420Y3002160D01*
X17628730Y3044500D01*
X17605110Y3065670D01*
X17577550Y3076250D01*
X17546050Y3065670D01*
X17522430Y3044500D01*
X17506680Y3012750D01*
X17498810Y2970410D01*
X17506680Y2933380D01*
X17526370Y2896330D01*
X17549990Y2875160D01*
X17577550Y2869870D01*
X17609040Y2880450D01*
X17632670Y2906910D01*
X17656290Y2954540D01*
G01X17817700Y2891030D02*
X17845270Y2928090D01*
X17868890Y2949250D01*
X17900390Y2959830D01*
X17927950Y2949250D01*
X17947630Y2928090D01*
X17963380Y2896330D01*
X17967320Y2859290D01*
X17963380Y2827540D01*
X17947630Y2795780D01*
X17924000Y2769330D01*
X17896450Y2758750D01*
X17864950Y2769330D01*
X17837390Y2801070D01*
X17821640Y2848710D01*
X17817700Y2901620D01*
X17825580Y2970410D01*
X17837390Y3007460D01*
X17857070Y3044500D01*
X17884630Y3070960D01*
X17912190Y3076250D01*
X17939750Y3065670D01*
X17959440Y3039210D01*
G01X18120860Y2806360D02*
X18144470Y2779910D01*
X18172030Y2764040D01*
X18207470Y2758750D01*
X18242910Y2769330D01*
X18270460Y2790490D01*
X18290150Y2827540D01*
X18294080Y2869870D01*
X18286210Y2912200D01*
X18266520Y2938670D01*
X18238960Y2959830D01*
X18211410Y2965120D01*
X18183850Y2959830D01*
X18148420Y2938670D01*
X18160230Y3076250D01*
X18266520D01*
G01X18447620Y3023330D02*
X18471250Y3055080D01*
X18498810Y3070960D01*
X18530310Y3076250D01*
X18569670Y3065670D01*
X18597240Y3039210D01*
X18605110Y3007460D01*
X18601170Y2975700D01*
X18585420Y2949250D01*
X18506680Y2896330D01*
X18471250Y2859290D01*
X18447620Y2806360D01*
X18439750Y2758750D01*
X18605110D01*
G01X17105110Y3711250D02*
X17073610Y3700670D01*
X17049990Y3674210D01*
X17034240Y3642460D01*
X17022430Y3600120D01*
X17018500Y3552500D01*
X17022430Y3504870D01*
X17034240Y3462540D01*
X17049990Y3430780D01*
X17073610Y3404330D01*
X17105110Y3393750D01*
X17136600Y3404330D01*
X17160230Y3430780D01*
X17175980Y3462540D01*
X17187790Y3504870D01*
X17191720Y3552500D01*
X17187790Y3600120D01*
X17175980Y3642460D01*
X17160230Y3674210D01*
X17136600Y3700670D01*
X17105110Y3711250D01*
G01X17420070Y3383170D02*
X17412190Y3388460D01*
Y3399040D01*
X17420070Y3404330D01*
X17427950Y3399040D01*
Y3388460D01*
X17420070Y3383170D01*
G01X17735030Y3393750D02*
X17762590Y3399040D01*
X17794080Y3414910D01*
X17813770Y3441360D01*
X17821640Y3478420D01*
X17813770Y3515450D01*
X17790150Y3547200D01*
X17754710Y3563090D01*
X17715350D01*
X17691720Y3573670D01*
X17672030Y3600120D01*
X17664160Y3637160D01*
X17675980Y3674210D01*
X17703530Y3700670D01*
X17735030Y3711250D01*
X17766520Y3700670D01*
X17794080Y3674210D01*
X17805900Y3637160D01*
X17798020Y3600120D01*
X17778340Y3573670D01*
X17754710Y3563090D01*
X17715350D01*
X17679910Y3547200D01*
X17656290Y3515450D01*
X17648420Y3478420D01*
X17656290Y3441360D01*
X17675980Y3414910D01*
X17707470Y3399040D01*
X17735030Y3393750D01*
G01X18049990D02*
X18077550Y3399040D01*
X18109040Y3414910D01*
X18128730Y3441360D01*
X18136600Y3478420D01*
X18128730Y3515450D01*
X18105110Y3547200D01*
X18069670Y3563090D01*
X18030310D01*
X18006680Y3573670D01*
X17986990Y3600120D01*
X17979120Y3637160D01*
X17990940Y3674210D01*
X18018490Y3700670D01*
X18049990Y3711250D01*
X18081480Y3700670D01*
X18109040Y3674210D01*
X18120860Y3637160D01*
X18112980Y3600120D01*
X18093300Y3573670D01*
X18069670Y3563090D01*
X18030310D01*
X17994870Y3547200D01*
X17971250Y3515450D01*
X17963380Y3478420D01*
X17971250Y3441360D01*
X17990940Y3414910D01*
X18022430Y3399040D01*
X18049990Y3393750D01*
G01X18298020Y3430780D02*
X18325580Y3404330D01*
X18357070Y3393750D01*
X18388570Y3404330D01*
X18416130Y3436070D01*
X18435820Y3483710D01*
X18443690Y3531330D01*
Y3589540D01*
X18435820Y3637160D01*
X18416130Y3679500D01*
X18392510Y3700670D01*
X18364950Y3711250D01*
X18333450Y3700670D01*
X18309830Y3679500D01*
X18294080Y3647750D01*
X18286210Y3605410D01*
X18294080Y3568380D01*
X18313770Y3531330D01*
X18337390Y3510160D01*
X18364950Y3504870D01*
X18396440Y3515450D01*
X18420070Y3541910D01*
X18443690Y3589540D01*
G01X16947630Y4346250D02*
X16916130Y4335670D01*
X16892510Y4309210D01*
X16876760Y4277460D01*
X16864950Y4235120D01*
X16861020Y4187500D01*
X16864950Y4139870D01*
X16876760Y4097540D01*
X16892510Y4065780D01*
X16916130Y4039330D01*
X16947630Y4028750D01*
X16979120Y4039330D01*
X17002750Y4065780D01*
X17018500Y4097540D01*
X17030310Y4139870D01*
X17034240Y4187500D01*
X17030310Y4235120D01*
X17018500Y4277460D01*
X17002750Y4309210D01*
X16979120Y4335670D01*
X16947630Y4346250D01*
G01X17262590Y4018170D02*
X17254710Y4023460D01*
Y4034040D01*
X17262590Y4039330D01*
X17270470Y4034040D01*
Y4023460D01*
X17262590Y4018170D01*
G01X17624790Y4028750D02*
Y4346250D01*
X17479120Y4118710D01*
X17675980D01*
G01X17805900Y4076360D02*
X17829510Y4049910D01*
X17857070Y4034040D01*
X17892510Y4028750D01*
X17927950Y4039330D01*
X17955500Y4060490D01*
X17975190Y4097540D01*
X17979120Y4139870D01*
X17971250Y4182200D01*
X17951560Y4208670D01*
X17924000Y4229830D01*
X17896450Y4235120D01*
X17868890Y4229830D01*
X17833460Y4208670D01*
X17845270Y4346250D01*
X17951560D01*
G01X18199590Y4028750D02*
X18207470Y4097540D01*
X18219280Y4155740D01*
X18235030Y4208670D01*
X18254710Y4266870D01*
X18286210Y4346250D01*
X18128730D01*
G01X18447620Y4293330D02*
X18471250Y4325080D01*
X18498810Y4340960D01*
X18530310Y4346250D01*
X18569670Y4335670D01*
X18597240Y4309210D01*
X18605110Y4277460D01*
X18601170Y4245700D01*
X18585420Y4219250D01*
X18506680Y4166330D01*
X18471250Y4129290D01*
X18447620Y4076360D01*
X18439750Y4028750D01*
X18605110D01*
G01X16947630Y4981250D02*
X16916130Y4970670D01*
X16892510Y4944210D01*
X16876760Y4912460D01*
X16864950Y4870120D01*
X16861020Y4822500D01*
X16864950Y4774870D01*
X16876760Y4732540D01*
X16892510Y4700780D01*
X16916130Y4674330D01*
X16947630Y4663750D01*
X16979120Y4674330D01*
X17002750Y4700780D01*
X17018500Y4732540D01*
X17030310Y4774870D01*
X17034240Y4822500D01*
X17030310Y4870120D01*
X17018500Y4912460D01*
X17002750Y4944210D01*
X16979120Y4970670D01*
X16947630Y4981250D01*
G01X17262590Y4653170D02*
X17254710Y4658460D01*
Y4669040D01*
X17262590Y4674330D01*
X17270470Y4669040D01*
Y4658460D01*
X17262590Y4653170D01*
G01X17490940Y4727250D02*
X17514550Y4690200D01*
X17546050Y4669040D01*
X17581490Y4663750D01*
X17612990Y4669040D01*
X17644480Y4695490D01*
X17664160Y4727250D01*
X17668100Y4759000D01*
X17660230Y4796030D01*
X17632670Y4822500D01*
X17605110Y4833090D01*
X17569670D01*
G01X17605110D02*
X17628730Y4848960D01*
X17648420Y4875410D01*
X17656290Y4907160D01*
X17648420Y4938920D01*
X17628730Y4965370D01*
X17593300Y4981250D01*
X17557870Y4975960D01*
X17522430Y4954790D01*
G01X17892510Y4981250D02*
X17861010Y4970670D01*
X17837390Y4944210D01*
X17821640Y4912460D01*
X17809830Y4870120D01*
X17805900Y4822500D01*
X17809830Y4774870D01*
X17821640Y4732540D01*
X17837390Y4700780D01*
X17861010Y4674330D01*
X17892510Y4663750D01*
X17924000Y4674330D01*
X17947630Y4700780D01*
X17963380Y4732540D01*
X17975190Y4774870D01*
X17979120Y4822500D01*
X17975190Y4870120D01*
X17963380Y4912460D01*
X17947630Y4944210D01*
X17924000Y4970670D01*
X17892510Y4981250D01*
G01X18254710Y4663750D02*
Y4981250D01*
X18109040Y4753710D01*
X18305900D01*
G01X18522430Y4663750D02*
X18549990Y4669040D01*
X18581480Y4684910D01*
X18601170Y4711360D01*
X18609040Y4748420D01*
X18601170Y4785450D01*
X18577550Y4817200D01*
X18542110Y4833090D01*
X18502750D01*
X18479120Y4843670D01*
X18459430Y4870120D01*
X18451560Y4907160D01*
X18463380Y4944210D01*
X18490930Y4970670D01*
X18522430Y4981250D01*
X18553920Y4970670D01*
X18581480Y4944210D01*
X18593300Y4907160D01*
X18585420Y4870120D01*
X18565740Y4843670D01*
X18542110Y4833090D01*
X18502750D01*
X18467310Y4817200D01*
X18443690Y4785450D01*
X18435820Y4748420D01*
X18443690Y4711360D01*
X18463380Y4684910D01*
X18494870Y4669040D01*
X18522430Y4663750D01*
G01X17179910Y5341070D02*
X17211410Y5314620D01*
X17246840Y5298750D01*
X17278340D01*
X17309830Y5314620D01*
X17333460Y5341070D01*
X17345270Y5378130D01*
X17337400Y5415160D01*
X17317710Y5446910D01*
X17282270Y5468090D01*
X17235030Y5478670D01*
X17207470Y5499830D01*
X17195660Y5536870D01*
X17203540Y5573920D01*
X17223220Y5600370D01*
X17250780Y5616250D01*
X17278340D01*
X17305900Y5605670D01*
X17329520Y5579210D01*
G01X17530310Y5616250D02*
X17624790D01*
G01X17577550D02*
Y5298750D01*
G01X17530310D02*
X17624790D01*
G01X17817700Y5616250D02*
X17967320D01*
X17817700Y5298750D01*
X17967320D01*
G01X18286210D02*
X18128730D01*
Y5616250D01*
X18286210D01*
G01X18223220Y5462800D02*
X18128730D01*
G01X17420070Y1488750D02*
Y1806250D01*
X17372830Y1742750D01*
G01Y1488750D02*
X17467310D01*
G01X17735030Y1478170D02*
X17727150Y1483460D01*
Y1494040D01*
X17735030Y1499330D01*
X17742910Y1494040D01*
Y1483460D01*
X17735030Y1478170D01*
G01X17975180Y1753330D02*
X17998810Y1785080D01*
X18026370Y1800960D01*
X18057870Y1806250D01*
X18097230Y1795670D01*
X18124800Y1769210D01*
X18132670Y1737460D01*
X18128730Y1705700D01*
X18112980Y1679250D01*
X18034240Y1626330D01*
X17998810Y1589290D01*
X17975180Y1536360D01*
X17967310Y1488750D01*
X18132670D01*
G01X20136600Y5775000D02*
Y60000D01*
G01X20884630Y218750D02*
Y536250D01*
X20979120D01*
X21010610Y520370D01*
X21034240Y483330D01*
X21042110Y441000D01*
X21034240Y398670D01*
X21014550Y366910D01*
X20979120Y351030D01*
X20884630D01*
G01X21199590Y536250D02*
Y218750D01*
X21357070D01*
G01X21494860D02*
X21593290Y536250D01*
X21691720Y218750D01*
G01X21656280Y329870D02*
X21530290D01*
G01X21908250Y536250D02*
Y218750D01*
G01X21817700Y536250D02*
X21998800D01*
G01X22301950Y218750D02*
X22144470D01*
Y536250D01*
X22301950D01*
G01X22238960Y382800D02*
X22144470D01*
G01X22451560Y218750D02*
Y536250D01*
X22530290D01*
X22561790Y520370D01*
X22585410Y499210D01*
X22605100Y467460D01*
X22620850Y430410D01*
X22624780Y377500D01*
X22620850Y324580D01*
X22605100Y287540D01*
X22585410Y255780D01*
X22561790Y234620D01*
X22530290Y218750D01*
X22451560D01*
G01X20884630Y853750D02*
Y1171250D01*
X20979120D01*
X21010610Y1155370D01*
X21034240Y1118330D01*
X21042110Y1076000D01*
X21034240Y1033670D01*
X21014550Y1001910D01*
X20979120Y986030D01*
X20884630D01*
G01X21199590Y1171250D02*
Y853750D01*
X21357070D01*
G01X21494860D02*
X21593290Y1171250D01*
X21691720Y853750D01*
G01X21656280Y964870D02*
X21530290D01*
G01X21908250Y1171250D02*
Y853750D01*
G01X21817700Y1171250D02*
X21998800D01*
G01X22301950Y853750D02*
X22144470D01*
Y1171250D01*
X22301950D01*
G01X22238960Y1017800D02*
X22144470D01*
G01X22451560Y853750D02*
Y1171250D01*
X22530290D01*
X22561790Y1155370D01*
X22585410Y1134210D01*
X22605100Y1102460D01*
X22620850Y1065410D01*
X22624780Y1012500D01*
X22620850Y959580D01*
X22605100Y922540D01*
X22585410Y890780D01*
X22561790Y869620D01*
X22530290Y853750D01*
X22451560D01*
G01X20884630Y1488750D02*
Y1806250D01*
X20979120D01*
X21010610Y1790370D01*
X21034240Y1753330D01*
X21042110Y1711000D01*
X21034240Y1668670D01*
X21014550Y1636910D01*
X20979120Y1621030D01*
X20884630D01*
G01X21199590Y1806250D02*
Y1488750D01*
X21357070D01*
G01X21494860D02*
X21593290Y1806250D01*
X21691720Y1488750D01*
G01X21656280Y1599870D02*
X21530290D01*
G01X21908250Y1806250D02*
Y1488750D01*
G01X21817700Y1806250D02*
X21998800D01*
G01X22301950Y1488750D02*
X22144470D01*
Y1806250D01*
X22301950D01*
G01X22238960Y1652800D02*
X22144470D01*
G01X22451560Y1488750D02*
Y1806250D01*
X22530290D01*
X22561790Y1790370D01*
X22585410Y1769210D01*
X22605100Y1737460D01*
X22620850Y1700410D01*
X22624780Y1647500D01*
X22620850Y1594580D01*
X22605100Y1557540D01*
X22585410Y1525780D01*
X22561790Y1504620D01*
X22530290Y1488750D01*
X22451560D01*
G01X20884630Y2123750D02*
Y2441250D01*
X20979120D01*
X21010610Y2425370D01*
X21034240Y2388330D01*
X21042110Y2346000D01*
X21034240Y2303670D01*
X21014550Y2271910D01*
X20979120Y2256030D01*
X20884630D01*
G01X21199590Y2441250D02*
Y2123750D01*
X21357070D01*
G01X21494860D02*
X21593290Y2441250D01*
X21691720Y2123750D01*
G01X21656280Y2234870D02*
X21530290D01*
G01X21908250Y2441250D02*
Y2123750D01*
G01X21817700Y2441250D02*
X21998800D01*
G01X22301950Y2123750D02*
X22144470D01*
Y2441250D01*
X22301950D01*
G01X22238960Y2287800D02*
X22144470D01*
G01X22451560Y2123750D02*
Y2441250D01*
X22530290D01*
X22561790Y2425370D01*
X22585410Y2404210D01*
X22605100Y2372460D01*
X22620850Y2335410D01*
X22624780Y2282500D01*
X22620850Y2229580D01*
X22605100Y2192540D01*
X22585410Y2160780D01*
X22561790Y2139620D01*
X22530290Y2123750D01*
X22451560D01*
G01X20884630Y2758750D02*
Y3076250D01*
X20979120D01*
X21010610Y3060370D01*
X21034240Y3023330D01*
X21042110Y2981000D01*
X21034240Y2938670D01*
X21014550Y2906910D01*
X20979120Y2891030D01*
X20884630D01*
G01X21199590Y3076250D02*
Y2758750D01*
X21357070D01*
G01X21494860D02*
X21593290Y3076250D01*
X21691720Y2758750D01*
G01X21656280Y2869870D02*
X21530290D01*
G01X21908250Y3076250D02*
Y2758750D01*
G01X21817700Y3076250D02*
X21998800D01*
G01X22301950Y2758750D02*
X22144470D01*
Y3076250D01*
X22301950D01*
G01X22238960Y2922800D02*
X22144470D01*
G01X22451560Y2758750D02*
Y3076250D01*
X22530290D01*
X22561790Y3060370D01*
X22585410Y3039210D01*
X22605100Y3007460D01*
X22620850Y2970410D01*
X22624780Y2917500D01*
X22620850Y2864580D01*
X22605100Y2827540D01*
X22585410Y2795780D01*
X22561790Y2774620D01*
X22530290Y2758750D01*
X22451560D01*
G01X20884630Y3393750D02*
Y3711250D01*
X20979120D01*
X21010610Y3695370D01*
X21034240Y3658330D01*
X21042110Y3616000D01*
X21034240Y3573670D01*
X21014550Y3541910D01*
X20979120Y3526030D01*
X20884630D01*
G01X21199590Y3711250D02*
Y3393750D01*
X21357070D01*
G01X21494860D02*
X21593290Y3711250D01*
X21691720Y3393750D01*
G01X21656280Y3504870D02*
X21530290D01*
G01X21908250Y3711250D02*
Y3393750D01*
G01X21817700Y3711250D02*
X21998800D01*
G01X22301950Y3393750D02*
X22144470D01*
Y3711250D01*
X22301950D01*
G01X22238960Y3557800D02*
X22144470D01*
G01X22451560Y3393750D02*
Y3711250D01*
X22530290D01*
X22561790Y3695370D01*
X22585410Y3674210D01*
X22605100Y3642460D01*
X22620850Y3605410D01*
X22624780Y3552500D01*
X22620850Y3499580D01*
X22605100Y3462540D01*
X22585410Y3430780D01*
X22561790Y3409620D01*
X22530290Y3393750D01*
X22451560D01*
G01X20884630Y4028750D02*
Y4346250D01*
X20979120D01*
X21010610Y4330370D01*
X21034240Y4293330D01*
X21042110Y4251000D01*
X21034240Y4208670D01*
X21014550Y4176910D01*
X20979120Y4161030D01*
X20884630D01*
G01X21199590Y4346250D02*
Y4028750D01*
X21357070D01*
G01X21494860D02*
X21593290Y4346250D01*
X21691720Y4028750D01*
G01X21656280Y4139870D02*
X21530290D01*
G01X21908250Y4346250D02*
Y4028750D01*
G01X21817700Y4346250D02*
X21998800D01*
G01X22301950Y4028750D02*
X22144470D01*
Y4346250D01*
X22301950D01*
G01X22238960Y4192800D02*
X22144470D01*
G01X22451560Y4028750D02*
Y4346250D01*
X22530290D01*
X22561790Y4330370D01*
X22585410Y4309210D01*
X22605100Y4277460D01*
X22620850Y4240410D01*
X22624780Y4187500D01*
X22620850Y4134580D01*
X22605100Y4097540D01*
X22585410Y4065780D01*
X22561790Y4044620D01*
X22530290Y4028750D01*
X22451560D01*
G01X20884630Y4663750D02*
Y4981250D01*
X20979120D01*
X21010610Y4965370D01*
X21034240Y4928330D01*
X21042110Y4886000D01*
X21034240Y4843670D01*
X21014550Y4811910D01*
X20979120Y4796030D01*
X20884630D01*
G01X21199590Y4981250D02*
Y4663750D01*
X21357070D01*
G01X21494860D02*
X21593290Y4981250D01*
X21691720Y4663750D01*
G01X21656280Y4774870D02*
X21530290D01*
G01X21908250Y4981250D02*
Y4663750D01*
G01X21817700Y4981250D02*
X21998800D01*
G01X22301950Y4663750D02*
X22144470D01*
Y4981250D01*
X22301950D01*
G01X22238960Y4827800D02*
X22144470D01*
G01X22451560Y4663750D02*
Y4981250D01*
X22530290D01*
X22561790Y4965370D01*
X22585410Y4944210D01*
X22605100Y4912460D01*
X22620850Y4875410D01*
X22624780Y4822500D01*
X22620850Y4769580D01*
X22605100Y4732540D01*
X22585410Y4700780D01*
X22561790Y4679620D01*
X22530290Y4663750D01*
X22451560D01*
G01X20884630Y5298750D02*
Y5616250D01*
X20979120D01*
X21010610Y5600370D01*
X21034240Y5563330D01*
X21042110Y5521000D01*
X21034240Y5478670D01*
X21014550Y5446910D01*
X20979120Y5431030D01*
X20884630D01*
G01X21199590Y5616250D02*
Y5298750D01*
X21357070D01*
G01X21494860D02*
X21593290Y5616250D01*
X21691720Y5298750D01*
G01X21656280Y5409870D02*
X21530290D01*
G01X21908250Y5616250D02*
Y5298750D01*
G01X21817700Y5616250D02*
X21998800D01*
G01X22301950Y5298750D02*
X22144470D01*
Y5616250D01*
X22301950D01*
G01X22238960Y5462800D02*
X22144470D01*
G01X22451560Y5298750D02*
Y5616250D01*
X22530290D01*
X22561790Y5600370D01*
X22585410Y5579210D01*
X22605100Y5547460D01*
X22620850Y5510410D01*
X22624780Y5457500D01*
X22620850Y5404580D01*
X22605100Y5367540D01*
X22585410Y5335780D01*
X22561790Y5314620D01*
X22530290Y5298750D01*
X22451560D01*
G01X23364940Y5775000D02*
Y60000D01*
G01X24191710Y1488750D02*
Y1806250D01*
X24144470Y1742750D01*
G01Y1488750D02*
X24238950D01*
G01X24431860Y1753330D02*
X24455490Y1785080D01*
X24483050Y1800960D01*
X24514550Y1806250D01*
X24553910Y1795670D01*
X24581480Y1769210D01*
X24589350Y1737460D01*
X24585410Y1705700D01*
X24569660Y1679250D01*
X24490920Y1626330D01*
X24455490Y1589290D01*
X24431860Y1536360D01*
X24423990Y1488750D01*
X24589350D01*
G01X24034230Y3393750D02*
Y3711250D01*
X23986990Y3647750D01*
G01Y3393750D02*
X24081470D01*
G01X24262580Y3457250D02*
X24286190Y3420200D01*
X24317690Y3399040D01*
X24353130Y3393750D01*
X24384630Y3399040D01*
X24416120Y3425490D01*
X24435800Y3457250D01*
X24439740Y3489000D01*
X24431870Y3526030D01*
X24404310Y3552500D01*
X24376750Y3563090D01*
X24341310D01*
G01X24376750D02*
X24400370Y3578960D01*
X24420060Y3605410D01*
X24427930Y3637160D01*
X24420060Y3668920D01*
X24400370Y3695370D01*
X24364940Y3711250D01*
X24329510Y3705960D01*
X24294070Y3684790D01*
G01X24577540Y3441360D02*
X24601150Y3414910D01*
X24628710Y3399040D01*
X24664150Y3393750D01*
X24699590Y3404330D01*
X24727140Y3425490D01*
X24746830Y3462540D01*
X24750760Y3504870D01*
X24742890Y3547200D01*
X24723200Y3573670D01*
X24695640Y3594830D01*
X24668090Y3600120D01*
X24640530Y3594830D01*
X24605100Y3573670D01*
X24616910Y3711250D01*
X24723200D01*
G01X24081470Y4663750D02*
Y4981250D01*
X23935800Y4753710D01*
X24132660D01*
G01X24349190Y4663750D02*
X24376750Y4669040D01*
X24408240Y4684910D01*
X24427930Y4711360D01*
X24435800Y4748420D01*
X24427930Y4785450D01*
X24404310Y4817200D01*
X24368870Y4833090D01*
X24329510D01*
X24305880Y4843670D01*
X24286190Y4870120D01*
X24278320Y4907160D01*
X24290140Y4944210D01*
X24317690Y4970670D01*
X24349190Y4981250D01*
X24380680Y4970670D01*
X24408240Y4944210D01*
X24420060Y4907160D01*
X24412180Y4870120D01*
X24392500Y4843670D01*
X24368870Y4833090D01*
X24329510D01*
X24294070Y4817200D01*
X24270450Y4785450D01*
X24262580Y4748420D01*
X24270450Y4711360D01*
X24290140Y4684910D01*
X24321630Y4669040D01*
X24349190Y4663750D01*
G01X24664150D02*
X24691710Y4669040D01*
X24723200Y4684910D01*
X24742890Y4711360D01*
X24750760Y4748420D01*
X24742890Y4785450D01*
X24719270Y4817200D01*
X24683830Y4833090D01*
X24644470D01*
X24620840Y4843670D01*
X24601150Y4870120D01*
X24593280Y4907160D01*
X24605100Y4944210D01*
X24632650Y4970670D01*
X24664150Y4981250D01*
X24695640Y4970670D01*
X24723200Y4944210D01*
X24735020Y4907160D01*
X24727140Y4870120D01*
X24707460Y4843670D01*
X24683830Y4833090D01*
X24644470D01*
X24609030Y4817200D01*
X24585410Y4785450D01*
X24577540Y4748420D01*
X24585410Y4711360D01*
X24605100Y4684910D01*
X24636590Y4669040D01*
X24664150Y4663750D01*
G01X24034230Y5298750D02*
X24002730Y5304040D01*
X23975180Y5325200D01*
X23951550Y5356960D01*
X23935800Y5394000D01*
X23927930Y5436330D01*
Y5478670D01*
X23935800Y5521000D01*
X23951550Y5558040D01*
X23975180Y5589790D01*
X24002730Y5610960D01*
X24034230Y5616250D01*
X24065720Y5610960D01*
X24093280Y5589790D01*
X24116910Y5558040D01*
X24132660Y5521000D01*
X24140530Y5478670D01*
Y5436330D01*
X24132660Y5394000D01*
X24116910Y5356960D01*
X24093280Y5325200D01*
X24065720Y5304040D01*
X24034230Y5298750D01*
G01X24065720Y5383420D02*
X24112970Y5298750D01*
G01X24349190Y5616250D02*
Y5298750D01*
G01X24258640Y5616250D02*
X24439740D01*
G01X24664150Y5298750D02*
Y5441620D01*
X24585410Y5616250D01*
G01X24742890D02*
X24664150Y5441620D01*
G01X24396430Y218750D02*
Y536250D01*
X24250760Y308710D01*
X24447620D01*
G01X24396430Y853750D02*
Y1171250D01*
X24250760Y943710D01*
X24447620D01*
G01X24274380Y2256030D02*
X24301950Y2293090D01*
X24325570Y2314250D01*
X24357070Y2324830D01*
X24384630Y2314250D01*
X24404310Y2293090D01*
X24420060Y2261330D01*
X24424000Y2224290D01*
X24420060Y2192540D01*
X24404310Y2160780D01*
X24380680Y2134330D01*
X24353130Y2123750D01*
X24321630Y2134330D01*
X24294070Y2166070D01*
X24278320Y2213710D01*
X24274380Y2266620D01*
X24282260Y2335410D01*
X24294070Y2372460D01*
X24313750Y2409500D01*
X24341310Y2435960D01*
X24368870Y2441250D01*
X24396430Y2430670D01*
X24416120Y2404210D01*
G01X24349190Y2758750D02*
X24376750Y2764040D01*
X24408240Y2779910D01*
X24427930Y2806360D01*
X24435800Y2843420D01*
X24427930Y2880450D01*
X24404310Y2912200D01*
X24368870Y2928090D01*
X24329510D01*
X24305880Y2938670D01*
X24286190Y2965120D01*
X24278320Y3002160D01*
X24290140Y3039210D01*
X24317690Y3065670D01*
X24349190Y3076250D01*
X24380680Y3065670D01*
X24408240Y3039210D01*
X24420060Y3002160D01*
X24412180Y2965120D01*
X24392500Y2938670D01*
X24368870Y2928090D01*
X24329510D01*
X24294070Y2912200D01*
X24270450Y2880450D01*
X24262580Y2843420D01*
X24270450Y2806360D01*
X24290140Y2779910D01*
X24321630Y2764040D01*
X24349190Y2758750D01*
G01X24262580Y4076360D02*
X24286190Y4049910D01*
X24313750Y4034040D01*
X24349190Y4028750D01*
X24384630Y4039330D01*
X24412180Y4060490D01*
X24431870Y4097540D01*
X24435800Y4139870D01*
X24427930Y4182200D01*
X24408240Y4208670D01*
X24380680Y4229830D01*
X24353130Y4235120D01*
X24325570Y4229830D01*
X24290140Y4208670D01*
X24301950Y4346250D01*
X24408240D01*
G54D13*
X4640000Y7100000D03*
Y6980000D03*
X4690000Y7040000D03*
X4740000Y7100000D03*
Y6980000D03*
X14191730Y4187500D03*
G54D14*
X7760000Y210000D03*
Y670000D03*
X8400000Y210000D03*
Y660000D03*
X9150000Y200000D03*
Y660000D03*
X9790000Y200000D03*
Y650000D03*
X10540000Y200000D03*
Y650000D03*
X11180000Y190000D03*
Y650000D03*
X14191730Y1647500D03*
G54D15*
X7669220Y7696220D03*
Y7442220D03*
X8431220Y7696220D03*
Y7442220D03*
X8177220Y7696220D03*
Y7442220D03*
X7923220Y7696220D03*
Y7442220D03*
X14191730Y2917500D03*
G54D16*
X10698000Y7500000D03*
X11206000D03*
X11714000D03*
X12222000D03*
X14191730Y1012500D03*
G54D17*
X12300000Y2100000D03*
Y830000D03*
Y1084000D03*
Y1338000D03*
Y1592000D03*
Y1846000D03*
X14191730Y2282500D03*
G54D18*
G01X2890000Y170000D02*
G03I-50000J0D01*
G01X3690000D02*
G03I-50000J0D01*
G54D19*
G01X2140000Y7830000D02*
G03I-30000J0D01*
G01X2540000D02*
G03I-30000J0D01*
M02*
