M48
METRIC,TZ
T01C.3048
T02C.4572
T03C.889
T04C.9652
T05C1.016
T06C1.2
T07C2.032
T08C3.4036
;LEADER: 12 
;HEADER: 
;CODE  : ASCII 
;FILE  : MB1136_BOOSTPACK_V10A-1-2.drl for  ... layers TOP and BOTTOM
;DESIGN: MB1136_BOOSTPACK_V10A.brd
;T01 Holesize 1. = 0.304800 Tolerance = +0.000000/-0.000000 PLATED MM Quantity = 488
;T02 Holesize 2. = 0.457200 Tolerance = +0.000000/-0.000000 PLATED MM Quantity = 5
;T03 Holesize 3. = 0.889000 Tolerance = +0.000000/-0.000000 PLATED MM Quantity = 135
;T04 Holesize 4. = 0.965200 Tolerance = +0.000000/-0.000000 PLATED MM Quantity = 8
;T05 Holesize 5. = 1.016000 Tolerance = +0.000000/-0.000000 PLATED MM Quantity = 6
;T06 Holesize 6. = 1.200000 Tolerance = +0.000000/-0.000000 PLATED MM Quantity = 12
;T07 Holesize 7. = 2.032000 Tolerance = +0.000000/-0.000000 PLATED MM Quantity = 4
;T08 Holesize 8. = 3.403600 Tolerance = +0.000000/-0.000000 PLATED MM Quantity = 4
%
G90
T01
X8350000Y6110000
X11570000Y1540000
X9320000Y6620000
X8350000Y6510000
X6260000Y5045000
X7380000Y5050000
X8960000Y6850000
X2906000Y1460000
X4635000Y4735000
X3126000Y1460000
X5370000Y4610000
X3346000Y1460000
X5370000Y4480000
X1600000Y6300000
X12070000Y1800000
X1600000Y6590000
X8640000Y3120000
X1420000Y6230000
X12371600Y3268400
X1420000Y6650000
X8350000Y6260000
X6330000Y3010000
X8480000Y3120000
X5503800Y4963800
X3366200Y5556200
X2240000Y2510000
X3236000Y1460000
X3236000Y514000
X2330000Y3660000
R02X-90000
X2290000Y3590000
X2190000Y3590000
X2240000Y5330000
X2240000Y4850000
X10850000Y4110000
X9950000Y5970000
R02X100000
X10000000Y5910000
X10100000Y5910000
X10940000Y5650000
X10850000Y5570000
X10850000Y5260000
X10930000Y5340000
X10930000Y5260000
X10850000Y5340000
X10850000Y5650000
X7760000Y6250000
X7850000Y6250000
X7760000Y6170000
X7850000Y6170000
X7810000Y6100000
X2190000Y3740000
X2290000Y3740000
X2550000Y7320000
X3370000Y6910000
X4390000Y6090000
R02Y100000
X4390000Y5990000
X7380000Y5300000
X4260000Y6890000
X3100000Y8050000
X4390000Y5880000
X1250000Y1140000
X5600000Y6360000
X1800000Y1140000
X5120000Y7040000
X3000000Y8050000
X7450000Y5420000
X9000000Y4350000
X9000000Y3120000
X7538000Y5172000
X8920000Y4420000
X8920000Y2970000
X10940000Y4410000
X8333890Y5536600
X8333890Y5657690
X10870000Y480000
X5670000Y7590000
X5670000Y7490000
X5590000Y7490000
X5510000Y7490000
X4130000Y7590000
X4050000Y7590000
X4130000Y7490000
X4050000Y7490000
X3060000Y7010000
X2980000Y7010000
X3060000Y7080000
X2980000Y7080000
X3060000Y7150000
X2980000Y7150000
X2980000Y7710000
X3060000Y7710000
X2980000Y7640000
X3060000Y7640000
X2980000Y7570000
X3060000Y7570000
X1510000Y3390000
X8660230Y2000610
X8690230Y2230610
X9120230Y2260610
X1930000Y4730000
X7150230Y1630610
X7634230Y1630610
X8142230Y1630610
X8650230Y1630610
X9930230Y1760610
X10414230Y1760610
X11430230Y1760610
X10922230Y1760610
X9720230Y1990610
X10204230Y1990610
X10712230Y1990610
X11220230Y1990610
X9480230Y2240610
X9964230Y2240610
X10472230Y2240610
X10980230Y2240610
X9270230Y2490610
X9754230Y2490610
X10770230Y2490610
X10262230Y2490610
X11450000Y5770000
X2760000Y7320000
X1682480Y8046710
R02X-508000
X1682480Y7538710
R03X-508000
X158480Y8046710
X886230Y7090610
X1394230Y7090610
X2410230Y7090610
X1902230Y7090610
X1223150Y6743580
R03X508000
X3220000Y6740000
X3500000Y6750000
X3800000Y6750000
X4150000Y6750000
X5170000Y6750000
X5470000Y6740000
X4340000Y7340000
X4580000Y7340000
X4800000Y7340000
X5000000Y7340000
X4640000Y7240000
X4740000Y7240000
X4640000Y6890000
X4740000Y6890000
X4450000Y7740000
X4670000Y7740000
X4880000Y7740000
X5100000Y7740000
X4760000Y7860000
X4980000Y7860000
X3920000Y8190000
X4140000Y8190000
X2770000Y8200000
X2990000Y8200000
X3980000Y7870000
X4200000Y7870000
X5270000Y6840000
X5470000Y6840000
X4660000Y6010000
X4860000Y6010000
X5080000Y6010000
X4930000Y5790000
X4730000Y5790000
X5600000Y5560000
X5400000Y5560000
X6000000Y5560000
X5800000Y5560000
X6220000Y5710000
X6890000Y5720000
X7040000Y5580000
X7060000Y4650000
X7130000Y5830000
X7260000Y5680000
X7270000Y5520000
X7460000Y5820000
X7590000Y5660000
X7600000Y5350000
X8340000Y5780000
X8500000Y5780000
X11110000Y6840000
X11590000Y5630000
X6254230Y8170610
R02X508000
X7854230Y8180610
R02X508000
X9414230Y8190610
R02X508000
X11004230Y8180610
R02X508000
X12022230Y7860610
X11514230Y7860610
X12530230Y7860610
X8114230Y4950610
R02X508000
X9290000Y5670000
X8940000Y5660000
X9830000Y5780000
X9310000Y5400000
X9480000Y5400000
X9500000Y6370000
X9500000Y6160000
X10690000Y6520000
X10640000Y6340000
X10890000Y6460000
X10640000Y6200000
X10570000Y6830000
X10290000Y6720000
X10450000Y6510000
X10370000Y6440000
X10120000Y6430000
X10240000Y6430000
X10150000Y6210000
X10340000Y6200000
X10520000Y6230000
X10510000Y6090000
X10240000Y5790000
X10150000Y5720000
X10010000Y5800000
X9990000Y5400000
X9850000Y5440000
X11160000Y6230000
X8124230Y4530610
R02X508000
X10142230Y4950610
X9634230Y4950610
X11010000Y4830000
X10132230Y4530610
X9624230Y4530610
X10640230Y4530610
X9170230Y4040610
X9654230Y4040610
X10162230Y4040610
X10670230Y4040610
X8830230Y2870610
X9314230Y2870610
X10330230Y2870610
X2698480Y4248710
R03X508000
X2688480Y3868710
R03X508000
X2718480Y3428710
R03X508000
X2718480Y3118710
R03X508000
X2738480Y2518710
R03X508000
X2738480Y2098710
R03X508000
X4988710Y2167520
R03Y508000
X5608710Y2057520
R03Y508000
X5958710Y1467520
R03Y508000
X747520Y71290
R03X508000
X2937520Y61290
R03X508000
X2007520Y681290
R03X508000
X928710Y4217520
R03Y508000
X10822230Y2880610
X11330230Y2880610
X10442230Y3150610
X10950230Y3150610
X10712230Y3410610
X11220230Y3410610
X8652230Y3520610
X9160230Y3520610
X7522230Y3130610
X8030230Y3130610
X8262230Y3980610
X8770230Y3980610
X8042230Y4160610
X8550230Y4160610
X6952230Y4180610
X7460230Y4180610
X5022230Y4260610
X5530230Y4260610
X4122230Y4870610
X4630230Y4870610
X3152230Y4880610
X3660230Y4880610
X1422230Y4310610
X1930230Y4310610
X1412230Y3970610
X1920230Y3970610
X1612230Y3310610
X2120230Y3310610
X1612230Y3110610
X2120230Y3110610
X1370230Y2380610
X862230Y2380610
X1380230Y2610610
X872230Y2610610
X862230Y2910610
X1370230Y2910610
X872230Y3180610
X1380230Y3180610
X1845520Y981290
X1337520Y981290
X957520Y441290
X1465520Y441290
X867520Y721290
X1375520Y721290
X1375520Y1491290
X867520Y1491290
X1355520Y1751290
X847520Y1751290
X2047520Y1661290
X2555520Y1661290
X2847520Y1141290
X3355520Y1141290
X3767520Y1201290
X4275520Y1201290
X4355520Y1341290
X3847520Y1341290
X4435520Y1821290
X3927520Y1821290
X4977520Y1221290
X5485520Y1221290
X4817520Y1371290
X5325520Y1371290
X5317520Y551290
X5825520Y551290
X6865520Y561290
X6357520Y561290
X7477520Y551290
X7985520Y551290
X4987520Y61290
R03X508000
X7565520Y51290
X7057520Y51290
X8073520Y51290
X8581520Y51290
X9377520Y41290
R03X508000
X11413520Y51290
X11921520Y51290
X11403520Y291290
X11911520Y291290
X10373520Y1361290
X10881520Y1361290
X8160000Y6190000
X8010000Y6330000
X8000000Y6520000
X8170000Y6730000
X8170000Y6510000
X8560000Y6650000
X8770000Y6740000
X8930000Y6730000
X8650000Y7210000
X9220000Y7200000
X9780000Y7020000
X9560000Y6730000
X10340000Y7190000
X10400000Y7570000
X10750000Y5090000
X10740000Y4920000
X11250000Y4830000
X11560000Y5090000
X11990000Y6270000
X11990000Y6030000
X11980000Y5770000
X12090000Y5930000
X12090000Y6180000
X11530000Y6240000
X11530000Y6560000
X11510000Y7030000
X10830000Y7030000
X10540000Y5390000
X9830000Y3390000
X9850000Y3700000
X10710000Y3720000
X11280000Y3680000
X12140000Y2520000
X12350000Y2530000
X12080000Y1250000
X12060000Y860000
X2100000Y2300000
X2110000Y2650000
X2100000Y2910000
X1660000Y2080000
X1660000Y1890000
X1660000Y1520000
X12450000Y3460000
X12330000Y3490000
X11600000Y1150000
X2500000Y5100000
X2510000Y5210000
X5810000Y4860000
X6000000Y4850000
X5900000Y4700000
X5620000Y4700000
X5760000Y6740000
X5760000Y6830000
X5660000Y7280000
X6060000Y7290000
X6060000Y7410000
X6350000Y6850000
X6370000Y6750000
X6370000Y6650000
X6370000Y6560000
X6450000Y6560000
X6450000Y6650000
X6790000Y7160000
R02X130000
X7050000Y7030000
X7060000Y6930000
X6970000Y6940000
X7060000Y6780000
X7060000Y6660000
X7060000Y6550000
X5830000Y6790000
X5690000Y6790000
X5680000Y6930000
X5680000Y7050000
X5680000Y7160000
X9360230Y2010610
X9570230Y1780610
X8920000Y2000000
X9180000Y1740000
X8890000Y1770000
X9150000Y1510000
X9370000Y1510000
X9860000Y1500000
X1540000Y5970000
X1870000Y6320000
X1720000Y6170000
X1550000Y6160000
X2090000Y5980000
X2410000Y5980000
X2730000Y5990000
X3240000Y5990000
X3500000Y5980000
X3780000Y5990000
X4130000Y6000000
T02
X4690000Y7040000
X4740000Y6980000
X4640000Y6980000
X4640000Y7100000
X4740000Y7100000
T03
X12170000Y4290000
X12424000Y4290000
X12170000Y4036000
X12424000Y4036000
X12170000Y3782000
X12424000Y3782000
X7470000Y970000
R17X254000
X11788000Y1990000
R07Y254000
X11788000Y4320000
R03Y254000
X11788000Y5640000
R05Y254000
X12320000Y4646000
R02Y254000
X4600000Y8050000
X4346000Y8050000
X345000Y5426000
X599000Y5426000
X345000Y5172000
X599000Y5172000
X345000Y4918000
X599000Y4918000
X345000Y4664000
X599000Y4664000
X345000Y4410000
X599000Y4410000
X345000Y4156000
X599000Y4156000
X345000Y3902000
X599000Y3902000
X345000Y3648000
X599000Y3648000
X345000Y3394000
X599000Y3394000
X345000Y3140000
X599000Y3140000
X345000Y2886000
X599000Y2886000
X345000Y2632000
X599000Y2632000
X345000Y2378000
X599000Y2378000
X345000Y2124000
X599000Y2124000
X345000Y1870000
X599000Y1870000
X345000Y1616000
X599000Y1616000
X345000Y1362000
X599000Y1362000
X345000Y1108000
X599000Y1108000
X345000Y854000
X599000Y854000
X6441000Y5426000
X6695000Y5426000
X6441000Y5172000
X6695000Y5172000
X6441000Y4918000
X6695000Y4918000
X6441000Y4664000
X6695000Y4664000
X6441000Y4410000
X6695000Y4410000
X6441000Y4156000
X6695000Y4156000
X6441000Y3902000
X6695000Y3902000
X6441000Y3648000
X6695000Y3648000
X6441000Y3394000
X6695000Y3394000
X6441000Y3140000
X6695000Y3140000
X6441000Y2886000
X6695000Y2886000
X6441000Y2632000
X6695000Y2632000
X6441000Y2378000
X6695000Y2378000
X6441000Y2124000
X6695000Y2124000
X6441000Y1870000
X6695000Y1870000
X6441000Y1616000
X6695000Y1616000
X6441000Y1362000
X6695000Y1362000
X6441000Y1108000
X6695000Y1108000
X6441000Y854000
X6695000Y854000
X8999220Y7446820
X8999220Y7700820
X9253220Y7446820
X9253220Y7700820
X9507220Y7446820
X9507220Y7700820
X9761220Y7446820
X9761220Y7700820
X12320000Y5549000
R03Y254000
T04
X7669220Y7442220
X7669220Y7696220
X7923220Y7442220
X7923220Y7696220
X8177220Y7442220
X8177220Y7696220
X8431220Y7442220
X8431220Y7696220
T05
X12300000Y2100000
R05Y-254000
T06
X7760000Y210000
X8400000Y210000
X7760000Y670000
X8400000Y660000
X9150000Y200000
X9790000Y200000
X9150000Y660000
X9790000Y650000
X11180000Y650000
X10540000Y650000
X11180000Y190000
X10540000Y200000
T07
X12222000Y7500000
R03X-508000
T08
X330000Y330000
X12300000Y330000
X12300000Y6930000
X330000Y6930000
M30
