G04 ================== begin FILE IDENTIFICATION RECORD ==================*
G04 Layout Name:  MB1136_BOOSTPACK_V10A.brd*
G04 Film Name:    SILKSCREEN_TOP*
G04 File Format:  Gerber RS274X*
G04 File Origin:  Cadence Allegro 16.6-2015-S082*
G04 Origin Date:  Mon Feb 20 14:00:57 2017*
G04 *
G04 Layer:  BOARD GEOMETRY/OUTLINE*
G04 Layer:  REF DES/SILKSCREEN_TOP*
G04 Layer:  PACKAGE GEOMETRY/SILKSCREEN_TOP*
G04 Layer:  BOARD GEOMETRY/SILKSCREEN_TOP*
G04 *
G04 Offset:    (0.0000 0.0000)*
G04 Mirror:    No*
G04 Mode:      Positive*
G04 Rotation:  0*
G04 FullContactRelief:  No*
G04 UndefLineWidth:     0.1524*
G04 ================== end FILE IDENTIFICATION RECORD ====================*
%FSLAX55Y55*MOMM*%
%IR0*IPPOS*OFA0.00000B0.00000*MIA0B0*SFA1.00000B1.00000*%
%ADD10C,.2032*%
%ADD11C,.17*%
%ADD12C,.127*%
%ADD13C,.254*%
%ADD14C,.1524*%
%ADD15C,.3048*%
%ADD16C,.1778*%
G75*
%LPD*%
G75*
G36*
G01X200000Y5570000D02*
Y5520000D01*
X250000D01*
Y5570000D01*
X200000D01*
G37*
G36*
G01X1571920Y4929400D02*
G03I-35920J0D01*
G37*
G36*
G01X2091230Y5180000D02*
G03I-41230J0D01*
G37*
G36*
G01X2988600Y7256500D02*
G03I-25400J0D01*
G37*
G36*
G01X4457100Y4949400D02*
G03I-50800J0D01*
G37*
G36*
G01X4370000Y7140000D02*
G03I-30000J0D01*
G37*
G36*
G01X4727000Y8126200D02*
Y8177000D01*
X4676200D01*
Y8126200D01*
X4727000D01*
G37*
G36*
G01X6300000Y5570000D02*
Y5520000D01*
X6350000D01*
Y5570000D01*
X6300000D01*
G37*
G36*
G01X6130000Y7075000D02*
G03I-20000J0D01*
G37*
G36*
G01X7330000Y870000D02*
Y820000D01*
X7370000D01*
Y870000D01*
X7330000D01*
G37*
G36*
G01X7699220Y7256820D02*
G03I-30000J0D01*
G37*
G36*
G01X9029220Y7266820D02*
G03I-30000J0D01*
G37*
G36*
G01X9151920Y5869400D02*
G03I-35920J0D01*
G37*
G36*
G01Y6589400D02*
G03I-35920J0D01*
G37*
G36*
G01X12211100Y2252400D02*
X12147600D01*
Y2188900D01*
X12211100D01*
Y2252400D01*
G37*
G36*
G01X12080000Y4460000D02*
X12000000D01*
Y4380000D01*
X12080000D01*
Y4460000D01*
G37*
G36*
G01X12251620Y7270000D02*
G03I-31620J0D01*
G37*
G54D10*
G01X1480300Y926500D02*
Y1053500D01*
G01D02*
X1759700D01*
Y926500D01*
X1480300D01*
G01X1759700Y1076500D02*
X1480300D01*
Y1203500D01*
X1759700D01*
G01D02*
Y1076500D01*
G01X2823500Y1580300D02*
X2696500D01*
G01D02*
Y1859700D01*
X2823500D01*
Y1580300D01*
G01X2320300Y4566500D02*
Y4693500D01*
G01D02*
X2599700D01*
Y4566500D01*
X2320300D01*
G01Y4416500D02*
Y4543500D01*
G01D02*
X2599700D01*
Y4416500D01*
X2320300D01*
G01Y4716500D02*
X2599700D01*
G01X2317760D02*
G02Y4843500I73330J63500D01*
G01X2599700Y4716500D02*
G03Y4843500I-71651J63500D01*
G01X2320300Y5266500D02*
X2599700D01*
G01X2317760D02*
G02Y5393500I73330J63500D01*
G01X2599700Y5266500D02*
G03Y5393500I-71651J63500D01*
G01Y4843500D02*
X2320300D01*
G01X2599700Y5393500D02*
X2320300D01*
G01X2785400Y7243800D02*
G03X2734600I-25400J0D01*
G01D02*
X2709200D01*
Y7396200D01*
X2810800D01*
Y7243800D01*
X2785400D01*
G01X2925100Y7218400D02*
X2594900D01*
Y7421600D01*
X2925100D01*
Y7218400D01*
G01X2890000Y170000D02*
G03I-50000J0D01*
G01X3453500Y1869700D02*
Y1590300D01*
X3326500D01*
Y1869700D01*
G01X2973500Y1580300D02*
X2846500D01*
G01D02*
Y1859700D01*
X2973500D01*
Y1580300D01*
G01X3176500Y1869700D02*
Y1590300D01*
G01X3303500D02*
Y1869700D01*
G01X3176500Y1590300D02*
G03X3303500I63500J71651D01*
G01X3326500Y1869700D02*
X3453500D01*
G01X3176500Y1872240D02*
G02X3303500I63500J-73330D01*
G01X3150300Y7026500D02*
Y7153500D01*
G01D02*
X3429700D01*
Y7026500D01*
X3150300D01*
G01Y7176500D02*
Y7303500D01*
G01D02*
X3429700D01*
Y7176500D01*
X3150300D01*
G01X3469700Y7806500D02*
X3190300D01*
Y7933500D01*
X3469700D01*
G01X3150300Y7326500D02*
Y7453500D01*
G01D02*
X3429700D01*
Y7326500D01*
X3150300D01*
G01X3152200Y7961100D02*
X3507800D01*
Y8138900D01*
X3152200D01*
Y7961100D01*
G01X3690000Y170000D02*
G03I-50000J0D01*
G01X3603500Y1869700D02*
Y1590300D01*
X3476500D01*
Y1869700D01*
G01X3753500D02*
Y1590300D01*
X3626500D01*
Y1869700D01*
G01X3476500D02*
X3603500D01*
G01X3626500D02*
X3753500D01*
G01X3840300Y6896500D02*
Y7023500D01*
G01D02*
X4119700D01*
Y6896500D01*
X3840300D01*
G01Y7046500D02*
Y7173500D01*
G01D02*
X4119700D01*
Y7046500D01*
X3840300D01*
G01X3792040Y7198720D02*
G02Y7361280I106888J81280D01*
G01X3794580Y7198720D02*
X4165420D01*
G01X3469700Y7933500D02*
Y7806500D01*
G01X3570300D02*
Y7933500D01*
G01D02*
X3849700D01*
Y7806500D01*
X3570300D01*
G01X4165420Y7361280D02*
X3794580D01*
G01X3532200Y7961100D02*
X3887800D01*
Y8138900D01*
X3532200D01*
Y7961100D01*
G01X4165420Y7198720D02*
G03Y7361280I-106888J81280D01*
G01X5549700Y6896500D02*
X5270300D01*
Y7023500D01*
X5549700D01*
G01X5224580Y7361280D02*
G03Y7198720I106888J-81280D01*
G01D02*
X5595420D01*
G01X5308400Y7756300D02*
X5206800D01*
Y7785940D01*
X5211880Y7797790D01*
X5218650Y7806680D01*
X5228810Y7814090D01*
X5240670Y7820020D01*
X5257600Y7821500D01*
X5274530Y7820020D01*
X5286390Y7814090D01*
X5296550Y7806680D01*
X5303320Y7797790D01*
X5308400Y7785940D01*
Y7756300D01*
G01X5595420Y7361280D02*
X5224580D01*
G01X5440300Y4796500D02*
X5719700D01*
G01Y4923500D02*
X5440300D01*
G01X5437760Y4796500D02*
G02Y4923500I73330J63500D01*
G01X5719700Y4796500D02*
G03Y4923500I-71651J63500D01*
G01X5922040Y6468720D02*
G02Y6631280I106888J81280D01*
G01X5924580Y6468720D02*
X6295420D01*
G01X5730300Y7056500D02*
Y7183500D01*
G01D02*
X6009700D01*
Y7056500D01*
X5730300D01*
G01X6009700Y6906500D02*
X5730300D01*
Y7033500D01*
X6009700D01*
G01Y7216500D02*
X5730300D01*
Y7343500D01*
X6009700D01*
G01X5549700Y7023500D02*
Y6896500D01*
G01X5597960Y7361280D02*
G02Y7198720I-106888J-81280D01*
G01X5922040Y6658720D02*
G02Y6821280I106888J81280D01*
G01X6295420D02*
X5924580D01*
G01Y6658720D02*
X6295420D01*
G01Y6631280D02*
X5924580D01*
G01X5537000Y7505690D02*
Y7535320D01*
X5567480D01*
X5577640Y7526430D01*
X5584410Y7516060D01*
X5587800Y7501250D01*
X5584410Y7486430D01*
X5577640Y7476060D01*
X5567480Y7467170D01*
X5555630Y7461240D01*
X5542080Y7458280D01*
X5530230D01*
X5520070Y7461240D01*
X5508210Y7467170D01*
X5498050Y7476060D01*
X5491280Y7484950D01*
X5486200Y7496800D01*
Y7507170D01*
X5489590Y7519020D01*
X5496360Y7527920D01*
G01X5574260Y7859380D02*
X5582720Y7871240D01*
X5587800Y7884570D01*
Y7896430D01*
X5582720Y7908280D01*
X5574260Y7917170D01*
X5562400Y7921620D01*
X5550550Y7918650D01*
X5540390Y7911240D01*
X5533610Y7897910D01*
X5530230Y7880130D01*
X5523450Y7869760D01*
X5511600Y7865310D01*
X5499750Y7868280D01*
X5491280Y7875680D01*
X5486200Y7886050D01*
Y7896430D01*
X5489590Y7906800D01*
X5498050Y7915690D01*
G01X5333800Y7649200D02*
Y7522200D01*
X5460800D01*
Y7877800D01*
X5333800D01*
Y7750800D01*
G01X5970300Y6316500D02*
X6249700D01*
G01Y6443500D02*
X5970300D01*
G01X5967760Y6316500D02*
G02Y6443500I73330J63500D01*
G01X6249700Y6316500D02*
G03Y6443500I-71651J63500D01*
G01X6295420Y6468720D02*
G03Y6631280I-106888J81280D01*
G01X6009700Y7033500D02*
Y6906500D01*
G01X6120300Y7216500D02*
Y7343500D01*
G01D02*
X6399700D01*
Y7216500D01*
X6120300D01*
G01X6009700Y7343500D02*
Y7216500D01*
G01X6544580Y7111280D02*
G03Y6948720I106888J-81280D01*
G01D02*
X6915420D01*
G01Y7111280D02*
X6544580D01*
G01X6295420Y6658720D02*
G03Y6821280I-106888J81280D01*
G01X6917960Y7111280D02*
G02Y6948720I-106888J-81280D01*
G01X7989700Y7063500D02*
X7710300D01*
G01Y6936500D02*
X7989700D01*
G01X7710300Y7063500D02*
G03Y6936500I71651J-63500D01*
G01X8370300Y6946500D02*
X8649700D01*
G01Y7073500D02*
X8370300D01*
G01X8367760Y6946500D02*
G02Y7073500I73330J63500D01*
G01X7992240Y7063500D02*
G02Y6936500I-73330J-63500D01*
G01X8590300Y5346500D02*
Y5473500D01*
G01D02*
X8869700D01*
Y5346500D01*
X8590300D01*
G01Y5726500D02*
Y5853500D01*
G01D02*
X8869700D01*
Y5726500D01*
X8590300D01*
G01X8869700Y5623500D02*
X8590300D01*
G01Y5496500D02*
X8869700D01*
G01X8872240Y5623500D02*
G02Y5496500I-73330J-63500D01*
G01X8590300Y5623500D02*
G03Y5496500I71651J-63500D01*
G01Y6046500D02*
Y6173500D01*
G01D02*
X8869700D01*
Y6046500D01*
X8590300D01*
G01Y6446500D02*
Y6573500D01*
G01D02*
X8869700D01*
Y6446500D01*
X8590300D01*
G01Y6196500D02*
Y6323500D01*
G01D02*
X8869700D01*
Y6196500D01*
X8590300D01*
G01X8649700Y6946500D02*
G03Y7073500I-71651J63500D01*
G01X9936500Y5739700D02*
X10063500D01*
G01D02*
Y5460300D01*
X9936500D01*
Y5739700D01*
G01X9926500Y6459700D02*
X10053500D01*
G01D02*
Y6180300D01*
X9926500D01*
Y6459700D01*
G01X10209700Y6613500D02*
Y6486500D01*
G01D02*
X9930300D01*
Y6613500D01*
X10209700D01*
G01X9930300Y6026500D02*
Y6153500D01*
G01D02*
X10209700D01*
Y6026500D01*
X9930300D01*
G01Y6936500D02*
Y7063500D01*
G01D02*
X10209700D01*
Y6936500D01*
X9930300D01*
G01X10209700Y6763500D02*
X9930300D01*
G01Y6636500D02*
X10209700D01*
G01X10212240Y6763500D02*
G02Y6636500I-73330J-63500D01*
G01X9930300Y6763500D02*
G03Y6636500I71651J-63500D01*
G01X10747800Y7037800D02*
Y6936200D01*
X10765580Y6956520D01*
G01Y7037800D02*
X10730020D01*
G01X10407650Y6953130D02*
X10398760Y6942970D01*
X10388390Y6937890D01*
X10376540Y6936200D01*
X10361720Y6939590D01*
X10351350Y6948050D01*
X10348380Y6958210D01*
X10349870Y6968380D01*
X10355790Y6976840D01*
X10385430Y6993770D01*
X10398760Y7005630D01*
X10407650Y7022560D01*
X10410620Y7037800D01*
X10348380D01*
G01X10513700Y6738080D02*
X10504810Y6749940D01*
X10492950Y6756710D01*
X10479620Y6758400D01*
X10467760Y6756710D01*
X10455910Y6748240D01*
X10448500Y6738080D01*
X10447020Y6727920D01*
X10449980Y6716070D01*
X10460360Y6707600D01*
X10470730Y6704210D01*
X10484060D01*
G01X10470730D02*
X10461840Y6699130D01*
X10454430Y6690670D01*
X10451470Y6680510D01*
X10454430Y6670350D01*
X10461840Y6661880D01*
X10475170Y6656800D01*
X10488510Y6658490D01*
X10501840Y6665270D01*
G01X10620800Y6771100D02*
X10735100D01*
Y6936200D01*
X10404900D01*
Y6771100D01*
X10519200D01*
G01X10947650Y6953130D02*
X10938760Y6942970D01*
X10928390Y6937890D01*
X10916540Y6936200D01*
X10901720Y6939590D01*
X10891350Y6948050D01*
X10888380Y6958210D01*
X10889870Y6968380D01*
X10895790Y6976840D01*
X10925430Y6993770D01*
X10938760Y7005630D01*
X10947650Y7022560D01*
X10950620Y7037800D01*
X10888380D01*
G01X11160800Y6771100D02*
X11275100D01*
Y6936200D01*
X10944900D01*
Y6771100D01*
X11059200D01*
G01X11279700Y4023500D02*
Y3896500D01*
G01D02*
X11000300D01*
Y4023500D01*
X11279700D01*
G01Y3873500D02*
Y3746500D01*
G01D02*
X11000300D01*
Y3873500D01*
X11279700D01*
G01Y4173500D02*
Y4046500D01*
G01D02*
X11000300D01*
Y4173500D01*
X11279700D01*
G01Y4323500D02*
Y4196500D01*
G01D02*
X11000300D01*
Y4323500D01*
X11279700D01*
G01X11000300Y4346500D02*
Y4473500D01*
G01D02*
X11279700D01*
Y4346500D01*
X11000300D01*
G01X11279700Y5193500D02*
Y5066500D01*
G01D02*
X11000300D01*
Y5193500D01*
X11279700D01*
G01Y5343500D02*
Y5216500D01*
G01D02*
X11000300D01*
Y5343500D01*
X11279700D01*
G01X11000300Y5366500D02*
X11279700D01*
G01X11282240Y5493500D02*
G02Y5366500I-73330J-63500D01*
G01X11000300Y5493500D02*
G03Y5366500I71651J-63500D01*
G01Y5816500D02*
Y5943500D01*
G01D02*
X11279700D01*
Y5816500D01*
X11000300D01*
G01X11279700Y5793500D02*
Y5666500D01*
G01D02*
X11000300D01*
Y5793500D01*
X11279700D01*
G01Y5643500D02*
X11000300D01*
G01Y5516500D02*
X11279700D01*
G01X11282240Y5643500D02*
G02Y5516500I-73330J-63500D01*
G01X11000300Y5643500D02*
G03Y5516500I71651J-63500D01*
G01X11279700Y5493500D02*
X11000300D01*
G01X11287800Y7037800D02*
Y6936200D01*
X11305580Y6956520D01*
G01Y7037800D02*
X11270020D01*
G01X11053700Y6738080D02*
X11044810Y6749940D01*
X11032950Y6756710D01*
X11019620Y6758400D01*
X11007760Y6756710D01*
X10995910Y6748240D01*
X10988500Y6738080D01*
X10987020Y6727920D01*
X10989980Y6716070D01*
X11000360Y6707600D01*
X11010730Y6704210D01*
X11024060D01*
G01X11010730D02*
X11001840Y6699130D01*
X10994430Y6690670D01*
X10991470Y6680510D01*
X10994430Y6670350D01*
X11001840Y6661880D01*
X11015170Y6656800D01*
X11028510Y6658490D01*
X11041840Y6665270D01*
G01X11899700Y1603500D02*
Y1476500D01*
G01D02*
X11620300D01*
Y1603500D01*
X11899700D01*
G01Y1453500D02*
Y1326500D01*
G01D02*
X11620300D01*
Y1453500D01*
X11899700D01*
G01Y1303500D02*
X11620300D01*
G01Y1176500D02*
X11899700D01*
G01X11902240Y1303500D02*
G02Y1176500I-73330J-63500D01*
G01X11620300Y1303500D02*
G03Y1176500I71651J-63500D01*
G01X11899700Y1753500D02*
Y1626500D01*
G01D02*
X11620300D01*
Y1753500D01*
X11899700D01*
G01X12447800Y3018900D02*
X12092200D01*
Y2841100D01*
X12447800D01*
Y3018900D01*
G01Y2818900D02*
X12092200D01*
Y2641100D01*
X12447800D01*
Y2818900D01*
G01Y3218900D02*
X12092200D01*
Y3041100D01*
X12447800D01*
Y3218900D01*
G54D11*
G01X2140000Y7830000D02*
G03I-30000J0D01*
G01X2540000D02*
G03I-30000J0D01*
G54D12*
G01X47790Y825750D02*
X53630Y816560D01*
X61420Y811310D01*
X70180Y810000D01*
X77970Y811310D01*
X85760Y817870D01*
X90630Y825750D01*
X91600Y833620D01*
X89660Y842810D01*
X82840Y849370D01*
X76030Y852000D01*
X67260D01*
G01X76030D02*
X81870Y855930D01*
X86740Y862490D01*
X88680Y870370D01*
X86740Y878240D01*
X81870Y884800D01*
X73100Y888740D01*
X64340Y887430D01*
X55580Y882180D01*
G01X146000Y810000D02*
X147950Y827060D01*
X150870Y841490D01*
X154770Y854620D01*
X159630Y869050D01*
X167420Y888740D01*
X128480D01*
G01X99210Y5390000D02*
Y5468740D01*
X87530Y5452990D01*
G01Y5390000D02*
X110890D01*
G01X767790Y825750D02*
X773630Y816560D01*
X781420Y811310D01*
X790180Y810000D01*
X797970Y811310D01*
X805760Y817870D01*
X810630Y825750D01*
X811600Y833620D01*
X809660Y842810D01*
X802840Y849370D01*
X796030Y852000D01*
X787260D01*
G01X796030D02*
X801870Y855930D01*
X806740Y862490D01*
X808680Y870370D01*
X806740Y878240D01*
X801870Y884800D01*
X793100Y888740D01*
X784340Y887430D01*
X775580Y882180D01*
G01X867950Y810000D02*
X874770Y811310D01*
X882550Y815250D01*
X887420Y821810D01*
X889370Y831000D01*
X887420Y840180D01*
X881580Y848060D01*
X872820Y852000D01*
X863080D01*
X857240Y854620D01*
X852370Y861180D01*
X850420Y870370D01*
X853350Y879550D01*
X860160Y886120D01*
X867950Y888740D01*
X875740Y886120D01*
X882550Y879550D01*
X885480Y870370D01*
X883530Y861180D01*
X878660Y854620D01*
X872820Y852000D01*
X863080D01*
X854320Y848060D01*
X848480Y840180D01*
X846530Y831000D01*
X848480Y821810D01*
X853350Y815250D01*
X861130Y811310D01*
X867950Y810000D01*
G01X790710Y5455620D02*
X796550Y5463490D01*
X803370Y5467430D01*
X811160Y5468740D01*
X820890Y5466120D01*
X827710Y5459550D01*
X829660Y5451680D01*
X828680Y5443800D01*
X824790Y5437240D01*
X805320Y5424120D01*
X796550Y5414930D01*
X790710Y5401810D01*
X788760Y5390000D01*
X829660D01*
G01X3055000Y2790000D02*
G03I-75000J0D01*
G01X3805000D02*
G03I-75000J0D01*
G01X6157260Y810000D02*
X6159210Y827060D01*
X6162130Y841490D01*
X6166030Y854620D01*
X6170890Y869050D01*
X6178680Y888740D01*
X6139740D01*
G01X6216530Y821810D02*
X6222370Y815250D01*
X6229190Y811310D01*
X6237950Y810000D01*
X6246710Y812620D01*
X6253530Y817870D01*
X6258400Y827060D01*
X6259370Y837560D01*
X6257420Y848060D01*
X6252550Y854620D01*
X6245740Y859870D01*
X6238920Y861180D01*
X6232110Y859870D01*
X6223350Y854620D01*
X6226270Y888740D01*
X6252550D01*
G01X6147790Y5395750D02*
X6153630Y5386560D01*
X6161420Y5381310D01*
X6170180Y5380000D01*
X6177970Y5381310D01*
X6185760Y5387870D01*
X6190630Y5395750D01*
X6191600Y5403620D01*
X6189660Y5412810D01*
X6182840Y5419370D01*
X6176030Y5422000D01*
X6167260D01*
G01X6176030D02*
X6181870Y5425930D01*
X6186740Y5432490D01*
X6188680Y5440370D01*
X6186740Y5448240D01*
X6181870Y5454800D01*
X6173100Y5458740D01*
X6164340Y5457430D01*
X6155580Y5452180D01*
G01X6231400Y5389180D02*
X6238210Y5382620D01*
X6246000Y5380000D01*
X6253790Y5382620D01*
X6260610Y5390500D01*
X6265480Y5402310D01*
X6267420Y5414120D01*
Y5428560D01*
X6265480Y5440370D01*
X6260610Y5450870D01*
X6254770Y5456120D01*
X6247950Y5458740D01*
X6240160Y5456120D01*
X6234320Y5450870D01*
X6230420Y5442990D01*
X6228480Y5432490D01*
X6230420Y5423310D01*
X6235290Y5414120D01*
X6241130Y5408870D01*
X6247950Y5407560D01*
X6255740Y5410180D01*
X6261580Y5416740D01*
X6267420Y5428560D01*
G01X6887260Y820000D02*
X6889210Y837060D01*
X6892130Y851490D01*
X6896030Y864620D01*
X6900890Y879050D01*
X6908680Y898740D01*
X6869740D01*
G01X6949450Y852810D02*
X6956270Y862000D01*
X6962110Y867240D01*
X6969900Y869870D01*
X6976710Y867240D01*
X6981580Y862000D01*
X6985480Y854120D01*
X6986450Y844930D01*
X6985480Y837060D01*
X6981580Y829180D01*
X6975740Y822620D01*
X6968920Y820000D01*
X6961130Y822620D01*
X6954320Y830500D01*
X6950420Y842310D01*
X6949450Y855430D01*
X6951400Y872490D01*
X6954320Y881680D01*
X6959190Y890870D01*
X6966000Y897430D01*
X6972820Y898740D01*
X6979630Y896120D01*
X6984500Y889550D01*
G01X6900890Y5380000D02*
Y5458740D01*
X6864870Y5402310D01*
X6913550D01*
G01X6967950Y5458740D02*
X6960160Y5456120D01*
X6954320Y5449550D01*
X6950420Y5441680D01*
X6947500Y5431180D01*
X6946530Y5419370D01*
X6947500Y5407560D01*
X6950420Y5397060D01*
X6954320Y5389180D01*
X6960160Y5382620D01*
X6967950Y5380000D01*
X6975740Y5382620D01*
X6981580Y5389180D01*
X6985480Y5397060D01*
X6988400Y5407560D01*
X6989370Y5419370D01*
X6988400Y5431180D01*
X6985480Y5441680D01*
X6981580Y5449550D01*
X6975740Y5456120D01*
X6967950Y5458740D01*
G01X7770000Y1139740D02*
X7691260D01*
Y1164080D01*
X7695200Y1171870D01*
X7700450Y1176740D01*
X7710950Y1178680D01*
X7721440Y1176740D01*
X7728000Y1170890D01*
X7731940Y1164080D01*
Y1139740D01*
G01Y1164080D02*
X7770000Y1178680D01*
G01X7759500Y1217500D02*
X7766060Y1225290D01*
X7770000Y1234060D01*
Y1241840D01*
X7766060Y1249630D01*
X7759500Y1255480D01*
X7750310Y1258400D01*
X7741130Y1256450D01*
X7733260Y1251580D01*
X7728000Y1242820D01*
X7725380Y1231130D01*
X7720130Y1224320D01*
X7710950Y1221400D01*
X7701760Y1223350D01*
X7695200Y1228210D01*
X7691260Y1235030D01*
Y1241840D01*
X7693880Y1248660D01*
X7700450Y1254500D01*
G01X7691260Y1316690D02*
X7770000D01*
G01X7691260Y1294300D02*
Y1339080D01*
G01X7500000Y1136820D02*
X7421260D01*
X7500000Y1181600D01*
X7421260D01*
G01X7427820Y1259370D02*
X7423880Y1253530D01*
X7421260Y1246710D01*
Y1238920D01*
X7425200Y1230160D01*
X7431760Y1223350D01*
X7439630Y1218480D01*
X7452760Y1214580D01*
X7464570Y1213610D01*
X7476380Y1215560D01*
X7484250Y1218480D01*
X7492130Y1224320D01*
X7497380Y1231130D01*
X7500000Y1237950D01*
Y1244770D01*
X7497380Y1251580D01*
X7493440Y1257420D01*
X7488190Y1262290D01*
G01X7457480Y7402220D02*
Y7529220D01*
X7438180Y7503820D01*
G01Y7402220D02*
X7476780D01*
G01X7416910Y7748050D02*
X7426570Y7760750D01*
X7437830Y7767100D01*
X7450700Y7769220D01*
X7466780Y7764990D01*
X7478050Y7754400D01*
X7481260Y7741710D01*
X7479650Y7729000D01*
X7473220Y7718420D01*
X7441050Y7697250D01*
X7426570Y7682440D01*
X7416910Y7661270D01*
X7413700Y7642220D01*
X7481260D01*
G01X8197820Y1180630D02*
X8193880Y1174790D01*
X8191260Y1167970D01*
Y1160180D01*
X8195200Y1151420D01*
X8201760Y1144610D01*
X8209630Y1139740D01*
X8222760Y1135840D01*
X8234570Y1134870D01*
X8246380Y1136820D01*
X8254250Y1139740D01*
X8262130Y1145580D01*
X8267380Y1152390D01*
X8270000Y1159210D01*
Y1166030D01*
X8267380Y1172840D01*
X8263440Y1178680D01*
X8258190Y1183550D01*
G01X8259500Y1217500D02*
X8266060Y1225290D01*
X8270000Y1234060D01*
Y1241840D01*
X8266060Y1249630D01*
X8259500Y1255480D01*
X8250310Y1258400D01*
X8241130Y1256450D01*
X8233260Y1251580D01*
X8228000Y1242820D01*
X8225380Y1231130D01*
X8220130Y1224320D01*
X8210950Y1221400D01*
X8201760Y1223350D01*
X8195200Y1228210D01*
X8191260Y1235030D01*
Y1241840D01*
X8193880Y1248660D01*
X8200450Y1254500D01*
G01X8020000Y1136820D02*
X7941260D01*
X8020000Y1181600D01*
X7941260D01*
G01X7947820Y1259370D02*
X7943880Y1253530D01*
X7941260Y1246710D01*
Y1238920D01*
X7945200Y1230160D01*
X7951760Y1223350D01*
X7959630Y1218480D01*
X7972760Y1214580D01*
X7984570Y1213610D01*
X7996380Y1215560D01*
X8004250Y1218480D01*
X8012130Y1224320D01*
X8017380Y1231130D01*
X8020000Y1237950D01*
Y1244770D01*
X8017380Y1251580D01*
X8013440Y1257420D01*
X8008190Y1262290D01*
G01X9030000Y1137790D02*
X8951260D01*
Y1157260D01*
X8955200Y1165050D01*
X8960450Y1170890D01*
X8968320Y1175760D01*
X8977510Y1179660D01*
X8990630Y1180630D01*
X9003750Y1179660D01*
X9012940Y1175760D01*
X9020820Y1170890D01*
X9026060Y1165050D01*
X9030000Y1157260D01*
Y1137790D01*
G01X8988000Y1245740D02*
X8984070Y1249630D01*
X8977510Y1252550D01*
X8968320Y1254500D01*
X8960450Y1252550D01*
X8955200Y1248660D01*
X8951260Y1241840D01*
Y1215560D01*
X9030000D01*
Y1247690D01*
X9024750Y1254500D01*
X9016880Y1258400D01*
X9007690Y1260340D01*
X8998510Y1258400D01*
X8990630Y1252550D01*
X8988000Y1245740D01*
Y1215560D01*
G01X9018190Y1295270D02*
X9024750Y1301110D01*
X9028690Y1307930D01*
X9030000Y1316690D01*
X9027380Y1325450D01*
X9022130Y1332270D01*
X9012940Y1337140D01*
X9002440Y1338110D01*
X8991940Y1336160D01*
X8985380Y1331290D01*
X8980130Y1324480D01*
X8978820Y1317660D01*
X8980130Y1310850D01*
X8985380Y1302090D01*
X8951260Y1305010D01*
Y1331290D01*
G01X8780000Y1137790D02*
X8701260D01*
Y1157260D01*
X8705200Y1165050D01*
X8710450Y1170890D01*
X8718320Y1175760D01*
X8727510Y1179660D01*
X8740630Y1180630D01*
X8753750Y1179660D01*
X8762940Y1175760D01*
X8770820Y1170890D01*
X8776060Y1165050D01*
X8780000Y1157260D01*
Y1137790D01*
G01X8738000Y1245740D02*
X8734070Y1249630D01*
X8727510Y1252550D01*
X8718320Y1254500D01*
X8710450Y1252550D01*
X8705200Y1248660D01*
X8701260Y1241840D01*
Y1215560D01*
X8780000D01*
Y1247690D01*
X8774750Y1254500D01*
X8766880Y1258400D01*
X8757690Y1260340D01*
X8748510Y1258400D01*
X8740630Y1252550D01*
X8738000Y1245740D01*
Y1215560D01*
G01X8747190Y1298190D02*
X8738000Y1305010D01*
X8732760Y1310850D01*
X8730130Y1318640D01*
X8732760Y1325450D01*
X8738000Y1330320D01*
X8745880Y1334220D01*
X8755070Y1335190D01*
X8762940Y1334220D01*
X8770820Y1330320D01*
X8777380Y1324480D01*
X8780000Y1317660D01*
X8777380Y1309870D01*
X8769500Y1303060D01*
X8757690Y1299160D01*
X8744570Y1298190D01*
X8727510Y1300140D01*
X8718320Y1303060D01*
X8709130Y1307930D01*
X8702570Y1314740D01*
X8701260Y1321560D01*
X8703880Y1328370D01*
X8710450Y1333240D01*
G01X8520000Y1137790D02*
X8441260D01*
Y1157260D01*
X8445200Y1165050D01*
X8450450Y1170890D01*
X8458320Y1175760D01*
X8467510Y1179660D01*
X8480630Y1180630D01*
X8493750Y1179660D01*
X8502940Y1175760D01*
X8510820Y1170890D01*
X8516060Y1165050D01*
X8520000Y1157260D01*
Y1137790D01*
G01X8478000Y1245740D02*
X8474070Y1249630D01*
X8467510Y1252550D01*
X8458320Y1254500D01*
X8450450Y1252550D01*
X8445200Y1248660D01*
X8441260Y1241840D01*
Y1215560D01*
X8520000D01*
Y1247690D01*
X8514750Y1254500D01*
X8506880Y1258400D01*
X8497690Y1260340D01*
X8488510Y1258400D01*
X8480630Y1252550D01*
X8478000Y1245740D01*
Y1215560D01*
G01X8520000Y1314740D02*
X8502940Y1316690D01*
X8488510Y1319610D01*
X8475380Y1323510D01*
X8460950Y1328370D01*
X8441260Y1336160D01*
Y1297220D01*
G01X8644260Y7362220D02*
X8647480Y7389730D01*
X8652310Y7413020D01*
X8658740Y7434190D01*
X8666780Y7457470D01*
X8679650Y7489220D01*
X8615310D01*
G01X8647480Y7642220D02*
X8658740Y7644340D01*
X8671610Y7650680D01*
X8679650Y7661270D01*
X8682870Y7676090D01*
X8679650Y7690900D01*
X8670000Y7703600D01*
X8655520Y7709950D01*
X8639440D01*
X8629780Y7714190D01*
X8621740Y7724770D01*
X8618520Y7739590D01*
X8623350Y7754400D01*
X8634610Y7764990D01*
X8647480Y7769220D01*
X8660350Y7764990D01*
X8671610Y7754400D01*
X8676440Y7739590D01*
X8673220Y7724770D01*
X8665180Y7714190D01*
X8655520Y7709950D01*
X8639440D01*
X8624960Y7703600D01*
X8615310Y7690900D01*
X8612090Y7676090D01*
X8615310Y7661270D01*
X8623350Y7650680D01*
X8636220Y7644340D01*
X8647480Y7642220D01*
G01X8966910Y7972650D02*
X8976570Y7985350D01*
X8987830Y7991700D01*
X9000700Y7993820D01*
X9016780Y7989590D01*
X9028050Y7979000D01*
X9031260Y7966310D01*
X9029650Y7953600D01*
X9023220Y7943020D01*
X8991050Y7921850D01*
X8976570Y7907040D01*
X8966910Y7885870D01*
X8963700Y7866820D01*
X9031260D01*
G01X9530000Y1137790D02*
X9451260D01*
Y1157260D01*
X9455200Y1165050D01*
X9460450Y1170890D01*
X9468320Y1175760D01*
X9477510Y1179660D01*
X9490630Y1180630D01*
X9503750Y1179660D01*
X9512940Y1175760D01*
X9520820Y1170890D01*
X9526060Y1165050D01*
X9530000Y1157260D01*
Y1137790D01*
G01X9488000Y1245740D02*
X9484070Y1249630D01*
X9477510Y1252550D01*
X9468320Y1254500D01*
X9460450Y1252550D01*
X9455200Y1248660D01*
X9451260Y1241840D01*
Y1215560D01*
X9530000D01*
Y1247690D01*
X9524750Y1254500D01*
X9516880Y1258400D01*
X9507690Y1260340D01*
X9498510Y1258400D01*
X9490630Y1252550D01*
X9488000Y1245740D01*
Y1215560D01*
G01X9514250Y1295270D02*
X9523440Y1301110D01*
X9528690Y1308900D01*
X9530000Y1317660D01*
X9528690Y1325450D01*
X9522130Y1333240D01*
X9514250Y1338110D01*
X9506380Y1339080D01*
X9497190Y1337140D01*
X9490630Y1330320D01*
X9488000Y1323510D01*
Y1314740D01*
G01Y1323510D02*
X9484070Y1329350D01*
X9477510Y1334220D01*
X9469630Y1336160D01*
X9461760Y1334220D01*
X9455200Y1329350D01*
X9451260Y1320580D01*
X9452570Y1311820D01*
X9457820Y1303060D01*
G01X9280000Y1137790D02*
X9201260D01*
Y1157260D01*
X9205200Y1165050D01*
X9210450Y1170890D01*
X9218320Y1175760D01*
X9227510Y1179660D01*
X9240630Y1180630D01*
X9253750Y1179660D01*
X9262940Y1175760D01*
X9270820Y1170890D01*
X9276060Y1165050D01*
X9280000Y1157260D01*
Y1137790D01*
G01X9238000Y1245740D02*
X9234070Y1249630D01*
X9227510Y1252550D01*
X9218320Y1254500D01*
X9210450Y1252550D01*
X9205200Y1248660D01*
X9201260Y1241840D01*
Y1215560D01*
X9280000D01*
Y1247690D01*
X9274750Y1254500D01*
X9266880Y1258400D01*
X9257690Y1260340D01*
X9248510Y1258400D01*
X9240630Y1252550D01*
X9238000Y1245740D01*
Y1215560D01*
G01X9280000Y1328370D02*
X9201260D01*
X9257690Y1292350D01*
Y1341030D01*
G01X10300000Y1137790D02*
X10221260D01*
Y1157260D01*
X10225200Y1165050D01*
X10230450Y1170890D01*
X10238320Y1175760D01*
X10247510Y1179660D01*
X10260630Y1180630D01*
X10273750Y1179660D01*
X10282940Y1175760D01*
X10290820Y1170890D01*
X10296060Y1165050D01*
X10300000Y1157260D01*
Y1137790D01*
G01X10258000Y1245740D02*
X10254070Y1249630D01*
X10247510Y1252550D01*
X10238320Y1254500D01*
X10230450Y1252550D01*
X10225200Y1248660D01*
X10221260Y1241840D01*
Y1215560D01*
X10300000D01*
Y1247690D01*
X10294750Y1254500D01*
X10286880Y1258400D01*
X10277690Y1260340D01*
X10268510Y1258400D01*
X10260630Y1252550D01*
X10258000Y1245740D01*
Y1215560D01*
G01X10221260Y1316690D02*
X10223880Y1308900D01*
X10230450Y1303060D01*
X10238320Y1299160D01*
X10248820Y1296240D01*
X10260630Y1295270D01*
X10272440Y1296240D01*
X10282940Y1299160D01*
X10290820Y1303060D01*
X10297380Y1308900D01*
X10300000Y1316690D01*
X10297380Y1324480D01*
X10290820Y1330320D01*
X10282940Y1334220D01*
X10272440Y1337140D01*
X10260630Y1338110D01*
X10248820Y1337140D01*
X10238320Y1334220D01*
X10230450Y1330320D01*
X10223880Y1324480D01*
X10221260Y1316690D01*
G01X9780000Y1137790D02*
X9701260D01*
Y1157260D01*
X9705200Y1165050D01*
X9710450Y1170890D01*
X9718320Y1175760D01*
X9727510Y1179660D01*
X9740630Y1180630D01*
X9753750Y1179660D01*
X9762940Y1175760D01*
X9770820Y1170890D01*
X9776060Y1165050D01*
X9780000Y1157260D01*
Y1137790D01*
G01X9738000Y1245740D02*
X9734070Y1249630D01*
X9727510Y1252550D01*
X9718320Y1254500D01*
X9710450Y1252550D01*
X9705200Y1248660D01*
X9701260Y1241840D01*
Y1215560D01*
X9780000D01*
Y1247690D01*
X9774750Y1254500D01*
X9766880Y1258400D01*
X9757690Y1260340D01*
X9748510Y1258400D01*
X9740630Y1252550D01*
X9738000Y1245740D01*
Y1215560D01*
G01X9714380Y1298190D02*
X9706510Y1304030D01*
X9702570Y1310850D01*
X9701260Y1318640D01*
X9703880Y1328370D01*
X9710450Y1335190D01*
X9718320Y1337140D01*
X9726200Y1336160D01*
X9732760Y1332270D01*
X9745880Y1312800D01*
X9755070Y1304030D01*
X9768190Y1298190D01*
X9780000Y1296240D01*
Y1337140D01*
G01X10050000Y1137790D02*
X9971260D01*
Y1157260D01*
X9975200Y1165050D01*
X9980450Y1170890D01*
X9988320Y1175760D01*
X9997510Y1179660D01*
X10010630Y1180630D01*
X10023750Y1179660D01*
X10032940Y1175760D01*
X10040820Y1170890D01*
X10046060Y1165050D01*
X10050000Y1157260D01*
Y1137790D01*
G01X10008000Y1245740D02*
X10004070Y1249630D01*
X9997510Y1252550D01*
X9988320Y1254500D01*
X9980450Y1252550D01*
X9975200Y1248660D01*
X9971260Y1241840D01*
Y1215560D01*
X10050000D01*
Y1247690D01*
X10044750Y1254500D01*
X10036880Y1258400D01*
X10027690Y1260340D01*
X10018510Y1258400D01*
X10010630Y1252550D01*
X10008000Y1245740D01*
Y1215560D01*
G01X10050000Y1316690D02*
X9971260D01*
X9987010Y1305010D01*
G01X10050000D02*
Y1328370D01*
G01X9757480Y7866820D02*
X9768740Y7868940D01*
X9781610Y7875280D01*
X9789650Y7885870D01*
X9792870Y7900690D01*
X9789650Y7915500D01*
X9780000Y7928200D01*
X9765520Y7934550D01*
X9749440D01*
X9739780Y7938790D01*
X9731740Y7949370D01*
X9728520Y7964190D01*
X9733350Y7979000D01*
X9744610Y7989590D01*
X9757480Y7993820D01*
X9770350Y7989590D01*
X9781610Y7979000D01*
X9786440Y7964190D01*
X9783220Y7949370D01*
X9775180Y7938790D01*
X9765520Y7934550D01*
X9749440D01*
X9734960Y7928200D01*
X9725310Y7915500D01*
X9722090Y7900690D01*
X9725310Y7885870D01*
X9733350Y7875280D01*
X9746220Y7868940D01*
X9757480Y7866820D01*
G01X10800000Y1139740D02*
X10721260D01*
Y1164080D01*
X10725200Y1171870D01*
X10730450Y1176740D01*
X10740950Y1178680D01*
X10751440Y1176740D01*
X10758000Y1170890D01*
X10761940Y1164080D01*
Y1139740D01*
G01Y1164080D02*
X10800000Y1178680D01*
G01X10721260Y1208740D02*
X10800000Y1222370D01*
X10721260Y1237950D01*
X10800000Y1253530D01*
X10721260Y1267160D01*
G01X10550000Y1139740D02*
X10471260D01*
Y1164080D01*
X10475200Y1171870D01*
X10480450Y1176740D01*
X10490950Y1178680D01*
X10501440Y1176740D01*
X10508000Y1170890D01*
X10511940Y1164080D01*
Y1139740D01*
G01Y1164080D02*
X10550000Y1178680D01*
G01Y1216530D02*
X10471260D01*
Y1236000D01*
X10475200Y1243790D01*
X10480450Y1249630D01*
X10488320Y1254500D01*
X10497510Y1258400D01*
X10510630Y1259370D01*
X10523750Y1258400D01*
X10532940Y1254500D01*
X10540820Y1249630D01*
X10546060Y1243790D01*
X10550000Y1236000D01*
Y1216530D01*
G01X11568190Y657790D02*
X11574750Y663630D01*
X11578690Y670450D01*
X11580000Y679210D01*
X11577380Y687970D01*
X11572130Y694790D01*
X11562940Y699660D01*
X11552440Y700630D01*
X11541940Y698680D01*
X11535380Y693810D01*
X11530130Y687000D01*
X11528820Y680180D01*
X11530130Y673370D01*
X11535380Y664610D01*
X11501260Y667530D01*
Y693810D01*
G01Y733610D02*
X11580000Y757950D01*
X11501260Y782290D01*
G01X11300000Y1136820D02*
X11221260D01*
X11300000Y1181600D01*
X11221260D01*
G01X11227820Y1259370D02*
X11223880Y1253530D01*
X11221260Y1246710D01*
Y1238920D01*
X11225200Y1230160D01*
X11231760Y1223350D01*
X11239630Y1218480D01*
X11252760Y1214580D01*
X11264570Y1213610D01*
X11276380Y1215560D01*
X11284250Y1218480D01*
X11292130Y1224320D01*
X11297380Y1231130D01*
X11300000Y1237950D01*
Y1244770D01*
X11297380Y1251580D01*
X11293440Y1257420D01*
X11288190Y1262290D01*
G01X11050000Y1139740D02*
X10971260D01*
Y1164080D01*
X10975200Y1171870D01*
X10980450Y1176740D01*
X10990950Y1178680D01*
X11001440Y1176740D01*
X11008000Y1170890D01*
X11011940Y1164080D01*
Y1139740D01*
G01Y1164080D02*
X11050000Y1178680D01*
G01X11039500Y1217500D02*
X11046060Y1225290D01*
X11050000Y1234060D01*
Y1241840D01*
X11046060Y1249630D01*
X11039500Y1255480D01*
X11030310Y1258400D01*
X11021130Y1256450D01*
X11013260Y1251580D01*
X11008000Y1242820D01*
X11005380Y1231130D01*
X11000130Y1224320D01*
X10990950Y1221400D01*
X10981760Y1223350D01*
X10975200Y1228210D01*
X10971260Y1235030D01*
Y1241840D01*
X10973880Y1248660D01*
X10980450Y1254500D01*
G01X11337790Y2200000D02*
Y2278740D01*
X11357260D01*
X11365050Y2274800D01*
X11370890Y2269550D01*
X11375760Y2261680D01*
X11379660Y2252490D01*
X11380630Y2239370D01*
X11379660Y2226250D01*
X11375760Y2217060D01*
X11370890Y2209180D01*
X11365050Y2203940D01*
X11357260Y2200000D01*
X11337790D01*
G01X11445740Y2242000D02*
X11449630Y2245930D01*
X11452550Y2252490D01*
X11454500Y2261680D01*
X11452550Y2269550D01*
X11448660Y2274800D01*
X11441840Y2278740D01*
X11415560D01*
Y2200000D01*
X11447690D01*
X11454500Y2205250D01*
X11458400Y2213120D01*
X11460340Y2222310D01*
X11458400Y2231490D01*
X11452550Y2239370D01*
X11445740Y2242000D01*
X11415560D01*
G01X11516690Y2200000D02*
Y2278740D01*
X11505010Y2262990D01*
G01Y2200000D02*
X11528370D01*
G01X11576930Y2232810D02*
X11583750Y2242000D01*
X11589590Y2247240D01*
X11597380Y2249870D01*
X11604190Y2247240D01*
X11609060Y2242000D01*
X11612960Y2234120D01*
X11613930Y2224930D01*
X11612960Y2217060D01*
X11609060Y2209180D01*
X11603220Y2202620D01*
X11596400Y2200000D01*
X11588610Y2202620D01*
X11581800Y2210500D01*
X11577900Y2222310D01*
X11576930Y2235430D01*
X11578880Y2252490D01*
X11581800Y2261680D01*
X11586670Y2270870D01*
X11593480Y2277430D01*
X11600300Y2278740D01*
X11607110Y2276120D01*
X11611980Y2269550D01*
G01X11337790Y1950000D02*
Y2028740D01*
X11357260D01*
X11365050Y2024800D01*
X11370890Y2019550D01*
X11375760Y2011680D01*
X11379660Y2002490D01*
X11380630Y1989370D01*
X11379660Y1976250D01*
X11375760Y1967060D01*
X11370890Y1959180D01*
X11365050Y1953940D01*
X11357260Y1950000D01*
X11337790D01*
G01X11445740Y1992000D02*
X11449630Y1995930D01*
X11452550Y2002490D01*
X11454500Y2011680D01*
X11452550Y2019550D01*
X11448660Y2024800D01*
X11441840Y2028740D01*
X11415560D01*
Y1950000D01*
X11447690D01*
X11454500Y1955250D01*
X11458400Y1963120D01*
X11460340Y1972310D01*
X11458400Y1981490D01*
X11452550Y1989370D01*
X11445740Y1992000D01*
X11415560D01*
G01X11516690Y1950000D02*
Y2028740D01*
X11505010Y2012990D01*
G01Y1950000D02*
X11528370D01*
G01X11593480D02*
X11595430Y1967060D01*
X11598350Y1981490D01*
X11602250Y1994620D01*
X11607110Y2009050D01*
X11614900Y2028740D01*
X11575960D01*
G01X11337790Y2710000D02*
Y2788740D01*
X11357260D01*
X11365050Y2784800D01*
X11370890Y2779550D01*
X11375760Y2771680D01*
X11379660Y2762490D01*
X11380630Y2749370D01*
X11379660Y2736250D01*
X11375760Y2727060D01*
X11370890Y2719180D01*
X11365050Y2713940D01*
X11357260Y2710000D01*
X11337790D01*
G01X11445740Y2752000D02*
X11449630Y2755930D01*
X11452550Y2762490D01*
X11454500Y2771680D01*
X11452550Y2779550D01*
X11448660Y2784800D01*
X11441840Y2788740D01*
X11415560D01*
Y2710000D01*
X11447690D01*
X11454500Y2715250D01*
X11458400Y2723120D01*
X11460340Y2732310D01*
X11458400Y2741490D01*
X11452550Y2749370D01*
X11445740Y2752000D01*
X11415560D01*
G01X11516690Y2710000D02*
Y2788740D01*
X11505010Y2772990D01*
G01Y2710000D02*
X11528370D01*
G01X11607110D02*
Y2788740D01*
X11571090Y2732310D01*
X11619770D01*
G01X11337790Y2460000D02*
Y2538740D01*
X11357260D01*
X11365050Y2534800D01*
X11370890Y2529550D01*
X11375760Y2521680D01*
X11379660Y2512490D01*
X11380630Y2499370D01*
X11379660Y2486250D01*
X11375760Y2477060D01*
X11370890Y2469180D01*
X11365050Y2463940D01*
X11357260Y2460000D01*
X11337790D01*
G01X11445740Y2502000D02*
X11449630Y2505930D01*
X11452550Y2512490D01*
X11454500Y2521680D01*
X11452550Y2529550D01*
X11448660Y2534800D01*
X11441840Y2538740D01*
X11415560D01*
Y2460000D01*
X11447690D01*
X11454500Y2465250D01*
X11458400Y2473120D01*
X11460340Y2482310D01*
X11458400Y2491490D01*
X11452550Y2499370D01*
X11445740Y2502000D01*
X11415560D01*
G01X11516690Y2460000D02*
Y2538740D01*
X11505010Y2522990D01*
G01Y2460000D02*
X11528370D01*
G01X11574010Y2471810D02*
X11579850Y2465250D01*
X11586670Y2461310D01*
X11595430Y2460000D01*
X11604190Y2462620D01*
X11611010Y2467870D01*
X11615880Y2477060D01*
X11616850Y2487560D01*
X11614900Y2498060D01*
X11610030Y2504620D01*
X11603220Y2509870D01*
X11596400Y2511180D01*
X11589590Y2509870D01*
X11580830Y2504620D01*
X11583750Y2538740D01*
X11610030D01*
G01X11337790Y3480000D02*
Y3558740D01*
X11357260D01*
X11365050Y3554800D01*
X11370890Y3549550D01*
X11375760Y3541680D01*
X11379660Y3532490D01*
X11380630Y3519370D01*
X11379660Y3506250D01*
X11375760Y3497060D01*
X11370890Y3489180D01*
X11365050Y3483940D01*
X11357260Y3480000D01*
X11337790D01*
G01X11445740Y3522000D02*
X11449630Y3525930D01*
X11452550Y3532490D01*
X11454500Y3541680D01*
X11452550Y3549550D01*
X11448660Y3554800D01*
X11441840Y3558740D01*
X11415560D01*
Y3480000D01*
X11447690D01*
X11454500Y3485250D01*
X11458400Y3493120D01*
X11460340Y3502310D01*
X11458400Y3511490D01*
X11452550Y3519370D01*
X11445740Y3522000D01*
X11415560D01*
G01X11516690Y3480000D02*
Y3558740D01*
X11505010Y3542990D01*
G01Y3480000D02*
X11528370D01*
G01X11595430D02*
Y3558740D01*
X11583750Y3542990D01*
G01Y3480000D02*
X11607110D01*
G01X11337790Y3220000D02*
Y3298740D01*
X11357260D01*
X11365050Y3294800D01*
X11370890Y3289550D01*
X11375760Y3281680D01*
X11379660Y3272490D01*
X11380630Y3259370D01*
X11379660Y3246250D01*
X11375760Y3237060D01*
X11370890Y3229180D01*
X11365050Y3223940D01*
X11357260Y3220000D01*
X11337790D01*
G01X11445740Y3262000D02*
X11449630Y3265930D01*
X11452550Y3272490D01*
X11454500Y3281680D01*
X11452550Y3289550D01*
X11448660Y3294800D01*
X11441840Y3298740D01*
X11415560D01*
Y3220000D01*
X11447690D01*
X11454500Y3225250D01*
X11458400Y3233120D01*
X11460340Y3242310D01*
X11458400Y3251490D01*
X11452550Y3259370D01*
X11445740Y3262000D01*
X11415560D01*
G01X11516690Y3220000D02*
Y3298740D01*
X11505010Y3282990D01*
G01Y3220000D02*
X11528370D01*
G01X11576930Y3285620D02*
X11582770Y3293490D01*
X11589590Y3297430D01*
X11597380Y3298740D01*
X11607110Y3296120D01*
X11613930Y3289550D01*
X11615880Y3281680D01*
X11614900Y3273800D01*
X11611010Y3267240D01*
X11591540Y3254120D01*
X11582770Y3244930D01*
X11576930Y3231810D01*
X11574980Y3220000D01*
X11615880D01*
G01X11337790Y2970000D02*
Y3048740D01*
X11357260D01*
X11365050Y3044800D01*
X11370890Y3039550D01*
X11375760Y3031680D01*
X11379660Y3022490D01*
X11380630Y3009370D01*
X11379660Y2996250D01*
X11375760Y2987060D01*
X11370890Y2979180D01*
X11365050Y2973940D01*
X11357260Y2970000D01*
X11337790D01*
G01X11445740Y3012000D02*
X11449630Y3015930D01*
X11452550Y3022490D01*
X11454500Y3031680D01*
X11452550Y3039550D01*
X11448660Y3044800D01*
X11441840Y3048740D01*
X11415560D01*
Y2970000D01*
X11447690D01*
X11454500Y2975250D01*
X11458400Y2983120D01*
X11460340Y2992310D01*
X11458400Y3001490D01*
X11452550Y3009370D01*
X11445740Y3012000D01*
X11415560D01*
G01X11516690Y2970000D02*
Y3048740D01*
X11505010Y3032990D01*
G01Y2970000D02*
X11528370D01*
G01X11574010Y2985750D02*
X11579850Y2976560D01*
X11587640Y2971310D01*
X11596400Y2970000D01*
X11604190Y2971310D01*
X11611980Y2977870D01*
X11616850Y2985750D01*
X11617820Y2993620D01*
X11615880Y3002810D01*
X11609060Y3009370D01*
X11602250Y3012000D01*
X11593480D01*
G01X11602250D02*
X11608090Y3015930D01*
X11612960Y3022490D01*
X11614900Y3030370D01*
X11612960Y3038240D01*
X11608090Y3044800D01*
X11599320Y3048740D01*
X11590560Y3047430D01*
X11581800Y3042180D01*
G01X11337790Y3730000D02*
Y3808740D01*
X11357260D01*
X11365050Y3804800D01*
X11370890Y3799550D01*
X11375760Y3791680D01*
X11379660Y3782490D01*
X11380630Y3769370D01*
X11379660Y3756250D01*
X11375760Y3747060D01*
X11370890Y3739180D01*
X11365050Y3733940D01*
X11357260Y3730000D01*
X11337790D01*
G01X11445740Y3772000D02*
X11449630Y3775930D01*
X11452550Y3782490D01*
X11454500Y3791680D01*
X11452550Y3799550D01*
X11448660Y3804800D01*
X11441840Y3808740D01*
X11415560D01*
Y3730000D01*
X11447690D01*
X11454500Y3735250D01*
X11458400Y3743120D01*
X11460340Y3752310D01*
X11458400Y3761490D01*
X11452550Y3769370D01*
X11445740Y3772000D01*
X11415560D01*
G01X11516690Y3730000D02*
Y3808740D01*
X11505010Y3792990D01*
G01Y3730000D02*
X11528370D01*
G01X11595430Y3808740D02*
X11587640Y3806120D01*
X11581800Y3799550D01*
X11577900Y3791680D01*
X11574980Y3781180D01*
X11574010Y3769370D01*
X11574980Y3757560D01*
X11577900Y3747060D01*
X11581800Y3739180D01*
X11587640Y3732620D01*
X11595430Y3730000D01*
X11603220Y3732620D01*
X11609060Y3739180D01*
X11612960Y3747060D01*
X11615880Y3757560D01*
X11616850Y3769370D01*
X11615880Y3781180D01*
X11612960Y3791680D01*
X11609060Y3799550D01*
X11603220Y3806120D01*
X11595430Y3808740D01*
G01X11338760Y4550500D02*
X11346550Y4543940D01*
X11355320Y4540000D01*
X11363100D01*
X11370890Y4543940D01*
X11376740Y4550500D01*
X11379660Y4559690D01*
X11377710Y4568870D01*
X11372840Y4576740D01*
X11364080Y4582000D01*
X11352390Y4584620D01*
X11345580Y4589870D01*
X11342660Y4599050D01*
X11344610Y4608240D01*
X11349470Y4614800D01*
X11356290Y4618740D01*
X11363100D01*
X11369920Y4616120D01*
X11375760Y4609550D01*
G01X11459370Y4612180D02*
X11453530Y4616120D01*
X11446710Y4618740D01*
X11438920D01*
X11430160Y4614800D01*
X11423350Y4608240D01*
X11418480Y4600370D01*
X11414580Y4587240D01*
X11413610Y4575430D01*
X11415560Y4563620D01*
X11418480Y4555750D01*
X11424320Y4547870D01*
X11431130Y4542620D01*
X11437950Y4540000D01*
X11444770D01*
X11451580Y4542620D01*
X11457420Y4546560D01*
X11462290Y4551810D01*
G01X11495270Y4540000D02*
Y4618740D01*
G01X11532270D02*
X11495270Y4570180D01*
G01X11538110Y4540000D02*
X11511820Y4592490D01*
G01X11333890Y4290000D02*
Y4368740D01*
X11359210Y4303120D01*
X11384530Y4368740D01*
Y4290000D01*
G01X11426270Y4368740D02*
X11449630D01*
G01X11437950D02*
Y4290000D01*
G01X11426270D02*
X11449630D01*
G01X11496240Y4300500D02*
X11504030Y4293940D01*
X11512800Y4290000D01*
X11520580D01*
X11528370Y4293940D01*
X11534220Y4300500D01*
X11537140Y4309690D01*
X11535190Y4318870D01*
X11530320Y4326740D01*
X11521560Y4332000D01*
X11509870Y4334620D01*
X11503060Y4339870D01*
X11500140Y4349050D01*
X11502090Y4358240D01*
X11506950Y4364800D01*
X11513770Y4368740D01*
X11520580D01*
X11527400Y4366120D01*
X11533240Y4359550D01*
G01X11595430Y4290000D02*
X11587640Y4291310D01*
X11580830Y4296560D01*
X11574980Y4304430D01*
X11571090Y4313620D01*
X11569140Y4324120D01*
Y4334620D01*
X11571090Y4345120D01*
X11574980Y4354310D01*
X11580830Y4362180D01*
X11587640Y4367430D01*
X11595430Y4368740D01*
X11603220Y4367430D01*
X11610030Y4362180D01*
X11615880Y4354310D01*
X11619770Y4345120D01*
X11621720Y4334620D01*
Y4324120D01*
X11619770Y4313620D01*
X11615880Y4304430D01*
X11610030Y4296560D01*
X11603220Y4291310D01*
X11595430Y4290000D01*
G01X11380630Y5122180D02*
X11374790Y5126120D01*
X11367970Y5128740D01*
X11360180D01*
X11351420Y5124800D01*
X11344610Y5118240D01*
X11339740Y5110370D01*
X11335840Y5097240D01*
X11334870Y5085430D01*
X11336820Y5073620D01*
X11339740Y5065750D01*
X11345580Y5057870D01*
X11352390Y5052620D01*
X11359210Y5050000D01*
X11366030D01*
X11372840Y5052620D01*
X11378680Y5056560D01*
X11383550Y5061810D01*
G01X11417500Y5060500D02*
X11425290Y5053940D01*
X11434060Y5050000D01*
X11441840D01*
X11449630Y5053940D01*
X11455480Y5060500D01*
X11458400Y5069690D01*
X11456450Y5078870D01*
X11451580Y5086740D01*
X11442820Y5092000D01*
X11431130Y5094620D01*
X11424320Y5099870D01*
X11421400Y5109050D01*
X11423350Y5118240D01*
X11428210Y5124800D01*
X11435030Y5128740D01*
X11441840D01*
X11448660Y5126120D01*
X11454500Y5119550D01*
G01X11333890Y4800000D02*
Y4878740D01*
X11359210Y4813120D01*
X11384530Y4878740D01*
Y4800000D01*
G01X11437950D02*
X11430160Y4801310D01*
X11423350Y4806560D01*
X11417500Y4814430D01*
X11413610Y4823620D01*
X11411660Y4834120D01*
Y4844620D01*
X11413610Y4855120D01*
X11417500Y4864310D01*
X11423350Y4872180D01*
X11430160Y4877430D01*
X11437950Y4878740D01*
X11445740Y4877430D01*
X11452550Y4872180D01*
X11458400Y4864310D01*
X11462290Y4855120D01*
X11464240Y4844620D01*
Y4834120D01*
X11462290Y4823620D01*
X11458400Y4814430D01*
X11452550Y4806560D01*
X11445740Y4801310D01*
X11437950Y4800000D01*
G01X11496240Y4810500D02*
X11504030Y4803940D01*
X11512800Y4800000D01*
X11520580D01*
X11528370Y4803940D01*
X11534220Y4810500D01*
X11537140Y4819690D01*
X11535190Y4828870D01*
X11530320Y4836740D01*
X11521560Y4842000D01*
X11509870Y4844620D01*
X11503060Y4849870D01*
X11500140Y4859050D01*
X11502090Y4868240D01*
X11506950Y4874800D01*
X11513770Y4878740D01*
X11520580D01*
X11527400Y4876120D01*
X11533240Y4869550D01*
G01X11583750Y4878740D02*
X11607110D01*
G01X11595430D02*
Y4800000D01*
G01X11583750D02*
X11607110D01*
G01X11380630Y5922180D02*
X11374790Y5926120D01*
X11367970Y5928740D01*
X11360180D01*
X11351420Y5924800D01*
X11344610Y5918240D01*
X11339740Y5910370D01*
X11335840Y5897240D01*
X11334870Y5885430D01*
X11336820Y5873620D01*
X11339740Y5865750D01*
X11345580Y5857870D01*
X11352390Y5852620D01*
X11359210Y5850000D01*
X11366030D01*
X11372840Y5852620D01*
X11378680Y5856560D01*
X11383550Y5861810D01*
G01X11417500Y5860500D02*
X11425290Y5853940D01*
X11434060Y5850000D01*
X11441840D01*
X11449630Y5853940D01*
X11455480Y5860500D01*
X11458400Y5869690D01*
X11456450Y5878870D01*
X11451580Y5886740D01*
X11442820Y5892000D01*
X11431130Y5894620D01*
X11424320Y5899870D01*
X11421400Y5909050D01*
X11423350Y5918240D01*
X11428210Y5924800D01*
X11435030Y5928740D01*
X11441840D01*
X11448660Y5926120D01*
X11454500Y5919550D01*
G01X11380630Y5672180D02*
X11374790Y5676120D01*
X11367970Y5678740D01*
X11360180D01*
X11351420Y5674800D01*
X11344610Y5668240D01*
X11339740Y5660370D01*
X11335840Y5647240D01*
X11334870Y5635430D01*
X11336820Y5623620D01*
X11339740Y5615750D01*
X11345580Y5607870D01*
X11352390Y5602620D01*
X11359210Y5600000D01*
X11366030D01*
X11372840Y5602620D01*
X11378680Y5606560D01*
X11383550Y5611810D01*
G01X11418480Y5678740D02*
Y5600000D01*
X11457420D01*
G01X11495270D02*
Y5678740D01*
G01X11532270D02*
X11495270Y5630180D01*
G01X11538110Y5600000D02*
X11511820Y5652490D01*
G01X11337790Y6620000D02*
Y6698740D01*
X11357260D01*
X11365050Y6694800D01*
X11370890Y6689550D01*
X11375760Y6681680D01*
X11379660Y6672490D01*
X11380630Y6659370D01*
X11379660Y6646250D01*
X11375760Y6637060D01*
X11370890Y6629180D01*
X11365050Y6623940D01*
X11357260Y6620000D01*
X11337790D01*
G01X11437950D02*
X11430160Y6621310D01*
X11423350Y6626560D01*
X11417500Y6634430D01*
X11413610Y6643620D01*
X11411660Y6654120D01*
Y6664620D01*
X11413610Y6675120D01*
X11417500Y6684310D01*
X11423350Y6692180D01*
X11430160Y6697430D01*
X11437950Y6698740D01*
X11445740Y6697430D01*
X11452550Y6692180D01*
X11458400Y6684310D01*
X11462290Y6675120D01*
X11464240Y6664620D01*
Y6654120D01*
X11462290Y6643620D01*
X11458400Y6634430D01*
X11452550Y6626560D01*
X11445740Y6621310D01*
X11437950Y6620000D01*
G01X11495270Y6698740D02*
Y6642310D01*
X11499160Y6630500D01*
X11506950Y6622620D01*
X11516690Y6620000D01*
X11526430Y6622620D01*
X11534220Y6630500D01*
X11538110Y6642310D01*
Y6698740D01*
G01X11595430D02*
Y6620000D01*
G01X11573040Y6698740D02*
X11617820D01*
G01X11337790Y6110000D02*
Y6188740D01*
X11357260D01*
X11365050Y6184800D01*
X11370890Y6179550D01*
X11375760Y6171680D01*
X11379660Y6162490D01*
X11380630Y6149370D01*
X11379660Y6136250D01*
X11375760Y6127060D01*
X11370890Y6119180D01*
X11365050Y6113940D01*
X11357260Y6110000D01*
X11337790D01*
G01X11426270Y6188740D02*
X11449630D01*
G01X11437950D02*
Y6110000D01*
G01X11426270D02*
X11449630D01*
G01X11494300D02*
Y6188740D01*
X11539080Y6110000D01*
Y6188740D01*
G01X11367000Y6402000D02*
X11370890Y6405930D01*
X11373810Y6412490D01*
X11375760Y6421680D01*
X11373810Y6429550D01*
X11369920Y6434800D01*
X11363100Y6438740D01*
X11336820D01*
Y6360000D01*
X11368950D01*
X11375760Y6365250D01*
X11379660Y6373120D01*
X11381600Y6382310D01*
X11379660Y6391490D01*
X11373810Y6399370D01*
X11367000Y6402000D01*
X11336820D01*
G01X11416530Y6438740D02*
Y6382310D01*
X11420420Y6370500D01*
X11428210Y6362620D01*
X11437950Y6360000D01*
X11447690Y6362620D01*
X11455480Y6370500D01*
X11459370Y6382310D01*
Y6438740D01*
G01X11496240Y6370500D02*
X11504030Y6363940D01*
X11512800Y6360000D01*
X11520580D01*
X11528370Y6363940D01*
X11534220Y6370500D01*
X11537140Y6379690D01*
X11535190Y6388870D01*
X11530320Y6396740D01*
X11521560Y6402000D01*
X11509870Y6404620D01*
X11503060Y6409870D01*
X11500140Y6419050D01*
X11502090Y6428240D01*
X11506950Y6434800D01*
X11513770Y6438740D01*
X11520580D01*
X11527400Y6436120D01*
X11533240Y6429550D01*
G01X11595430Y6360000D02*
Y6395430D01*
X11575960Y6438740D01*
G01X11614900D02*
X11595430Y6395430D01*
G01X11339740Y6870000D02*
Y6948740D01*
X11363100D01*
X11370890Y6944800D01*
X11376740Y6935620D01*
X11378680Y6925120D01*
X11376740Y6914620D01*
X11371870Y6906740D01*
X11363100Y6902810D01*
X11339740D01*
G01X11457420Y6870000D02*
X11418480D01*
Y6948740D01*
X11457420D01*
G01X11441840Y6910680D02*
X11418480D01*
G01X11494300Y6870000D02*
Y6948740D01*
X11539080Y6870000D01*
Y6948740D01*
G01X11790630Y615050D02*
Y634530D01*
X11814250D01*
X11822130Y628680D01*
X11827380Y621870D01*
X11830000Y612130D01*
X11827380Y602390D01*
X11822130Y595580D01*
X11814250Y589740D01*
X11805070Y585840D01*
X11794570Y583890D01*
X11785380D01*
X11777510Y585840D01*
X11768320Y589740D01*
X11760450Y595580D01*
X11755200Y601420D01*
X11751260Y609210D01*
Y616030D01*
X11753880Y623810D01*
X11759130Y629660D01*
G01X11830000Y665560D02*
X11751260D01*
X11830000Y710340D01*
X11751260D01*
G01X11830000Y745270D02*
X11751260D01*
Y764740D01*
X11755200Y772530D01*
X11760450Y778370D01*
X11768320Y783240D01*
X11777510Y787140D01*
X11790630Y788110D01*
X11803750Y787140D01*
X11812940Y783240D01*
X11820820Y778370D01*
X11826060Y772530D01*
X11830000Y764740D01*
Y745270D01*
G01X11739210Y1770000D02*
Y1848740D01*
X11727530Y1832990D01*
G01Y1770000D02*
X11750890D01*
G01X11801400Y1779180D02*
X11808210Y1772620D01*
X11816000Y1770000D01*
X11823790Y1772620D01*
X11830610Y1780500D01*
X11835480Y1792310D01*
X11837420Y1804120D01*
Y1818560D01*
X11835480Y1830370D01*
X11830610Y1840870D01*
X11824770Y1846120D01*
X11817950Y1848740D01*
X11810160Y1846120D01*
X11804320Y1840870D01*
X11800420Y1832990D01*
X11798480Y1822490D01*
X11800420Y1813310D01*
X11805290Y1804120D01*
X11811130Y1798870D01*
X11817950Y1797560D01*
X11825740Y1800180D01*
X11831580Y1806740D01*
X11837420Y1818560D01*
G01X11730710Y4135620D02*
X11736550Y4143490D01*
X11743370Y4147430D01*
X11751160Y4148740D01*
X11760890Y4146120D01*
X11767710Y4139550D01*
X11769660Y4131680D01*
X11768680Y4123800D01*
X11764790Y4117240D01*
X11745320Y4104120D01*
X11736550Y4094930D01*
X11730710Y4081810D01*
X11728760Y4070000D01*
X11769660D01*
G01X11826000D02*
X11827950Y4087060D01*
X11830870Y4101490D01*
X11834770Y4114620D01*
X11839630Y4129050D01*
X11847420Y4148740D01*
X11808480D01*
G01X11717790Y5405750D02*
X11723630Y5396560D01*
X11731420Y5391310D01*
X11740180Y5390000D01*
X11747970Y5391310D01*
X11755760Y5397870D01*
X11760630Y5405750D01*
X11761600Y5413620D01*
X11759660Y5422810D01*
X11752840Y5429370D01*
X11746030Y5432000D01*
X11737260D01*
G01X11746030D02*
X11751870Y5435930D01*
X11756740Y5442490D01*
X11758680Y5450370D01*
X11756740Y5458240D01*
X11751870Y5464800D01*
X11743100Y5468740D01*
X11734340Y5467430D01*
X11725580Y5462180D01*
G01X11817950Y5390000D02*
Y5468740D01*
X11806270Y5452990D01*
G01Y5390000D02*
X11829630D01*
G54D13*
G01X200000Y5570000D02*
X740000D01*
Y710000D01*
X200000D01*
Y5570000D01*
G01X120000Y6110000D02*
X6920000D01*
G02X7020000Y6010000I0J-100000D01*
G01Y650000D01*
G02X6920000Y550000I-100000J0D01*
G01X4820000D01*
X4620000Y350000D01*
X1320000D01*
X1120000Y550000D01*
X120000D01*
G02X20000Y650000I0J100000D01*
G01Y6010000D01*
G02X120000Y6110000I100000J0D01*
G01X200000Y5300000D02*
X470000D01*
Y5570000D01*
G01X1566300Y2691100D02*
X1528200D01*
Y2868900D01*
X1566300D01*
G01Y2421100D02*
X1528200D01*
Y2598900D01*
X1566300D01*
G01X1267000Y5910000D02*
G03I-160000J0D01*
G01X1769500Y2792700D02*
X1794900D01*
Y2754600D01*
X1807600Y2741900D01*
Y2830800D01*
X1833000D01*
Y2729200D01*
X1807600D01*
X1756800Y2780000D01*
X1845700Y2868900D01*
Y2691100D01*
X1756800Y2780000D01*
X1794900D01*
G01X1756800Y2691100D02*
Y2868900D01*
G01X2036200Y2691100D02*
X1566300D01*
Y2868900D01*
X2036200D01*
Y2691100D01*
G01X1769500Y2522700D02*
X1794900D01*
Y2484600D01*
X1807600Y2471900D01*
Y2560800D01*
X1833000D01*
Y2459200D01*
X1807600D01*
X1756800Y2510000D01*
X1845700Y2598900D01*
Y2421100D01*
X1756800Y2510000D01*
X1794900D01*
G01X1756800Y2421100D02*
Y2598900D01*
G01X2036200Y2421100D02*
X1566300D01*
Y2598900D01*
X2036200D01*
Y2421100D01*
G01X1680000Y4410000D02*
Y4910000D01*
X1770000D01*
G01X1940000Y4410000D02*
Y4910000D01*
G01Y4410000D02*
X1680000D01*
G01X1850000Y4910000D02*
X1940000D01*
G01X1770000D02*
G03X1850000I40000J4108D01*
G01X1570000Y5120000D02*
Y5540000D01*
X2000000D01*
Y5120000D01*
X1570000D01*
G01X1780000Y5420000D02*
G03I-40000J0D01*
G01X2684000Y8280000D02*
X1944000D01*
Y7780000D01*
X2684000D01*
Y8280000D01*
G01Y7906000D02*
X1953000D01*
G01X2510000Y8140000D02*
X2110000D01*
Y7950000D01*
X2510000D01*
Y8140000D01*
G01X3340000Y1270000D02*
X2600000D01*
Y-110000D01*
X3400000D01*
X3600000Y-230000D01*
X4076600Y-228600D01*
Y1079500D01*
X3949600D01*
Y1270000D01*
X3340000D01*
G01X2910000Y3500000D02*
X2560000D01*
Y2080000D01*
X2910000D01*
Y3500000D01*
G01X4160000Y2790000D02*
G03I-800000J0D01*
G01X2350000Y7950000D02*
Y8140000D01*
G01X2260000Y7950000D02*
Y8140000D01*
G01X3911500Y1079500D02*
G03Y1028700I0J-25400D01*
G01X4076600Y1079500D02*
X3911500D01*
G01X4076600Y1028700D02*
X3911500D01*
G01X4569000Y560000D02*
G03I-160000J0D01*
G01X4880000Y4940000D02*
X5060000D01*
Y4400000D01*
X4540000D01*
Y4940000D01*
X4720000D01*
G01X4730000Y7200000D02*
G02X4650000I-40000J0D01*
G01D02*
X4570000D01*
Y6880000D01*
X4810000D01*
Y7200000D01*
X4730000D01*
G01X4530000Y7830000D02*
X4670000D01*
G01X4600000Y7750000D02*
Y7900000D01*
G01X4280000Y7830000D02*
X4420000D01*
G01X4727000Y7923000D02*
X4231700D01*
Y8177000D01*
X4727000D01*
Y7923000D01*
G01X4710000Y4940000D02*
G03X4890000I90000J0D01*
G01X6093000Y5910000D02*
G03I-160000J0D01*
G01X6000500Y7587300D02*
X5975100D01*
Y7625400D01*
X5962400Y7638100D01*
Y7549200D01*
X5937000D01*
Y7650800D01*
X5962400D01*
X6013200Y7600000D01*
X5924300Y7511100D01*
Y7688900D01*
X6013200Y7600000D01*
X5975100D01*
G01X5733800Y7688900D02*
X6203700D01*
Y7511100D01*
X5733800D01*
Y7688900D01*
G01X5766300Y7721100D02*
X5728200D01*
Y7898900D01*
X5766300D01*
G01X6236200Y7721100D02*
X5766300D01*
Y7898900D01*
X6236200D01*
Y7721100D01*
G01X6300000Y5570000D02*
X6840000D01*
Y710000D01*
X6300000D01*
Y5570000D01*
G01Y5300000D02*
X6570000D01*
Y5570000D01*
G01X6950000Y6880000D02*
X7000000D01*
Y6320000D01*
X6480000D01*
Y6880000D01*
X6950000D01*
G01X6170000Y7120000D02*
X6350000D01*
Y6880000D01*
X6170000D01*
Y7120000D01*
G01X6203700Y7688900D02*
X6241800D01*
Y7511100D01*
X6203700D01*
G01X6013200Y7688900D02*
Y7511100D01*
G01X5969500Y7822700D02*
X5994900D01*
Y7784600D01*
X6007600Y7771900D01*
Y7860800D01*
X6033000D01*
Y7759200D01*
X6007600D01*
X5956800Y7810000D01*
X6045700Y7898900D01*
Y7721100D01*
X5956800Y7810000D01*
X5994900D01*
G01X5956800Y7721100D02*
Y7898900D01*
G01X6900000Y6610000D02*
G02X6820000I-40000J0D01*
G01X6660000D02*
G02X6580000I-40000J0D01*
G01X6740000D02*
G02X6660000I-40000J0D01*
G01X6820000D02*
G02X6740000I-40000J0D01*
G01X7780000Y740000D02*
X8380000D01*
Y140000D01*
X7780000D01*
Y740000D01*
G01X7330000Y970000D02*
Y1110000D01*
X11930000D01*
Y830000D01*
X7330000D01*
Y970000D01*
G01X7310000Y7110000D02*
X11950000D01*
Y810000D01*
X7310000D01*
Y7110000D01*
G01X7640500Y6387300D02*
X7615100D01*
Y6425400D01*
X7602400Y6438100D01*
Y6349200D01*
X7577000D01*
Y6450800D01*
X7602400D01*
X7653200Y6400000D01*
X7564300Y6311100D01*
Y6488900D01*
X7653200Y6400000D01*
X7615100D01*
G01X7653200Y6488900D02*
Y6311100D01*
G01X7373800Y6488900D02*
X7843700D01*
Y6311100D01*
X7373800D01*
Y6488900D01*
G01X7529220Y7322220D02*
Y7842220D01*
X8569220D01*
Y7322220D01*
G01X7335220Y7315220D02*
X8765220D01*
Y9795220D01*
X7335220D01*
Y7315220D01*
G01X8669220Y9692220D02*
X8419220D01*
Y9442220D01*
X8169220D01*
Y9692220D01*
X7919220D01*
Y9442220D01*
X7669220D01*
Y9692220D01*
X7419220D01*
Y8942220D01*
G01Y9192220D02*
X8419220D01*
G01X8232400Y440000D02*
G03I-152400J0D01*
G01X7876800Y211400D02*
X8283200D01*
G01X7876800Y668600D02*
X8283200D01*
G01X7843700Y6488900D02*
X7881800D01*
Y6311100D01*
X7843700D01*
G01X8859220Y7326820D02*
Y7846820D01*
X9899220D01*
Y7326820D01*
G01X8835220Y7319820D02*
X10265220D01*
Y9799820D01*
X8835220D01*
Y7319820D01*
G01X10169220Y9696820D02*
X9919220D01*
Y9446820D01*
X9669220D01*
Y9696820D01*
X9419220D01*
Y9446820D01*
X9169220D01*
Y9696820D01*
X8919220D01*
Y8946820D01*
G01Y9196820D02*
X9919220D01*
G01X9170000Y730000D02*
X9770000D01*
Y130000D01*
X9170000D01*
Y730000D01*
G01X9622400Y430000D02*
G03I-152400J0D01*
G01X9266800Y201400D02*
X9673200D01*
G01X9266800Y658600D02*
X9673200D01*
G01X9260000Y5350000D02*
Y5850000D01*
X9350000D01*
G01X9520000Y5350000D02*
Y5850000D01*
G01Y5350000D02*
X9260000D01*
G01X9430000Y5850000D02*
X9520000D01*
G01X9350000D02*
G03X9430000I40000J4108D01*
G01X9260000Y6070000D02*
Y6570000D01*
X9350000D01*
G01X9430000D02*
X9520000D01*
G01Y6070000D02*
Y6570000D01*
G01Y6070000D02*
X9260000D01*
G01X9350000Y6570000D02*
G03X9430000I40000J4108D01*
G01X11160000Y120000D02*
X10560000D01*
Y720000D01*
X11160000D01*
Y120000D01*
G01X11012400Y420000D02*
G03I-152400J0D01*
G01X11063200Y191400D02*
X10656800D01*
G01X11063200Y648600D02*
X10656800D01*
G01X10790000Y7640000D02*
Y8250000D01*
X10750000Y8400000D01*
X10640000D01*
X10600000Y8250000D01*
Y7640000D01*
G01X12580000Y7320000D02*
X10340000D01*
Y8560000D01*
X12580000D01*
Y7320000D01*
G01Y8560000D02*
Y8250000D01*
X10340000D01*
Y8560000D01*
G01X11300000Y7640000D02*
Y8250000D01*
X11260000Y8400000D01*
X11150000D01*
X11110000Y8250000D01*
Y7640000D01*
G01X12452400Y2252400D02*
X12147600D01*
Y677600D01*
X12452400D01*
Y2252400D01*
G01X11930000Y3910000D02*
Y1850000D01*
X11650000D01*
Y3910000D01*
X11930000D01*
G01Y5220000D02*
Y4180000D01*
X11650000D01*
Y5220000D01*
X11930000D01*
G01X12110000Y4517000D02*
Y5283000D01*
X12530000D01*
Y4517000D01*
X12110000D01*
G01X12600000Y5320000D02*
X12030000D01*
Y6540000D01*
X12600000D01*
Y5320000D01*
X12500000D01*
Y6540000D01*
G01X11930000Y7060000D02*
Y5500000D01*
X11650000D01*
Y7060000D01*
X11930000D01*
G01X12140000Y5530000D02*
Y6060000D01*
G02X12320000Y6190000I180000J-59615D01*
G01X12470000D01*
Y5406000D01*
X12320000D01*
G02X12140000Y5530000I0J192645D01*
G01X11810000Y7640000D02*
Y8250000D01*
X11770000Y8400000D01*
X11660000D01*
X11620000Y8250000D01*
Y7640000D01*
G01X12320000D02*
Y8250000D01*
X12280000Y8400000D01*
X12170000D01*
X12130000Y8250000D01*
Y7640000D01*
G01X11968000Y7322000D02*
X11970000Y7320000D01*
G01X12520000Y5197000D02*
G02Y4597000I-160000J-300000D01*
G01Y5197000D01*
G01X12550000Y5330000D02*
Y6540000D01*
G01X12500000Y5930000D02*
X12600000D01*
G01X12500000Y5830000D02*
X12600000D01*
G01X12500000Y5730000D02*
X12600000D01*
G01X12500000Y5630000D02*
X12600000D01*
G01X12500000Y6130000D02*
X12600000D01*
G01X12500000Y6230000D02*
X12600000D01*
G01X12500000Y6330000D02*
X12600000D01*
G01X12500000Y6030000D02*
X12600000D01*
G54D14*
G01X330000Y0D02*
X12300000D01*
G03X12630000Y330000I0J330000D01*
G01Y7920000D01*
G03X12300000Y8250000I-330000J0D01*
G01X330000D01*
G03X0Y7920000I0J-330000D01*
G01Y330000D01*
G03X330000Y0I330000J0D01*
G01X27790Y6241440D02*
Y6175910D01*
X31680Y6162190D01*
X39470Y6153050D01*
X49210Y6150000D01*
X58950Y6153050D01*
X66740Y6162190D01*
X70630Y6175910D01*
Y6241440D01*
G01X127950Y6150000D02*
Y6241440D01*
X116270Y6223150D01*
G01Y6150000D02*
X139630D01*
G01X203890Y7300000D02*
Y7391440D01*
X229210Y7315240D01*
X254530Y7391440D01*
Y7300000D01*
G01X287500D02*
Y7391440D01*
G01X328400D02*
Y7300000D01*
G01Y7345720D02*
X287500D01*
G01X398370Y7300000D02*
Y7391440D01*
X362350Y7325910D01*
X411030D01*
G01X653890Y40000D02*
Y131440D01*
X679210Y55240D01*
X704530Y131440D01*
Y40000D01*
G01X737500D02*
Y131440D01*
G01X778400D02*
Y40000D01*
G01Y85720D02*
X737500D01*
G01X836690Y40000D02*
Y131440D01*
X825010Y113150D01*
G01Y40000D02*
X848370D01*
G01X1513800Y900000D02*
X1483800D01*
Y800000D01*
X1513800D01*
G01Y900000D02*
X1743800D01*
Y800000D01*
X1513800D01*
Y900000D01*
G01X1368590Y2723000D02*
Y2814440D01*
X1388060D01*
X1395850Y2809870D01*
X1401690Y2803770D01*
X1406560Y2794630D01*
X1410460Y2783960D01*
X1411430Y2768720D01*
X1410460Y2753480D01*
X1406560Y2742810D01*
X1401690Y2733670D01*
X1395850Y2727570D01*
X1388060Y2723000D01*
X1368590D01*
G01X1450250Y2799200D02*
X1456090Y2808340D01*
X1462910Y2812920D01*
X1470700Y2814440D01*
X1480430Y2811390D01*
X1487250Y2803770D01*
X1489200Y2794630D01*
X1488220Y2785480D01*
X1484330Y2777860D01*
X1464860Y2762620D01*
X1456090Y2751960D01*
X1450250Y2736710D01*
X1448300Y2723000D01*
X1489200D01*
G01X1368590Y2453000D02*
Y2544440D01*
X1388060D01*
X1395850Y2539870D01*
X1401690Y2533770D01*
X1406560Y2524630D01*
X1410460Y2513960D01*
X1411430Y2498720D01*
X1410460Y2483480D01*
X1406560Y2472810D01*
X1401690Y2463670D01*
X1395850Y2457570D01*
X1388060Y2453000D01*
X1368590D01*
G01X1468750D02*
Y2544440D01*
X1457070Y2526150D01*
G01Y2453000D02*
X1480430D01*
G01X1527790Y8201440D02*
Y8135910D01*
X1531680Y8122190D01*
X1539470Y8113050D01*
X1549210Y8110000D01*
X1558950Y8113050D01*
X1566740Y8122190D01*
X1570630Y8135910D01*
Y8201440D01*
G01X1607500Y8122190D02*
X1615290Y8114570D01*
X1624060Y8110000D01*
X1631840D01*
X1639630Y8114570D01*
X1645480Y8122190D01*
X1648400Y8132860D01*
X1646450Y8143530D01*
X1641580Y8152670D01*
X1632820Y8158770D01*
X1621130Y8161820D01*
X1614320Y8167910D01*
X1611400Y8178580D01*
X1613350Y8189250D01*
X1618210Y8196870D01*
X1625030Y8201440D01*
X1631840D01*
X1638660Y8198390D01*
X1644500Y8190770D01*
G01X1714480Y8158770D02*
X1718370Y8163340D01*
X1721290Y8170960D01*
X1723240Y8181630D01*
X1721290Y8190770D01*
X1717400Y8196870D01*
X1710580Y8201440D01*
X1684300D01*
Y8110000D01*
X1716430D01*
X1723240Y8116090D01*
X1727140Y8125240D01*
X1729080Y8135910D01*
X1727140Y8146570D01*
X1721290Y8155720D01*
X1714480Y8158770D01*
X1684300D01*
G01X1785430Y8110000D02*
Y8201440D01*
X1773750Y8183150D01*
G01Y8110000D02*
X1797110D01*
G01X1809740Y940000D02*
Y1031440D01*
X1834080D01*
X1841870Y1026870D01*
X1846740Y1020770D01*
X1848680Y1008580D01*
X1846740Y996390D01*
X1840890Y988770D01*
X1834080Y984190D01*
X1809740D01*
G01X1834080D02*
X1848680Y940000D01*
G01X1907950D02*
Y1031440D01*
X1896270Y1013150D01*
G01Y940000D02*
X1919630D01*
G01X1807790Y800000D02*
Y891440D01*
X1827260D01*
X1835050Y886870D01*
X1840890Y880770D01*
X1845760Y871630D01*
X1849660Y860960D01*
X1850630Y845720D01*
X1849660Y830480D01*
X1845760Y819810D01*
X1840890Y810670D01*
X1835050Y804570D01*
X1827260Y800000D01*
X1807790D01*
G01X1919630D02*
Y891440D01*
X1883610Y825910D01*
X1932290D01*
G01X1661750Y799200D02*
X1652860D01*
X1603800Y848260D01*
Y850000D01*
X1653800Y900000D01*
Y800000D01*
G01X1603800Y900000D02*
Y800000D01*
G01X1809740Y1090000D02*
Y1181440D01*
X1834080D01*
X1841870Y1176870D01*
X1846740Y1170770D01*
X1848680Y1158580D01*
X1846740Y1146390D01*
X1840890Y1138770D01*
X1834080Y1134190D01*
X1809740D01*
G01X1834080D02*
X1848680Y1090000D01*
G01X1919630D02*
Y1181440D01*
X1883610Y1115910D01*
X1932290D01*
G01X1607790Y5031440D02*
Y4965910D01*
X1611680Y4952190D01*
X1619470Y4943050D01*
X1629210Y4940000D01*
X1638950Y4943050D01*
X1646740Y4952190D01*
X1650630Y4965910D01*
Y5031440D01*
G01X1706000Y4940000D02*
X1707950Y4959810D01*
X1710870Y4976570D01*
X1714770Y4991820D01*
X1719630Y5008580D01*
X1727420Y5031440D01*
X1688480D01*
G01X1567790Y5681440D02*
Y5615910D01*
X1571680Y5602190D01*
X1579470Y5593050D01*
X1589210Y5590000D01*
X1598950Y5593050D01*
X1606740Y5602190D01*
X1610630Y5615910D01*
Y5681440D01*
G01X1667950Y5590000D02*
Y5681440D01*
X1656270Y5663150D01*
G01Y5590000D02*
X1679630D01*
G01X1758370D02*
Y5681440D01*
X1722350Y5615910D01*
X1771030D01*
G01X2507790Y1491440D02*
Y1425910D01*
X2511680Y1412190D01*
X2519470Y1403050D01*
X2529210Y1400000D01*
X2538950Y1403050D01*
X2546740Y1412190D01*
X2550630Y1425910D01*
Y1491440D01*
G01X2589450Y1476200D02*
X2595290Y1485340D01*
X2602110Y1489920D01*
X2609900Y1491440D01*
X2619630Y1488390D01*
X2626450Y1480770D01*
X2628400Y1471630D01*
X2627420Y1462480D01*
X2623530Y1454860D01*
X2604060Y1439620D01*
X2595290Y1428960D01*
X2589450Y1413710D01*
X2587500Y1400000D01*
X2628400D01*
G01X2668190Y1438100D02*
X2675010Y1448770D01*
X2680850Y1454860D01*
X2688640Y1457910D01*
X2695450Y1454860D01*
X2700320Y1448770D01*
X2704220Y1439620D01*
X2705190Y1428960D01*
X2704220Y1419810D01*
X2700320Y1410670D01*
X2694480Y1403050D01*
X2687660Y1400000D01*
X2679870Y1403050D01*
X2673060Y1412190D01*
X2669160Y1425910D01*
X2668190Y1441150D01*
X2670140Y1460960D01*
X2673060Y1471630D01*
X2677930Y1482300D01*
X2684740Y1489920D01*
X2691560Y1491440D01*
X2698370Y1488390D01*
X2703240Y1480770D01*
G01X2671600Y1606740D02*
X2580160D01*
Y1631080D01*
X2584730Y1638870D01*
X2590830Y1643740D01*
X2603020Y1645680D01*
X2615210Y1643740D01*
X2622830Y1637890D01*
X2627410Y1631080D01*
Y1606740D01*
G01Y1631080D02*
X2671600Y1645680D01*
G01Y1716630D02*
X2580160D01*
X2645690Y1680610D01*
Y1729290D01*
G01X2595400Y1765190D02*
X2586260Y1771030D01*
X2581680Y1777850D01*
X2580160Y1785640D01*
X2583210Y1795370D01*
X2590830Y1802190D01*
X2599970Y1804140D01*
X2609120Y1803160D01*
X2616740Y1799270D01*
X2631980Y1779800D01*
X2642640Y1771030D01*
X2657890Y1765190D01*
X2671600Y1763240D01*
Y1804140D01*
G01X2521600Y1606740D02*
X2430160D01*
Y1631080D01*
X2434730Y1638870D01*
X2440830Y1643740D01*
X2453020Y1645680D01*
X2465210Y1643740D01*
X2472830Y1637890D01*
X2477410Y1631080D01*
Y1606740D01*
G01Y1631080D02*
X2521600Y1645680D01*
G01Y1716630D02*
X2430160D01*
X2495690Y1680610D01*
Y1729290D01*
G01X2503310Y1762270D02*
X2513980Y1768110D01*
X2520080Y1775900D01*
X2521600Y1784660D01*
X2520080Y1792450D01*
X2512460Y1800240D01*
X2503310Y1805110D01*
X2494170Y1806080D01*
X2483500Y1804140D01*
X2475880Y1797320D01*
X2472830Y1790510D01*
Y1781740D01*
G01Y1790510D02*
X2468260Y1796350D01*
X2460640Y1801220D01*
X2451500Y1803160D01*
X2442350Y1801220D01*
X2434730Y1796350D01*
X2430160Y1787580D01*
X2431680Y1778820D01*
X2437780Y1770060D01*
G01X2347790Y3111440D02*
Y3045910D01*
X2351680Y3032190D01*
X2359470Y3023050D01*
X2369210Y3020000D01*
X2378950Y3023050D01*
X2386740Y3032190D01*
X2390630Y3045910D01*
Y3111440D01*
G01X2429450Y3096200D02*
X2435290Y3105340D01*
X2442110Y3109920D01*
X2449900Y3111440D01*
X2459630Y3108390D01*
X2466450Y3100770D01*
X2468400Y3091630D01*
X2467420Y3082480D01*
X2463530Y3074860D01*
X2444060Y3059620D01*
X2435290Y3048960D01*
X2429450Y3033710D01*
X2427500Y3020000D01*
X2468400D01*
G01X2666740Y4578400D02*
Y4669840D01*
X2691080D01*
X2698870Y4665270D01*
X2703740Y4659170D01*
X2705680Y4646980D01*
X2703740Y4634790D01*
X2697890Y4627170D01*
X2691080Y4622590D01*
X2666740D01*
G01X2691080D02*
X2705680Y4578400D01*
G01X2764950D02*
Y4669840D01*
X2753270Y4651550D01*
G01Y4578400D02*
X2776630D01*
G01X2822270Y4596690D02*
X2828110Y4586020D01*
X2835900Y4579920D01*
X2844660Y4578400D01*
X2852450Y4579920D01*
X2860240Y4587540D01*
X2865110Y4596690D01*
X2866080Y4605830D01*
X2864140Y4616500D01*
X2857320Y4624120D01*
X2850510Y4627170D01*
X2841740D01*
G01X2850510D02*
X2856350Y4631740D01*
X2861220Y4639360D01*
X2863160Y4648500D01*
X2861220Y4657650D01*
X2856350Y4665270D01*
X2847580Y4669840D01*
X2838820Y4668320D01*
X2830060Y4662220D01*
G01X2666740Y4428400D02*
Y4519840D01*
X2691080D01*
X2698870Y4515270D01*
X2703740Y4509170D01*
X2705680Y4496980D01*
X2703740Y4484790D01*
X2697890Y4477170D01*
X2691080Y4472590D01*
X2666740D01*
G01X2691080D02*
X2705680Y4428400D01*
G01X2764950D02*
Y4519840D01*
X2753270Y4501550D01*
G01Y4428400D02*
X2776630D01*
G01X2855370D02*
Y4519840D01*
X2819350Y4454310D01*
X2868030D01*
G01X2700630Y4823820D02*
X2694790Y4828390D01*
X2687970Y4831440D01*
X2680180D01*
X2671420Y4826870D01*
X2664610Y4819250D01*
X2659740Y4810100D01*
X2655840Y4794860D01*
X2654870Y4781150D01*
X2656820Y4767430D01*
X2659740Y4758290D01*
X2665580Y4749140D01*
X2672390Y4743050D01*
X2679210Y4740000D01*
X2686030D01*
X2692840Y4743050D01*
X2698680Y4747620D01*
X2703550Y4753710D01*
G01X2736530D02*
X2742370Y4746090D01*
X2749190Y4741520D01*
X2757950Y4740000D01*
X2766710Y4743050D01*
X2773530Y4749140D01*
X2778400Y4759810D01*
X2779370Y4772000D01*
X2777420Y4784190D01*
X2772550Y4791820D01*
X2765740Y4797910D01*
X2758920Y4799430D01*
X2752110Y4797910D01*
X2743350Y4791820D01*
X2746270Y4831440D01*
X2772550D01*
G01X2360630Y5513820D02*
X2354790Y5518390D01*
X2347970Y5521440D01*
X2340180D01*
X2331420Y5516870D01*
X2324610Y5509250D01*
X2319740Y5500100D01*
X2315840Y5484860D01*
X2314870Y5471150D01*
X2316820Y5457430D01*
X2319740Y5448290D01*
X2325580Y5439140D01*
X2332390Y5433050D01*
X2339210Y5430000D01*
X2346030D01*
X2352840Y5433050D01*
X2358680Y5437620D01*
X2363550Y5443710D01*
G01X2417950Y5430000D02*
Y5521440D01*
X2406270Y5503150D01*
G01Y5430000D02*
X2429630D01*
G01X2508370D02*
Y5521440D01*
X2472350Y5455910D01*
X2521030D01*
G01X2607790Y7561440D02*
Y7495910D01*
X2611680Y7482190D01*
X2619470Y7473050D01*
X2629210Y7470000D01*
X2638950Y7473050D01*
X2646740Y7482190D01*
X2650630Y7495910D01*
Y7561440D01*
G01X2689450Y7546200D02*
X2695290Y7555340D01*
X2702110Y7559920D01*
X2709900Y7561440D01*
X2719630Y7558390D01*
X2726450Y7550770D01*
X2728400Y7541630D01*
X2727420Y7532480D01*
X2723530Y7524860D01*
X2704060Y7509620D01*
X2695290Y7498960D01*
X2689450Y7483710D01*
X2687500Y7470000D01*
X2728400D01*
G01X2765270Y7483710D02*
X2771110Y7476090D01*
X2777930Y7471520D01*
X2786690Y7470000D01*
X2795450Y7473050D01*
X2802270Y7479140D01*
X2807140Y7489810D01*
X2808110Y7502000D01*
X2806160Y7514190D01*
X2801290Y7521820D01*
X2794480Y7527910D01*
X2787660Y7529430D01*
X2780850Y7527910D01*
X2772090Y7521820D01*
X2775010Y7561440D01*
X2801290D01*
G01X3269740Y7560000D02*
Y7651440D01*
X3294080D01*
X3301870Y7646870D01*
X3306740Y7640770D01*
X3308680Y7628580D01*
X3306740Y7616390D01*
X3300890Y7608770D01*
X3294080Y7604190D01*
X3269740D01*
G01X3294080D02*
X3308680Y7560000D01*
G01X3346530Y7578290D02*
X3352370Y7567620D01*
X3360160Y7561520D01*
X3368920Y7560000D01*
X3376710Y7561520D01*
X3384500Y7569140D01*
X3389370Y7578290D01*
X3390340Y7587430D01*
X3388400Y7598100D01*
X3381580Y7605720D01*
X3374770Y7608770D01*
X3366000D01*
G01X3374770D02*
X3380610Y7613340D01*
X3385480Y7620960D01*
X3387420Y7630100D01*
X3385480Y7639250D01*
X3380610Y7646870D01*
X3371840Y7651440D01*
X3363080Y7649920D01*
X3354320Y7643820D01*
G01X3267790Y7680000D02*
Y7771440D01*
X3287260D01*
X3295050Y7766870D01*
X3300890Y7760770D01*
X3305760Y7751630D01*
X3309660Y7740960D01*
X3310630Y7725720D01*
X3309660Y7710480D01*
X3305760Y7699810D01*
X3300890Y7690670D01*
X3295050Y7684570D01*
X3287260Y7680000D01*
X3267790D01*
G01X3346530Y7693710D02*
X3352370Y7686090D01*
X3359190Y7681520D01*
X3367950Y7680000D01*
X3376710Y7683050D01*
X3383530Y7689140D01*
X3388400Y7699810D01*
X3389370Y7712000D01*
X3387420Y7724190D01*
X3382550Y7731820D01*
X3375740Y7737910D01*
X3368920Y7739430D01*
X3362110Y7737910D01*
X3353350Y7731820D01*
X3356270Y7771440D01*
X3382550D01*
G01X2979740Y8000000D02*
Y8091440D01*
X3003100D01*
X3010890Y8086870D01*
X3016740Y8076200D01*
X3018680Y8064010D01*
X3016740Y8051820D01*
X3011870Y8042670D01*
X3003100Y8038100D01*
X2979740D01*
G01X3083790Y8045720D02*
X3103270D01*
Y8018290D01*
X3097420Y8009140D01*
X3090610Y8003050D01*
X3080870Y8000000D01*
X3071130Y8003050D01*
X3064320Y8009140D01*
X3058480Y8018290D01*
X3054580Y8028960D01*
X3052630Y8041150D01*
Y8051820D01*
X3054580Y8060960D01*
X3058480Y8071630D01*
X3064320Y8080770D01*
X3070160Y8086870D01*
X3077950Y8091440D01*
X3084770D01*
X3092550Y8088390D01*
X3098400Y8082300D01*
G01X4048400Y1622740D02*
X3956960D01*
Y1647080D01*
X3961530Y1654870D01*
X3967630Y1659740D01*
X3979820Y1661680D01*
X3992010Y1659740D01*
X3999630Y1653890D01*
X4004210Y1647080D01*
Y1622740D01*
G01Y1647080D02*
X4048400Y1661680D01*
G01X4030110Y1699530D02*
X4040780Y1705370D01*
X4046880Y1713160D01*
X4048400Y1721920D01*
X4046880Y1729710D01*
X4039260Y1737500D01*
X4030110Y1742370D01*
X4020970Y1743340D01*
X4010300Y1741400D01*
X4002680Y1734580D01*
X3999630Y1727770D01*
Y1719000D01*
G01Y1727770D02*
X3995060Y1733610D01*
X3987440Y1738480D01*
X3978300Y1740420D01*
X3969150Y1738480D01*
X3961530Y1733610D01*
X3956960Y1724840D01*
X3958480Y1716080D01*
X3964580Y1707320D01*
G01X4037730Y1783140D02*
X4045350Y1789950D01*
X4048400Y1797740D01*
X4045350Y1805530D01*
X4036210Y1812350D01*
X4022490Y1817220D01*
X4008780Y1819160D01*
X3992010D01*
X3978300Y1817220D01*
X3966100Y1812350D01*
X3960010Y1806510D01*
X3956960Y1799690D01*
X3960010Y1791900D01*
X3966100Y1786060D01*
X3975250Y1782160D01*
X3987440Y1780220D01*
X3998110Y1782160D01*
X4008780Y1787030D01*
X4014870Y1792870D01*
X4016400Y1799690D01*
X4013350Y1807480D01*
X4005730Y1813320D01*
X3992010Y1819160D01*
G01X3816180Y1660630D02*
X3811610Y1654790D01*
X3808560Y1647970D01*
Y1640180D01*
X3813130Y1631420D01*
X3820750Y1624610D01*
X3829900Y1619740D01*
X3845140Y1615840D01*
X3858850Y1614870D01*
X3872570Y1616820D01*
X3881710Y1619740D01*
X3890860Y1625580D01*
X3896950Y1632390D01*
X3900000Y1639210D01*
Y1646030D01*
X3896950Y1652840D01*
X3892380Y1658680D01*
X3886290Y1663550D01*
G01X3881710Y1696530D02*
X3892380Y1702370D01*
X3898480Y1710160D01*
X3900000Y1718920D01*
X3898480Y1726710D01*
X3890860Y1734500D01*
X3881710Y1739370D01*
X3872570Y1740340D01*
X3861900Y1738400D01*
X3854280Y1731580D01*
X3851230Y1724770D01*
Y1716000D01*
G01Y1724770D02*
X3846660Y1730610D01*
X3839040Y1735480D01*
X3829900Y1737420D01*
X3820750Y1735480D01*
X3813130Y1730610D01*
X3808560Y1721840D01*
X3810080Y1713080D01*
X3816180Y1704320D01*
G01X3900000Y1808370D02*
X3808560D01*
X3874090Y1772350D01*
Y1821030D01*
G01X3486740Y7038400D02*
Y7129840D01*
X3511080D01*
X3518870Y7125270D01*
X3523740Y7119170D01*
X3525680Y7106980D01*
X3523740Y7094790D01*
X3517890Y7087170D01*
X3511080Y7082590D01*
X3486740D01*
G01X3511080D02*
X3525680Y7038400D01*
G01X3563530Y7056690D02*
X3569370Y7046020D01*
X3577160Y7039920D01*
X3585920Y7038400D01*
X3593710Y7039920D01*
X3601500Y7047540D01*
X3606370Y7056690D01*
X3607340Y7065830D01*
X3605400Y7076500D01*
X3598580Y7084120D01*
X3591770Y7087170D01*
X3583000D01*
G01X3591770D02*
X3597610Y7091740D01*
X3602480Y7099360D01*
X3604420Y7108500D01*
X3602480Y7117650D01*
X3597610Y7125270D01*
X3588840Y7129840D01*
X3580080Y7128320D01*
X3571320Y7122220D01*
G01X3642270Y7056690D02*
X3648110Y7046020D01*
X3655900Y7039920D01*
X3664660Y7038400D01*
X3672450Y7039920D01*
X3680240Y7047540D01*
X3685110Y7056690D01*
X3686080Y7065830D01*
X3684140Y7076500D01*
X3677320Y7084120D01*
X3670510Y7087170D01*
X3661740D01*
G01X3670510D02*
X3676350Y7091740D01*
X3681220Y7099360D01*
X3683160Y7108500D01*
X3681220Y7117650D01*
X3676350Y7125270D01*
X3667580Y7129840D01*
X3658820Y7128320D01*
X3650060Y7122220D01*
G01X3486740Y7188400D02*
Y7279840D01*
X3511080D01*
X3518870Y7275270D01*
X3523740Y7269170D01*
X3525680Y7256980D01*
X3523740Y7244790D01*
X3517890Y7237170D01*
X3511080Y7232590D01*
X3486740D01*
G01X3511080D02*
X3525680Y7188400D01*
G01X3563530Y7206690D02*
X3569370Y7196020D01*
X3577160Y7189920D01*
X3585920Y7188400D01*
X3593710Y7189920D01*
X3601500Y7197540D01*
X3606370Y7206690D01*
X3607340Y7215830D01*
X3605400Y7226500D01*
X3598580Y7234120D01*
X3591770Y7237170D01*
X3583000D01*
G01X3591770D02*
X3597610Y7241740D01*
X3602480Y7249360D01*
X3604420Y7258500D01*
X3602480Y7267650D01*
X3597610Y7275270D01*
X3588840Y7279840D01*
X3580080Y7278320D01*
X3571320Y7272220D01*
G01X3675370Y7188400D02*
Y7279840D01*
X3639350Y7214310D01*
X3688030D01*
G01X3649740Y7550000D02*
Y7641440D01*
X3674080D01*
X3681870Y7636870D01*
X3686740Y7630770D01*
X3688680Y7618580D01*
X3686740Y7606390D01*
X3680890Y7598770D01*
X3674080Y7594190D01*
X3649740D01*
G01X3674080D02*
X3688680Y7550000D01*
G01X3729450Y7626200D02*
X3735290Y7635340D01*
X3742110Y7639920D01*
X3749900Y7641440D01*
X3759630Y7638390D01*
X3766450Y7630770D01*
X3768400Y7621630D01*
X3767420Y7612480D01*
X3763530Y7604860D01*
X3744060Y7589620D01*
X3735290Y7578960D01*
X3729450Y7563710D01*
X3727500Y7550000D01*
X3768400D01*
G01X3486740Y7338400D02*
Y7429840D01*
X3511080D01*
X3518870Y7425270D01*
X3523740Y7419170D01*
X3525680Y7406980D01*
X3523740Y7394790D01*
X3517890Y7387170D01*
X3511080Y7382590D01*
X3486740D01*
G01X3511080D02*
X3525680Y7338400D01*
G01X3563530Y7356690D02*
X3569370Y7346020D01*
X3577160Y7339920D01*
X3585920Y7338400D01*
X3593710Y7339920D01*
X3601500Y7347540D01*
X3606370Y7356690D01*
X3607340Y7365830D01*
X3605400Y7376500D01*
X3598580Y7384120D01*
X3591770Y7387170D01*
X3583000D01*
G01X3591770D02*
X3597610Y7391740D01*
X3602480Y7399360D01*
X3604420Y7408500D01*
X3602480Y7417650D01*
X3597610Y7425270D01*
X3588840Y7429840D01*
X3580080Y7428320D01*
X3571320Y7422220D01*
G01X3642270Y7352110D02*
X3648110Y7344490D01*
X3654930Y7339920D01*
X3663690Y7338400D01*
X3672450Y7341450D01*
X3679270Y7347540D01*
X3684140Y7358210D01*
X3685110Y7370400D01*
X3683160Y7382590D01*
X3678290Y7390220D01*
X3671480Y7396310D01*
X3664660Y7397830D01*
X3657850Y7396310D01*
X3649090Y7390220D01*
X3652010Y7429840D01*
X3678290D01*
G01X3647790Y7680000D02*
Y7771440D01*
X3667260D01*
X3675050Y7766870D01*
X3680890Y7760770D01*
X3685760Y7751630D01*
X3689660Y7740960D01*
X3690630Y7725720D01*
X3689660Y7710480D01*
X3685760Y7699810D01*
X3680890Y7690670D01*
X3675050Y7684570D01*
X3667260Y7680000D01*
X3647790D01*
G01X3726530Y7698290D02*
X3732370Y7687620D01*
X3740160Y7681520D01*
X3748920Y7680000D01*
X3756710Y7681520D01*
X3764500Y7689140D01*
X3769370Y7698290D01*
X3770340Y7707430D01*
X3768400Y7718100D01*
X3761580Y7725720D01*
X3754770Y7728770D01*
X3746000D01*
G01X3754770D02*
X3760610Y7733340D01*
X3765480Y7740960D01*
X3767420Y7750100D01*
X3765480Y7759250D01*
X3760610Y7766870D01*
X3751840Y7771440D01*
X3743080Y7769920D01*
X3734320Y7763820D01*
G01X3960630Y8083820D02*
X3954790Y8088390D01*
X3947970Y8091440D01*
X3940180D01*
X3931420Y8086870D01*
X3924610Y8079250D01*
X3919740Y8070100D01*
X3915840Y8054860D01*
X3914870Y8041150D01*
X3916820Y8027430D01*
X3919740Y8018290D01*
X3925580Y8009140D01*
X3932390Y8003050D01*
X3939210Y8000000D01*
X3946030D01*
X3952840Y8003050D01*
X3958680Y8007620D01*
X3963550Y8013710D01*
G01X3997500Y8000000D02*
Y8091440D01*
G01X4038400D02*
Y8000000D01*
G01Y8045720D02*
X3997500D01*
G01X4102530D02*
X4122010D01*
Y8018290D01*
X4116160Y8009140D01*
X4109350Y8003050D01*
X4099610Y8000000D01*
X4089870Y8003050D01*
X4083060Y8009140D01*
X4077220Y8018290D01*
X4073320Y8028960D01*
X4071370Y8041150D01*
Y8051820D01*
X4073320Y8060960D01*
X4077220Y8071630D01*
X4083060Y8080770D01*
X4088900Y8086870D01*
X4096690Y8091440D01*
X4103510D01*
X4111290Y8088390D01*
X4117140Y8082300D01*
G01X4198400Y1622740D02*
X4106960D01*
Y1647080D01*
X4111530Y1654870D01*
X4117630Y1659740D01*
X4129820Y1661680D01*
X4142010Y1659740D01*
X4149630Y1653890D01*
X4154210Y1647080D01*
Y1622740D01*
G01Y1647080D02*
X4198400Y1661680D01*
G01Y1732630D02*
X4106960D01*
X4172490Y1696610D01*
Y1745290D01*
G01X4106960Y1799690D02*
X4110010Y1791900D01*
X4117630Y1786060D01*
X4126770Y1782160D01*
X4138970Y1779240D01*
X4152680Y1778270D01*
X4166400Y1779240D01*
X4178590Y1782160D01*
X4187730Y1786060D01*
X4195350Y1791900D01*
X4198400Y1799690D01*
X4195350Y1807480D01*
X4187730Y1813320D01*
X4178590Y1817220D01*
X4166400Y1820140D01*
X4152680Y1821110D01*
X4138970Y1820140D01*
X4126770Y1817220D01*
X4117630Y1813320D01*
X4110010Y1807480D01*
X4106960Y1799690D01*
G01X4348400Y1622740D02*
X4256960D01*
Y1647080D01*
X4261530Y1654870D01*
X4267630Y1659740D01*
X4279820Y1661680D01*
X4292010Y1659740D01*
X4299630Y1653890D01*
X4304210Y1647080D01*
Y1622740D01*
G01Y1647080D02*
X4348400Y1661680D01*
G01Y1732630D02*
X4256960D01*
X4322490Y1696610D01*
Y1745290D01*
G01X4348400Y1799690D02*
X4256960D01*
X4275250Y1788010D01*
G01X4348400D02*
Y1811370D01*
G01X4528390Y5066240D02*
Y5000710D01*
X4532280Y4986990D01*
X4540070Y4977850D01*
X4549810Y4974800D01*
X4559550Y4977850D01*
X4567340Y4986990D01*
X4571230Y5000710D01*
Y5066240D01*
G01X4607130Y4988510D02*
X4612970Y4980890D01*
X4619790Y4976320D01*
X4628550Y4974800D01*
X4637310Y4977850D01*
X4644130Y4983940D01*
X4649000Y4994610D01*
X4649970Y5006800D01*
X4648020Y5018990D01*
X4643150Y5026620D01*
X4636340Y5032710D01*
X4629520Y5034230D01*
X4622710Y5032710D01*
X4613950Y5026620D01*
X4616870Y5066240D01*
X4643150D01*
G01X4407790Y7311440D02*
Y7245910D01*
X4411680Y7232190D01*
X4419470Y7223050D01*
X4429210Y7220000D01*
X4438950Y7223050D01*
X4446740Y7232190D01*
X4450630Y7245910D01*
Y7311440D01*
G01X4519630Y7220000D02*
Y7311440D01*
X4483610Y7245910D01*
X4532290D01*
G01X4156740Y6918400D02*
Y7009840D01*
X4181080D01*
X4188870Y7005270D01*
X4193740Y6999170D01*
X4195680Y6986980D01*
X4193740Y6974790D01*
X4187890Y6967170D01*
X4181080Y6962590D01*
X4156740D01*
G01X4181080D02*
X4195680Y6918400D01*
G01X4238400Y6929070D02*
X4245210Y6921450D01*
X4253000Y6918400D01*
X4260790Y6921450D01*
X4267610Y6930590D01*
X4272480Y6944310D01*
X4274420Y6958020D01*
Y6974790D01*
X4272480Y6988500D01*
X4267610Y7000700D01*
X4261770Y7006790D01*
X4254950Y7009840D01*
X4247160Y7006790D01*
X4241320Y7000700D01*
X4237420Y6991550D01*
X4235480Y6979360D01*
X4237420Y6968690D01*
X4242290Y6958020D01*
X4248130Y6951930D01*
X4254950Y6950400D01*
X4262740Y6953450D01*
X4268580Y6961070D01*
X4274420Y6974790D01*
G01X4156740Y7068400D02*
Y7159840D01*
X4181080D01*
X4188870Y7155270D01*
X4193740Y7149170D01*
X4195680Y7136980D01*
X4193740Y7124790D01*
X4187890Y7117170D01*
X4181080Y7112590D01*
X4156740D01*
G01X4181080D02*
X4195680Y7068400D01*
G01X4254950D02*
X4261770Y7069920D01*
X4269550Y7074490D01*
X4274420Y7082110D01*
X4276370Y7092780D01*
X4274420Y7103450D01*
X4268580Y7112590D01*
X4259820Y7117170D01*
X4250080D01*
X4244240Y7120220D01*
X4239370Y7127830D01*
X4237420Y7138500D01*
X4240350Y7149170D01*
X4247160Y7156790D01*
X4254950Y7159840D01*
X4262740Y7156790D01*
X4269550Y7149170D01*
X4272480Y7138500D01*
X4270530Y7127830D01*
X4265660Y7120220D01*
X4259820Y7117170D01*
X4250080D01*
X4241320Y7112590D01*
X4235480Y7103450D01*
X4233530Y7092780D01*
X4235480Y7082110D01*
X4240350Y7074490D01*
X4248130Y7069920D01*
X4254950Y7068400D01*
G01X4260630Y7303820D02*
X4254790Y7308390D01*
X4247970Y7311440D01*
X4240180D01*
X4231420Y7306870D01*
X4224610Y7299250D01*
X4219740Y7290100D01*
X4215840Y7274860D01*
X4214870Y7261150D01*
X4216820Y7247430D01*
X4219740Y7238290D01*
X4225580Y7229140D01*
X4232390Y7223050D01*
X4239210Y7220000D01*
X4246030D01*
X4252840Y7223050D01*
X4258680Y7227620D01*
X4263550Y7233710D01*
G01X4296530Y7238290D02*
X4302370Y7227620D01*
X4310160Y7221520D01*
X4318920Y7220000D01*
X4326710Y7221520D01*
X4334500Y7229140D01*
X4339370Y7238290D01*
X4340340Y7247430D01*
X4338400Y7258100D01*
X4331580Y7265720D01*
X4324770Y7268770D01*
X4316000D01*
G01X4324770D02*
X4330610Y7273340D01*
X4335480Y7280960D01*
X4337420Y7290100D01*
X4335480Y7299250D01*
X4330610Y7306870D01*
X4321840Y7311440D01*
X4313080Y7309920D01*
X4304320Y7303820D01*
G01X4766820Y360000D02*
Y451440D01*
X4811600Y360000D01*
Y451440D01*
G01X4843610Y360000D02*
X4867950Y451440D01*
X4892290Y360000D01*
G01X4883530Y392000D02*
X4852370D01*
G01X4921370Y360000D02*
Y451440D01*
X4946690Y375240D01*
X4972010Y451440D01*
Y360000D01*
G01X5044900D02*
X5005960D01*
Y451440D01*
X5044900D01*
G01X5029320Y407250D02*
X5005960D01*
G01X5104170Y356950D02*
X5102220Y358480D01*
Y361520D01*
X5104170Y363050D01*
X5106120Y361520D01*
Y358480D01*
X5104170Y356950D01*
G01Y398100D02*
X5102220Y399620D01*
Y402670D01*
X5104170Y404190D01*
X5106120Y402670D01*
Y399620D01*
X5104170Y398100D01*
G01X5157590Y360000D02*
Y451440D01*
X5182910Y375240D01*
X5208230Y451440D01*
Y360000D01*
G01X5269440Y408770D02*
X5273330Y413340D01*
X5276250Y420960D01*
X5278200Y431630D01*
X5276250Y440770D01*
X5272360Y446870D01*
X5265540Y451440D01*
X5239260D01*
Y360000D01*
X5271390D01*
X5278200Y366090D01*
X5282100Y375240D01*
X5284040Y385910D01*
X5282100Y396570D01*
X5276250Y405720D01*
X5269440Y408770D01*
X5239260D01*
G01X5340390Y360000D02*
Y451440D01*
X5328710Y433150D01*
G01Y360000D02*
X5352070D01*
G01X5419130D02*
Y451440D01*
X5407450Y433150D01*
G01Y360000D02*
X5430810D01*
G01X5476450Y378290D02*
X5482290Y367620D01*
X5490080Y361520D01*
X5498840Y360000D01*
X5506630Y361520D01*
X5514420Y369140D01*
X5519290Y378290D01*
X5520260Y387430D01*
X5518320Y398100D01*
X5511500Y405720D01*
X5504690Y408770D01*
X5495920D01*
G01X5504690D02*
X5510530Y413340D01*
X5515400Y420960D01*
X5517340Y430100D01*
X5515400Y439250D01*
X5510530Y446870D01*
X5501760Y451440D01*
X5493000Y449920D01*
X5484240Y443820D01*
G01X5558110Y398100D02*
X5564930Y408770D01*
X5570770Y414860D01*
X5578560Y417910D01*
X5585370Y414860D01*
X5590240Y408770D01*
X5594140Y399620D01*
X5595110Y388960D01*
X5594140Y379810D01*
X5590240Y370670D01*
X5584400Y363050D01*
X5577580Y360000D01*
X5569790Y363050D01*
X5562980Y372190D01*
X5559080Y385910D01*
X5558110Y401150D01*
X5560060Y420960D01*
X5562980Y431630D01*
X5567850Y442300D01*
X5574660Y449920D01*
X5581480Y451440D01*
X5588290Y448390D01*
X5593160Y440770D01*
G01X5626140Y329520D02*
X5684560D01*
G01X5741880Y408770D02*
X5745770Y413340D01*
X5748690Y420960D01*
X5750640Y431630D01*
X5748690Y440770D01*
X5744800Y446870D01*
X5737980Y451440D01*
X5711700D01*
Y360000D01*
X5743830D01*
X5750640Y366090D01*
X5754540Y375240D01*
X5756480Y385910D01*
X5754540Y396570D01*
X5748690Y405720D01*
X5741880Y408770D01*
X5711700D01*
G01X5812830Y360000D02*
X5805040Y361520D01*
X5798230Y367620D01*
X5792380Y376760D01*
X5788490Y387430D01*
X5786540Y399620D01*
Y411820D01*
X5788490Y424010D01*
X5792380Y434680D01*
X5798230Y443820D01*
X5805040Y449920D01*
X5812830Y451440D01*
X5820620Y449920D01*
X5827430Y443820D01*
X5833280Y434680D01*
X5837170Y424010D01*
X5839120Y411820D01*
Y399620D01*
X5837170Y387430D01*
X5833280Y376760D01*
X5827430Y367620D01*
X5820620Y361520D01*
X5812830Y360000D01*
G01X5891570D02*
X5883780Y361520D01*
X5876970Y367620D01*
X5871120Y376760D01*
X5867230Y387430D01*
X5865280Y399620D01*
Y411820D01*
X5867230Y424010D01*
X5871120Y434680D01*
X5876970Y443820D01*
X5883780Y449920D01*
X5891570Y451440D01*
X5899360Y449920D01*
X5906170Y443820D01*
X5912020Y434680D01*
X5915910Y424010D01*
X5917860Y411820D01*
Y399620D01*
X5915910Y387430D01*
X5912020Y376760D01*
X5906170Y367620D01*
X5899360Y361520D01*
X5891570Y360000D01*
G01X5949860Y372190D02*
X5957650Y364570D01*
X5966420Y360000D01*
X5974200D01*
X5981990Y364570D01*
X5987840Y372190D01*
X5990760Y382860D01*
X5988810Y393530D01*
X5983940Y402670D01*
X5975180Y408770D01*
X5963490Y411820D01*
X5956680Y417910D01*
X5953760Y428580D01*
X5955710Y439250D01*
X5960570Y446870D01*
X5967390Y451440D01*
X5974200D01*
X5981020Y448390D01*
X5986860Y440770D01*
G01X6049050Y451440D02*
Y360000D01*
G01X6026660Y451440D02*
X6071440D01*
G01X6108320Y360000D02*
Y451440D01*
X6131680D01*
X6139470Y446870D01*
X6145320Y436200D01*
X6147260Y424010D01*
X6145320Y411820D01*
X6140450Y402670D01*
X6131680Y398100D01*
X6108320D01*
G01X6182190Y360000D02*
X6206530Y451440D01*
X6230870Y360000D01*
G01X6222110Y392000D02*
X6190950D01*
G01X6306690Y443820D02*
X6300850Y448390D01*
X6294030Y451440D01*
X6286240D01*
X6277480Y446870D01*
X6270670Y439250D01*
X6265800Y430100D01*
X6261900Y414860D01*
X6260930Y401150D01*
X6262880Y387430D01*
X6265800Y378290D01*
X6271640Y369140D01*
X6278450Y363050D01*
X6285270Y360000D01*
X6292090D01*
X6298900Y363050D01*
X6304740Y367620D01*
X6309610Y373710D01*
G01X6342590Y360000D02*
Y451440D01*
G01X6379590D02*
X6342590Y395050D01*
G01X6385430Y360000D02*
X6359140Y420960D01*
G01X6413540Y329520D02*
X6471960D01*
G01X6497150Y451440D02*
X6521490Y360000D01*
X6545830Y451440D01*
G01X6600230Y360000D02*
Y451440D01*
X6588550Y433150D01*
G01Y360000D02*
X6611910D01*
G01X6678970Y451440D02*
X6671180Y448390D01*
X6665340Y440770D01*
X6661440Y431630D01*
X6658520Y419430D01*
X6657550Y405720D01*
X6658520Y392000D01*
X6661440Y379810D01*
X6665340Y370670D01*
X6671180Y363050D01*
X6678970Y360000D01*
X6686760Y363050D01*
X6692600Y370670D01*
X6696500Y379810D01*
X6699420Y392000D01*
X6700390Y405720D01*
X6699420Y419430D01*
X6696500Y431630D01*
X6692600Y440770D01*
X6686760Y448390D01*
X6678970Y451440D01*
G01X6733370Y360000D02*
X6757710Y451440D01*
X6782050Y360000D01*
G01X6773290Y392000D02*
X6742130D01*
G01X6836450Y356950D02*
X6834500Y358480D01*
Y361520D01*
X6836450Y363050D01*
X6838400Y361520D01*
Y358480D01*
X6836450Y356950D01*
G01X6922980Y408770D02*
X6926870Y413340D01*
X6929790Y420960D01*
X6931740Y431630D01*
X6929790Y440770D01*
X6925900Y446870D01*
X6919080Y451440D01*
X6892800D01*
Y360000D01*
X6924930D01*
X6931740Y366090D01*
X6935640Y375240D01*
X6937580Y385910D01*
X6935640Y396570D01*
X6929790Y405720D01*
X6922980Y408770D01*
X6892800D01*
G01X6974460Y360000D02*
Y451440D01*
X6998800D01*
X7006590Y446870D01*
X7011460Y440770D01*
X7013400Y428580D01*
X7011460Y416390D01*
X7005610Y408770D01*
X6998800Y404190D01*
X6974460D01*
G01X6998800D02*
X7013400Y360000D01*
G01X7051250D02*
Y451440D01*
X7070720D01*
X7078510Y446870D01*
X7084350Y440770D01*
X7089220Y431630D01*
X7093120Y420960D01*
X7094090Y405720D01*
X7093120Y390480D01*
X7089220Y379810D01*
X7084350Y370670D01*
X7078510Y364570D01*
X7070720Y360000D01*
X7051250D01*
G01X4767790Y200000D02*
Y291440D01*
X4787260D01*
X4795050Y286870D01*
X4800890Y280770D01*
X4805760Y271630D01*
X4809660Y260960D01*
X4810630Y245720D01*
X4809660Y230480D01*
X4805760Y219810D01*
X4800890Y210670D01*
X4795050Y204570D01*
X4787260Y200000D01*
X4767790D01*
G01X4843610D02*
X4867950Y291440D01*
X4892290Y200000D01*
G01X4883530Y232000D02*
X4852370D01*
G01X4946690Y291440D02*
Y200000D01*
G01X4924300Y291440D02*
X4969080D01*
G01X5044900Y200000D02*
X5005960D01*
Y291440D01*
X5044900D01*
G01X5029320Y247250D02*
X5005960D01*
G01X5104170Y196950D02*
X5102220Y198480D01*
Y201520D01*
X5104170Y203050D01*
X5106120Y201520D01*
Y198480D01*
X5104170Y196950D01*
G01Y238100D02*
X5102220Y239620D01*
Y242670D01*
X5104170Y244190D01*
X5106120Y242670D01*
Y239620D01*
X5104170Y238100D01*
G01X5164410Y276200D02*
X5170250Y285340D01*
X5177070Y289920D01*
X5184860Y291440D01*
X5194590Y288390D01*
X5201410Y280770D01*
X5203360Y271630D01*
X5202380Y262480D01*
X5198490Y254860D01*
X5179020Y239620D01*
X5170250Y228960D01*
X5164410Y213710D01*
X5162460Y200000D01*
X5203360D01*
G01X5261650Y291440D02*
X5253860Y288390D01*
X5248020Y280770D01*
X5244120Y271630D01*
X5241200Y259430D01*
X5240230Y245720D01*
X5241200Y232000D01*
X5244120Y219810D01*
X5248020Y210670D01*
X5253860Y203050D01*
X5261650Y200000D01*
X5269440Y203050D01*
X5275280Y210670D01*
X5279180Y219810D01*
X5282100Y232000D01*
X5283070Y245720D01*
X5282100Y259430D01*
X5279180Y271630D01*
X5275280Y280770D01*
X5269440Y288390D01*
X5261650Y291440D01*
G01X5340390Y200000D02*
Y291440D01*
X5328710Y273150D01*
G01Y200000D02*
X5352070D01*
G01X5417180D02*
X5419130Y219810D01*
X5422050Y236570D01*
X5425950Y251820D01*
X5430810Y268580D01*
X5438600Y291440D01*
X5399660D01*
G01X5468660Y169520D02*
X5527080D01*
G01X5576610Y291440D02*
X5568820Y288390D01*
X5562980Y280770D01*
X5559080Y271630D01*
X5556160Y259430D01*
X5555190Y245720D01*
X5556160Y232000D01*
X5559080Y219810D01*
X5562980Y210670D01*
X5568820Y203050D01*
X5576610Y200000D01*
X5584400Y203050D01*
X5590240Y210670D01*
X5594140Y219810D01*
X5597060Y232000D01*
X5598030Y245720D01*
X5597060Y259430D01*
X5594140Y271630D01*
X5590240Y280770D01*
X5584400Y288390D01*
X5576610Y291440D01*
G01X5636850Y276200D02*
X5642690Y285340D01*
X5649510Y289920D01*
X5657300Y291440D01*
X5667030Y288390D01*
X5673850Y280770D01*
X5675800Y271630D01*
X5674820Y262480D01*
X5670930Y254860D01*
X5651460Y239620D01*
X5642690Y228960D01*
X5636850Y213710D01*
X5634900Y200000D01*
X5675800D01*
G01X5704880Y169520D02*
X5763300D01*
G01X5794330Y276200D02*
X5800170Y285340D01*
X5806990Y289920D01*
X5814780Y291440D01*
X5824510Y288390D01*
X5831330Y280770D01*
X5833280Y271630D01*
X5832300Y262480D01*
X5828410Y254860D01*
X5808940Y239620D01*
X5800170Y228960D01*
X5794330Y213710D01*
X5792380Y200000D01*
X5833280D01*
G01X5891570Y291440D02*
X5883780Y288390D01*
X5877940Y280770D01*
X5874040Y271630D01*
X5871120Y259430D01*
X5870150Y245720D01*
X5871120Y232000D01*
X5874040Y219810D01*
X5877940Y210670D01*
X5883780Y203050D01*
X5891570Y200000D01*
X5899360Y203050D01*
X5905200Y210670D01*
X5909100Y219810D01*
X5912020Y232000D01*
X5912990Y245720D01*
X5912020Y259430D01*
X5909100Y271630D01*
X5905200Y280770D01*
X5899360Y288390D01*
X5891570Y291440D01*
G01X4797000Y88770D02*
X4800890Y93340D01*
X4803810Y100960D01*
X4805760Y111630D01*
X4803810Y120770D01*
X4799920Y126870D01*
X4793100Y131440D01*
X4766820D01*
Y40000D01*
X4798950D01*
X4805760Y46090D01*
X4809660Y55240D01*
X4811600Y65910D01*
X4809660Y76570D01*
X4803810Y85720D01*
X4797000Y88770D01*
X4766820D01*
G01X4867950Y40000D02*
Y81150D01*
X4848480Y131440D01*
G01X4887420D02*
X4867950Y81150D01*
G01X4946690Y36950D02*
X4944740Y38480D01*
Y41520D01*
X4946690Y43050D01*
X4948640Y41520D01*
Y38480D01*
X4946690Y36950D01*
G01Y78100D02*
X4944740Y79620D01*
Y82670D01*
X4946690Y84190D01*
X4948640Y82670D01*
Y79620D01*
X4946690Y78100D01*
G01X5004980Y40000D02*
X5045880Y131440D01*
G01X5004980D02*
X5045880Y40000D01*
G01X5083720D02*
X5124620Y131440D01*
G01X5083720D02*
X5124620Y40000D01*
G01X5162460D02*
X5203360Y131440D01*
G01X5162460D02*
X5203360Y40000D01*
G01X5242180Y131440D02*
Y40000D01*
X5281120D01*
G01X5321890Y131440D02*
X5358890D01*
X5321890Y40000D01*
X5358890D01*
G01X5399660Y58290D02*
X5404530Y49140D01*
X5410370Y43050D01*
X5417180Y40000D01*
X5424970Y43050D01*
X5430810Y49140D01*
X5436660Y58290D01*
X5438600Y70480D01*
Y131440D01*
G01X5477420Y40000D02*
X5518320Y131440D01*
G01X5477420D02*
X5518320Y40000D01*
G01X5556160D02*
X5597060Y131440D01*
G01X5556160D02*
X5597060Y40000D01*
G01X5634900D02*
X5675800Y131440D01*
G01X5634900D02*
X5675800Y40000D01*
G01X5039740Y6910000D02*
Y7001440D01*
X5064080D01*
X5071870Y6996870D01*
X5076740Y6990770D01*
X5078680Y6978580D01*
X5076740Y6966390D01*
X5070890Y6958770D01*
X5064080Y6954190D01*
X5039740D01*
G01X5064080D02*
X5078680Y6910000D01*
G01X5137950D02*
Y7001440D01*
X5126270Y6983150D01*
G01Y6910000D02*
X5149630D01*
G01X5216690Y7001440D02*
X5208900Y6998390D01*
X5203060Y6990770D01*
X5199160Y6981630D01*
X5196240Y6969430D01*
X5195270Y6955720D01*
X5196240Y6942000D01*
X5199160Y6929810D01*
X5203060Y6920670D01*
X5208900Y6913050D01*
X5216690Y6910000D01*
X5224480Y6913050D01*
X5230320Y6920670D01*
X5234220Y6929810D01*
X5237140Y6942000D01*
X5238110Y6955720D01*
X5237140Y6969430D01*
X5234220Y6981630D01*
X5230320Y6990770D01*
X5224480Y6998390D01*
X5216690Y7001440D01*
G01X5090630Y7313820D02*
X5084790Y7318390D01*
X5077970Y7321440D01*
X5070180D01*
X5061420Y7316870D01*
X5054610Y7309250D01*
X5049740Y7300100D01*
X5045840Y7284860D01*
X5044870Y7271150D01*
X5046820Y7257430D01*
X5049740Y7248290D01*
X5055580Y7239140D01*
X5062390Y7233050D01*
X5069210Y7230000D01*
X5076030D01*
X5082840Y7233050D01*
X5088680Y7237620D01*
X5093550Y7243710D01*
G01X5129450Y7306200D02*
X5135290Y7315340D01*
X5142110Y7319920D01*
X5149900Y7321440D01*
X5159630Y7318390D01*
X5166450Y7310770D01*
X5168400Y7301630D01*
X5167420Y7292480D01*
X5163530Y7284860D01*
X5144060Y7269620D01*
X5135290Y7258960D01*
X5129450Y7243710D01*
X5127500Y7230000D01*
X5168400D01*
G01X4819680Y8048770D02*
X4823570Y8053340D01*
X4826490Y8060960D01*
X4828440Y8071630D01*
X4826490Y8080770D01*
X4822600Y8086870D01*
X4815780Y8091440D01*
X4789500D01*
Y8000000D01*
X4821630D01*
X4828440Y8006090D01*
X4832340Y8015240D01*
X4834280Y8025910D01*
X4832340Y8036570D01*
X4826490Y8045720D01*
X4819680Y8048770D01*
X4789500D01*
G01X4866290Y8000000D02*
X4890630Y8091440D01*
X4914970Y8000000D01*
G01X4906210Y8032000D02*
X4875050D01*
G01X4969370Y8091440D02*
Y8000000D01*
G01X4946980Y8091440D02*
X4991760D01*
G01X5048110Y8000000D02*
Y8091440D01*
X5036430Y8073150D01*
G01Y8000000D02*
X5059790D01*
G01X5480630Y4753820D02*
X5474790Y4758390D01*
X5467970Y4761440D01*
X5460180D01*
X5451420Y4756870D01*
X5444610Y4749250D01*
X5439740Y4740100D01*
X5435840Y4724860D01*
X5434870Y4711150D01*
X5436820Y4697430D01*
X5439740Y4688290D01*
X5445580Y4679140D01*
X5452390Y4673050D01*
X5459210Y4670000D01*
X5466030D01*
X5472840Y4673050D01*
X5478680Y4677620D01*
X5483550Y4683710D01*
G01X5549630Y4670000D02*
Y4761440D01*
X5513610Y4695910D01*
X5562290D01*
G01X5619740Y6560000D02*
Y6651440D01*
X5644080D01*
X5651870Y6646870D01*
X5656740Y6640770D01*
X5658680Y6628580D01*
X5656740Y6616390D01*
X5650890Y6608770D01*
X5644080Y6604190D01*
X5619740D01*
G01X5644080D02*
X5658680Y6560000D01*
G01X5717950D02*
Y6651440D01*
X5706270Y6633150D01*
G01Y6560000D02*
X5729630D01*
G01X5778190Y6598100D02*
X5785010Y6608770D01*
X5790850Y6614860D01*
X5798640Y6617910D01*
X5805450Y6614860D01*
X5810320Y6608770D01*
X5814220Y6599620D01*
X5815190Y6588960D01*
X5814220Y6579810D01*
X5810320Y6570670D01*
X5804480Y6563050D01*
X5797660Y6560000D01*
X5789870Y6563050D01*
X5783060Y6572190D01*
X5779160Y6585910D01*
X5778190Y6601150D01*
X5780140Y6620960D01*
X5783060Y6631630D01*
X5787930Y6642300D01*
X5794740Y6649920D01*
X5801560Y6651440D01*
X5808370Y6648390D01*
X5813240Y6640770D01*
G01X5710630Y6243820D02*
X5704790Y6248390D01*
X5697970Y6251440D01*
X5690180D01*
X5681420Y6246870D01*
X5674610Y6239250D01*
X5669740Y6230100D01*
X5665840Y6214860D01*
X5664870Y6201150D01*
X5666820Y6187430D01*
X5669740Y6178290D01*
X5675580Y6169140D01*
X5682390Y6163050D01*
X5689210Y6160000D01*
X5696030D01*
X5702840Y6163050D01*
X5708680Y6167620D01*
X5713550Y6173710D01*
G01X5767950Y6160000D02*
Y6251440D01*
X5756270Y6233150D01*
G01Y6160000D02*
X5779630D01*
G01X5846690Y6251440D02*
X5838900Y6248390D01*
X5833060Y6240770D01*
X5829160Y6231630D01*
X5826240Y6219430D01*
X5825270Y6205720D01*
X5826240Y6192000D01*
X5829160Y6179810D01*
X5833060Y6170670D01*
X5838900Y6163050D01*
X5846690Y6160000D01*
X5854480Y6163050D01*
X5860320Y6170670D01*
X5864220Y6179810D01*
X5867140Y6192000D01*
X5868110Y6205720D01*
X5867140Y6219430D01*
X5864220Y6231630D01*
X5860320Y6240770D01*
X5854480Y6248390D01*
X5846690Y6251440D01*
G01X5710630Y6483820D02*
X5704790Y6488390D01*
X5697970Y6491440D01*
X5690180D01*
X5681420Y6486870D01*
X5674610Y6479250D01*
X5669740Y6470100D01*
X5665840Y6454860D01*
X5664870Y6441150D01*
X5666820Y6427430D01*
X5669740Y6418290D01*
X5675580Y6409140D01*
X5682390Y6403050D01*
X5689210Y6400000D01*
X5696030D01*
X5702840Y6403050D01*
X5708680Y6407620D01*
X5713550Y6413710D01*
G01X5751400Y6410670D02*
X5758210Y6403050D01*
X5766000Y6400000D01*
X5773790Y6403050D01*
X5780610Y6412190D01*
X5785480Y6425910D01*
X5787420Y6439620D01*
Y6456390D01*
X5785480Y6470100D01*
X5780610Y6482300D01*
X5774770Y6488390D01*
X5767950Y6491440D01*
X5760160Y6488390D01*
X5754320Y6482300D01*
X5750420Y6473150D01*
X5748480Y6460960D01*
X5750420Y6450290D01*
X5755290Y6439620D01*
X5761130Y6433530D01*
X5767950Y6432000D01*
X5775740Y6435050D01*
X5781580Y6442670D01*
X5787420Y6456390D01*
G01X5710630Y6363820D02*
X5704790Y6368390D01*
X5697970Y6371440D01*
X5690180D01*
X5681420Y6366870D01*
X5674610Y6359250D01*
X5669740Y6350100D01*
X5665840Y6334860D01*
X5664870Y6321150D01*
X5666820Y6307430D01*
X5669740Y6298290D01*
X5675580Y6289140D01*
X5682390Y6283050D01*
X5689210Y6280000D01*
X5696030D01*
X5702840Y6283050D01*
X5708680Y6287620D01*
X5713550Y6293710D01*
G01X5767950Y6280000D02*
X5774770Y6281520D01*
X5782550Y6286090D01*
X5787420Y6293710D01*
X5789370Y6304380D01*
X5787420Y6315050D01*
X5781580Y6324190D01*
X5772820Y6328770D01*
X5763080D01*
X5757240Y6331820D01*
X5752370Y6339430D01*
X5750420Y6350100D01*
X5753350Y6360770D01*
X5760160Y6368390D01*
X5767950Y6371440D01*
X5775740Y6368390D01*
X5782550Y6360770D01*
X5785480Y6350100D01*
X5783530Y6339430D01*
X5778660Y6331820D01*
X5772820Y6328770D01*
X5763080D01*
X5754320Y6324190D01*
X5748480Y6315050D01*
X5746530Y6304380D01*
X5748480Y6293710D01*
X5753350Y6286090D01*
X5761130Y6281520D01*
X5767950Y6280000D01*
G01X5619740Y6680000D02*
Y6771440D01*
X5644080D01*
X5651870Y6766870D01*
X5656740Y6760770D01*
X5658680Y6748580D01*
X5656740Y6736390D01*
X5650890Y6728770D01*
X5644080Y6724190D01*
X5619740D01*
G01X5644080D02*
X5658680Y6680000D01*
G01X5717950D02*
Y6771440D01*
X5706270Y6753150D01*
G01Y6680000D02*
X5729630D01*
G01X5780140Y6690670D02*
X5786950Y6683050D01*
X5794740Y6680000D01*
X5802530Y6683050D01*
X5809350Y6692190D01*
X5814220Y6705910D01*
X5816160Y6719620D01*
Y6736390D01*
X5814220Y6750100D01*
X5809350Y6762300D01*
X5803510Y6768390D01*
X5796690Y6771440D01*
X5788900Y6768390D01*
X5783060Y6762300D01*
X5779160Y6753150D01*
X5777220Y6740960D01*
X5779160Y6730290D01*
X5784030Y6719620D01*
X5789870Y6713530D01*
X5796690Y6712000D01*
X5804480Y6715050D01*
X5810320Y6722670D01*
X5816160Y6736390D01*
G01X5619740Y6800000D02*
Y6891440D01*
X5644080D01*
X5651870Y6886870D01*
X5656740Y6880770D01*
X5658680Y6868580D01*
X5656740Y6856390D01*
X5650890Y6848770D01*
X5644080Y6844190D01*
X5619740D01*
G01X5644080D02*
X5658680Y6800000D01*
G01X5717950D02*
Y6891440D01*
X5706270Y6873150D01*
G01Y6800000D02*
X5729630D01*
G01X5796690D02*
Y6891440D01*
X5785010Y6873150D01*
G01Y6800000D02*
X5808370D01*
G01X5369210Y7950000D02*
X5361420Y7951520D01*
X5354610Y7957620D01*
X5348760Y7966760D01*
X5344870Y7977430D01*
X5342920Y7989620D01*
Y8001820D01*
X5344870Y8014010D01*
X5348760Y8024680D01*
X5354610Y8033820D01*
X5361420Y8039920D01*
X5369210Y8041440D01*
X5377000Y8039920D01*
X5383810Y8033820D01*
X5389660Y8024680D01*
X5393550Y8014010D01*
X5395500Y8001820D01*
Y7989620D01*
X5393550Y7977430D01*
X5389660Y7966760D01*
X5383810Y7957620D01*
X5377000Y7951520D01*
X5369210Y7950000D01*
G01X5377000Y7974380D02*
X5388680Y7950000D01*
G01X5447950D02*
Y8041440D01*
X5436270Y8023150D01*
G01Y7950000D02*
X5459630D01*
G01X6397790Y7191440D02*
Y7125910D01*
X6401680Y7112190D01*
X6409470Y7103050D01*
X6419210Y7100000D01*
X6428950Y7103050D01*
X6436740Y7112190D01*
X6440630Y7125910D01*
Y7191440D01*
G01X6479450Y7138100D02*
X6486270Y7148770D01*
X6492110Y7154860D01*
X6499900Y7157910D01*
X6506710Y7154860D01*
X6511580Y7148770D01*
X6515480Y7139620D01*
X6516450Y7128960D01*
X6515480Y7119810D01*
X6511580Y7110670D01*
X6505740Y7103050D01*
X6498920Y7100000D01*
X6491130Y7103050D01*
X6484320Y7112190D01*
X6480420Y7125910D01*
X6479450Y7141150D01*
X6481400Y7160960D01*
X6484320Y7171630D01*
X6489190Y7182300D01*
X6496000Y7189920D01*
X6502820Y7191440D01*
X6509630Y7188390D01*
X6514500Y7180770D01*
G01X6129740Y7370000D02*
Y7461440D01*
X6154080D01*
X6161870Y7456870D01*
X6166740Y7450770D01*
X6168680Y7438580D01*
X6166740Y7426390D01*
X6160890Y7418770D01*
X6154080Y7414190D01*
X6129740D01*
G01X6154080D02*
X6168680Y7370000D01*
G01X6227950D02*
Y7461440D01*
X6216270Y7443150D01*
G01Y7370000D02*
X6239630D01*
G01X6288190Y7446200D02*
X6294030Y7455340D01*
X6300850Y7459920D01*
X6308640Y7461440D01*
X6318370Y7458390D01*
X6325190Y7450770D01*
X6327140Y7441630D01*
X6326160Y7432480D01*
X6322270Y7424860D01*
X6302800Y7409620D01*
X6294030Y7398960D01*
X6288190Y7383710D01*
X6286240Y7370000D01*
X6327140D01*
G01X6297790Y7550000D02*
Y7641440D01*
X6317260D01*
X6325050Y7636870D01*
X6330890Y7630770D01*
X6335760Y7621630D01*
X6339660Y7610960D01*
X6340630Y7595720D01*
X6339660Y7580480D01*
X6335760Y7569810D01*
X6330890Y7560670D01*
X6325050Y7554570D01*
X6317260Y7550000D01*
X6297790D01*
G01X6396000D02*
X6397950Y7569810D01*
X6400870Y7586570D01*
X6404770Y7601820D01*
X6409630Y7618580D01*
X6417420Y7641440D01*
X6378480D01*
G01X6297790Y7750000D02*
Y7841440D01*
X6317260D01*
X6325050Y7836870D01*
X6330890Y7830770D01*
X6335760Y7821630D01*
X6339660Y7810960D01*
X6340630Y7795720D01*
X6339660Y7780480D01*
X6335760Y7769810D01*
X6330890Y7760670D01*
X6325050Y7754570D01*
X6317260Y7750000D01*
X6297790D01*
G01X6379450Y7788100D02*
X6386270Y7798770D01*
X6392110Y7804860D01*
X6399900Y7807910D01*
X6406710Y7804860D01*
X6411580Y7798770D01*
X6415480Y7789620D01*
X6416450Y7778960D01*
X6415480Y7769810D01*
X6411580Y7760670D01*
X6405740Y7753050D01*
X6398920Y7750000D01*
X6391130Y7753050D01*
X6384320Y7762190D01*
X6380420Y7775910D01*
X6379450Y7791150D01*
X6381400Y7810960D01*
X6384320Y7821630D01*
X6389190Y7832300D01*
X6396000Y7839920D01*
X6402820Y7841440D01*
X6409630Y7838390D01*
X6414500Y7830770D01*
G01X7049740Y6421440D02*
Y6330000D01*
X7088680D01*
G01X7147950D02*
Y6421440D01*
X7136270Y6403150D01*
G01Y6330000D02*
X7159630D01*
G01X7030630Y7073820D02*
X7024790Y7078390D01*
X7017970Y7081440D01*
X7010180D01*
X7001420Y7076870D01*
X6994610Y7069250D01*
X6989740Y7060100D01*
X6985840Y7044860D01*
X6984870Y7031150D01*
X6986820Y7017430D01*
X6989740Y7008290D01*
X6995580Y6999140D01*
X7002390Y6993050D01*
X7009210Y6990000D01*
X7016030D01*
X7022840Y6993050D01*
X7028680Y6997620D01*
X7033550Y7003710D01*
G01X7069450Y7028100D02*
X7076270Y7038770D01*
X7082110Y7044860D01*
X7089900Y7047910D01*
X7096710Y7044860D01*
X7101580Y7038770D01*
X7105480Y7029620D01*
X7106450Y7018960D01*
X7105480Y7009810D01*
X7101580Y7000670D01*
X7095740Y6993050D01*
X7088920Y6990000D01*
X7081130Y6993050D01*
X7074320Y7002190D01*
X7070420Y7015910D01*
X7069450Y7031150D01*
X7071400Y7050960D01*
X7074320Y7061630D01*
X7079190Y7072300D01*
X7086000Y7079920D01*
X7092820Y7081440D01*
X7099630Y7078390D01*
X7104500Y7070770D01*
G01X7390000Y491440D02*
X7403630Y400000D01*
X7419210Y491440D01*
X7434790Y400000D01*
X7448420Y491440D01*
G01X7476530Y400000D02*
Y491440D01*
G01X7513530D02*
X7476530Y435050D01*
G01X7519370Y400000D02*
X7493080Y460960D01*
G01X7547480Y369520D02*
X7605900D01*
G01X7634010Y491440D02*
Y425910D01*
X7637900Y412190D01*
X7645690Y403050D01*
X7655430Y400000D01*
X7665170Y403050D01*
X7672960Y412190D01*
X7676850Y425910D01*
Y491440D01*
G01X7714700Y400000D02*
Y491440D01*
X7738060D01*
X7745850Y486870D01*
X7751700Y476200D01*
X7753640Y464010D01*
X7751700Y451820D01*
X7746830Y442670D01*
X7738060Y438100D01*
X7714700D01*
G01X7408760Y642190D02*
X7416550Y634570D01*
X7425320Y630000D01*
X7433100D01*
X7440890Y634570D01*
X7446740Y642190D01*
X7449660Y652860D01*
X7447710Y663530D01*
X7442840Y672670D01*
X7434080Y678770D01*
X7422390Y681820D01*
X7415580Y687910D01*
X7412660Y698580D01*
X7414610Y709250D01*
X7419470Y716870D01*
X7426290Y721440D01*
X7433100D01*
X7439920Y718390D01*
X7445760Y710770D01*
G01X7478740Y721440D02*
X7492370Y630000D01*
X7507950Y721440D01*
X7523530Y630000D01*
X7537160Y721440D01*
G01X7586690Y630000D02*
Y721440D01*
X7575010Y703150D01*
G01Y630000D02*
X7598370D01*
G01X7387790Y6520000D02*
Y6611440D01*
X7407260D01*
X7415050Y6606870D01*
X7420890Y6600770D01*
X7425760Y6591630D01*
X7429660Y6580960D01*
X7430630Y6565720D01*
X7429660Y6550480D01*
X7425760Y6539810D01*
X7420890Y6530670D01*
X7415050Y6524570D01*
X7407260Y6520000D01*
X7387790D01*
G01X7487950D02*
X7494770Y6521520D01*
X7502550Y6526090D01*
X7507420Y6533710D01*
X7509370Y6544380D01*
X7507420Y6555050D01*
X7501580Y6564190D01*
X7492820Y6568770D01*
X7483080D01*
X7477240Y6571820D01*
X7472370Y6579430D01*
X7470420Y6590100D01*
X7473350Y6600770D01*
X7480160Y6608390D01*
X7487950Y6611440D01*
X7495740Y6608390D01*
X7502550Y6600770D01*
X7505480Y6590100D01*
X7503530Y6579430D01*
X7498660Y6571820D01*
X7492820Y6568770D01*
X7483080D01*
X7474320Y6564190D01*
X7468480Y6555050D01*
X7466530Y6544380D01*
X7468480Y6533710D01*
X7473350Y6526090D01*
X7481130Y6521520D01*
X7487950Y6520000D01*
G01X7729210Y7241440D02*
Y7150000D01*
G01X7706820Y7241440D02*
X7751600D01*
G01X7789450Y7150000D02*
Y7241440D01*
X7826450D01*
G01X7812820Y7197250D02*
X7789450D01*
G01X7886690Y7241440D02*
Y7150000D01*
G01X7864300Y7241440D02*
X7909080D01*
G01X7965430Y7150000D02*
Y7241440D01*
X7953750Y7223150D01*
G01Y7150000D02*
X7977110D01*
G01X7337790Y7291440D02*
Y7225910D01*
X7341680Y7212190D01*
X7349470Y7203050D01*
X7359210Y7200000D01*
X7368950Y7203050D01*
X7376740Y7212190D01*
X7380630Y7225910D01*
Y7291440D01*
G01X7437950Y7200000D02*
Y7291440D01*
X7426270Y7273150D01*
G01Y7200000D02*
X7449630D01*
G01X7498190Y7238100D02*
X7505010Y7248770D01*
X7510850Y7254860D01*
X7518640Y7257910D01*
X7525450Y7254860D01*
X7530320Y7248770D01*
X7534220Y7239620D01*
X7535190Y7228960D01*
X7534220Y7219810D01*
X7530320Y7210670D01*
X7524480Y7203050D01*
X7517660Y7200000D01*
X7509870Y7203050D01*
X7503060Y7212190D01*
X7499160Y7225910D01*
X7498190Y7241150D01*
X7500140Y7260960D01*
X7503060Y7271630D01*
X7507930Y7282300D01*
X7514740Y7289920D01*
X7521560Y7291440D01*
X7528370Y7288390D01*
X7533240Y7280770D01*
G01X7760630Y6893820D02*
X7754790Y6898390D01*
X7747970Y6901440D01*
X7740180D01*
X7731420Y6896870D01*
X7724610Y6889250D01*
X7719740Y6880100D01*
X7715840Y6864860D01*
X7714870Y6851150D01*
X7716820Y6837430D01*
X7719740Y6828290D01*
X7725580Y6819140D01*
X7732390Y6813050D01*
X7739210Y6810000D01*
X7746030D01*
X7752840Y6813050D01*
X7758680Y6817620D01*
X7763550Y6823710D01*
G01X7817950Y6810000D02*
Y6901440D01*
X7806270Y6883150D01*
G01Y6810000D02*
X7829630D01*
G01X7878190Y6848100D02*
X7885010Y6858770D01*
X7890850Y6864860D01*
X7898640Y6867910D01*
X7905450Y6864860D01*
X7910320Y6858770D01*
X7914220Y6849620D01*
X7915190Y6838960D01*
X7914220Y6829810D01*
X7910320Y6820670D01*
X7904480Y6813050D01*
X7897660Y6810000D01*
X7889870Y6813050D01*
X7883060Y6822190D01*
X7879160Y6835910D01*
X7878190Y6851150D01*
X7880140Y6870960D01*
X7883060Y6881630D01*
X7887930Y6892300D01*
X7894740Y6899920D01*
X7901560Y6901440D01*
X7908370Y6898390D01*
X7913240Y6890770D01*
G01X8319740Y5370000D02*
Y5461440D01*
X8344080D01*
X8351870Y5456870D01*
X8356740Y5450770D01*
X8358680Y5438580D01*
X8356740Y5426390D01*
X8350890Y5418770D01*
X8344080Y5414190D01*
X8319740D01*
G01X8344080D02*
X8358680Y5370000D01*
G01X8396530Y5388290D02*
X8402370Y5377620D01*
X8410160Y5371520D01*
X8418920Y5370000D01*
X8426710Y5371520D01*
X8434500Y5379140D01*
X8439370Y5388290D01*
X8440340Y5397430D01*
X8438400Y5408100D01*
X8431580Y5415720D01*
X8424770Y5418770D01*
X8416000D01*
G01X8424770D02*
X8430610Y5423340D01*
X8435480Y5430960D01*
X8437420Y5440100D01*
X8435480Y5449250D01*
X8430610Y5456870D01*
X8421840Y5461440D01*
X8413080Y5459920D01*
X8404320Y5453820D01*
G01X8496690Y5461440D02*
X8488900Y5458390D01*
X8483060Y5450770D01*
X8479160Y5441630D01*
X8476240Y5429430D01*
X8475270Y5415720D01*
X8476240Y5402000D01*
X8479160Y5389810D01*
X8483060Y5380670D01*
X8488900Y5373050D01*
X8496690Y5370000D01*
X8504480Y5373050D01*
X8510320Y5380670D01*
X8514220Y5389810D01*
X8517140Y5402000D01*
X8518110Y5415720D01*
X8517140Y5429430D01*
X8514220Y5441630D01*
X8510320Y5450770D01*
X8504480Y5458390D01*
X8496690Y5461440D01*
G01X8319740Y5750000D02*
Y5841440D01*
X8344080D01*
X8351870Y5836870D01*
X8356740Y5830770D01*
X8358680Y5818580D01*
X8356740Y5806390D01*
X8350890Y5798770D01*
X8344080Y5794190D01*
X8319740D01*
G01X8344080D02*
X8358680Y5750000D01*
G01X8399450Y5826200D02*
X8405290Y5835340D01*
X8412110Y5839920D01*
X8419900Y5841440D01*
X8429630Y5838390D01*
X8436450Y5830770D01*
X8438400Y5821630D01*
X8437420Y5812480D01*
X8433530Y5804860D01*
X8414060Y5789620D01*
X8405290Y5778960D01*
X8399450Y5763710D01*
X8397500Y5750000D01*
X8438400D01*
G01X8494740D02*
X8496690Y5769810D01*
X8499610Y5786570D01*
X8503510Y5801820D01*
X8508370Y5818580D01*
X8516160Y5841440D01*
X8477220D01*
G01X8350630Y5603820D02*
X8344790Y5608390D01*
X8337970Y5611440D01*
X8330180D01*
X8321420Y5606870D01*
X8314610Y5599250D01*
X8309740Y5590100D01*
X8305840Y5574860D01*
X8304870Y5561150D01*
X8306820Y5547430D01*
X8309740Y5538290D01*
X8315580Y5529140D01*
X8322390Y5523050D01*
X8329210Y5520000D01*
X8336030D01*
X8342840Y5523050D01*
X8348680Y5527620D01*
X8353550Y5533710D01*
G01X8407950Y5520000D02*
Y5611440D01*
X8396270Y5593150D01*
G01Y5520000D02*
X8419630D01*
G01X8465270Y5538290D02*
X8471110Y5527620D01*
X8478900Y5521520D01*
X8487660Y5520000D01*
X8495450Y5521520D01*
X8503240Y5529140D01*
X8508110Y5538290D01*
X8509080Y5547430D01*
X8507140Y5558100D01*
X8500320Y5565720D01*
X8493510Y5568770D01*
X8484740D01*
G01X8493510D02*
X8499350Y5573340D01*
X8504220Y5580960D01*
X8506160Y5590100D01*
X8504220Y5599250D01*
X8499350Y5606870D01*
X8490580Y5611440D01*
X8481820Y5609920D01*
X8473060Y5603820D01*
G01X8356740Y6068400D02*
Y6159840D01*
X8381080D01*
X8388870Y6155270D01*
X8393740Y6149170D01*
X8395680Y6136980D01*
X8393740Y6124790D01*
X8387890Y6117170D01*
X8381080Y6112590D01*
X8356740D01*
G01X8381080D02*
X8395680Y6068400D01*
G01X8436450Y6144600D02*
X8442290Y6153740D01*
X8449110Y6158320D01*
X8456900Y6159840D01*
X8466630Y6156790D01*
X8473450Y6149170D01*
X8475400Y6140030D01*
X8474420Y6130880D01*
X8470530Y6123260D01*
X8451060Y6108020D01*
X8442290Y6097360D01*
X8436450Y6082110D01*
X8434500Y6068400D01*
X8475400D01*
G01X8533690D02*
Y6159840D01*
X8522010Y6141550D01*
G01Y6068400D02*
X8545370D01*
G01X8356740Y6468400D02*
Y6559840D01*
X8381080D01*
X8388870Y6555270D01*
X8393740Y6549170D01*
X8395680Y6536980D01*
X8393740Y6524790D01*
X8387890Y6517170D01*
X8381080Y6512590D01*
X8356740D01*
G01X8381080D02*
X8395680Y6468400D01*
G01X8436450Y6544600D02*
X8442290Y6553740D01*
X8449110Y6558320D01*
X8456900Y6559840D01*
X8466630Y6556790D01*
X8473450Y6549170D01*
X8475400Y6540030D01*
X8474420Y6530880D01*
X8470530Y6523260D01*
X8451060Y6508020D01*
X8442290Y6497360D01*
X8436450Y6482110D01*
X8434500Y6468400D01*
X8475400D01*
G01X8545370D02*
Y6559840D01*
X8509350Y6494310D01*
X8558030D01*
G01X8356740Y6218400D02*
Y6309840D01*
X8381080D01*
X8388870Y6305270D01*
X8393740Y6299170D01*
X8395680Y6286980D01*
X8393740Y6274790D01*
X8387890Y6267170D01*
X8381080Y6262590D01*
X8356740D01*
G01X8381080D02*
X8395680Y6218400D01*
G01X8454950D02*
Y6309840D01*
X8443270Y6291550D01*
G01Y6218400D02*
X8466630D01*
G01X8531740D02*
X8533690Y6238210D01*
X8536610Y6254970D01*
X8540510Y6270220D01*
X8545370Y6286980D01*
X8553160Y6309840D01*
X8514220D01*
G01X8410630Y6903820D02*
X8404790Y6908390D01*
X8397970Y6911440D01*
X8390180D01*
X8381420Y6906870D01*
X8374610Y6899250D01*
X8369740Y6890100D01*
X8365840Y6874860D01*
X8364870Y6861150D01*
X8366820Y6847430D01*
X8369740Y6838290D01*
X8375580Y6829140D01*
X8382390Y6823050D01*
X8389210Y6820000D01*
X8396030D01*
X8402840Y6823050D01*
X8408680Y6827620D01*
X8413550Y6833710D01*
G01X8467950Y6820000D02*
Y6911440D01*
X8456270Y6893150D01*
G01Y6820000D02*
X8479630D01*
G01X8787790Y390000D02*
Y481440D01*
G01X8824790D02*
X8787790Y425050D01*
G01X8830630Y390000D02*
X8804340Y450960D01*
G01X8907420Y390000D02*
X8868480D01*
Y481440D01*
X8907420D01*
G01X8891840Y437250D02*
X8868480D01*
G01X8966690Y390000D02*
Y431150D01*
X8947220Y481440D01*
G01X8986160D02*
X8966690Y431150D01*
G01X9045430Y481440D02*
X9037640Y478390D01*
X9031800Y470770D01*
X9027900Y461630D01*
X9024980Y449430D01*
X9024010Y435720D01*
X9024980Y422000D01*
X9027900Y409810D01*
X9031800Y400670D01*
X9037640Y393050D01*
X9045430Y390000D01*
X9053220Y393050D01*
X9059060Y400670D01*
X9062960Y409810D01*
X9065880Y422000D01*
X9066850Y435720D01*
X9065880Y449430D01*
X9062960Y461630D01*
X9059060Y470770D01*
X9053220Y478390D01*
X9045430Y481440D01*
G01X8778760Y622190D02*
X8786550Y614570D01*
X8795320Y610000D01*
X8803100D01*
X8810890Y614570D01*
X8816740Y622190D01*
X8819660Y632860D01*
X8817710Y643530D01*
X8812840Y652670D01*
X8804080Y658770D01*
X8792390Y661820D01*
X8785580Y667910D01*
X8782660Y678580D01*
X8784610Y689250D01*
X8789470Y696870D01*
X8796290Y701440D01*
X8803100D01*
X8809920Y698390D01*
X8815760Y690770D01*
G01X8848740Y701440D02*
X8862370Y610000D01*
X8877950Y701440D01*
X8893530Y610000D01*
X8907160Y701440D01*
G01X8938190Y686200D02*
X8944030Y695340D01*
X8950850Y699920D01*
X8958640Y701440D01*
X8968370Y698390D01*
X8975190Y690770D01*
X8977140Y681630D01*
X8976160Y672480D01*
X8972270Y664860D01*
X8952800Y649620D01*
X8944030Y638960D01*
X8938190Y623710D01*
X8936240Y610000D01*
X8977140D01*
G01X8837790Y7291440D02*
Y7225910D01*
X8841680Y7212190D01*
X8849470Y7203050D01*
X8859210Y7200000D01*
X8868950Y7203050D01*
X8876740Y7212190D01*
X8880630Y7225910D01*
Y7291440D01*
G01X8916530Y7218290D02*
X8922370Y7207620D01*
X8930160Y7201520D01*
X8938920Y7200000D01*
X8946710Y7201520D01*
X8954500Y7209140D01*
X8959370Y7218290D01*
X8960340Y7227430D01*
X8958400Y7238100D01*
X8951580Y7245720D01*
X8944770Y7248770D01*
X8936000D01*
G01X8944770D02*
X8950610Y7253340D01*
X8955480Y7260960D01*
X8957420Y7270100D01*
X8955480Y7279250D01*
X8950610Y7286870D01*
X8941840Y7291440D01*
X8933080Y7289920D01*
X8924320Y7283820D01*
G01X9187790Y5971440D02*
Y5905910D01*
X9191680Y5892190D01*
X9199470Y5883050D01*
X9209210Y5880000D01*
X9218950Y5883050D01*
X9226740Y5892190D01*
X9230630Y5905910D01*
Y5971440D01*
G01X9287950Y5880000D02*
Y5971440D01*
X9276270Y5953150D01*
G01Y5880000D02*
X9299630D01*
G01X9348190Y5956200D02*
X9354030Y5965340D01*
X9360850Y5969920D01*
X9368640Y5971440D01*
X9378370Y5968390D01*
X9385190Y5960770D01*
X9387140Y5951630D01*
X9386160Y5942480D01*
X9382270Y5934860D01*
X9362800Y5919620D01*
X9354030Y5908960D01*
X9348190Y5893710D01*
X9346240Y5880000D01*
X9387140D01*
G01X9187790Y6691440D02*
Y6625910D01*
X9191680Y6612190D01*
X9199470Y6603050D01*
X9209210Y6600000D01*
X9218950Y6603050D01*
X9226740Y6612190D01*
X9230630Y6625910D01*
Y6691440D01*
G01X9287950Y6600000D02*
Y6691440D01*
X9276270Y6673150D01*
G01Y6600000D02*
X9299630D01*
G01X9366690Y6691440D02*
X9358900Y6688390D01*
X9353060Y6680770D01*
X9349160Y6671630D01*
X9346240Y6659430D01*
X9345270Y6645720D01*
X9346240Y6632000D01*
X9349160Y6619810D01*
X9353060Y6610670D01*
X9358900Y6603050D01*
X9366690Y6600000D01*
X9374480Y6603050D01*
X9380320Y6610670D01*
X9384220Y6619810D01*
X9387140Y6632000D01*
X9388110Y6645720D01*
X9387140Y6659430D01*
X9384220Y6671630D01*
X9380320Y6680770D01*
X9374480Y6688390D01*
X9366690Y6691440D01*
G01X10197790Y390000D02*
Y481440D01*
G01X10234790D02*
X10197790Y425050D01*
G01X10240630Y390000D02*
X10214340Y450960D01*
G01X10317420Y390000D02*
X10278480D01*
Y481440D01*
X10317420D01*
G01X10301840Y437250D02*
X10278480D01*
G01X10376690Y390000D02*
Y431150D01*
X10357220Y481440D01*
G01X10396160D02*
X10376690Y431150D01*
G01X10455430Y390000D02*
Y481440D01*
X10443750Y463150D01*
G01Y390000D02*
X10467110D01*
G01X10198760Y622190D02*
X10206550Y614570D01*
X10215320Y610000D01*
X10223100D01*
X10230890Y614570D01*
X10236740Y622190D01*
X10239660Y632860D01*
X10237710Y643530D01*
X10232840Y652670D01*
X10224080Y658770D01*
X10212390Y661820D01*
X10205580Y667910D01*
X10202660Y678580D01*
X10204610Y689250D01*
X10209470Y696870D01*
X10216290Y701440D01*
X10223100D01*
X10229920Y698390D01*
X10235760Y690770D01*
G01X10268740Y701440D02*
X10282370Y610000D01*
X10297950Y701440D01*
X10313530Y610000D01*
X10327160Y701440D01*
G01X10355270Y628290D02*
X10361110Y617620D01*
X10368900Y611520D01*
X10377660Y610000D01*
X10385450Y611520D01*
X10393240Y619140D01*
X10398110Y628290D01*
X10399080Y637430D01*
X10397140Y648100D01*
X10390320Y655720D01*
X10383510Y658770D01*
X10374740D01*
G01X10383510D02*
X10389350Y663340D01*
X10394220Y670960D01*
X10396160Y680100D01*
X10394220Y689250D01*
X10389350Y696870D01*
X10380580Y701440D01*
X10371820Y699920D01*
X10363060Y693820D01*
G01X9898400Y5482740D02*
X9806960D01*
Y5507080D01*
X9811530Y5514870D01*
X9817630Y5519740D01*
X9829820Y5521680D01*
X9842010Y5519740D01*
X9849630Y5513890D01*
X9854210Y5507080D01*
Y5482740D01*
G01Y5507080D02*
X9898400Y5521680D01*
G01X9822200Y5562450D02*
X9813060Y5568290D01*
X9808480Y5575110D01*
X9806960Y5582900D01*
X9810010Y5592630D01*
X9817630Y5599450D01*
X9826770Y5601400D01*
X9835920Y5600420D01*
X9843540Y5596530D01*
X9858780Y5577060D01*
X9869440Y5568290D01*
X9884690Y5562450D01*
X9898400Y5560500D01*
Y5601400D01*
G01Y5659690D02*
X9896880Y5666510D01*
X9892310Y5674290D01*
X9884690Y5679160D01*
X9874020Y5681110D01*
X9863350Y5679160D01*
X9854210Y5673320D01*
X9849630Y5664560D01*
Y5654820D01*
X9846580Y5648980D01*
X9838970Y5644110D01*
X9828300Y5642160D01*
X9817630Y5645090D01*
X9810010Y5651900D01*
X9806960Y5659690D01*
X9810010Y5667480D01*
X9817630Y5674290D01*
X9828300Y5677220D01*
X9838970Y5675270D01*
X9846580Y5670400D01*
X9849630Y5664560D01*
Y5654820D01*
X9854210Y5646060D01*
X9863350Y5640220D01*
X9874020Y5638270D01*
X9884690Y5640220D01*
X9892310Y5645090D01*
X9896880Y5652870D01*
X9898400Y5659690D01*
G01X9888400Y6202740D02*
X9796960D01*
Y6227080D01*
X9801530Y6234870D01*
X9807630Y6239740D01*
X9819820Y6241680D01*
X9832010Y6239740D01*
X9839630Y6233890D01*
X9844210Y6227080D01*
Y6202740D01*
G01Y6227080D02*
X9888400Y6241680D01*
G01Y6300950D02*
X9796960D01*
X9815250Y6289270D01*
G01X9888400D02*
Y6312630D01*
G01Y6379690D02*
X9886880Y6386510D01*
X9882310Y6394290D01*
X9874690Y6399160D01*
X9864020Y6401110D01*
X9853350Y6399160D01*
X9844210Y6393320D01*
X9839630Y6384560D01*
Y6374820D01*
X9836580Y6368980D01*
X9828970Y6364110D01*
X9818300Y6362160D01*
X9807630Y6365090D01*
X9800010Y6371900D01*
X9796960Y6379690D01*
X9800010Y6387480D01*
X9807630Y6394290D01*
X9818300Y6397220D01*
X9828970Y6395270D01*
X9836580Y6390400D01*
X9839630Y6384560D01*
Y6374820D01*
X9844210Y6366060D01*
X9853350Y6360220D01*
X9864020Y6358270D01*
X9874690Y6360220D01*
X9882310Y6365090D01*
X9886880Y6372870D01*
X9888400Y6379690D01*
G01X10239740Y6500000D02*
Y6591440D01*
X10264080D01*
X10271870Y6586870D01*
X10276740Y6580770D01*
X10278680Y6568580D01*
X10276740Y6556390D01*
X10270890Y6548770D01*
X10264080Y6544190D01*
X10239740D01*
G01X10264080D02*
X10278680Y6500000D01*
G01X10337950D02*
Y6591440D01*
X10326270Y6573150D01*
G01Y6500000D02*
X10349630D01*
G01X10395270Y6513710D02*
X10401110Y6506090D01*
X10407930Y6501520D01*
X10416690Y6500000D01*
X10425450Y6503050D01*
X10432270Y6509140D01*
X10437140Y6519810D01*
X10438110Y6532000D01*
X10436160Y6544190D01*
X10431290Y6551820D01*
X10424480Y6557910D01*
X10417660Y6559430D01*
X10410850Y6557910D01*
X10402090Y6551820D01*
X10405010Y6591440D01*
X10431290D01*
G01X10249740Y6050000D02*
Y6141440D01*
X10274080D01*
X10281870Y6136870D01*
X10286740Y6130770D01*
X10288680Y6118580D01*
X10286740Y6106390D01*
X10280890Y6098770D01*
X10274080Y6094190D01*
X10249740D01*
G01X10274080D02*
X10288680Y6050000D01*
G01X10329450Y6126200D02*
X10335290Y6135340D01*
X10342110Y6139920D01*
X10349900Y6141440D01*
X10359630Y6138390D01*
X10366450Y6130770D01*
X10368400Y6121630D01*
X10367420Y6112480D01*
X10363530Y6104860D01*
X10344060Y6089620D01*
X10335290Y6078960D01*
X10329450Y6063710D01*
X10327500Y6050000D01*
X10368400D01*
G01X10408190Y6088100D02*
X10415010Y6098770D01*
X10420850Y6104860D01*
X10428640Y6107910D01*
X10435450Y6104860D01*
X10440320Y6098770D01*
X10444220Y6089620D01*
X10445190Y6078960D01*
X10444220Y6069810D01*
X10440320Y6060670D01*
X10434480Y6053050D01*
X10427660Y6050000D01*
X10419870Y6053050D01*
X10413060Y6062190D01*
X10409160Y6075910D01*
X10408190Y6091150D01*
X10410140Y6110960D01*
X10413060Y6121630D01*
X10417930Y6132300D01*
X10424740Y6139920D01*
X10431560Y6141440D01*
X10438370Y6138390D01*
X10443240Y6130770D01*
G01X10261160Y7218290D02*
X10266030Y7209140D01*
X10271870Y7203050D01*
X10278680Y7200000D01*
X10286470Y7203050D01*
X10292310Y7209140D01*
X10298160Y7218290D01*
X10300100Y7230480D01*
Y7291440D01*
G01X10340870Y7276200D02*
X10346710Y7285340D01*
X10353530Y7289920D01*
X10361320Y7291440D01*
X10371050Y7288390D01*
X10377870Y7280770D01*
X10379820Y7271630D01*
X10378840Y7262480D01*
X10374950Y7254860D01*
X10355480Y7239620D01*
X10346710Y7228960D01*
X10340870Y7213710D01*
X10338920Y7200000D01*
X10379820D01*
G01X9769740Y6950000D02*
Y7041440D01*
X9794080D01*
X9801870Y7036870D01*
X9806740Y7030770D01*
X9808680Y7018580D01*
X9806740Y7006390D01*
X9800890Y6998770D01*
X9794080Y6994190D01*
X9769740D01*
G01X9794080D02*
X9808680Y6950000D01*
G01X9846530Y6963710D02*
X9852370Y6956090D01*
X9859190Y6951520D01*
X9867950Y6950000D01*
X9876710Y6953050D01*
X9883530Y6959140D01*
X9888400Y6969810D01*
X9889370Y6982000D01*
X9887420Y6994190D01*
X9882550Y7001820D01*
X9875740Y7007910D01*
X9868920Y7009430D01*
X9862110Y7007910D01*
X9853350Y7001820D01*
X9856270Y7041440D01*
X9882550D01*
G01X9800630Y6743820D02*
X9794790Y6748390D01*
X9787970Y6751440D01*
X9780180D01*
X9771420Y6746870D01*
X9764610Y6739250D01*
X9759740Y6730100D01*
X9755840Y6714860D01*
X9754870Y6701150D01*
X9756820Y6687430D01*
X9759740Y6678290D01*
X9765580Y6669140D01*
X9772390Y6663050D01*
X9779210Y6660000D01*
X9786030D01*
X9792840Y6663050D01*
X9798680Y6667620D01*
X9803550Y6673710D01*
G01X9856000Y6660000D02*
X9857950Y6679810D01*
X9860870Y6696570D01*
X9864770Y6711820D01*
X9869630Y6728580D01*
X9877420Y6751440D01*
X9838480D01*
G01X10772740Y3921600D02*
Y4013040D01*
X10797080D01*
X10804870Y4008470D01*
X10809740Y4002370D01*
X10811680Y3990180D01*
X10809740Y3977990D01*
X10803890Y3970370D01*
X10797080Y3965790D01*
X10772740D01*
G01X10797080D02*
X10811680Y3921600D01*
G01X10852450Y3997800D02*
X10858290Y4006940D01*
X10865110Y4011520D01*
X10872900Y4013040D01*
X10882630Y4009990D01*
X10889450Y4002370D01*
X10891400Y3993230D01*
X10890420Y3984080D01*
X10886530Y3976460D01*
X10867060Y3961220D01*
X10858290Y3950560D01*
X10852450Y3935310D01*
X10850500Y3921600D01*
X10891400D01*
G01X10933140Y3932270D02*
X10939950Y3924650D01*
X10947740Y3921600D01*
X10955530Y3924650D01*
X10962350Y3933790D01*
X10967220Y3947510D01*
X10969160Y3961220D01*
Y3977990D01*
X10967220Y3991700D01*
X10962350Y4003900D01*
X10956510Y4009990D01*
X10949690Y4013040D01*
X10941900Y4009990D01*
X10936060Y4003900D01*
X10932160Y3994750D01*
X10930220Y3982560D01*
X10932160Y3971890D01*
X10937030Y3961220D01*
X10942870Y3955130D01*
X10949690Y3953600D01*
X10957480Y3956650D01*
X10963320Y3964270D01*
X10969160Y3977990D01*
G01X10772740Y3771600D02*
Y3863040D01*
X10797080D01*
X10804870Y3858470D01*
X10809740Y3852370D01*
X10811680Y3840180D01*
X10809740Y3827990D01*
X10803890Y3820370D01*
X10797080Y3815790D01*
X10772740D01*
G01X10797080D02*
X10811680Y3771600D01*
G01X10849530Y3789890D02*
X10855370Y3779220D01*
X10863160Y3773120D01*
X10871920Y3771600D01*
X10879710Y3773120D01*
X10887500Y3780740D01*
X10892370Y3789890D01*
X10893340Y3799030D01*
X10891400Y3809700D01*
X10884580Y3817320D01*
X10877770Y3820370D01*
X10869000D01*
G01X10877770D02*
X10883610Y3824940D01*
X10888480Y3832560D01*
X10890420Y3841700D01*
X10888480Y3850850D01*
X10883610Y3858470D01*
X10874840Y3863040D01*
X10866080Y3861520D01*
X10857320Y3855420D01*
G01X10931190Y3847800D02*
X10937030Y3856940D01*
X10943850Y3861520D01*
X10951640Y3863040D01*
X10961370Y3859990D01*
X10968190Y3852370D01*
X10970140Y3843230D01*
X10969160Y3834080D01*
X10965270Y3826460D01*
X10945800Y3811220D01*
X10937030Y3800560D01*
X10931190Y3785310D01*
X10929240Y3771600D01*
X10970140D01*
G01X10772740Y4071600D02*
Y4163040D01*
X10797080D01*
X10804870Y4158470D01*
X10809740Y4152370D01*
X10811680Y4140180D01*
X10809740Y4127990D01*
X10803890Y4120370D01*
X10797080Y4115790D01*
X10772740D01*
G01X10797080D02*
X10811680Y4071600D01*
G01X10849530Y4089890D02*
X10855370Y4079220D01*
X10863160Y4073120D01*
X10871920Y4071600D01*
X10879710Y4073120D01*
X10887500Y4080740D01*
X10892370Y4089890D01*
X10893340Y4099030D01*
X10891400Y4109700D01*
X10884580Y4117320D01*
X10877770Y4120370D01*
X10869000D01*
G01X10877770D02*
X10883610Y4124940D01*
X10888480Y4132560D01*
X10890420Y4141700D01*
X10888480Y4150850D01*
X10883610Y4158470D01*
X10874840Y4163040D01*
X10866080Y4161520D01*
X10857320Y4155420D01*
G01X10949690Y4071600D02*
Y4163040D01*
X10938010Y4144750D01*
G01Y4071600D02*
X10961370D01*
G01X10772740Y4221600D02*
Y4313040D01*
X10797080D01*
X10804870Y4308470D01*
X10809740Y4302370D01*
X10811680Y4290180D01*
X10809740Y4277990D01*
X10803890Y4270370D01*
X10797080Y4265790D01*
X10772740D01*
G01X10797080D02*
X10811680Y4221600D01*
G01X10852450Y4259700D02*
X10859270Y4270370D01*
X10865110Y4276460D01*
X10872900Y4279510D01*
X10879710Y4276460D01*
X10884580Y4270370D01*
X10888480Y4261220D01*
X10889450Y4250560D01*
X10888480Y4241410D01*
X10884580Y4232270D01*
X10878740Y4224650D01*
X10871920Y4221600D01*
X10864130Y4224650D01*
X10857320Y4233790D01*
X10853420Y4247510D01*
X10852450Y4262750D01*
X10854400Y4282560D01*
X10857320Y4293230D01*
X10862190Y4303900D01*
X10869000Y4311520D01*
X10875820Y4313040D01*
X10882630Y4309990D01*
X10887500Y4302370D01*
G01X10769740Y4370000D02*
Y4461440D01*
X10794080D01*
X10801870Y4456870D01*
X10806740Y4450770D01*
X10808680Y4438580D01*
X10806740Y4426390D01*
X10800890Y4418770D01*
X10794080Y4414190D01*
X10769740D01*
G01X10794080D02*
X10808680Y4370000D01*
G01X10866000D02*
X10867950Y4389810D01*
X10870870Y4406570D01*
X10874770Y4421820D01*
X10879630Y4438580D01*
X10887420Y4461440D01*
X10848480D01*
G01X10962030Y5765420D02*
X10956190Y5769990D01*
X10949370Y5773040D01*
X10941580D01*
X10932820Y5768470D01*
X10926010Y5760850D01*
X10921140Y5751700D01*
X10917240Y5736460D01*
X10916270Y5722750D01*
X10918220Y5709030D01*
X10921140Y5699890D01*
X10926980Y5690740D01*
X10933790Y5684650D01*
X10940610Y5681600D01*
X10947430D01*
X10954240Y5684650D01*
X10960080Y5689220D01*
X10964950Y5695310D01*
G01X11019350Y5681600D02*
Y5773040D01*
X11007670Y5754750D01*
G01Y5681600D02*
X11031030D01*
G01X11098090D02*
Y5773040D01*
X11086410Y5754750D01*
G01Y5681600D02*
X11109770D01*
G01X10962030Y5615420D02*
X10956190Y5619990D01*
X10949370Y5623040D01*
X10941580D01*
X10932820Y5618470D01*
X10926010Y5610850D01*
X10921140Y5601700D01*
X10917240Y5586460D01*
X10916270Y5572750D01*
X10918220Y5559030D01*
X10921140Y5549890D01*
X10926980Y5540740D01*
X10933790Y5534650D01*
X10940610Y5531600D01*
X10947430D01*
X10954240Y5534650D01*
X10960080Y5539220D01*
X10964950Y5545310D01*
G01X11019350Y5531600D02*
Y5623040D01*
X11007670Y5604750D01*
G01Y5531600D02*
X11031030D01*
G01X11079590Y5607800D02*
X11085430Y5616940D01*
X11092250Y5621520D01*
X11100040Y5623040D01*
X11109770Y5619990D01*
X11116590Y5612370D01*
X11118540Y5603230D01*
X11117560Y5594080D01*
X11113670Y5586460D01*
X11094200Y5571220D01*
X11085430Y5560560D01*
X11079590Y5545310D01*
X11077640Y5531600D01*
X11118540D01*
G01X10471490Y6609540D02*
Y6544010D01*
X10475380Y6530290D01*
X10483170Y6521150D01*
X10492910Y6518100D01*
X10502650Y6521150D01*
X10510440Y6530290D01*
X10514330Y6544010D01*
Y6609540D01*
G01X10571650Y6518100D02*
Y6609540D01*
X10559970Y6591250D01*
G01Y6518100D02*
X10583330D01*
G01X10650390D02*
Y6609540D01*
X10638710Y6591250D01*
G01Y6518100D02*
X10662070D01*
G01X10891130Y7227730D02*
X10897560Y7234080D01*
X10902390Y7244660D01*
X10905610Y7259490D01*
X10902390Y7272180D01*
X10895960Y7280650D01*
X10884690Y7287000D01*
X10841260D01*
Y7160000D01*
X10894350D01*
X10905610Y7168460D01*
X10912040Y7181170D01*
X10915260Y7195980D01*
X10912040Y7210800D01*
X10902390Y7223500D01*
X10891130Y7227730D01*
X10841260D01*
G01X11389740Y1600000D02*
Y1691440D01*
X11414080D01*
X11421870Y1686870D01*
X11426740Y1680770D01*
X11428680Y1668580D01*
X11426740Y1656390D01*
X11420890Y1648770D01*
X11414080Y1644190D01*
X11389740D01*
G01X11414080D02*
X11428680Y1600000D01*
G01X11466530Y1618290D02*
X11472370Y1607620D01*
X11480160Y1601520D01*
X11488920Y1600000D01*
X11496710Y1601520D01*
X11504500Y1609140D01*
X11509370Y1618290D01*
X11510340Y1627430D01*
X11508400Y1638100D01*
X11501580Y1645720D01*
X11494770Y1648770D01*
X11486000D01*
G01X11494770D02*
X11500610Y1653340D01*
X11505480Y1660960D01*
X11507420Y1670100D01*
X11505480Y1679250D01*
X11500610Y1686870D01*
X11491840Y1691440D01*
X11483080Y1689920D01*
X11474320Y1683820D01*
G01X11548190Y1638100D02*
X11555010Y1648770D01*
X11560850Y1654860D01*
X11568640Y1657910D01*
X11575450Y1654860D01*
X11580320Y1648770D01*
X11584220Y1639620D01*
X11585190Y1628960D01*
X11584220Y1619810D01*
X11580320Y1610670D01*
X11574480Y1603050D01*
X11567660Y1600000D01*
X11559870Y1603050D01*
X11553060Y1612190D01*
X11549160Y1625910D01*
X11548190Y1641150D01*
X11550140Y1660960D01*
X11553060Y1671630D01*
X11557930Y1682300D01*
X11564740Y1689920D01*
X11571560Y1691440D01*
X11578370Y1688390D01*
X11583240Y1680770D01*
G01X11389740Y1480000D02*
Y1571440D01*
X11414080D01*
X11421870Y1566870D01*
X11426740Y1560770D01*
X11428680Y1548580D01*
X11426740Y1536390D01*
X11420890Y1528770D01*
X11414080Y1524190D01*
X11389740D01*
G01X11414080D02*
X11428680Y1480000D01*
G01X11466530Y1498290D02*
X11472370Y1487620D01*
X11480160Y1481520D01*
X11488920Y1480000D01*
X11496710Y1481520D01*
X11504500Y1489140D01*
X11509370Y1498290D01*
X11510340Y1507430D01*
X11508400Y1518100D01*
X11501580Y1525720D01*
X11494770Y1528770D01*
X11486000D01*
G01X11494770D02*
X11500610Y1533340D01*
X11505480Y1540960D01*
X11507420Y1550100D01*
X11505480Y1559250D01*
X11500610Y1566870D01*
X11491840Y1571440D01*
X11483080Y1569920D01*
X11474320Y1563820D01*
G01X11564740Y1480000D02*
X11566690Y1499810D01*
X11569610Y1516570D01*
X11573510Y1531820D01*
X11578370Y1548580D01*
X11586160Y1571440D01*
X11547220D01*
G01X11420630Y1433820D02*
X11414790Y1438390D01*
X11407970Y1441440D01*
X11400180D01*
X11391420Y1436870D01*
X11384610Y1429250D01*
X11379740Y1420100D01*
X11375840Y1404860D01*
X11374870Y1391150D01*
X11376820Y1377430D01*
X11379740Y1368290D01*
X11385580Y1359140D01*
X11392390Y1353050D01*
X11399210Y1350000D01*
X11406030D01*
X11412840Y1353050D01*
X11418680Y1357620D01*
X11423550Y1363710D01*
G01X11477950Y1350000D02*
Y1441440D01*
X11466270Y1423150D01*
G01Y1350000D02*
X11489630D01*
G01X11535270Y1363710D02*
X11541110Y1356090D01*
X11547930Y1351520D01*
X11556690Y1350000D01*
X11565450Y1353050D01*
X11572270Y1359140D01*
X11577140Y1369810D01*
X11578110Y1382000D01*
X11576160Y1394190D01*
X11571290Y1401820D01*
X11564480Y1407910D01*
X11557660Y1409430D01*
X11550850Y1407910D01*
X11542090Y1401820D01*
X11545010Y1441440D01*
X11571290D01*
G01X11399740Y1730000D02*
Y1821440D01*
X11424080D01*
X11431870Y1816870D01*
X11436740Y1810770D01*
X11438680Y1798580D01*
X11436740Y1786390D01*
X11430890Y1778770D01*
X11424080Y1774190D01*
X11399740D01*
G01X11424080D02*
X11438680Y1730000D01*
G01X11476530Y1748290D02*
X11482370Y1737620D01*
X11490160Y1731520D01*
X11498920Y1730000D01*
X11506710Y1731520D01*
X11514500Y1739140D01*
X11519370Y1748290D01*
X11520340Y1757430D01*
X11518400Y1768100D01*
X11511580Y1775720D01*
X11504770Y1778770D01*
X11496000D01*
G01X11504770D02*
X11510610Y1783340D01*
X11515480Y1790960D01*
X11517420Y1800100D01*
X11515480Y1809250D01*
X11510610Y1816870D01*
X11501840Y1821440D01*
X11493080Y1819920D01*
X11484320Y1813820D01*
G01X11576690Y1730000D02*
X11583510Y1731520D01*
X11591290Y1736090D01*
X11596160Y1743710D01*
X11598110Y1754380D01*
X11596160Y1765050D01*
X11590320Y1774190D01*
X11581560Y1778770D01*
X11571820D01*
X11565980Y1781820D01*
X11561110Y1789430D01*
X11559160Y1800100D01*
X11562090Y1810770D01*
X11568900Y1818390D01*
X11576690Y1821440D01*
X11584480Y1818390D01*
X11591290Y1810770D01*
X11594220Y1800100D01*
X11592270Y1789430D01*
X11587400Y1781820D01*
X11581560Y1778770D01*
X11571820D01*
X11563060Y1774190D01*
X11557220Y1765050D01*
X11555270Y1754380D01*
X11557220Y1743710D01*
X11562090Y1736090D01*
X11569870Y1731520D01*
X11576690Y1730000D01*
G01X11022740Y5231600D02*
Y5323040D01*
X11047080D01*
X11054870Y5318470D01*
X11059740Y5312370D01*
X11061680Y5300180D01*
X11059740Y5287990D01*
X11053890Y5280370D01*
X11047080Y5275790D01*
X11022740D01*
G01X11047080D02*
X11061680Y5231600D01*
G01X11102450Y5307800D02*
X11108290Y5316940D01*
X11115110Y5321520D01*
X11122900Y5323040D01*
X11132630Y5319990D01*
X11139450Y5312370D01*
X11141400Y5303230D01*
X11140420Y5294080D01*
X11136530Y5286460D01*
X11117060Y5271220D01*
X11108290Y5260560D01*
X11102450Y5245310D01*
X11100500Y5231600D01*
X11141400D01*
G01X11199690Y5323040D02*
X11191900Y5319990D01*
X11186060Y5312370D01*
X11182160Y5303230D01*
X11179240Y5291030D01*
X11178270Y5277320D01*
X11179240Y5263600D01*
X11182160Y5251410D01*
X11186060Y5242270D01*
X11191900Y5234650D01*
X11199690Y5231600D01*
X11207480Y5234650D01*
X11213320Y5242270D01*
X11217220Y5251410D01*
X11220140Y5263600D01*
X11221110Y5277320D01*
X11220140Y5291030D01*
X11217220Y5303230D01*
X11213320Y5312370D01*
X11207480Y5319990D01*
X11199690Y5323040D01*
G01X11022740Y5381600D02*
Y5473040D01*
X11047080D01*
X11054870Y5468470D01*
X11059740Y5462370D01*
X11061680Y5450180D01*
X11059740Y5437990D01*
X11053890Y5430370D01*
X11047080Y5425790D01*
X11022740D01*
G01X11047080D02*
X11061680Y5381600D01*
G01X11102450Y5457800D02*
X11108290Y5466940D01*
X11115110Y5471520D01*
X11122900Y5473040D01*
X11132630Y5469990D01*
X11139450Y5462370D01*
X11141400Y5453230D01*
X11140420Y5444080D01*
X11136530Y5436460D01*
X11117060Y5421220D01*
X11108290Y5410560D01*
X11102450Y5395310D01*
X11100500Y5381600D01*
X11141400D01*
G01X11178270Y5399890D02*
X11184110Y5389220D01*
X11191900Y5383120D01*
X11200660Y5381600D01*
X11208450Y5383120D01*
X11216240Y5390740D01*
X11221110Y5399890D01*
X11222080Y5409030D01*
X11220140Y5419700D01*
X11213320Y5427320D01*
X11206510Y5430370D01*
X11197740D01*
G01X11206510D02*
X11212350Y5434940D01*
X11217220Y5442560D01*
X11219160Y5451700D01*
X11217220Y5460850D01*
X11212350Y5468470D01*
X11203580Y5473040D01*
X11194820Y5471520D01*
X11186060Y5465420D01*
G01X11257260Y5778400D02*
Y5686960D01*
X11232920D01*
X11225130Y5691530D01*
X11220260Y5697630D01*
X11218320Y5709820D01*
X11220260Y5722010D01*
X11226110Y5729630D01*
X11232920Y5734210D01*
X11257260D01*
G01X11232920D02*
X11218320Y5778400D01*
G01X11177550Y5702200D02*
X11171710Y5693060D01*
X11164890Y5688480D01*
X11157100Y5686960D01*
X11147370Y5690010D01*
X11140550Y5697630D01*
X11138600Y5706770D01*
X11139580Y5715920D01*
X11143470Y5723540D01*
X11162940Y5738780D01*
X11171710Y5749440D01*
X11177550Y5764690D01*
X11179500Y5778400D01*
X11138600D01*
G01X11098810Y5702200D02*
X11092970Y5693060D01*
X11086150Y5688480D01*
X11078360Y5686960D01*
X11068630Y5690010D01*
X11061810Y5697630D01*
X11059860Y5706770D01*
X11060840Y5715920D01*
X11064730Y5723540D01*
X11084200Y5738780D01*
X11092970Y5749440D01*
X11098810Y5764690D01*
X11100760Y5778400D01*
X11059860D01*
G01X11022740Y5831600D02*
Y5923040D01*
X11047080D01*
X11054870Y5918470D01*
X11059740Y5912370D01*
X11061680Y5900180D01*
X11059740Y5887990D01*
X11053890Y5880370D01*
X11047080Y5875790D01*
X11022740D01*
G01X11047080D02*
X11061680Y5831600D01*
G01X11102450Y5907800D02*
X11108290Y5916940D01*
X11115110Y5921520D01*
X11122900Y5923040D01*
X11132630Y5919990D01*
X11139450Y5912370D01*
X11141400Y5903230D01*
X11140420Y5894080D01*
X11136530Y5886460D01*
X11117060Y5871220D01*
X11108290Y5860560D01*
X11102450Y5845310D01*
X11100500Y5831600D01*
X11141400D01*
G01X11178270Y5845310D02*
X11184110Y5837690D01*
X11190930Y5833120D01*
X11199690Y5831600D01*
X11208450Y5834650D01*
X11215270Y5840740D01*
X11220140Y5851410D01*
X11221110Y5863600D01*
X11219160Y5875790D01*
X11214290Y5883420D01*
X11207480Y5889510D01*
X11200660Y5891030D01*
X11193850Y5889510D01*
X11185090Y5883420D01*
X11188010Y5923040D01*
X11214290D01*
G01X11011490Y6609540D02*
Y6544010D01*
X11015380Y6530290D01*
X11023170Y6521150D01*
X11032910Y6518100D01*
X11042650Y6521150D01*
X11050440Y6530290D01*
X11054330Y6544010D01*
Y6609540D01*
G01X11111650Y6518100D02*
Y6609540D01*
X11099970Y6591250D01*
G01Y6518100D02*
X11123330D01*
G01X11168970Y6536390D02*
X11174810Y6525720D01*
X11182600Y6519620D01*
X11191360Y6518100D01*
X11199150Y6519620D01*
X11206940Y6527240D01*
X11211810Y6536390D01*
X11212780Y6545530D01*
X11210840Y6556200D01*
X11204020Y6563820D01*
X11197210Y6566870D01*
X11188440D01*
G01X11197210D02*
X11203050Y6571440D01*
X11207920Y6579060D01*
X11209860Y6588200D01*
X11207920Y6597350D01*
X11203050Y6604970D01*
X11194280Y6609540D01*
X11185520Y6608020D01*
X11176760Y6601920D01*
G01X11018040Y7160000D02*
X11058260Y7287000D01*
X11098480Y7160000D01*
G01X11084000Y7204450D02*
X11032520D01*
G01X11813890Y40000D02*
Y131440D01*
X11839210Y55240D01*
X11864530Y131440D01*
Y40000D01*
G01X11897500D02*
Y131440D01*
G01X11938400D02*
Y40000D01*
G01Y85720D02*
X11897500D01*
G01X11978190Y116200D02*
X11984030Y125340D01*
X11990850Y129920D01*
X11998640Y131440D01*
X12008370Y128390D01*
X12015190Y120770D01*
X12017140Y111630D01*
X12016160Y102480D01*
X12012270Y94860D01*
X11992800Y79620D01*
X11984030Y68960D01*
X11978190Y53710D01*
X11976240Y40000D01*
X12017140D01*
G01X12147790Y2381440D02*
Y2315910D01*
X12151680Y2302190D01*
X12159470Y2293050D01*
X12169210Y2290000D01*
X12178950Y2293050D01*
X12186740Y2302190D01*
X12190630Y2315910D01*
Y2381440D01*
G01X12247950Y2290000D02*
Y2381440D01*
X12236270Y2363150D01*
G01Y2290000D02*
X12259630D01*
G01X12305270Y2303710D02*
X12311110Y2296090D01*
X12317930Y2291520D01*
X12326690Y2290000D01*
X12335450Y2293050D01*
X12342270Y2299140D01*
X12347140Y2309810D01*
X12348110Y2322000D01*
X12346160Y2334190D01*
X12341290Y2341820D01*
X12334480Y2347910D01*
X12327660Y2349430D01*
X12320850Y2347910D01*
X12312090Y2341820D01*
X12315010Y2381440D01*
X12341290D01*
G01X12087790Y3370000D02*
Y3461440D01*
X12107260D01*
X12115050Y3456870D01*
X12120890Y3450770D01*
X12125760Y3441630D01*
X12129660Y3430960D01*
X12130630Y3415720D01*
X12129660Y3400480D01*
X12125760Y3389810D01*
X12120890Y3380670D01*
X12115050Y3374570D01*
X12107260Y3370000D01*
X12087790D01*
G01X12171400Y3380670D02*
X12178210Y3373050D01*
X12186000Y3370000D01*
X12193790Y3373050D01*
X12200610Y3382190D01*
X12205480Y3395910D01*
X12207420Y3409620D01*
Y3426390D01*
X12205480Y3440100D01*
X12200610Y3452300D01*
X12194770Y3458390D01*
X12187950Y3461440D01*
X12180160Y3458390D01*
X12174320Y3452300D01*
X12170420Y3443150D01*
X12168480Y3430960D01*
X12170420Y3420290D01*
X12175290Y3409620D01*
X12181130Y3403530D01*
X12187950Y3402000D01*
X12195740Y3405050D01*
X12201580Y3412670D01*
X12207420Y3426390D01*
G01X12087790Y3250000D02*
Y3341440D01*
X12107260D01*
X12115050Y3336870D01*
X12120890Y3330770D01*
X12125760Y3321630D01*
X12129660Y3310960D01*
X12130630Y3295720D01*
X12129660Y3280480D01*
X12125760Y3269810D01*
X12120890Y3260670D01*
X12115050Y3254570D01*
X12107260Y3250000D01*
X12087790D01*
G01X12187950D02*
Y3341440D01*
X12176270Y3323150D01*
G01Y3250000D02*
X12199630D01*
G01X12266690D02*
Y3341440D01*
X12255010Y3323150D01*
G01Y3250000D02*
X12278370D01*
G01X12087790Y3490000D02*
Y3581440D01*
X12107260D01*
X12115050Y3576870D01*
X12120890Y3570770D01*
X12125760Y3561630D01*
X12129660Y3550960D01*
X12130630Y3535720D01*
X12129660Y3520480D01*
X12125760Y3509810D01*
X12120890Y3500670D01*
X12115050Y3494570D01*
X12107260Y3490000D01*
X12087790D01*
G01X12187950D02*
Y3581440D01*
X12176270Y3563150D01*
G01Y3490000D02*
X12199630D01*
G01X12266690Y3581440D02*
X12258900Y3578390D01*
X12253060Y3570770D01*
X12249160Y3561630D01*
X12246240Y3549430D01*
X12245270Y3535720D01*
X12246240Y3522000D01*
X12249160Y3509810D01*
X12253060Y3500670D01*
X12258900Y3493050D01*
X12266690Y3490000D01*
X12274480Y3493050D01*
X12280320Y3500670D01*
X12284220Y3509810D01*
X12287140Y3522000D01*
X12288110Y3535720D01*
X12287140Y3549430D01*
X12284220Y3561630D01*
X12280320Y3570770D01*
X12274480Y3578390D01*
X12266690Y3581440D01*
G01X11969740Y4528290D02*
X11974610Y4519140D01*
X11980450Y4513050D01*
X11987260Y4510000D01*
X11995050Y4513050D01*
X12000890Y4519140D01*
X12006740Y4528290D01*
X12008680Y4540480D01*
Y4601440D01*
G01X12067950Y4510000D02*
Y4601440D01*
X12056270Y4583150D01*
G01Y4510000D02*
X12079630D01*
G01X11969210Y5271440D02*
Y5205910D01*
X11973100Y5192190D01*
X11980890Y5183050D01*
X11990630Y5180000D01*
X12000370Y5183050D01*
X12008160Y5192190D01*
X12012050Y5205910D01*
Y5271440D01*
G01X12052820Y5190670D02*
X12059630Y5183050D01*
X12067420Y5180000D01*
X12075210Y5183050D01*
X12082030Y5192190D01*
X12086900Y5205910D01*
X12088840Y5219620D01*
Y5236390D01*
X12086900Y5250100D01*
X12082030Y5262300D01*
X12076190Y5268390D01*
X12069370Y5271440D01*
X12061580Y5268390D01*
X12055740Y5262300D01*
X12051840Y5253150D01*
X12049900Y5240960D01*
X12051840Y5230290D01*
X12056710Y5219620D01*
X12062550Y5213530D01*
X12069370Y5212000D01*
X12077160Y5215050D01*
X12083000Y5222670D01*
X12088840Y5236390D01*
G01X11963890Y6550000D02*
Y6641440D01*
X11989210Y6565240D01*
X12014530Y6641440D01*
Y6550000D01*
G01X12047500D02*
Y6641440D01*
G01X12088400D02*
Y6550000D01*
G01Y6595720D02*
X12047500D01*
G01X12125270Y6568290D02*
X12131110Y6557620D01*
X12138900Y6551520D01*
X12147660Y6550000D01*
X12155450Y6551520D01*
X12163240Y6559140D01*
X12168110Y6568290D01*
X12169080Y6577430D01*
X12167140Y6588100D01*
X12160320Y6595720D01*
X12153510Y6598770D01*
X12144740D01*
G01X12153510D02*
X12159350Y6603340D01*
X12164220Y6610960D01*
X12166160Y6620100D01*
X12164220Y6629250D01*
X12159350Y6636870D01*
X12150580Y6641440D01*
X12141820Y6639920D01*
X12133060Y6633820D01*
G01X11874480Y7160000D02*
Y7287000D01*
G01X11942040D02*
Y7160000D01*
G01Y7223500D02*
X11874480D01*
G01X12046090Y7287000D02*
Y7160000D01*
X12110430D01*
G01X12479210Y6651440D02*
Y6585910D01*
X12483100Y6572190D01*
X12490890Y6563050D01*
X12500630Y6560000D01*
X12510370Y6563050D01*
X12518160Y6572190D01*
X12522050Y6585910D01*
Y6651440D01*
G01X12579370Y6560000D02*
X12586190Y6561520D01*
X12593970Y6566090D01*
X12598840Y6573710D01*
X12600790Y6584380D01*
X12598840Y6595050D01*
X12593000Y6604190D01*
X12584240Y6608770D01*
X12574500D01*
X12568660Y6611820D01*
X12563790Y6619430D01*
X12561840Y6630100D01*
X12564770Y6640770D01*
X12571580Y6648390D01*
X12579370Y6651440D01*
X12587160Y6648390D01*
X12593970Y6640770D01*
X12596900Y6630100D01*
X12594950Y6619430D01*
X12590080Y6611820D01*
X12584240Y6608770D01*
X12574500D01*
X12565740Y6604190D01*
X12559900Y6595050D01*
X12557950Y6584380D01*
X12559900Y6573710D01*
X12564770Y6566090D01*
X12572550Y6561520D01*
X12579370Y6560000D01*
G54D15*
G01X12601800Y4467800D02*
Y3619440D01*
X12596720Y3614360D01*
X11997280D01*
X11994740Y3616900D01*
Y4467800D01*
X12599260D01*
G54D16*
G01X3360480Y7986500D02*
X3296980Y8050000D01*
X3360480Y8113500D01*
Y7986500D01*
X3342700Y8004280D01*
Y8088100D01*
X3330000Y8075400D01*
Y8024600D01*
X3317300Y8037300D01*
Y8062700D01*
G01X3740480Y7986500D02*
X3676980Y8050000D01*
X3740480Y8113500D01*
Y7986500D01*
X3722700Y8004280D01*
Y8088100D01*
X3710000Y8075400D01*
Y8024600D01*
X3697300Y8037300D01*
Y8062700D01*
G01X12239520Y2793500D02*
X12303020Y2730000D01*
X12239520Y2666500D01*
Y2793500D01*
X12257300Y2775720D01*
Y2691900D01*
X12270000Y2704600D01*
Y2755400D01*
X12282700Y2742700D01*
Y2717300D01*
G01X12239520Y2993500D02*
X12303020Y2930000D01*
X12239520Y2866500D01*
Y2993500D01*
X12257300Y2975720D01*
Y2891900D01*
X12270000Y2904600D01*
Y2955400D01*
X12282700Y2942700D01*
Y2917300D01*
G01X12239520Y3193500D02*
X12303020Y3130000D01*
X12239520Y3066500D01*
Y3193500D01*
X12257300Y3175720D01*
Y3091900D01*
X12270000Y3104600D01*
Y3155400D01*
X12282700Y3142700D01*
Y3117300D01*
M02*
