G04 ================== begin FILE IDENTIFICATION RECORD ==================*
G04 Layout Name:  MB1136_BOOSTPACK_V10A.brd*
G04 Film Name:    SILKSCREEN_BOTTOM*
G04 File Format:  Gerber RS274X*
G04 File Origin:  Cadence Allegro 16.6-2015-S082*
G04 Origin Date:  Mon Feb 20 14:00:57 2017*
G04 *
G04 Layer:  BOARD GEOMETRY/OUTLINE*
G04 Layer:  REF DES/SILKSCREEN_BOTTOM*
G04 Layer:  PACKAGE GEOMETRY/SILKSCREEN_BOTTOM*
G04 Layer:  BOARD GEOMETRY/SILKSCREEN_BOTTOM*
G04 *
G04 Offset:    (0.0000 0.0000)*
G04 Mirror:    No*
G04 Mode:      Positive*
G04 Rotation:  0*
G04 FullContactRelief:  No*
G04 UndefLineWidth:     0.1524*
G04 ================== end FILE IDENTIFICATION RECORD ====================*
%FSLAX55Y55*MOMM*%
%IR0*IPPOS*OFA0.00000B0.00000*MIA0B0*SFA1.00000B1.00000*%
%ADD10C,.2032*%
%ADD11C,.17*%
%ADD12C,.127*%
%ADD13C,.254*%
%ADD14C,.1524*%
G75*
%LPD*%
G75*
G54D10*
G01X2890000Y170000D02*
G03I-50000J0D01*
G01X3690000D02*
G03I-50000J0D01*
G54D11*
G01X2140000Y7830000D02*
G03I-30000J0D01*
G01X2540000D02*
G03I-30000J0D01*
G54D12*
G01X3055000Y2790000D02*
G03I-75000J0D01*
G01X3805000D02*
G03I-75000J0D01*
G54D13*
G01X1267000Y5910000D02*
G03I-160000J0D01*
G01X4569000Y560000D02*
G03I-160000J0D01*
G01X6093000Y5910000D02*
G03I-160000J0D01*
G01X10800000Y4410000D02*
X12570000D01*
Y3650000D01*
X10800000D01*
Y4410000D01*
G01Y4160000D02*
X12570000D01*
Y3910000D01*
X10800000D01*
Y4160000D01*
G54D14*
G01X330000Y0D02*
X12300000D01*
G03X12630000Y330000I0J330000D01*
G01Y7920000D01*
G03X12300000Y8250000I-330000J0D01*
G01X330000D01*
G03X0Y7920000I0J-330000D01*
G01Y330000D01*
G03X330000Y0I330000J0D01*
G01X7093180Y360000D02*
Y451440D01*
X7048400Y360000D01*
Y451440D01*
G01X7016390Y360000D02*
X6992050Y451440D01*
X6967710Y360000D01*
G01X6976470Y392000D02*
X7007630D01*
G01X6938630Y360000D02*
Y451440D01*
X6913310Y375240D01*
X6887990Y451440D01*
Y360000D01*
G01X6815100D02*
X6854040D01*
Y451440D01*
X6815100D01*
G01X6830680Y407250D02*
X6854040D01*
G01X6755830Y356950D02*
X6757780Y358480D01*
Y361520D01*
X6755830Y363050D01*
X6753880Y361520D01*
Y358480D01*
X6755830Y356950D01*
G01Y398100D02*
X6757780Y399620D01*
Y402670D01*
X6755830Y404190D01*
X6753880Y402670D01*
Y399620D01*
X6755830Y398100D01*
G01X6702410Y360000D02*
Y451440D01*
X6677090Y375240D01*
X6651770Y451440D01*
Y360000D01*
G01X6590560Y408770D02*
X6586670Y413340D01*
X6583750Y420960D01*
X6581800Y431630D01*
X6583750Y440770D01*
X6587640Y446870D01*
X6594460Y451440D01*
X6620740D01*
Y360000D01*
X6588610D01*
X6581800Y366090D01*
X6577900Y375240D01*
X6575960Y385910D01*
X6577900Y396570D01*
X6583750Y405720D01*
X6590560Y408770D01*
X6620740D01*
G01X6519610Y360000D02*
Y451440D01*
X6531290Y433150D01*
G01Y360000D02*
X6507930D01*
G01X6440870D02*
Y451440D01*
X6452550Y433150D01*
G01Y360000D02*
X6429190D01*
G01X6383550Y378290D02*
X6377710Y367620D01*
X6369920Y361520D01*
X6361160Y360000D01*
X6353370Y361520D01*
X6345580Y369140D01*
X6340710Y378290D01*
X6339740Y387430D01*
X6341680Y398100D01*
X6348500Y405720D01*
X6355310Y408770D01*
X6364080D01*
G01X6355310D02*
X6349470Y413340D01*
X6344600Y420960D01*
X6342660Y430100D01*
X6344600Y439250D01*
X6349470Y446870D01*
X6358240Y451440D01*
X6367000Y449920D01*
X6375760Y443820D01*
G01X6301890Y398100D02*
X6295070Y408770D01*
X6289230Y414860D01*
X6281440Y417910D01*
X6274630Y414860D01*
X6269760Y408770D01*
X6265860Y399620D01*
X6264890Y388960D01*
X6265860Y379810D01*
X6269760Y370670D01*
X6275600Y363050D01*
X6282420Y360000D01*
X6290210Y363050D01*
X6297020Y372190D01*
X6300920Y385910D01*
X6301890Y401150D01*
X6299940Y420960D01*
X6297020Y431630D01*
X6292150Y442300D01*
X6285340Y449920D01*
X6278520Y451440D01*
X6271710Y448390D01*
X6266840Y440770D01*
G01X6233860Y329520D02*
X6175440D01*
G01X6118120Y408770D02*
X6114230Y413340D01*
X6111310Y420960D01*
X6109360Y431630D01*
X6111310Y440770D01*
X6115200Y446870D01*
X6122020Y451440D01*
X6148300D01*
Y360000D01*
X6116170D01*
X6109360Y366090D01*
X6105460Y375240D01*
X6103520Y385910D01*
X6105460Y396570D01*
X6111310Y405720D01*
X6118120Y408770D01*
X6148300D01*
G01X6047170Y360000D02*
X6054960Y361520D01*
X6061770Y367620D01*
X6067620Y376760D01*
X6071510Y387430D01*
X6073460Y399620D01*
Y411820D01*
X6071510Y424010D01*
X6067620Y434680D01*
X6061770Y443820D01*
X6054960Y449920D01*
X6047170Y451440D01*
X6039380Y449920D01*
X6032570Y443820D01*
X6026720Y434680D01*
X6022830Y424010D01*
X6020880Y411820D01*
Y399620D01*
X6022830Y387430D01*
X6026720Y376760D01*
X6032570Y367620D01*
X6039380Y361520D01*
X6047170Y360000D01*
G01X5968430D02*
X5976220Y361520D01*
X5983030Y367620D01*
X5988880Y376760D01*
X5992770Y387430D01*
X5994720Y399620D01*
Y411820D01*
X5992770Y424010D01*
X5988880Y434680D01*
X5983030Y443820D01*
X5976220Y449920D01*
X5968430Y451440D01*
X5960640Y449920D01*
X5953830Y443820D01*
X5947980Y434680D01*
X5944090Y424010D01*
X5942140Y411820D01*
Y399620D01*
X5944090Y387430D01*
X5947980Y376760D01*
X5953830Y367620D01*
X5960640Y361520D01*
X5968430Y360000D01*
G01X5910140Y372190D02*
X5902350Y364570D01*
X5893580Y360000D01*
X5885800D01*
X5878010Y364570D01*
X5872160Y372190D01*
X5869240Y382860D01*
X5871190Y393530D01*
X5876060Y402670D01*
X5884820Y408770D01*
X5896510Y411820D01*
X5903320Y417910D01*
X5906240Y428580D01*
X5904290Y439250D01*
X5899430Y446870D01*
X5892610Y451440D01*
X5885800D01*
X5878980Y448390D01*
X5873140Y440770D01*
G01X5810950Y451440D02*
Y360000D01*
G01X5833340Y451440D02*
X5788560D01*
G01X5751680Y360000D02*
Y451440D01*
X5728320D01*
X5720530Y446870D01*
X5714680Y436200D01*
X5712740Y424010D01*
X5714680Y411820D01*
X5719550Y402670D01*
X5728320Y398100D01*
X5751680D01*
G01X5677810Y360000D02*
X5653470Y451440D01*
X5629130Y360000D01*
G01X5637890Y392000D02*
X5669050D01*
G01X5553310Y443820D02*
X5559150Y448390D01*
X5565970Y451440D01*
X5573760D01*
X5582520Y446870D01*
X5589330Y439250D01*
X5594200Y430100D01*
X5598100Y414860D01*
X5599070Y401150D01*
X5597120Y387430D01*
X5594200Y378290D01*
X5588360Y369140D01*
X5581550Y363050D01*
X5574730Y360000D01*
X5567910D01*
X5561100Y363050D01*
X5555260Y367620D01*
X5550390Y373710D01*
G01X5517410Y360000D02*
Y451440D01*
G01X5480410D02*
X5517410Y395050D01*
G01X5474570Y360000D02*
X5500860Y420960D01*
G01X5446460Y329520D02*
X5388040D01*
G01X5362850Y451440D02*
X5338510Y360000D01*
X5314170Y451440D01*
G01X5259770Y360000D02*
Y451440D01*
X5271450Y433150D01*
G01Y360000D02*
X5248090D01*
G01X5181030Y451440D02*
X5188820Y448390D01*
X5194660Y440770D01*
X5198560Y431630D01*
X5201480Y419430D01*
X5202450Y405720D01*
X5201480Y392000D01*
X5198560Y379810D01*
X5194660Y370670D01*
X5188820Y363050D01*
X5181030Y360000D01*
X5173240Y363050D01*
X5167400Y370670D01*
X5163500Y379810D01*
X5160580Y392000D01*
X5159610Y405720D01*
X5160580Y419430D01*
X5163500Y431630D01*
X5167400Y440770D01*
X5173240Y448390D01*
X5181030Y451440D01*
G01X5126630Y360000D02*
X5102290Y451440D01*
X5077950Y360000D01*
G01X5086710Y392000D02*
X5117870D01*
G01X5023550Y356950D02*
X5025500Y358480D01*
Y361520D01*
X5023550Y363050D01*
X5021600Y361520D01*
Y358480D01*
X5023550Y356950D01*
G01X4937020Y408770D02*
X4933130Y413340D01*
X4930210Y420960D01*
X4928260Y431630D01*
X4930210Y440770D01*
X4934100Y446870D01*
X4940920Y451440D01*
X4967200D01*
Y360000D01*
X4935070D01*
X4928260Y366090D01*
X4924360Y375240D01*
X4922420Y385910D01*
X4924360Y396570D01*
X4930210Y405720D01*
X4937020Y408770D01*
X4967200D01*
G01X4885540Y360000D02*
Y451440D01*
X4861200D01*
X4853410Y446870D01*
X4848540Y440770D01*
X4846600Y428580D01*
X4848540Y416390D01*
X4854390Y408770D01*
X4861200Y404190D01*
X4885540D01*
G01X4861200D02*
X4846600Y360000D01*
G01X4808750D02*
Y451440D01*
X4789280D01*
X4781490Y446870D01*
X4775650Y440770D01*
X4770780Y431630D01*
X4766880Y420960D01*
X4765910Y405720D01*
X4766880Y390480D01*
X4770780Y379810D01*
X4775650Y370670D01*
X4781490Y364570D01*
X4789280Y360000D01*
X4808750D01*
G01X7092210Y200000D02*
Y291440D01*
X7072740D01*
X7064950Y286870D01*
X7059110Y280770D01*
X7054240Y271630D01*
X7050340Y260960D01*
X7049370Y245720D01*
X7050340Y230480D01*
X7054240Y219810D01*
X7059110Y210670D01*
X7064950Y204570D01*
X7072740Y200000D01*
X7092210D01*
G01X7016390D02*
X6992050Y291440D01*
X6967710Y200000D01*
G01X6976470Y232000D02*
X7007630D01*
G01X6913310Y291440D02*
Y200000D01*
G01X6935700Y291440D02*
X6890920D01*
G01X6815100Y200000D02*
X6854040D01*
Y291440D01*
X6815100D01*
G01X6830680Y247250D02*
X6854040D01*
G01X6755830Y196950D02*
X6757780Y198480D01*
Y201520D01*
X6755830Y203050D01*
X6753880Y201520D01*
Y198480D01*
X6755830Y196950D01*
G01Y238100D02*
X6757780Y239620D01*
Y242670D01*
X6755830Y244190D01*
X6753880Y242670D01*
Y239620D01*
X6755830Y238100D01*
G01X6695590Y276200D02*
X6689750Y285340D01*
X6682930Y289920D01*
X6675140Y291440D01*
X6665410Y288390D01*
X6658590Y280770D01*
X6656640Y271630D01*
X6657620Y262480D01*
X6661510Y254860D01*
X6680980Y239620D01*
X6689750Y228960D01*
X6695590Y213710D01*
X6697540Y200000D01*
X6656640D01*
G01X6598350Y291440D02*
X6606140Y288390D01*
X6611980Y280770D01*
X6615880Y271630D01*
X6618800Y259430D01*
X6619770Y245720D01*
X6618800Y232000D01*
X6615880Y219810D01*
X6611980Y210670D01*
X6606140Y203050D01*
X6598350Y200000D01*
X6590560Y203050D01*
X6584720Y210670D01*
X6580820Y219810D01*
X6577900Y232000D01*
X6576930Y245720D01*
X6577900Y259430D01*
X6580820Y271630D01*
X6584720Y280770D01*
X6590560Y288390D01*
X6598350Y291440D01*
G01X6519610Y200000D02*
Y291440D01*
X6531290Y273150D01*
G01Y200000D02*
X6507930D01*
G01X6442820D02*
X6440870Y219810D01*
X6437950Y236570D01*
X6434050Y251820D01*
X6429190Y268580D01*
X6421400Y291440D01*
X6460340D01*
G01X6391340Y169520D02*
X6332920D01*
G01X6283390Y291440D02*
X6291180Y288390D01*
X6297020Y280770D01*
X6300920Y271630D01*
X6303840Y259430D01*
X6304810Y245720D01*
X6303840Y232000D01*
X6300920Y219810D01*
X6297020Y210670D01*
X6291180Y203050D01*
X6283390Y200000D01*
X6275600Y203050D01*
X6269760Y210670D01*
X6265860Y219810D01*
X6262940Y232000D01*
X6261970Y245720D01*
X6262940Y259430D01*
X6265860Y271630D01*
X6269760Y280770D01*
X6275600Y288390D01*
X6283390Y291440D01*
G01X6223150Y276200D02*
X6217310Y285340D01*
X6210490Y289920D01*
X6202700Y291440D01*
X6192970Y288390D01*
X6186150Y280770D01*
X6184200Y271630D01*
X6185180Y262480D01*
X6189070Y254860D01*
X6208540Y239620D01*
X6217310Y228960D01*
X6223150Y213710D01*
X6225100Y200000D01*
X6184200D01*
G01X6155120Y169520D02*
X6096700D01*
G01X6065670Y276200D02*
X6059830Y285340D01*
X6053010Y289920D01*
X6045220Y291440D01*
X6035490Y288390D01*
X6028670Y280770D01*
X6026720Y271630D01*
X6027700Y262480D01*
X6031590Y254860D01*
X6051060Y239620D01*
X6059830Y228960D01*
X6065670Y213710D01*
X6067620Y200000D01*
X6026720D01*
G01X5968430Y291440D02*
X5976220Y288390D01*
X5982060Y280770D01*
X5985960Y271630D01*
X5988880Y259430D01*
X5989850Y245720D01*
X5988880Y232000D01*
X5985960Y219810D01*
X5982060Y210670D01*
X5976220Y203050D01*
X5968430Y200000D01*
X5960640Y203050D01*
X5954800Y210670D01*
X5950900Y219810D01*
X5947980Y232000D01*
X5947010Y245720D01*
X5947980Y259430D01*
X5950900Y271630D01*
X5954800Y280770D01*
X5960640Y288390D01*
X5968430Y291440D01*
G01X7063000Y88770D02*
X7059110Y93340D01*
X7056190Y100960D01*
X7054240Y111630D01*
X7056190Y120770D01*
X7060080Y126870D01*
X7066900Y131440D01*
X7093180D01*
Y40000D01*
X7061050D01*
X7054240Y46090D01*
X7050340Y55240D01*
X7048400Y65910D01*
X7050340Y76570D01*
X7056190Y85720D01*
X7063000Y88770D01*
X7093180D01*
G01X6992050Y40000D02*
Y81150D01*
X7011520Y131440D01*
G01X6972580D02*
X6992050Y81150D01*
G01X6913310Y36950D02*
X6915260Y38480D01*
Y41520D01*
X6913310Y43050D01*
X6911360Y41520D01*
Y38480D01*
X6913310Y36950D01*
G01Y78100D02*
X6915260Y79620D01*
Y82670D01*
X6913310Y84190D01*
X6911360Y82670D01*
Y79620D01*
X6913310Y78100D01*
G01X6855020Y40000D02*
X6814120Y131440D01*
G01X6855020D02*
X6814120Y40000D01*
G01X6776280D02*
X6735380Y131440D01*
G01X6776280D02*
X6735380Y40000D01*
G01X6697540D02*
X6656640Y131440D01*
G01X6697540D02*
X6656640Y40000D01*
G01X6617820Y131440D02*
Y40000D01*
X6578880D01*
G01X6538110Y131440D02*
X6501110D01*
X6538110Y40000D01*
X6501110D01*
G01X6460340Y58290D02*
X6455470Y49140D01*
X6449630Y43050D01*
X6442820Y40000D01*
X6435030Y43050D01*
X6429190Y49140D01*
X6423340Y58290D01*
X6421400Y70480D01*
Y131440D01*
G01X6382580Y40000D02*
X6341680Y131440D01*
G01X6382580D02*
X6341680Y40000D01*
G01X6303840D02*
X6262940Y131440D01*
G01X6303840D02*
X6262940Y40000D01*
G01X6225100D02*
X6184200Y131440D01*
G01X6225100D02*
X6184200Y40000D01*
G01X11163000Y4048770D02*
X11159110Y4053340D01*
X11156190Y4060960D01*
X11154240Y4071630D01*
X11156190Y4080770D01*
X11160080Y4086870D01*
X11166900Y4091440D01*
X11193180D01*
Y4000000D01*
X11161050D01*
X11154240Y4006090D01*
X11150340Y4015240D01*
X11148400Y4025910D01*
X11150340Y4036570D01*
X11156190Y4045720D01*
X11163000Y4048770D01*
X11193180D01*
G01X11092050Y4000000D02*
X11099840Y4001520D01*
X11106650Y4007620D01*
X11112500Y4016760D01*
X11116390Y4027430D01*
X11118340Y4039620D01*
Y4051820D01*
X11116390Y4064010D01*
X11112500Y4074680D01*
X11106650Y4083820D01*
X11099840Y4089920D01*
X11092050Y4091440D01*
X11084260Y4089920D01*
X11077450Y4083820D01*
X11071600Y4074680D01*
X11067710Y4064010D01*
X11065760Y4051820D01*
Y4039620D01*
X11067710Y4027430D01*
X11071600Y4016760D01*
X11077450Y4007620D01*
X11084260Y4001520D01*
X11092050Y4000000D01*
G01X11013310D02*
X11021100Y4001520D01*
X11027910Y4007620D01*
X11033760Y4016760D01*
X11037650Y4027430D01*
X11039600Y4039620D01*
Y4051820D01*
X11037650Y4064010D01*
X11033760Y4074680D01*
X11027910Y4083820D01*
X11021100Y4089920D01*
X11013310Y4091440D01*
X11005520Y4089920D01*
X10998710Y4083820D01*
X10992860Y4074680D01*
X10988970Y4064010D01*
X10987020Y4051820D01*
Y4039620D01*
X10988970Y4027430D01*
X10992860Y4016760D01*
X10998710Y4007620D01*
X11005520Y4001520D01*
X11013310Y4000000D01*
G01X10934570Y4091440D02*
Y4000000D01*
G01X10956960Y4091440D02*
X10912180D01*
G01X10855830D02*
X10863620Y4088390D01*
X10869460Y4080770D01*
X10873360Y4071630D01*
X10876280Y4059430D01*
X10877250Y4045720D01*
X10876280Y4032000D01*
X10873360Y4019810D01*
X10869460Y4010670D01*
X10863620Y4003050D01*
X10855830Y4000000D01*
X10848040Y4003050D01*
X10842200Y4010670D01*
X10838300Y4019810D01*
X10835380Y4032000D01*
X10834410Y4045720D01*
X10835380Y4059430D01*
X10838300Y4071630D01*
X10842200Y4080770D01*
X10848040Y4088390D01*
X10855830Y4091440D01*
G01X11603000Y4048770D02*
X11599110Y4053340D01*
X11596190Y4060960D01*
X11594240Y4071630D01*
X11596190Y4080770D01*
X11600080Y4086870D01*
X11606900Y4091440D01*
X11633180D01*
Y4000000D01*
X11601050D01*
X11594240Y4006090D01*
X11590340Y4015240D01*
X11588400Y4025910D01*
X11590340Y4036570D01*
X11596190Y4045720D01*
X11603000Y4048770D01*
X11633180D01*
G01X11532050Y4000000D02*
X11539840Y4001520D01*
X11546650Y4007620D01*
X11552500Y4016760D01*
X11556390Y4027430D01*
X11558340Y4039620D01*
Y4051820D01*
X11556390Y4064010D01*
X11552500Y4074680D01*
X11546650Y4083820D01*
X11539840Y4089920D01*
X11532050Y4091440D01*
X11524260Y4089920D01*
X11517450Y4083820D01*
X11511600Y4074680D01*
X11507710Y4064010D01*
X11505760Y4051820D01*
Y4039620D01*
X11507710Y4027430D01*
X11511600Y4016760D01*
X11517450Y4007620D01*
X11524260Y4001520D01*
X11532050Y4000000D01*
G01X11453310D02*
X11461100Y4001520D01*
X11467910Y4007620D01*
X11473760Y4016760D01*
X11477650Y4027430D01*
X11479600Y4039620D01*
Y4051820D01*
X11477650Y4064010D01*
X11473760Y4074680D01*
X11467910Y4083820D01*
X11461100Y4089920D01*
X11453310Y4091440D01*
X11445520Y4089920D01*
X11438710Y4083820D01*
X11432860Y4074680D01*
X11428970Y4064010D01*
X11427020Y4051820D01*
Y4039620D01*
X11428970Y4027430D01*
X11432860Y4016760D01*
X11438710Y4007620D01*
X11445520Y4001520D01*
X11453310Y4000000D01*
G01X11374570Y4091440D02*
Y4000000D01*
G01X11396960Y4091440D02*
X11352180D01*
G01X11295830Y4000000D02*
Y4091440D01*
X11307510Y4073150D01*
G01Y4000000D02*
X11284150D01*
G01X11314950Y3795720D02*
X11295470D01*
Y3768290D01*
X11301320Y3759140D01*
X11308130Y3753050D01*
X11317870Y3750000D01*
X11327610Y3753050D01*
X11334420Y3759140D01*
X11340260Y3768290D01*
X11344160Y3778960D01*
X11346110Y3791150D01*
Y3801820D01*
X11344160Y3810960D01*
X11340260Y3821630D01*
X11334420Y3830770D01*
X11328580Y3836870D01*
X11320790Y3841440D01*
X11313970D01*
X11306190Y3838390D01*
X11300340Y3832300D01*
G01X11264440Y3750000D02*
Y3841440D01*
X11219660Y3750000D01*
Y3841440D01*
G01X11184730Y3750000D02*
Y3841440D01*
X11165260D01*
X11157470Y3836870D01*
X11151630Y3830770D01*
X11146760Y3821630D01*
X11142860Y3810960D01*
X11141890Y3795720D01*
X11142860Y3780480D01*
X11146760Y3769810D01*
X11151630Y3760670D01*
X11157470Y3754570D01*
X11165260Y3750000D01*
X11184730D01*
G01X11345130Y4331440D02*
X11320790Y4240000D01*
X11296450Y4331440D01*
G01X11220630Y4323820D02*
X11226470Y4328390D01*
X11233290Y4331440D01*
X11241080D01*
X11249840Y4326870D01*
X11256650Y4319250D01*
X11261520Y4310100D01*
X11265420Y4294860D01*
X11266390Y4281150D01*
X11264440Y4267430D01*
X11261520Y4258290D01*
X11255680Y4249140D01*
X11248870Y4243050D01*
X11242050Y4240000D01*
X11235230D01*
X11228420Y4243050D01*
X11222580Y4247620D01*
X11217710Y4253710D01*
G01X11141890Y4323820D02*
X11147730Y4328390D01*
X11154550Y4331440D01*
X11162340D01*
X11171100Y4326870D01*
X11177910Y4319250D01*
X11182780Y4310100D01*
X11186680Y4294860D01*
X11187650Y4281150D01*
X11185700Y4267430D01*
X11182780Y4258290D01*
X11176940Y4249140D01*
X11170130Y4243050D01*
X11163310Y4240000D01*
X11156490D01*
X11149680Y4243050D01*
X11143840Y4247620D01*
X11138970Y4253710D01*
M02*
