G04 ================== begin FILE IDENTIFICATION RECORD ==================*
G04 Layout Name:  MB1136_BOOSTPACK_V10A.brd*
G04 Film Name:    SOLDERMASK_TOP*
G04 File Format:  Gerber RS274X*
G04 File Origin:  Cadence Allegro 16.6-2015-S082*
G04 Origin Date:  Mon Feb 20 14:00:57 2017*
G04 *
G04 Layer:  BOARD GEOMETRY/OUTLINE*
G04 Layer:  PIN/SOLDERMASK_TOP*
G04 Layer:  PACKAGE GEOMETRY/SOLDERMASK_TOP*
G04 Layer:  BOARD GEOMETRY/SOLDERMASK_TOP*
G04 *
G04 Offset:    (0.0000 0.0000)*
G04 Mirror:    No*
G04 Mode:      Positive*
G04 Rotation:  0*
G04 FullContactRelief:  No*
G04 UndefLineWidth:     0.1524*
G04 ================== end FILE IDENTIFICATION RECORD ====================*
%FSLAX55Y55*MOMM*%
%IR0*IPPOS*OFA0.00000B0.00000*MIA0B0*SFA1.00000B1.00000*%
%ADD18R,1.1X.9*%
%ADD30R,1.7X.4*%
%ADD21R,.8X1.3*%
%ADD17R,.9X1.1*%
%ADD25R,.6X1.6*%
%ADD14R,1.6X.7*%
%ADD16R,.9X1.5*%
%ADD28R,2.032X.635*%
%ADD31R,1.1684X.8128*%
%ADD13R,.9144X.9144*%
%ADD36R,.8128X1.1684*%
%ADD24R,1.0668X.6858*%
%ADD22R,1.1X1.5*%
%ADD23R,4.1X2.4*%
%ADD32R,4.3X1.5*%
%ADD20R,1.1X1.9*%
%ADD29R,1.6X1.6*%
%ADD19R,1.9X2.1*%
%ADD35C,2.*%
%ADD34C,2.5*%
%ADD33R,.9X.35*%
%ADD38C,1.524*%
%ADD27R,1.4224X1.4224*%
%ADD10C,6.35*%
%ADD26R,1.2192X1.4224*%
%ADD11C,1.905*%
%ADD37C,3.175*%
%ADD12R,1.905X1.905*%
%ADD15R,.6604X.7874*%
%ADD39C,.2032*%
%ADD40C,.17*%
%ADD41C,.127*%
%ADD42C,.254*%
%ADD43C,.1524*%
G75*
%LPD*%
G75*
G54D10*
X330000Y330000D03*
Y6930000D03*
X12300000Y330000D03*
Y6930000D03*
G54D11*
X345000Y854000D03*
Y1108000D03*
Y1362000D03*
Y1616000D03*
Y1870000D03*
Y2124000D03*
Y2378000D03*
Y2632000D03*
Y2886000D03*
Y3140000D03*
Y3394000D03*
Y3648000D03*
Y3902000D03*
Y4156000D03*
Y4410000D03*
Y4664000D03*
Y4918000D03*
Y5172000D03*
X599000Y854000D03*
Y1108000D03*
Y1362000D03*
Y1616000D03*
Y1870000D03*
Y2124000D03*
Y2378000D03*
Y2632000D03*
Y2886000D03*
Y3140000D03*
Y3394000D03*
Y3648000D03*
Y3902000D03*
Y4156000D03*
Y4410000D03*
Y4664000D03*
Y4918000D03*
Y5172000D03*
Y5426000D03*
X4346000Y8050000D03*
X6441000Y854000D03*
Y1108000D03*
Y1362000D03*
Y1616000D03*
Y1870000D03*
Y2124000D03*
Y2378000D03*
Y2632000D03*
Y2886000D03*
Y3140000D03*
Y3394000D03*
Y3648000D03*
Y3902000D03*
Y4156000D03*
Y4410000D03*
Y4664000D03*
Y4918000D03*
Y5172000D03*
X6695000Y854000D03*
Y1108000D03*
Y1362000D03*
Y1616000D03*
Y1870000D03*
Y2124000D03*
Y2378000D03*
Y2632000D03*
Y2886000D03*
Y3140000D03*
Y3394000D03*
Y3648000D03*
Y3902000D03*
Y4156000D03*
Y4410000D03*
Y4664000D03*
Y4918000D03*
Y5172000D03*
Y5426000D03*
X7724000Y970000D03*
X8486000D03*
X8232000D03*
X7978000D03*
X8994000D03*
X8740000D03*
X8999220Y7700820D03*
Y7446820D03*
X9756000Y970000D03*
X9502000D03*
X9248000D03*
X9761220Y7700820D03*
Y7446820D03*
X9507220Y7700820D03*
Y7446820D03*
X9253220Y7700820D03*
Y7446820D03*
X10264000Y970000D03*
X10010000D03*
X11026000D03*
X10772000D03*
X10518000D03*
X11534000D03*
X11280000D03*
X11788000D03*
Y2244000D03*
Y1990000D03*
Y2752000D03*
Y2498000D03*
Y3514000D03*
Y3260000D03*
Y3006000D03*
Y3768000D03*
X12170000Y3782000D03*
Y4036000D03*
X11788000Y4574000D03*
Y4320000D03*
X12170000Y4290000D03*
X11788000Y5082000D03*
Y4828000D03*
Y5894000D03*
Y5640000D03*
Y6656000D03*
Y6402000D03*
Y6148000D03*
Y6910000D03*
X12424000Y3782000D03*
Y4036000D03*
Y4290000D03*
X12320000Y4646000D03*
Y5154000D03*
Y4900000D03*
Y6057000D03*
Y5803000D03*
Y5549000D03*
Y6311000D03*
G54D20*
X2532600Y227800D03*
X4147400D03*
G54D12*
X345000Y5426000D03*
X4600000Y8050000D03*
X6441000Y5426000D03*
X7470000Y970000D03*
G54D21*
X2686000Y1302000D03*
X2796000D03*
X2906000D03*
X3016000D03*
X3126000D03*
X3236000D03*
X3346000D03*
X3456000D03*
X3566000D03*
G54D30*
X4460000Y6940000D03*
Y6990000D03*
Y7040000D03*
Y7090000D03*
Y7140000D03*
X4920000D03*
Y7090000D03*
Y7040000D03*
Y6990000D03*
Y6940000D03*
G54D40*
G01X2140000Y7830000D02*
G03I-30000J0D01*
G01X2540000D02*
G03I-30000J0D01*
G54D22*
X2530000Y1220000D03*
X4030000D03*
G54D13*
X1543800Y990000D03*
Y1140000D03*
X1696200Y990000D03*
Y1140000D03*
X2760000Y1796200D03*
Y1643800D03*
X2536200Y4630000D03*
X2383800D03*
X2536200Y4480000D03*
X2383800D03*
Y5330000D03*
X2536200D03*
X2383800Y4780000D03*
X2536200D03*
X3390000Y1653800D03*
Y1806200D03*
X2910000Y1796200D03*
Y1643800D03*
X3240000Y1806200D03*
Y1653800D03*
X3366200Y7090000D03*
X3213800D03*
X3366200Y7240000D03*
X3213800D03*
X3253800Y7870000D03*
X3406200D03*
X3366200Y7390000D03*
X3213800D03*
X3540000Y1653800D03*
Y1806200D03*
X3690000Y1653800D03*
Y1806200D03*
X4056200Y6960000D03*
X3903800D03*
X4056200Y7110000D03*
X3903800D03*
X3786200Y7870000D03*
X3633800D03*
X5333800Y6960000D03*
X5503800Y4860000D03*
X5656200D03*
X5946200Y7120000D03*
X5793800D03*
Y6970000D03*
X5946200D03*
X5793800Y7280000D03*
X5946200D03*
X5486200Y6960000D03*
X6033800Y6380000D03*
X6186200D03*
X6336200Y7280000D03*
X6183800D03*
X7773800Y7000000D03*
X8433800Y7010000D03*
X7926200Y7000000D03*
X8806200Y5790000D03*
X8653800D03*
X8806200Y5410000D03*
X8653800D03*
X8806200Y5560000D03*
X8653800D03*
X8806200Y6110000D03*
X8653800D03*
X8806200Y6510000D03*
X8653800D03*
X8806200Y6260000D03*
X8653800D03*
X8586200Y7010000D03*
X10000000Y5523800D03*
Y5676200D03*
X9990000Y6243800D03*
Y6396200D03*
X9993800Y6550000D03*
X10146200D03*
Y6090000D03*
X9993800D03*
X10146200Y7000000D03*
X9993800D03*
X10146200Y6700000D03*
X9993800D03*
X11063800Y3960000D03*
X11216200D03*
X11063800Y3810000D03*
X11216200D03*
X11063800Y4110000D03*
X11216200D03*
X11063800Y4260000D03*
X11216200D03*
Y4410000D03*
X11063800D03*
Y5130000D03*
X11216200D03*
X11063800Y5280000D03*
X11216200D03*
Y5880000D03*
X11063800D03*
Y5730000D03*
X11216200D03*
Y5580000D03*
X11063800D03*
X11216200Y5430000D03*
X11063800D03*
X11683800Y1540000D03*
X11836200D03*
X11683800Y1390000D03*
X11836200D03*
Y1240000D03*
X11683800D03*
Y1690000D03*
X11836200D03*
G54D31*
X5283000Y7700000D03*
X5537000Y7801600D03*
Y7598400D03*
G54D41*
G01X3055000Y2790000D02*
G03I-75000J0D01*
G01X3805000D02*
G03I-75000J0D01*
G54D32*
X6740000Y6405000D03*
Y6795000D03*
G54D23*
X2570000Y2790000D03*
X4170000D03*
G54D14*
X1540000Y4469000D03*
Y4596000D03*
Y4723000D03*
Y4850000D03*
X2080000Y4723000D03*
Y4596000D03*
Y4469000D03*
Y4850000D03*
X9120000Y5409000D03*
Y5536000D03*
Y5663000D03*
Y5790000D03*
Y6129000D03*
Y6256000D03*
Y6383000D03*
Y6510000D03*
X9660000Y5790000D03*
Y5663000D03*
Y5536000D03*
Y5409000D03*
Y6510000D03*
Y6383000D03*
Y6256000D03*
Y6129000D03*
G54D42*
G01X1267000Y5910000D02*
G03I-160000J0D01*
G01X4569000Y560000D02*
G03I-160000J0D01*
G01X6093000Y5910000D02*
G03I-160000J0D01*
G54D15*
X1706200Y850000D03*
X1553800D03*
G54D33*
X6335000Y7075000D03*
Y7025000D03*
Y6975000D03*
Y6925000D03*
X6185000D03*
Y6975000D03*
Y7025000D03*
Y7075000D03*
G54D24*
X2650780Y7256500D03*
Y7383500D03*
Y7320000D03*
X2869220Y7256500D03*
Y7320000D03*
Y7383500D03*
G54D43*
G01X330000Y0D02*
X12300000D01*
G03X12630000Y330000I0J330000D01*
G01Y7920000D01*
G03X12300000Y8250000I-330000J0D01*
G01X330000D01*
G03X0Y7920000I0J-330000D01*
G01Y330000D01*
G03X330000Y0I330000J0D01*
G54D34*
X7760000Y210000D03*
Y670000D03*
X8400000Y210000D03*
Y660000D03*
X9150000Y200000D03*
Y660000D03*
X9790000Y200000D03*
Y650000D03*
X10540000Y200000D03*
Y650000D03*
X11180000Y190000D03*
Y650000D03*
G54D16*
X1627300Y2780000D03*
X1972700D03*
X1627300Y2510000D03*
X1972700D03*
X5797300Y7600000D03*
X5827300Y7810000D03*
X6142700Y7600000D03*
X6172700Y7810000D03*
X7782700Y6400000D03*
X7437300D03*
G54D25*
X2441000Y7777000D03*
X2376000D03*
X2311000D03*
X2246000D03*
X2181000D03*
G54D26*
X3431600Y8050000D03*
X3228400D03*
X3811600D03*
X3608400D03*
X12168400Y2730000D03*
Y2930000D03*
Y3130000D03*
X12371600Y2730000D03*
Y2930000D03*
Y3130000D03*
G54D35*
X7669220Y7696220D03*
Y7442220D03*
X8431220Y7696220D03*
Y7442220D03*
X8177220Y7696220D03*
Y7442220D03*
X7923220Y7696220D03*
Y7442220D03*
G54D17*
X1785000Y5180000D03*
G54D27*
X3875860Y7280000D03*
X4084140D03*
X5305860D03*
X5514140D03*
X6005860Y6550000D03*
X6214140D03*
X6005860Y6740000D03*
X6214140D03*
X6834140Y7030000D03*
X6625860D03*
G54D36*
X10468400Y6987000D03*
X10671600D03*
X10570000Y6733000D03*
X11008400Y6987000D03*
X11211600D03*
X11110000Y6733000D03*
G54D18*
X1640000Y5180000D03*
Y5330000D03*
X1930000D03*
Y5180000D03*
X1640000Y5480000D03*
X1930000D03*
G54D37*
X10698000Y7500000D03*
X11206000D03*
X11714000D03*
X12222000D03*
G54D19*
X1940000Y8040000D03*
X2180000D03*
X2690000D03*
X2430000D03*
G54D28*
X4403800Y4479500D03*
Y4606500D03*
Y4733500D03*
Y4860500D03*
X5196200Y4733500D03*
Y4606500D03*
Y4479500D03*
Y4860500D03*
G54D38*
X12300000Y2100000D03*
Y830000D03*
Y1084000D03*
Y1338000D03*
Y1592000D03*
Y1846000D03*
G54D29*
X4690000Y7040000D03*
G54D39*
G01X2890000Y170000D02*
G03I-50000J0D01*
G01X3690000D02*
G03I-50000J0D01*
M02*
