M48
METRIC,TZ
T01C.3048
T02C.4572
T03C.889
T04C1.524
T05C1.7
T06C3.4036
;LEADER: 12 
;HEADER: 
;CODE  : ASCII 
;FILE  : BQ24090_TEST_V10A-1-2.drl for board H:/GitHub/MY-RIDE-LIFE/HARDWARE/BQ24090_TEST_V10A/PCB/#Taaaabm18180.tmp ... layers TOP and BOTTOM
;T01 Holesize 1. = 0.304800 Tolerance = +0.000000/-0.000000 PLATED MM Quantity = 193
;T02 Holesize 2. = 0.457200 Tolerance = +0.000000/-0.000000 PLATED MM Quantity = 10
;T03 Holesize 3. = 0.889000 Tolerance = +0.000000/-0.000000 PLATED MM Quantity = 12
;T04 Holesize 4. = 1.524000 Tolerance = +0.000000/-0.000000 PLATED MM Quantity = 4
;T05 Holesize 5. = 1.700000 Tolerance = +0.000000/-0.000000 PLATED MM Quantity = 4
;T06 Holesize 6. = 3.403600 Tolerance = +0.000000/-0.000000 PLATED MM Quantity = 5
%
G90
T01
X1077350Y209350
X1585350Y209350
X2093350Y209350
X2601350Y209350
X3047350Y219350
X3047350Y699350
X3555350Y219350
X3555350Y699350
X4063350Y219350
X4063350Y699350
X4571350Y219350
X4571350Y699350
X5079350Y219350
X5079350Y699350
X5607350Y219350
X5607350Y699350
X6115350Y219350
X6115350Y699350
X6623350Y219350
X7131350Y219350
X7639350Y219350
X9010000Y220000
X9770000Y880000
X8340000Y1320000
X8335230Y1572480
X8335230Y1064480
X7970000Y1060000
X7770000Y1060000
X7560000Y1060000
X7380000Y1250000
X7380000Y1060000
X7230000Y1250000
X7220000Y1060000
X7060000Y1340000
X7060000Y1250000
X7060000Y1150000
X7060000Y1060000
X7050000Y1940000
X7050000Y1850000
X7050000Y1750000
X7050000Y1660000
X6950000Y1340000
X6950000Y1250000
X6950000Y1150000
X6950000Y1060000
X6940000Y1940000
X6940000Y1850000
X6940000Y1750000
X6940000Y1660000
X6820000Y1250000
X6820000Y1060000
X6670000Y1250000
X6660000Y1060000
X6315350Y1269350
X6285350Y1769350
X5807350Y1269350
X5777350Y1769350
X5279350Y1269350
X5249350Y1769350
X4183350Y1699350
X4183350Y1219350
X3675350Y1699350
X3675350Y1219350
X3175230Y1722480
X3175230Y1214480
X2245230Y1714480
X875500Y1751590
X875500Y1243590
X367500Y1751590
X367500Y1243590
X367500Y2259590
X427500Y2885590
X875500Y2259590
X2049230Y2794480
X2245230Y2222480
X2557230Y2794480
X3065230Y2794480
X3573230Y2794480
X4959350Y2099350
X5487350Y2099350
X5995350Y2099350
X6940000Y2040000
X6940000Y2130000
X6940000Y2240000
X6940000Y2330000
X7050000Y2040000
X7050000Y2130000
X7050000Y2240000
X7050000Y2330000
X7297350Y2489350
X7797350Y2779350
X7805350Y2489350
X8305350Y2779350
X8313350Y2489350
X8813350Y2779350
X8821350Y2489350
X9321350Y2779350
X9329350Y2489350
X9829350Y2779350
X9829350Y3079350
X9321350Y3079350
X8813350Y3079350
X8593350Y4019350
X8313350Y3349350
X8305350Y3939350
X8305350Y3639350
X8305350Y3079350
X7797350Y3079350
X7789350Y3359350
X7779350Y3959350
X7779350Y3639350
X7281350Y3359350
X7271350Y3959350
X7271350Y3639350
X6773350Y3359350
X6763350Y3959350
X6763350Y3639350
X6265350Y3359350
X6255350Y3959350
X6255350Y3639350
X5757350Y3359350
X5747350Y3959350
X5747350Y3639350
X3573230Y3810480
X3573230Y3302480
X3065230Y3810480
X3065230Y3302480
X2557230Y3810480
X2557230Y3302480
X2049230Y3810480
X2049230Y3302480
X935500Y3901590
X935500Y3393590
X427500Y3901590
X427500Y3393590
X427500Y4409590
X935500Y4409590
X2049230Y4318480
X2557230Y4318480
X3065230Y4318480
X3573230Y4318480
X5210650Y4695350
X5510650Y4695350
X5800650Y4703350
X6110000Y4700000
X6490000Y4330000
X6580000Y4140000
X6740000Y4260000
X6840000Y4260000
X6950000Y4260000
X6950000Y4350000
X6950000Y4700000
X6950000Y4790000
X6950000Y4890000
X6950000Y4990000
X7060000Y4260000
X7060000Y4350000
X7060000Y4700000
X7060000Y4790000
X7060000Y4890000
X7060000Y4990000
X7190000Y4260000
X7190000Y4890000
X7190000Y5000000
X7320000Y4260000
X7500000Y4260000
X7680000Y4260000
X7860000Y4260000
X8040000Y4260000
X8585350Y4309350
X8585350Y4609350
X9435350Y4769350
X9435350Y5069350
X9443350Y4479350
X7297920Y5682620
X7190000Y5120000
X7050000Y5120000
X6880000Y5120000
X6789920Y5682620
X6720000Y5120000
X6580000Y5270000
X6490000Y5510000
X6281920Y5682620
X5773920Y5682620
X5265920Y5682620
X4757920Y5682620
X4249920Y5682620
X3741920Y5682620
X3233920Y5682620
X2725920Y5682620
X2217920Y5682620
X1709920Y5682620
X1201920Y5682620
T02
X6940000Y1450000
X6940000Y1550000
X7000000Y1500000
X7060000Y1450000
X7060000Y1550000
X6940000Y4450000
X6940000Y4550000
X7000000Y4500000
X7060000Y4450000
X7060000Y4550000
T03
X1746000Y735000
X2000000Y735000
X2254000Y735000
X2254000Y1265000
X2000000Y1265000
X1746000Y1265000
X1746000Y4735000
X2000000Y4735000
X2254000Y4735000
X2254000Y5265000
X2000000Y5265000
X1746000Y5265000
T04
X9760000Y1510000
X9760000Y2272000
X9760000Y3770000
X9760000Y4532000
T05
X8185000Y508800
X8585000Y508800
X8565000Y5491200
X8165000Y5491200
T06
X330000Y330000
X330000Y5670000
X7000000Y3000000
X9670000Y330000
X9670000Y5670000
M30
