G04 ================== begin FILE IDENTIFICATION RECORD ==================*
G04 Layout Name:  BQ24090_TEST_V10A.brd*
G04 Film Name:    Drill_Legend*
G04 File Format:  Gerber RS274X*
G04 File Origin:  Cadence Allegro 16.6-2015-S088*
G04 Origin Date:  Thu Aug 31 17:17:54 2017*
G04 *
G04 Layer:  MANUFACTURING/NCDRILL_LEGEND*
G04 Layer:  MANUFACTURING/NCDRILL_FIGURE*
G04 Layer:  BOARD GEOMETRY/DIMENSION*
G04 Layer:  MANUFACTURING/NCLEGEND-1-2*
G04 Layer:  BOARD GEOMETRY/OUTLINE*
G04 *
G04 Offset:    (0.0000 0.0000)*
G04 Mirror:    No*
G04 Mode:      Positive*
G04 Rotation:  0*
G04 FullContactRelief:  No*
G04 UndefLineWidth:     0.1524*
G04 ================== end FILE IDENTIFICATION RECORD ====================*
%FSLAX55Y55*MOMM*%
%IR0*IPPOS*OFA0.00000B0.00000*MIA0B0*SFA1.00000B1.00000*%
%AMMACRO16*
1,1,.1524,.352082,-.85*
20,1,.1524,.352082,-.85,-.352082,-.85,0.0*
1,1,.1524,-.352082,-.85*
20,1,.1524,-.352082,-.85,-.85,-.352082,0.0*
1,1,.1524,-.85,-.352082*
20,1,.1524,-.85,-.352082,-.85,.352082,0.0*
1,1,.1524,-.85,.352082*
20,1,.1524,-.85,.352082,-.352082,.85,0.0*
1,1,.1524,-.352082,.85*
20,1,.1524,-.352082,.85,.352082,.85,0.0*
1,1,.1524,.352082,.85*
20,1,.1524,.352082,.85,.85,.352082,0.0*
1,1,.1524,.85,.352082*
20,1,.1524,.85,.352082,.85,-.352082,0.0*
1,1,.1524,.85,-.352082*
20,1,.1524,.85,-.352082,.352082,-.85,0.0*
1,1,.1524,.352082,-.85*
%
%ADD16MACRO16*%
%AMMACRO11*
1,1,.1524,.1524,0.0*
20,1,.1524,.1524,0.0,-.1524,0.0,0.0*
1,1,.1524,-.1524,0.0*
1,1,.1524,0.0,.1524*
20,1,.1524,0.0,.1524,0.0,-.1524,0.0*
1,1,.1524,0.0,-.1524*
%
%ADD11MACRO11*%
%AMMACRO10*
1,1,.1524,1.7018,0.0*
20,1,.1524,1.7018,0.0,0.0,-1.7018,0.0*
1,1,.1524,0.0,-1.7018*
20,1,.1524,0.0,-1.7018,-1.7018,0.0,0.0*
1,1,.1524,-1.7018,0.0*
20,1,.1524,-1.7018,0.0,0.0,1.7018,0.0*
1,1,.1524,0.0,1.7018*
20,1,.1524,0.0,1.7018,1.7018,0.0,0.0*
1,1,.1524,1.7018,0.0*
%
%ADD10MACRO10*%
%AMMACRO15*
1,1,.1524,.2286,.2286*
20,1,.1524,.2286,.2286,.2286,-.2286,0.0*
1,1,.1524,.2286,-.2286*
20,1,.1524,.2286,-.2286,-.2286,-.2286,0.0*
1,1,.1524,-.2286,-.2286*
20,1,.1524,-.2286,-.2286,-.2286,.2286,0.0*
1,1,.1524,-.2286,.2286*
20,1,.1524,-.2286,.2286,.2286,.2286,0.0*
1,1,.1524,.2286,.2286*
%
%ADD15MACRO15*%
%AMMACRO13*
1,1,.1524,-.5,-1.*
20,1,.1524,-.5,-1.,-.5,1.,0.0*
1,1,.1524,-.5,1.*
20,1,.1524,-.5,1.,-.492404,1.086824,0.0*
1,1,.1524,-.492404,1.086824*
20,1,.1524,-.492404,1.086824,-.469846,1.17101,0.0*
1,1,.1524,-.469846,1.17101*
20,1,.1524,-.469846,1.17101,-.433013,1.25,0.0*
1,1,.1524,-.433013,1.25*
20,1,.1524,-.433013,1.25,-.383022,1.321394,0.0*
1,1,.1524,-.383022,1.321394*
20,1,.1524,-.383022,1.321394,-.321394,1.383022,0.0*
1,1,.1524,-.321394,1.383022*
20,1,.1524,-.321394,1.383022,-.25,1.433013,0.0*
1,1,.1524,-.25,1.433013*
20,1,.1524,-.25,1.433013,-.17101,1.469846,0.0*
1,1,.1524,-.17101,1.469846*
20,1,.1524,-.17101,1.469846,-.086824,1.492404,0.0*
1,1,.1524,-.086824,1.492404*
20,1,.1524,-.086824,1.492404,0.0,1.5,0.0*
1,1,.1524,0.0,1.5*
20,1,.1524,0.0,1.5,.086824,1.492404,0.0*
1,1,.1524,.086824,1.492404*
20,1,.1524,.086824,1.492404,.17101,1.469846,0.0*
1,1,.1524,.17101,1.469846*
20,1,.1524,.17101,1.469846,.25,1.433013,0.0*
1,1,.1524,.25,1.433013*
20,1,.1524,.25,1.433013,.321394,1.383022,0.0*
1,1,.1524,.321394,1.383022*
20,1,.1524,.321394,1.383022,.383022,1.321394,0.0*
1,1,.1524,.383022,1.321394*
20,1,.1524,.383022,1.321394,.433013,1.25,0.0*
1,1,.1524,.433013,1.25*
20,1,.1524,.433013,1.25,.469846,1.17101,0.0*
1,1,.1524,.469846,1.17101*
20,1,.1524,.469846,1.17101,.492404,1.086824,0.0*
1,1,.1524,.492404,1.086824*
20,1,.1524,.492404,1.086824,.5,1.,0.0*
1,1,.1524,.5,1.*
20,1,.1524,.5,1.,.5,-1.,0.0*
1,1,.1524,.5,-1.*
20,1,.1524,.5,-1.,.492404,-1.086824,0.0*
1,1,.1524,.492404,-1.086824*
20,1,.1524,.492404,-1.086824,.469846,-1.17101,0.0*
1,1,.1524,.469846,-1.17101*
20,1,.1524,.469846,-1.17101,.433013,-1.25,0.0*
1,1,.1524,.433013,-1.25*
20,1,.1524,.433013,-1.25,.383022,-1.321394,0.0*
1,1,.1524,.383022,-1.321394*
20,1,.1524,.383022,-1.321394,.321394,-1.383022,0.0*
1,1,.1524,.321394,-1.383022*
20,1,.1524,.321394,-1.383022,.25,-1.433013,0.0*
1,1,.1524,.25,-1.433013*
20,1,.1524,.25,-1.433013,.17101,-1.469846,0.0*
1,1,.1524,.17101,-1.469846*
20,1,.1524,.17101,-1.469846,.086824,-1.492404,0.0*
1,1,.1524,.086824,-1.492404*
20,1,.1524,.086824,-1.492404,0.0,-1.5,0.0*
1,1,.1524,0.0,-1.5*
20,1,.1524,0.0,-1.5,-.086824,-1.492404,0.0*
1,1,.1524,-.086824,-1.492404*
20,1,.1524,-.086824,-1.492404,-.17101,-1.469846,0.0*
1,1,.1524,-.17101,-1.469846*
20,1,.1524,-.17101,-1.469846,-.25,-1.433013,0.0*
1,1,.1524,-.25,-1.433013*
20,1,.1524,-.25,-1.433013,-.321394,-1.383022,0.0*
1,1,.1524,-.321394,-1.383022*
20,1,.1524,-.321394,-1.383022,-.383022,-1.321394,0.0*
1,1,.1524,-.383022,-1.321394*
20,1,.1524,-.383022,-1.321394,-.433013,-1.25,0.0*
1,1,.1524,-.433013,-1.25*
20,1,.1524,-.433013,-1.25,-.469846,-1.17101,0.0*
1,1,.1524,-.469846,-1.17101*
20,1,.1524,-.469846,-1.17101,-.492404,-1.086824,0.0*
1,1,.1524,-.492404,-1.086824*
20,1,.1524,-.492404,-1.086824,-.5,-1.,0.0*
1,1,.1524,-.5,-1.*
1,1,.1524,-.25,-.25*
20,1,.1524,-.25,-.25,-.3167,-.2417,0.0*
1,1,.1524,-.3167,-.2417*
20,1,.1524,-.3167,-.2417,-.375,-.2083,0.0*
1,1,.1524,-.375,-.2083*
20,1,.1524,-.375,-.2083,-.425,-.1583,0.0*
1,1,.1524,-.425,-.1583*
20,1,.1524,-.425,-.1583,-.4583,-.1,0.0*
1,1,.1524,-.4583,-.1*
20,1,.1524,-.4583,-.1,-.475,-.0333,0.0*
1,1,.1524,-.475,-.0333*
20,1,.1524,-.475,-.0333,-.475,.0333,0.0*
1,1,.1524,-.475,.0333*
20,1,.1524,-.475,.0333,-.4583,.1,0.0*
1,1,.1524,-.4583,.1*
20,1,.1524,-.4583,.1,-.425,.1583,0.0*
1,1,.1524,-.425,.1583*
20,1,.1524,-.425,.1583,-.375,.2083,0.0*
1,1,.1524,-.375,.2083*
20,1,.1524,-.375,.2083,-.3167,.2417,0.0*
1,1,.1524,-.3167,.2417*
20,1,.1524,-.3167,.2417,-.25,.25,0.0*
1,1,.1524,-.25,.25*
20,1,.1524,-.25,.25,-.1833,.2417,0.0*
1,1,.1524,-.1833,.2417*
20,1,.1524,-.1833,.2417,-.125,.2083,0.0*
1,1,.1524,-.125,.2083*
20,1,.1524,-.125,.2083,-.075,.1583,0.0*
1,1,.1524,-.075,.1583*
20,1,.1524,-.075,.1583,-.0417,.1,0.0*
1,1,.1524,-.0417,.1*
20,1,.1524,-.0417,.1,-.025,.0333,0.0*
1,1,.1524,-.025,.0333*
20,1,.1524,-.025,.0333,-.025,-.0333,0.0*
1,1,.1524,-.025,-.0333*
20,1,.1524,-.025,-.0333,-.0417,-.1,0.0*
1,1,.1524,-.0417,-.1*
20,1,.1524,-.0417,-.1,-.075,-.1583,0.0*
1,1,.1524,-.075,-.1583*
20,1,.1524,-.075,-.1583,-.125,-.2083,0.0*
1,1,.1524,-.125,-.2083*
20,1,.1524,-.125,-.2083,-.1833,-.2417,0.0*
1,1,.1524,-.1833,-.2417*
20,1,.1524,-.1833,-.2417,-.25,-.25,0.0*
1,1,.1524,-.25,-.25*
1,1,.1524,.0418,-.25*
20,1,.1524,.0418,-.25,.2501,.25,0.0*
1,1,.1524,.2501,.25*
20,1,.1524,.2501,.25,.4584,-.25,0.0*
1,1,.1524,.4584,-.25*
1,1,.1524,.3834,-.075*
20,1,.1524,.3834,-.075,.1168,-.075,0.0*
1,1,.1524,.1168,-.075*
%
%ADD13MACRO13*%
%AMMACRO12*
1,1,.1524,-1.,.5*
20,1,.1524,-1.,.5,1.,.5,0.0*
1,1,.1524,1.,.5*
20,1,.1524,1.,.5,1.086824,.492404,0.0*
1,1,.1524,1.086824,.492404*
20,1,.1524,1.086824,.492404,1.17101,.469846,0.0*
1,1,.1524,1.17101,.469846*
20,1,.1524,1.17101,.469846,1.25,.433013,0.0*
1,1,.1524,1.25,.433013*
20,1,.1524,1.25,.433013,1.321394,.383022,0.0*
1,1,.1524,1.321394,.383022*
20,1,.1524,1.321394,.383022,1.383022,.321394,0.0*
1,1,.1524,1.383022,.321394*
20,1,.1524,1.383022,.321394,1.433013,.25,0.0*
1,1,.1524,1.433013,.25*
20,1,.1524,1.433013,.25,1.469846,.17101,0.0*
1,1,.1524,1.469846,.17101*
20,1,.1524,1.469846,.17101,1.492404,.086824,0.0*
1,1,.1524,1.492404,.086824*
20,1,.1524,1.492404,.086824,1.5,0.0,0.0*
1,1,.1524,1.5,0.0*
20,1,.1524,1.5,0.0,1.492404,-.086824,0.0*
1,1,.1524,1.492404,-.086824*
20,1,.1524,1.492404,-.086824,1.469846,-.17101,0.0*
1,1,.1524,1.469846,-.17101*
20,1,.1524,1.469846,-.17101,1.433013,-.25,0.0*
1,1,.1524,1.433013,-.25*
20,1,.1524,1.433013,-.25,1.383022,-.321394,0.0*
1,1,.1524,1.383022,-.321394*
20,1,.1524,1.383022,-.321394,1.321394,-.383022,0.0*
1,1,.1524,1.321394,-.383022*
20,1,.1524,1.321394,-.383022,1.25,-.433013,0.0*
1,1,.1524,1.25,-.433013*
20,1,.1524,1.25,-.433013,1.17101,-.469846,0.0*
1,1,.1524,1.17101,-.469846*
20,1,.1524,1.17101,-.469846,1.086824,-.492404,0.0*
1,1,.1524,1.086824,-.492404*
20,1,.1524,1.086824,-.492404,1.,-.5,0.0*
1,1,.1524,1.,-.5*
20,1,.1524,1.,-.5,-1.,-.5,0.0*
1,1,.1524,-1.,-.5*
20,1,.1524,-1.,-.5,-1.086824,-.492404,0.0*
1,1,.1524,-1.086824,-.492404*
20,1,.1524,-1.086824,-.492404,-1.17101,-.469846,0.0*
1,1,.1524,-1.17101,-.469846*
20,1,.1524,-1.17101,-.469846,-1.25,-.433013,0.0*
1,1,.1524,-1.25,-.433013*
20,1,.1524,-1.25,-.433013,-1.321394,-.383022,0.0*
1,1,.1524,-1.321394,-.383022*
20,1,.1524,-1.321394,-.383022,-1.383022,-.321394,0.0*
1,1,.1524,-1.383022,-.321394*
20,1,.1524,-1.383022,-.321394,-1.433013,-.25,0.0*
1,1,.1524,-1.433013,-.25*
20,1,.1524,-1.433013,-.25,-1.469846,-.17101,0.0*
1,1,.1524,-1.469846,-.17101*
20,1,.1524,-1.469846,-.17101,-1.492404,-.086824,0.0*
1,1,.1524,-1.492404,-.086824*
20,1,.1524,-1.492404,-.086824,-1.5,0.0,0.0*
1,1,.1524,-1.5,0.0*
20,1,.1524,-1.5,0.0,-1.492404,.086824,0.0*
1,1,.1524,-1.492404,.086824*
20,1,.1524,-1.492404,.086824,-1.469846,.17101,0.0*
1,1,.1524,-1.469846,.17101*
20,1,.1524,-1.469846,.17101,-1.433013,.25,0.0*
1,1,.1524,-1.433013,.25*
20,1,.1524,-1.433013,.25,-1.383022,.321394,0.0*
1,1,.1524,-1.383022,.321394*
20,1,.1524,-1.383022,.321394,-1.321394,.383022,0.0*
1,1,.1524,-1.321394,.383022*
20,1,.1524,-1.321394,.383022,-1.25,.433013,0.0*
1,1,.1524,-1.25,.433013*
20,1,.1524,-1.25,.433013,-1.17101,.469846,0.0*
1,1,.1524,-1.17101,.469846*
20,1,.1524,-1.17101,.469846,-1.086824,.492404,0.0*
1,1,.1524,-1.086824,.492404*
20,1,.1524,-1.086824,.492404,-1.,.5,0.0*
1,1,.1524,-1.,.5*
1,1,.1524,-.25,-.25*
20,1,.1524,-.25,-.25,-.3167,-.2417,0.0*
1,1,.1524,-.3167,-.2417*
20,1,.1524,-.3167,-.2417,-.375,-.2083,0.0*
1,1,.1524,-.375,-.2083*
20,1,.1524,-.375,-.2083,-.425,-.1583,0.0*
1,1,.1524,-.425,-.1583*
20,1,.1524,-.425,-.1583,-.4583,-.1,0.0*
1,1,.1524,-.4583,-.1*
20,1,.1524,-.4583,-.1,-.475,-.0333,0.0*
1,1,.1524,-.475,-.0333*
20,1,.1524,-.475,-.0333,-.475,.0333,0.0*
1,1,.1524,-.475,.0333*
20,1,.1524,-.475,.0333,-.4583,.1,0.0*
1,1,.1524,-.4583,.1*
20,1,.1524,-.4583,.1,-.425,.1583,0.0*
1,1,.1524,-.425,.1583*
20,1,.1524,-.425,.1583,-.375,.2083,0.0*
1,1,.1524,-.375,.2083*
20,1,.1524,-.375,.2083,-.3167,.2417,0.0*
1,1,.1524,-.3167,.2417*
20,1,.1524,-.3167,.2417,-.25,.25,0.0*
1,1,.1524,-.25,.25*
20,1,.1524,-.25,.25,-.1833,.2417,0.0*
1,1,.1524,-.1833,.2417*
20,1,.1524,-.1833,.2417,-.125,.2083,0.0*
1,1,.1524,-.125,.2083*
20,1,.1524,-.125,.2083,-.075,.1583,0.0*
1,1,.1524,-.075,.1583*
20,1,.1524,-.075,.1583,-.0417,.1,0.0*
1,1,.1524,-.0417,.1*
20,1,.1524,-.0417,.1,-.025,.0333,0.0*
1,1,.1524,-.025,.0333*
20,1,.1524,-.025,.0333,-.025,-.0333,0.0*
1,1,.1524,-.025,-.0333*
20,1,.1524,-.025,-.0333,-.0417,-.1,0.0*
1,1,.1524,-.0417,-.1*
20,1,.1524,-.0417,-.1,-.075,-.1583,0.0*
1,1,.1524,-.075,-.1583*
20,1,.1524,-.075,-.1583,-.125,-.2083,0.0*
1,1,.1524,-.125,-.2083*
20,1,.1524,-.125,-.2083,-.1833,-.2417,0.0*
1,1,.1524,-.1833,-.2417*
20,1,.1524,-.1833,-.2417,-.25,-.25,0.0*
1,1,.1524,-.25,-.25*
1,1,.1524,.0418,-.25*
20,1,.1524,.0418,-.25,.2501,.25,0.0*
1,1,.1524,.2501,.25*
20,1,.1524,.2501,.25,.4584,-.25,0.0*
1,1,.1524,.4584,-.25*
1,1,.1524,.3834,-.075*
20,1,.1524,.3834,-.075,.1168,-.075,0.0*
1,1,.1524,.1168,-.075*
%
%ADD12MACRO12*%
%AMMACRO17*
1,1,.1524,0.0,.762*
20,1,.1524,0.0,.762,-.659911,.381,0.0*
1,1,.1524,-.659911,.381*
20,1,.1524,-.659911,.381,-.659911,-.381,0.0*
1,1,.1524,-.659911,-.381*
20,1,.1524,-.659911,-.381,0.0,-.762,0.0*
1,1,.1524,0.0,-.762*
20,1,.1524,0.0,-.762,.659911,-.381,0.0*
1,1,.1524,.659911,-.381*
20,1,.1524,.659911,-.381,.659911,.381,0.0*
1,1,.1524,.659911,.381*
20,1,.1524,.659911,.381,0.0,.762,0.0*
1,1,.1524,0.0,.762*
%
%ADD17MACRO17*%
%AMMACRO14*
1,1,.1524,.4445,0.0*
20,1,.1524,.4445,0.0,.22225,.384948,0.0*
1,1,.1524,.22225,.384948*
20,1,.1524,.22225,.384948,-.22225,.384948,0.0*
1,1,.1524,-.22225,.384948*
20,1,.1524,-.22225,.384948,-.4445,0.0,0.0*
1,1,.1524,-.4445,0.0*
20,1,.1524,-.4445,0.0,-.22225,-.384948,0.0*
1,1,.1524,-.22225,-.384948*
20,1,.1524,-.22225,-.384948,.22225,-.384948,0.0*
1,1,.1524,.22225,-.384948*
20,1,.1524,.22225,-.384948,.4445,0.0,0.0*
1,1,.1524,.4445,0.0*
%
%ADD14MACRO14*%
%ADD18C,.1524*%
G75*
%LPD*%
G75*
G54D10*
X330000Y330000D03*
Y5670000D03*
X7000000Y3000000D03*
X9670000Y330000D03*
Y5670000D03*
X11581730Y1587500D03*
G54D11*
X367500Y1243590D03*
Y1751590D03*
Y2259590D03*
X427500Y2885590D03*
Y3393590D03*
Y3901590D03*
Y4409590D03*
X1077350Y209350D03*
X875500Y1243590D03*
Y1751590D03*
Y2259590D03*
X935500Y3393590D03*
Y3901590D03*
Y4409590D03*
X1585350Y209350D03*
X1201920Y5682620D03*
X2093350Y209350D03*
X2049230Y2794480D03*
Y3302480D03*
Y3810480D03*
Y4318480D03*
X1709920Y5682620D03*
X2601350Y209350D03*
X2245230Y1714480D03*
Y2222480D03*
X2557230Y2794480D03*
Y3302480D03*
Y3810480D03*
Y4318480D03*
X2217920Y5682620D03*
X3047350Y219350D03*
Y699350D03*
X3175230Y1214480D03*
Y1722480D03*
X3065230Y2794480D03*
Y3302480D03*
Y3810480D03*
Y4318480D03*
X2725920Y5682620D03*
X3233920D03*
X3555350Y219350D03*
Y699350D03*
X3675350Y1219350D03*
Y1699350D03*
X3573230Y2794480D03*
Y3302480D03*
Y3810480D03*
Y4318480D03*
X3741920Y5682620D03*
X4063350Y219350D03*
Y699350D03*
X4183350Y1219350D03*
Y1699350D03*
X4249920Y5682620D03*
X4571350Y219350D03*
Y699350D03*
X4757920Y5682620D03*
X5079350Y219350D03*
Y699350D03*
X5279350Y1269350D03*
X5249350Y1769350D03*
X4959350Y2099350D03*
X5210650Y4695350D03*
X5265920Y5682620D03*
X5607350Y219350D03*
Y699350D03*
X5807350Y1269350D03*
X5777350Y1769350D03*
X5487350Y2099350D03*
X5757350Y3359350D03*
X5747350Y3959350D03*
Y3639350D03*
X5800650Y4703350D03*
X5510650Y4695350D03*
X5773920Y5682620D03*
X6115350Y219350D03*
Y699350D03*
X6315350Y1269350D03*
X6285350Y1769350D03*
X5995350Y2099350D03*
X6265350Y3359350D03*
X6255350Y3959350D03*
Y3639350D03*
X6110000Y4700000D03*
X6281920Y5682620D03*
X6623350Y219350D03*
X6820000Y1060000D03*
X6660000D03*
X6670000Y1250000D03*
X6820000D03*
X6773350Y3359350D03*
X6763350Y3959350D03*
Y3639350D03*
X6840000Y4260000D03*
X6740000D03*
X6580000Y4140000D03*
X6490000Y4330000D03*
X6880000Y5120000D03*
X6720000D03*
X6580000Y5270000D03*
X6490000Y5510000D03*
X6789920Y5682620D03*
X7131350Y219350D03*
X7380000Y1060000D03*
X7220000D03*
X7230000Y1250000D03*
X7380000D03*
X7060000Y1060000D03*
Y1150000D03*
X6950000D03*
Y1060000D03*
X7060000Y1250000D03*
Y1340000D03*
X6950000D03*
Y1250000D03*
X7050000Y1850000D03*
X6940000D03*
X7050000Y1660000D03*
Y1750000D03*
X6940000D03*
Y1660000D03*
X7050000Y2240000D03*
Y2330000D03*
X6940000D03*
Y2240000D03*
X7050000Y2040000D03*
Y2130000D03*
X6940000D03*
Y2040000D03*
X7050000Y1940000D03*
X6940000D03*
X7297350Y2489350D03*
X7281350Y3359350D03*
X7271350Y3959350D03*
Y3639350D03*
X7060000Y4260000D03*
Y4350000D03*
X6950000D03*
Y4260000D03*
X7190000D03*
X7320000D03*
X7060000Y4700000D03*
X6950000D03*
X7060000Y4790000D03*
X6950000D03*
X7190000Y4890000D03*
X7060000D03*
X6950000D03*
X7190000Y5000000D03*
X7060000Y4990000D03*
X6950000D03*
X7190000Y5120000D03*
X7050000D03*
X7297920Y5682620D03*
X7639350Y219350D03*
X7970000Y1060000D03*
X7770000D03*
X7560000D03*
X7805350Y2489350D03*
X7797350Y2779350D03*
Y3079350D03*
X7789350Y3359350D03*
X7779350Y3959350D03*
Y3639350D03*
X7500000Y4260000D03*
X7680000D03*
X7860000D03*
X8340000Y1320000D03*
X8335230Y1064480D03*
Y1572480D03*
X8313350Y2489350D03*
X8305350Y2779350D03*
X8313350Y3349350D03*
X8305350Y3079350D03*
Y3639350D03*
Y3939350D03*
X8040000Y4260000D03*
X9010000Y220000D03*
X8821350Y2489350D03*
X8813350Y2779350D03*
Y3079350D03*
X8593350Y4019350D03*
X8585350Y4309350D03*
Y4609350D03*
X9329350Y2489350D03*
X9321350Y2779350D03*
Y3079350D03*
X9443350Y4479350D03*
X9435350Y4769350D03*
Y5069350D03*
X9770000Y880000D03*
X9829350Y2779350D03*
Y3079350D03*
X11581730Y4762500D03*
G54D12*
X1120000Y2520000D03*
X11581730Y317500D03*
G54D13*
X800000Y3000000D03*
X1400000D03*
X11581730Y952500D03*
G54D14*
X2000000Y735000D03*
X1746000D03*
X2000000Y1265000D03*
X1746000D03*
X2000000Y4735000D03*
X1746000D03*
X2000000Y5265000D03*
X1746000D03*
X2254000Y735000D03*
Y1265000D03*
Y4735000D03*
Y5265000D03*
X11581730Y3492500D03*
G54D15*
X7000000Y1500000D03*
X7060000Y1550000D03*
X6940000Y1450000D03*
X7060000D03*
X6940000Y1550000D03*
X7000000Y4500000D03*
X6940000Y4450000D03*
Y4550000D03*
X7060000D03*
Y4450000D03*
X11581730Y4127500D03*
G54D16*
X8185000Y508800D03*
X8585000D03*
X8565000Y5491200D03*
X8165000D03*
X11581730Y2222500D03*
G54D17*
X9760000Y1510000D03*
Y2272000D03*
Y3770000D03*
Y4532000D03*
X11581730Y2857500D03*
G54D18*
G01X-1530290Y3004120D02*
X-1513700Y3026350D01*
X-1499470Y3039050D01*
X-1480510Y3045400D01*
X-1463910Y3039050D01*
X-1452060Y3026350D01*
X-1442580Y3007300D01*
X-1440210Y2985070D01*
X-1442580Y2966020D01*
X-1452060Y2946970D01*
X-1466290Y2931100D01*
X-1482880Y2924750D01*
X-1501840Y2931100D01*
X-1518440Y2950140D01*
X-1527920Y2978730D01*
X-1530290Y3010470D01*
X-1525550Y3051750D01*
X-1518440Y3073980D01*
X-1506590Y3096200D01*
X-1489990Y3112080D01*
X-1473400Y3115250D01*
X-1456800Y3108900D01*
X-1444950Y3093020D01*
G01X-1294750Y3115250D02*
X-1313720Y3108900D01*
X-1327940Y3093020D01*
X-1337420Y3073980D01*
X-1344530Y3048570D01*
X-1346900Y3020000D01*
X-1344530Y2991420D01*
X-1337420Y2966020D01*
X-1327940Y2946970D01*
X-1313720Y2931100D01*
X-1294750Y2924750D01*
X-1275790Y2931100D01*
X-1261560Y2946970D01*
X-1252080Y2966020D01*
X-1244970Y2991420D01*
X-1242600Y3020000D01*
X-1244970Y3048570D01*
X-1252080Y3073980D01*
X-1261560Y3093020D01*
X-1275790Y3108900D01*
X-1294750Y3115250D01*
G01X-1117900Y2733320D02*
X-1103680Y2717450D01*
X-1087090Y2707920D01*
X-1065750Y2704750D01*
X-1044410Y2711100D01*
X-1027820Y2723800D01*
X-1015970Y2746020D01*
X-1013600Y2771420D01*
X-1018340Y2796820D01*
X-1030190Y2812700D01*
X-1046790Y2825400D01*
X-1063380Y2828570D01*
X-1079970Y2825400D01*
X-1101310Y2812700D01*
X-1094200Y2895250D01*
X-1030190D01*
G01X-920290Y2784120D02*
X-903700Y2806350D01*
X-889470Y2819050D01*
X-870510Y2825400D01*
X-853910Y2819050D01*
X-842060Y2806350D01*
X-832580Y2787300D01*
X-830210Y2765070D01*
X-832580Y2746020D01*
X-842060Y2726970D01*
X-856290Y2711100D01*
X-872880Y2704750D01*
X-891840Y2711100D01*
X-908440Y2730140D01*
X-917920Y2758730D01*
X-920290Y2790470D01*
X-915550Y2831750D01*
X-908440Y2853980D01*
X-896590Y2876200D01*
X-879990Y2892080D01*
X-863400Y2895250D01*
X-846800Y2888900D01*
X-834950Y2873020D01*
G01X-684750Y2698400D02*
X-689490Y2701580D01*
Y2707920D01*
X-684750Y2711100D01*
X-680010Y2707920D01*
Y2701580D01*
X-684750Y2698400D01*
G01X-498990Y2704750D02*
X-494250Y2746020D01*
X-487140Y2780950D01*
X-477660Y2812700D01*
X-465800Y2847620D01*
X-446840Y2895250D01*
X-541660D01*
G01X-642650Y122850D02*
X-628430Y100620D01*
X-609470Y87920D01*
X-588130Y84750D01*
X-569160Y87920D01*
X-550200Y103800D01*
X-538350Y122850D01*
X-535980Y141900D01*
X-540720Y164120D01*
X-557310Y180000D01*
X-573910Y186350D01*
X-595240D01*
G01X-573910D02*
X-559680Y195870D01*
X-547830Y211750D01*
X-543090Y230800D01*
X-547830Y249850D01*
X-559680Y265720D01*
X-581020Y275250D01*
X-602350Y272080D01*
X-623690Y259370D01*
G01X-400000Y78400D02*
X-404740Y81580D01*
Y87920D01*
X-400000Y91100D01*
X-395260Y87920D01*
Y81580D01*
X-400000Y78400D01*
G01X-261650Y122850D02*
X-247430Y100620D01*
X-228470Y87920D01*
X-207130Y84750D01*
X-188160Y87920D01*
X-169200Y103800D01*
X-157350Y122850D01*
X-154980Y141900D01*
X-159720Y164120D01*
X-176310Y180000D01*
X-192910Y186350D01*
X-214240D01*
G01X-192910D02*
X-178680Y195870D01*
X-166830Y211750D01*
X-162090Y230800D01*
X-166830Y249850D01*
X-178680Y265720D01*
X-200020Y275250D01*
X-221350Y272080D01*
X-242690Y259370D01*
G01X-102650Y-617150D02*
X-88430Y-639380D01*
X-69470Y-652080D01*
X-48130Y-655250D01*
X-29160Y-652080D01*
X-10200Y-636200D01*
X1650Y-617150D01*
X4020Y-598100D01*
X-720Y-575880D01*
X-17310Y-560000D01*
X-33910Y-553650D01*
X-55240D01*
G01X-33910D02*
X-19680Y-544130D01*
X-7830Y-528250D01*
X-3090Y-509200D01*
X-7830Y-490150D01*
X-19680Y-474280D01*
X-41020Y-464750D01*
X-62350Y-467920D01*
X-83690Y-480630D01*
G01X140000Y-661600D02*
X135260Y-658420D01*
Y-652080D01*
X140000Y-648900D01*
X144740Y-652080D01*
Y-658420D01*
X140000Y-661600D01*
G01X278350Y-617150D02*
X292570Y-639380D01*
X311530Y-652080D01*
X332870Y-655250D01*
X351840Y-652080D01*
X370800Y-636200D01*
X382650Y-617150D01*
X385020Y-598100D01*
X380280Y-575880D01*
X363690Y-560000D01*
X347090Y-553650D01*
X325760D01*
G01X347090D02*
X361320Y-544130D01*
X373170Y-528250D01*
X377910Y-509200D01*
X373170Y-490150D01*
X361320Y-474280D01*
X339980Y-464750D01*
X318650Y-467920D01*
X297310Y-480630D01*
G01X330000Y0D02*
X9670000D01*
G03X10000000Y330000I0J330000D01*
G01Y5670000D01*
G03X9670000Y6000000I-330000J0D01*
G01X330000D01*
G03X0Y5670000I0J-330000D01*
G01Y330000D01*
G03X330000Y0I330000J0D01*
G01X4133950Y-973030D02*
X4150540Y-988900D01*
X4169510Y-995250D01*
X4188470Y-988900D01*
X4205070Y-969860D01*
X4216920Y-941270D01*
X4221660Y-912700D01*
Y-877780D01*
X4216920Y-849200D01*
X4205070Y-823800D01*
X4190840Y-811100D01*
X4174250Y-804750D01*
X4155280Y-811100D01*
X4141060Y-823800D01*
X4131580Y-842850D01*
X4126840Y-868250D01*
X4131580Y-890470D01*
X4143430Y-912700D01*
X4157660Y-925400D01*
X4174250Y-928580D01*
X4193210Y-922230D01*
X4207440Y-906350D01*
X4221660Y-877780D01*
G01X4319710Y-915880D02*
X4336300Y-893650D01*
X4350530Y-880950D01*
X4369490Y-874600D01*
X4386090Y-880950D01*
X4397940Y-893650D01*
X4407420Y-912700D01*
X4409790Y-934930D01*
X4407420Y-953980D01*
X4397940Y-973030D01*
X4383710Y-988900D01*
X4367120Y-995250D01*
X4348160Y-988900D01*
X4331560Y-969860D01*
X4322080Y-941270D01*
X4319710Y-909530D01*
X4324450Y-868250D01*
X4331560Y-846020D01*
X4343410Y-823800D01*
X4360010Y-807920D01*
X4376600Y-804750D01*
X4393200Y-811100D01*
X4405050Y-826980D01*
G01X4555250Y-1001600D02*
X4550510Y-998420D01*
Y-992080D01*
X4555250Y-988900D01*
X4559990Y-992080D01*
Y-998420D01*
X4555250Y-1001600D01*
G01X4741010Y-995250D02*
X4745750Y-953980D01*
X4752860Y-919050D01*
X4762340Y-887300D01*
X4774200Y-852380D01*
X4793160Y-804750D01*
X4698340D01*
G01X4499500Y-1405250D02*
Y-1214750D01*
X4471050Y-1252850D01*
G01Y-1405250D02*
X4527940D01*
G01X4690000Y-1214750D02*
X4671030Y-1221100D01*
X4656810Y-1236980D01*
X4647330Y-1256020D01*
X4640220Y-1281430D01*
X4637850Y-1310000D01*
X4640220Y-1338580D01*
X4647330Y-1363980D01*
X4656810Y-1383030D01*
X4671030Y-1398900D01*
X4690000Y-1405250D01*
X4708960Y-1398900D01*
X4723190Y-1383030D01*
X4732670Y-1363980D01*
X4739780Y-1338580D01*
X4742150Y-1310000D01*
X4739780Y-1281430D01*
X4732670Y-1256020D01*
X4723190Y-1236980D01*
X4708960Y-1221100D01*
X4690000Y-1214750D01*
G01X4880500D02*
X4861530Y-1221100D01*
X4847310Y-1236980D01*
X4837830Y-1256020D01*
X4830720Y-1281430D01*
X4828350Y-1310000D01*
X4830720Y-1338580D01*
X4837830Y-1363980D01*
X4847310Y-1383030D01*
X4861530Y-1398900D01*
X4880500Y-1405250D01*
X4899460Y-1398900D01*
X4913690Y-1383030D01*
X4923170Y-1363980D01*
X4930280Y-1338580D01*
X4932650Y-1310000D01*
X4930280Y-1281430D01*
X4923170Y-1256020D01*
X4913690Y-1236980D01*
X4899460Y-1221100D01*
X4880500Y-1214750D01*
G01X-250000Y0D02*
X-1640000D01*
G01X540000Y6000000D02*
X-1640000D01*
G01X-250000Y0D02*
X-1030000D01*
G01X-1390000Y2774260D02*
Y0D01*
G01X-1452500Y400000D02*
X-1390000Y0D01*
X-1327500Y400000D01*
X-1452500D01*
G01X-1390000Y3265740D02*
Y6000000D01*
G01X80000Y5670000D02*
X-1030000D01*
G01X-1327500Y5600000D02*
X-1390000Y6000000D01*
X-1452500Y5600000D01*
X-1327500D01*
G01X-250000Y0D02*
X-650000D01*
G01X-780000Y2554260D02*
Y0D01*
G01X-842500Y400000D02*
X-780000Y0D01*
X-717500Y400000D01*
X-842500D01*
G01X80000Y330000D02*
X-650000D01*
G01X-780000Y3045740D02*
Y5670000D01*
G01X-717500Y5270000D02*
X-780000Y5670000D01*
X-842500Y5270000D01*
X-717500D01*
G01X0Y-250000D02*
Y-1560000D01*
G01X4277890Y-1310000D02*
X0D01*
G01X400000Y-1247500D02*
X0Y-1310000D01*
X400000Y-1372500D01*
Y-1247500D01*
G01X0Y-250000D02*
Y-810000D01*
G01Y-250000D02*
Y-1150000D01*
G01X3952640Y-900000D02*
X0D01*
G01X400000Y-837500D02*
X0Y-900000D01*
X400000Y-962500D01*
Y-837500D01*
G01X-337500Y-400000D02*
X-400000Y0D01*
X-462500Y-400000D01*
X-337500D01*
G01X-272110Y-560000D02*
X0D01*
G01X-400000Y-622500D02*
X0Y-560000D01*
X-400000Y-497500D01*
Y-622500D01*
G01Y-65740D02*
Y0D01*
G01Y425740D02*
Y330000D01*
G01X-462500Y730000D02*
X-400000Y330000D01*
X-337500Y730000D01*
X-462500D01*
G01X330000Y80000D02*
Y-810000D01*
G01X552110Y-560000D02*
X330000D01*
G01X730000Y-497500D02*
X330000Y-560000D01*
X730000Y-622500D01*
Y-497500D01*
G01X5102110Y-1310000D02*
X10000000D01*
G01X4967360Y-900000D02*
X9670000D01*
G01X9270000Y-962500D02*
X9670000Y-900000D01*
X9270000Y-837500D01*
Y-962500D01*
G01X10000000Y460000D02*
Y-1560000D01*
G01X9600000Y-1372500D02*
X10000000Y-1310000D01*
X9600000Y-1247500D01*
Y-1372500D01*
G01X9670000Y80000D02*
Y-1150000D01*
G01X10440000Y0D02*
Y7000000D01*
X22723440D01*
Y0D01*
X10440000D01*
G01Y635000D02*
X22723440D01*
G01X10440000Y1270000D02*
X22723440D01*
G01X10440000Y1905000D02*
X22723440D01*
G01X10440000Y2540000D02*
X22723440D01*
G01X10440000Y3175000D02*
X22723440D01*
G01X10440000Y3810000D02*
X22723440D01*
G01X10440000Y4445000D02*
X22723440D01*
G01X10440000Y5080000D02*
X22723440D01*
G01X10440000Y5715000D02*
X22723440D01*
G01X10440000Y6350000D02*
X22723440D01*
G01X10719520Y5238750D02*
Y5556250D01*
X10869140D01*
G01X10814010Y5402800D02*
X10719520D01*
G01X11062050Y5556250D02*
X11156530D01*
G01X11109290D02*
Y5238750D01*
G01X11062050D02*
X11156530D01*
G01X11447870Y5397500D02*
X11526620D01*
Y5302250D01*
X11502990Y5270490D01*
X11475430Y5249330D01*
X11436060Y5238750D01*
X11396690Y5249330D01*
X11369130Y5270490D01*
X11345510Y5302250D01*
X11329760Y5339290D01*
X11321880Y5381620D01*
Y5418670D01*
X11329760Y5450410D01*
X11345510Y5487460D01*
X11369130Y5519210D01*
X11392750Y5540370D01*
X11424250Y5556250D01*
X11451810D01*
X11483300Y5545670D01*
X11506930Y5524500D01*
G01X11652600Y5556250D02*
Y5328710D01*
X11668340Y5281070D01*
X11699840Y5249330D01*
X11739210Y5238750D01*
X11778580Y5249330D01*
X11810080Y5281070D01*
X11825820Y5328710D01*
Y5556250D01*
G01X11975430Y5238750D02*
Y5556250D01*
X12073850D01*
X12105350Y5540370D01*
X12125040Y5519210D01*
X12132910Y5476870D01*
X12125040Y5434540D01*
X12101410Y5408090D01*
X12073850Y5392200D01*
X11975430D01*
G01X12073850D02*
X12132910Y5238750D01*
G01X12447870D02*
X12290390D01*
Y5556250D01*
X12447870D01*
G01X12384880Y5402800D02*
X12290390D01*
G01X12231330Y5873750D02*
X12329760Y6191250D01*
X12428190Y5873750D01*
G01X12392750Y5984870D02*
X12266760D01*
G01X12565980Y6191250D02*
Y5873750D01*
X12723460D01*
G01X12880940Y6191250D02*
Y5873750D01*
X13038420D01*
G01X13502990Y6191250D02*
Y5963710D01*
X13518730Y5916070D01*
X13550230Y5884330D01*
X13589600Y5873750D01*
X13628970Y5884330D01*
X13660470Y5916070D01*
X13676210Y5963710D01*
Y6191250D01*
G01X13814010Y5873750D02*
Y6191250D01*
X13995110Y5873750D01*
Y6191250D01*
G01X14172280D02*
X14266760D01*
G01X14219520D02*
Y5873750D01*
G01X14172280D02*
X14266760D01*
G01X14534480Y6191250D02*
Y5873750D01*
G01X14443930Y6191250D02*
X14625030D01*
G01X14766760Y5916070D02*
X14798260Y5889620D01*
X14833690Y5873750D01*
X14865190D01*
X14896680Y5889620D01*
X14920310Y5916070D01*
X14932120Y5953130D01*
X14924250Y5990160D01*
X14904560Y6021910D01*
X14869120Y6043090D01*
X14821880Y6053670D01*
X14794320Y6074830D01*
X14782510Y6111870D01*
X14790390Y6148920D01*
X14810070Y6175370D01*
X14837630Y6191250D01*
X14865190D01*
X14892750Y6180670D01*
X14916370Y6154210D01*
G01X15380930Y5873750D02*
X15479360Y6191250D01*
X15577790Y5873750D01*
G01X15542350Y5984870D02*
X15416360D01*
G01X15715580Y5873750D02*
Y6191250D01*
X15814000D01*
X15845500Y6175370D01*
X15865190Y6154210D01*
X15873060Y6111870D01*
X15865190Y6069540D01*
X15841560Y6043090D01*
X15814000Y6027200D01*
X15715580D01*
G01X15814000D02*
X15873060Y5873750D01*
G01X16188020D02*
X16030540D01*
Y6191250D01*
X16188020D01*
G01X16125030Y6037800D02*
X16030540D01*
G01X16691960Y6191250D02*
X16786440D01*
G01X16739200D02*
Y5873750D01*
G01X16691960D02*
X16786440D01*
G01X16963610D02*
Y6191250D01*
X17144710Y5873750D01*
Y6191250D01*
G01X17581710Y5873750D02*
Y6191250D01*
X17684080Y5926670D01*
X17786450Y6191250D01*
Y5873750D01*
G01X17951800Y6191250D02*
X18046280D01*
G01X17999040D02*
Y5873750D01*
G01X17951800D02*
X18046280D01*
G01X18235260Y6191250D02*
Y5873750D01*
X18392740D01*
G01X18550220Y6191250D02*
Y5873750D01*
X18707700D01*
G01X18896680Y6191250D02*
X18991160D01*
G01X18943920D02*
Y5873750D01*
G01X18896680D02*
X18991160D01*
G01X19156510D02*
Y6191250D01*
X19258880Y5926670D01*
X19361250Y6191250D01*
Y5873750D01*
G01X19652580D02*
X19495100D01*
Y6191250D01*
X19652580D01*
G01X19589590Y6037800D02*
X19495100D01*
G01X19888800Y6191250D02*
Y5873750D01*
G01X19798250Y6191250D02*
X19979350D01*
G01X20282500Y5873750D02*
X20125020D01*
Y6191250D01*
X20282500D01*
G01X20219510Y6037800D02*
X20125020D01*
G01X20439980Y5873750D02*
Y6191250D01*
X20538400D01*
X20569900Y6175370D01*
X20589590Y6154210D01*
X20597460Y6111870D01*
X20589590Y6069540D01*
X20565960Y6043090D01*
X20538400Y6027200D01*
X20439980D01*
G01X20538400D02*
X20597460Y5873750D01*
G01X20751000Y5916070D02*
X20782500Y5889620D01*
X20817930Y5873750D01*
X20849430D01*
X20880920Y5889620D01*
X20904550Y5916070D01*
X20916360Y5953130D01*
X20908490Y5990160D01*
X20888800Y6021910D01*
X20853360Y6043090D01*
X20806120Y6053670D01*
X20778560Y6074830D01*
X20766750Y6111870D01*
X20774630Y6148920D01*
X20794310Y6175370D01*
X20821870Y6191250D01*
X20849430D01*
X20876990Y6180670D01*
X20900610Y6154210D01*
G01X12558110Y6523750D02*
Y6841250D01*
X12636840D01*
X12668340Y6825370D01*
X12691960Y6804210D01*
X12711650Y6772460D01*
X12727400Y6735410D01*
X12731330Y6682500D01*
X12727400Y6629580D01*
X12711650Y6592540D01*
X12691960Y6560780D01*
X12668340Y6539620D01*
X12636840Y6523750D01*
X12558110D01*
G01X12880940D02*
Y6841250D01*
X12979360D01*
X13010860Y6825370D01*
X13030550Y6804210D01*
X13038420Y6761870D01*
X13030550Y6719540D01*
X13006920Y6693090D01*
X12979360Y6677200D01*
X12880940D01*
G01X12979360D02*
X13038420Y6523750D01*
G01X13227400Y6841250D02*
X13321880D01*
G01X13274640D02*
Y6523750D01*
G01X13227400D02*
X13321880D01*
G01X13510860Y6841250D02*
Y6523750D01*
X13668340D01*
G01X13825820Y6841250D02*
Y6523750D01*
X13983300D01*
G01X14621090Y6814790D02*
X14597470Y6830670D01*
X14569920Y6841250D01*
X14538420D01*
X14502980Y6825370D01*
X14475430Y6798920D01*
X14455740Y6767160D01*
X14439990Y6714250D01*
X14436050Y6666620D01*
X14443930Y6619000D01*
X14455740Y6587250D01*
X14479360Y6555490D01*
X14506920Y6534330D01*
X14534480Y6523750D01*
X14562040D01*
X14589600Y6534330D01*
X14613220Y6550200D01*
X14632910Y6571360D01*
G01X14766760Y6523750D02*
Y6841250D01*
G01X14932120D02*
Y6523750D01*
G01Y6682500D02*
X14766760D01*
G01X15065970Y6523750D02*
X15164400Y6841250D01*
X15262830Y6523750D01*
G01X15227390Y6634870D02*
X15101400D01*
G01X15400620Y6523750D02*
Y6841250D01*
X15499040D01*
X15530540Y6825370D01*
X15550230Y6804210D01*
X15558100Y6761870D01*
X15550230Y6719540D01*
X15526600Y6693090D01*
X15499040Y6677200D01*
X15400620D01*
G01X15499040D02*
X15558100Y6523750D01*
G01X15794320Y6841250D02*
Y6523750D01*
G01X15703770Y6841250D02*
X15884870D01*
G01X16109280Y6513170D02*
X16101400Y6518460D01*
Y6529040D01*
X16109280Y6534330D01*
X16117160Y6529040D01*
Y6518460D01*
X16109280Y6513170D01*
G01Y6656030D02*
X16101400Y6661330D01*
Y6671910D01*
X16109280Y6677200D01*
X16117160Y6671910D01*
Y6661330D01*
X16109280Y6656030D01*
G01X16739200Y6841250D02*
Y6523750D01*
G01X16648650Y6841250D02*
X16829750D01*
G01X17054160Y6523750D02*
X17022660Y6529040D01*
X16995110Y6550200D01*
X16971480Y6581960D01*
X16955730Y6619000D01*
X16947860Y6661330D01*
Y6703670D01*
X16955730Y6746000D01*
X16971480Y6783040D01*
X16995110Y6814790D01*
X17022660Y6835960D01*
X17054160Y6841250D01*
X17085650Y6835960D01*
X17113210Y6814790D01*
X17136840Y6783040D01*
X17152590Y6746000D01*
X17160460Y6703670D01*
Y6661330D01*
X17152590Y6619000D01*
X17136840Y6581960D01*
X17113210Y6550200D01*
X17085650Y6529040D01*
X17054160Y6523750D01*
G01X17290380D02*
Y6841250D01*
X17384870D01*
X17416360Y6825370D01*
X17439990Y6788330D01*
X17447860Y6746000D01*
X17439990Y6703670D01*
X17420300Y6671910D01*
X17384870Y6656030D01*
X17290380D01*
G01X17999040Y6841250D02*
Y6523750D01*
G01X17943920Y6735410D02*
X18054160D01*
G01X18314000Y6523750D02*
X18290380Y6529040D01*
X18266760Y6550200D01*
X18251000Y6587250D01*
X18243130Y6629580D01*
X18251000Y6671910D01*
X18266760Y6708960D01*
X18290380Y6730120D01*
X18314000Y6735410D01*
X18337620Y6730120D01*
X18361240Y6708960D01*
X18376990Y6671910D01*
X18380930Y6629580D01*
X18376990Y6587250D01*
X18361240Y6550200D01*
X18337620Y6529040D01*
X18314000Y6523750D01*
G01X18975410Y6693090D02*
X18991160Y6708960D01*
X19002970Y6735410D01*
X19010850Y6772460D01*
X19002970Y6804210D01*
X18987230Y6825370D01*
X18959670Y6841250D01*
X18853370D01*
Y6523750D01*
X18983290D01*
X19010850Y6544910D01*
X19026600Y6576670D01*
X19034470Y6613710D01*
X19026600Y6650740D01*
X19002970Y6682500D01*
X18975410Y6693090D01*
X18853370D01*
G01X19258880Y6523750D02*
X19227380Y6529040D01*
X19199830Y6550200D01*
X19176200Y6581960D01*
X19160450Y6619000D01*
X19152580Y6661330D01*
Y6703670D01*
X19160450Y6746000D01*
X19176200Y6783040D01*
X19199830Y6814790D01*
X19227380Y6835960D01*
X19258880Y6841250D01*
X19290370Y6835960D01*
X19317930Y6814790D01*
X19341560Y6783040D01*
X19357310Y6746000D01*
X19365180Y6703670D01*
Y6661330D01*
X19357310Y6619000D01*
X19341560Y6581960D01*
X19317930Y6550200D01*
X19290370Y6529040D01*
X19258880Y6523750D01*
G01X19573840Y6841250D02*
Y6523750D01*
G01X19483290Y6841250D02*
X19664390D01*
G01X19888800D02*
Y6523750D01*
G01X19798250Y6841250D02*
X19979350D01*
G01X20203760Y6523750D02*
X20172260Y6529040D01*
X20144710Y6550200D01*
X20121080Y6581960D01*
X20105330Y6619000D01*
X20097460Y6661330D01*
Y6703670D01*
X20105330Y6746000D01*
X20121080Y6783040D01*
X20144710Y6814790D01*
X20172260Y6835960D01*
X20203760Y6841250D01*
X20235250Y6835960D01*
X20262810Y6814790D01*
X20286440Y6783040D01*
X20302190Y6746000D01*
X20310060Y6703670D01*
Y6661330D01*
X20302190Y6619000D01*
X20286440Y6581960D01*
X20262810Y6550200D01*
X20235250Y6529040D01*
X20203760Y6523750D01*
G01X20416350D02*
Y6841250D01*
X20518720Y6576670D01*
X20621090Y6841250D01*
Y6523750D01*
G01X12723460Y5715000D02*
Y0D01*
G01X14093540Y222250D02*
X14117150Y185200D01*
X14148650Y164040D01*
X14184090Y158750D01*
X14215590Y164040D01*
X14247080Y190490D01*
X14266760Y222250D01*
X14270700Y254000D01*
X14262830Y291030D01*
X14235270Y317500D01*
X14207710Y328090D01*
X14172270D01*
G01X14207710D02*
X14231330Y343960D01*
X14251020Y370410D01*
X14258890Y402160D01*
X14251020Y433920D01*
X14231330Y460370D01*
X14195900Y476250D01*
X14160470Y470960D01*
X14125030Y449790D01*
G01X14495110Y148170D02*
X14487230Y153460D01*
Y164040D01*
X14495110Y169330D01*
X14502990Y164040D01*
Y153460D01*
X14495110Y148170D01*
G01X14810070Y476250D02*
X14778570Y465670D01*
X14754950Y439210D01*
X14739200Y407460D01*
X14727390Y365120D01*
X14723460Y317500D01*
X14727390Y269870D01*
X14739200Y227540D01*
X14754950Y195780D01*
X14778570Y169330D01*
X14810070Y158750D01*
X14841560Y169330D01*
X14865190Y195780D01*
X14880940Y227540D01*
X14892750Y269870D01*
X14896680Y317500D01*
X14892750Y365120D01*
X14880940Y407460D01*
X14865190Y439210D01*
X14841560Y465670D01*
X14810070Y476250D01*
G01X15065980Y370410D02*
X15184080Y158750D01*
G01Y370410D02*
X15065980Y158750D01*
G01X15439990D02*
Y476250D01*
X15392750Y412750D01*
G01Y158750D02*
X15487230D01*
G01X15754950Y148170D02*
X15747070Y153460D01*
Y164040D01*
X15754950Y169330D01*
X15762830Y164040D01*
Y153460D01*
X15754950Y148170D01*
G01X16069910Y476250D02*
X16038410Y465670D01*
X16014790Y439210D01*
X15999040Y407460D01*
X15987230Y365120D01*
X15983300Y317500D01*
X15987230Y269870D01*
X15999040Y227540D01*
X16014790Y195780D01*
X16038410Y169330D01*
X16069910Y158750D01*
X16101400Y169330D01*
X16125030Y195780D01*
X16140780Y227540D01*
X16152590Y269870D01*
X16156520Y317500D01*
X16152590Y365120D01*
X16140780Y407460D01*
X16125030Y439210D01*
X16101400Y465670D01*
X16069910Y476250D01*
G01X14093540Y857250D02*
X14117150Y820200D01*
X14148650Y799040D01*
X14184090Y793750D01*
X14215590Y799040D01*
X14247080Y825490D01*
X14266760Y857250D01*
X14270700Y889000D01*
X14262830Y926030D01*
X14235270Y952500D01*
X14207710Y963090D01*
X14172270D01*
G01X14207710D02*
X14231330Y978960D01*
X14251020Y1005410D01*
X14258890Y1037160D01*
X14251020Y1068920D01*
X14231330Y1095370D01*
X14195900Y1111250D01*
X14160470Y1105960D01*
X14125030Y1084790D01*
G01X14495110Y783170D02*
X14487230Y788460D01*
Y799040D01*
X14495110Y804330D01*
X14502990Y799040D01*
Y788460D01*
X14495110Y783170D01*
G01X14810070Y1111250D02*
X14778570Y1100670D01*
X14754950Y1074210D01*
X14739200Y1042460D01*
X14727390Y1000120D01*
X14723460Y952500D01*
X14727390Y904870D01*
X14739200Y862540D01*
X14754950Y830780D01*
X14778570Y804330D01*
X14810070Y793750D01*
X14841560Y804330D01*
X14865190Y830780D01*
X14880940Y862540D01*
X14892750Y904870D01*
X14896680Y952500D01*
X14892750Y1000120D01*
X14880940Y1042460D01*
X14865190Y1074210D01*
X14841560Y1100670D01*
X14810070Y1111250D01*
G01X15065980Y1005410D02*
X15184080Y793750D01*
G01Y1005410D02*
X15065980Y793750D01*
G01X15439990D02*
Y1111250D01*
X15392750Y1047750D01*
G01Y793750D02*
X15487230D01*
G01X15754950Y783170D02*
X15747070Y788460D01*
Y799040D01*
X15754950Y804330D01*
X15762830Y799040D01*
Y788460D01*
X15754950Y783170D01*
G01X16069910Y1111250D02*
X16038410Y1100670D01*
X16014790Y1074210D01*
X15999040Y1042460D01*
X15987230Y1000120D01*
X15983300Y952500D01*
X15987230Y904870D01*
X15999040Y862540D01*
X16014790Y830780D01*
X16038410Y804330D01*
X16069910Y793750D01*
X16101400Y804330D01*
X16125030Y830780D01*
X16140780Y862540D01*
X16152590Y904870D01*
X16156520Y952500D01*
X16152590Y1000120D01*
X16140780Y1042460D01*
X16125030Y1074210D01*
X16101400Y1100670D01*
X16069910Y1111250D01*
G01X14251020Y1492250D02*
X14274630Y1455200D01*
X14306130Y1434040D01*
X14341570Y1428750D01*
X14373070Y1434040D01*
X14404560Y1460490D01*
X14424240Y1492250D01*
X14428180Y1524000D01*
X14420310Y1561030D01*
X14392750Y1587500D01*
X14365190Y1598090D01*
X14329750D01*
G01X14365190D02*
X14388810Y1613960D01*
X14408500Y1640410D01*
X14416370Y1672160D01*
X14408500Y1703920D01*
X14388810Y1730370D01*
X14353380Y1746250D01*
X14317950Y1740960D01*
X14282510Y1719790D01*
G01X14652590Y1418170D02*
X14644710Y1423460D01*
Y1434040D01*
X14652590Y1439330D01*
X14660470Y1434040D01*
Y1423460D01*
X14652590Y1418170D01*
G01X15014790Y1428750D02*
Y1746250D01*
X14869120Y1518710D01*
X15065980D01*
G01X15282510Y1746250D02*
X15251010Y1735670D01*
X15227390Y1709210D01*
X15211640Y1677460D01*
X15199830Y1635120D01*
X15195900Y1587500D01*
X15199830Y1539870D01*
X15211640Y1497540D01*
X15227390Y1465780D01*
X15251010Y1439330D01*
X15282510Y1428750D01*
X15314000Y1439330D01*
X15337630Y1465780D01*
X15353380Y1497540D01*
X15365190Y1539870D01*
X15369120Y1587500D01*
X15365190Y1635120D01*
X15353380Y1677460D01*
X15337630Y1709210D01*
X15314000Y1735670D01*
X15282510Y1746250D01*
G01X15510860Y1492250D02*
X15534470Y1455200D01*
X15565970Y1434040D01*
X15601410Y1428750D01*
X15632910Y1434040D01*
X15664400Y1460490D01*
X15684080Y1492250D01*
X15688020Y1524000D01*
X15680150Y1561030D01*
X15652590Y1587500D01*
X15625030Y1598090D01*
X15589590D01*
G01X15625030D02*
X15648650Y1613960D01*
X15668340Y1640410D01*
X15676210Y1672160D01*
X15668340Y1703920D01*
X15648650Y1730370D01*
X15613220Y1746250D01*
X15577790Y1740960D01*
X15542350Y1719790D01*
G01X15837620Y1561030D02*
X15865190Y1598090D01*
X15888810Y1619250D01*
X15920310Y1629830D01*
X15947870Y1619250D01*
X15967550Y1598090D01*
X15983300Y1566330D01*
X15987240Y1529290D01*
X15983300Y1497540D01*
X15967550Y1465780D01*
X15943920Y1439330D01*
X15916370Y1428750D01*
X15884870Y1439330D01*
X15857310Y1471070D01*
X15841560Y1518710D01*
X15837620Y1571620D01*
X15845500Y1640410D01*
X15857310Y1677460D01*
X15876990Y1714500D01*
X15904550Y1740960D01*
X15932110Y1746250D01*
X15959670Y1735670D01*
X15979360Y1709210D01*
G01X14337630Y4286250D02*
X14306130Y4275670D01*
X14282510Y4249210D01*
X14266760Y4217460D01*
X14254950Y4175120D01*
X14251020Y4127500D01*
X14254950Y4079870D01*
X14266760Y4037540D01*
X14282510Y4005780D01*
X14306130Y3979330D01*
X14337630Y3968750D01*
X14369120Y3979330D01*
X14392750Y4005780D01*
X14408500Y4037540D01*
X14420310Y4079870D01*
X14424240Y4127500D01*
X14420310Y4175120D01*
X14408500Y4217460D01*
X14392750Y4249210D01*
X14369120Y4275670D01*
X14337630Y4286250D01*
G01X14652590Y3958170D02*
X14644710Y3963460D01*
Y3974040D01*
X14652590Y3979330D01*
X14660470Y3974040D01*
Y3963460D01*
X14652590Y3958170D01*
G01X15014790Y3968750D02*
Y4286250D01*
X14869120Y4058710D01*
X15065980D01*
G01X15195900Y4016360D02*
X15219510Y3989910D01*
X15247070Y3974040D01*
X15282510Y3968750D01*
X15317950Y3979330D01*
X15345500Y4000490D01*
X15365190Y4037540D01*
X15369120Y4079870D01*
X15361250Y4122200D01*
X15341560Y4148670D01*
X15314000Y4169830D01*
X15286450Y4175120D01*
X15258890Y4169830D01*
X15223460Y4148670D01*
X15235270Y4286250D01*
X15341560D01*
G01X15589590Y3968750D02*
X15597470Y4037540D01*
X15609280Y4095740D01*
X15625030Y4148670D01*
X15644710Y4206870D01*
X15676210Y4286250D01*
X15518730D01*
G01X15837620Y4233330D02*
X15861250Y4265080D01*
X15888810Y4280960D01*
X15920310Y4286250D01*
X15959670Y4275670D01*
X15987240Y4249210D01*
X15995110Y4217460D01*
X15991170Y4185700D01*
X15975420Y4159250D01*
X15896680Y4106330D01*
X15861250Y4069290D01*
X15837620Y4016360D01*
X15829750Y3968750D01*
X15995110D01*
G01X14337630Y4921250D02*
X14306130Y4910670D01*
X14282510Y4884210D01*
X14266760Y4852460D01*
X14254950Y4810120D01*
X14251020Y4762500D01*
X14254950Y4714870D01*
X14266760Y4672540D01*
X14282510Y4640780D01*
X14306130Y4614330D01*
X14337630Y4603750D01*
X14369120Y4614330D01*
X14392750Y4640780D01*
X14408500Y4672540D01*
X14420310Y4714870D01*
X14424240Y4762500D01*
X14420310Y4810120D01*
X14408500Y4852460D01*
X14392750Y4884210D01*
X14369120Y4910670D01*
X14337630Y4921250D01*
G01X14652590Y4593170D02*
X14644710Y4598460D01*
Y4609040D01*
X14652590Y4614330D01*
X14660470Y4609040D01*
Y4598460D01*
X14652590Y4593170D01*
G01X14880940Y4667250D02*
X14904550Y4630200D01*
X14936050Y4609040D01*
X14971490Y4603750D01*
X15002990Y4609040D01*
X15034480Y4635490D01*
X15054160Y4667250D01*
X15058100Y4699000D01*
X15050230Y4736030D01*
X15022670Y4762500D01*
X14995110Y4773090D01*
X14959670D01*
G01X14995110D02*
X15018730Y4788960D01*
X15038420Y4815410D01*
X15046290Y4847160D01*
X15038420Y4878920D01*
X15018730Y4905370D01*
X14983300Y4921250D01*
X14947870Y4915960D01*
X14912430Y4894790D01*
G01X15282510Y4921250D02*
X15251010Y4910670D01*
X15227390Y4884210D01*
X15211640Y4852460D01*
X15199830Y4810120D01*
X15195900Y4762500D01*
X15199830Y4714870D01*
X15211640Y4672540D01*
X15227390Y4640780D01*
X15251010Y4614330D01*
X15282510Y4603750D01*
X15314000Y4614330D01*
X15337630Y4640780D01*
X15353380Y4672540D01*
X15365190Y4714870D01*
X15369120Y4762500D01*
X15365190Y4810120D01*
X15353380Y4852460D01*
X15337630Y4884210D01*
X15314000Y4910670D01*
X15282510Y4921250D01*
G01X15644710Y4603750D02*
Y4921250D01*
X15499040Y4693710D01*
X15695900D01*
G01X15912430Y4603750D02*
X15939990Y4609040D01*
X15971480Y4624910D01*
X15991170Y4651360D01*
X15999040Y4688420D01*
X15991170Y4725450D01*
X15967550Y4757200D01*
X15932110Y4773090D01*
X15892750D01*
X15869120Y4783670D01*
X15849430Y4810120D01*
X15841560Y4847160D01*
X15853380Y4884210D01*
X15880930Y4910670D01*
X15912430Y4921250D01*
X15943920Y4910670D01*
X15971480Y4884210D01*
X15983300Y4847160D01*
X15975420Y4810120D01*
X15955740Y4783670D01*
X15932110Y4773090D01*
X15892750D01*
X15857310Y4757200D01*
X15833690Y4725450D01*
X15825820Y4688420D01*
X15833690Y4651360D01*
X15853380Y4624910D01*
X15884870Y4609040D01*
X15912430Y4603750D01*
G01X14810070Y2063750D02*
Y2381250D01*
X14762830Y2317750D01*
G01Y2063750D02*
X14857310D01*
G01X15125030Y2053170D02*
X15117150Y2058460D01*
Y2069040D01*
X15125030Y2074330D01*
X15132910Y2069040D01*
Y2058460D01*
X15125030Y2053170D01*
G01X15432110Y2063750D02*
X15439990Y2132540D01*
X15451800Y2190740D01*
X15467550Y2243670D01*
X15487230Y2301870D01*
X15518730Y2381250D01*
X15361250D01*
G01X14495110Y2698750D02*
Y3016250D01*
X14447870Y2952750D01*
G01Y2698750D02*
X14542350D01*
G01X14810070Y2688170D02*
X14802190Y2693460D01*
Y2704040D01*
X14810070Y2709330D01*
X14817950Y2704040D01*
Y2693460D01*
X14810070Y2688170D01*
G01X15038420Y2746360D02*
X15062030Y2719910D01*
X15089590Y2704040D01*
X15125030Y2698750D01*
X15160470Y2709330D01*
X15188020Y2730490D01*
X15207710Y2767540D01*
X15211640Y2809870D01*
X15203770Y2852200D01*
X15184080Y2878670D01*
X15156520Y2899830D01*
X15128970Y2905120D01*
X15101410Y2899830D01*
X15065980Y2878670D01*
X15077790Y3016250D01*
X15184080D01*
G01X15365180Y2963330D02*
X15388810Y2995080D01*
X15416370Y3010960D01*
X15447870Y3016250D01*
X15487230Y3005670D01*
X15514800Y2979210D01*
X15522670Y2947460D01*
X15518730Y2915700D01*
X15502980Y2889250D01*
X15424240Y2836330D01*
X15388810Y2799290D01*
X15365180Y2746360D01*
X15357310Y2698750D01*
X15522670D01*
G01X15802190D02*
Y3016250D01*
X15656520Y2788710D01*
X15853380D01*
G01X14495110Y3651250D02*
X14463610Y3640670D01*
X14439990Y3614210D01*
X14424240Y3582460D01*
X14412430Y3540120D01*
X14408500Y3492500D01*
X14412430Y3444870D01*
X14424240Y3402540D01*
X14439990Y3370780D01*
X14463610Y3344330D01*
X14495110Y3333750D01*
X14526600Y3344330D01*
X14550230Y3370780D01*
X14565980Y3402540D01*
X14577790Y3444870D01*
X14581720Y3492500D01*
X14577790Y3540120D01*
X14565980Y3582460D01*
X14550230Y3614210D01*
X14526600Y3640670D01*
X14495110Y3651250D01*
G01X14810070Y3323170D02*
X14802190Y3328460D01*
Y3339040D01*
X14810070Y3344330D01*
X14817950Y3339040D01*
Y3328460D01*
X14810070Y3323170D01*
G01X15125030Y3333750D02*
X15152590Y3339040D01*
X15184080Y3354910D01*
X15203770Y3381360D01*
X15211640Y3418420D01*
X15203770Y3455450D01*
X15180150Y3487200D01*
X15144710Y3503090D01*
X15105350D01*
X15081720Y3513670D01*
X15062030Y3540120D01*
X15054160Y3577160D01*
X15065980Y3614210D01*
X15093530Y3640670D01*
X15125030Y3651250D01*
X15156520Y3640670D01*
X15184080Y3614210D01*
X15195900Y3577160D01*
X15188020Y3540120D01*
X15168340Y3513670D01*
X15144710Y3503090D01*
X15105350D01*
X15069910Y3487200D01*
X15046290Y3455450D01*
X15038420Y3418420D01*
X15046290Y3381360D01*
X15065980Y3354910D01*
X15097470Y3339040D01*
X15125030Y3333750D01*
G01X15439990D02*
X15467550Y3339040D01*
X15499040Y3354910D01*
X15518730Y3381360D01*
X15526600Y3418420D01*
X15518730Y3455450D01*
X15495110Y3487200D01*
X15459670Y3503090D01*
X15420310D01*
X15396680Y3513670D01*
X15376990Y3540120D01*
X15369120Y3577160D01*
X15380940Y3614210D01*
X15408490Y3640670D01*
X15439990Y3651250D01*
X15471480Y3640670D01*
X15499040Y3614210D01*
X15510860Y3577160D01*
X15502980Y3540120D01*
X15483300Y3513670D01*
X15459670Y3503090D01*
X15420310D01*
X15384870Y3487200D01*
X15361250Y3455450D01*
X15353380Y3418420D01*
X15361250Y3381360D01*
X15380940Y3354910D01*
X15412430Y3339040D01*
X15439990Y3333750D01*
G01X15688020Y3370780D02*
X15715580Y3344330D01*
X15747070Y3333750D01*
X15778570Y3344330D01*
X15806130Y3376070D01*
X15825820Y3423710D01*
X15833690Y3471330D01*
Y3529540D01*
X15825820Y3577160D01*
X15806130Y3619500D01*
X15782510Y3640670D01*
X15754950Y3651250D01*
X15723450Y3640670D01*
X15699830Y3619500D01*
X15684080Y3587750D01*
X15676210Y3545410D01*
X15684080Y3508380D01*
X15703770Y3471330D01*
X15727390Y3450160D01*
X15754950Y3444870D01*
X15786440Y3455450D01*
X15810070Y3481910D01*
X15833690Y3529540D01*
G01X14569910Y5281070D02*
X14601410Y5254620D01*
X14636840Y5238750D01*
X14668340D01*
X14699830Y5254620D01*
X14723460Y5281070D01*
X14735270Y5318130D01*
X14727400Y5355160D01*
X14707710Y5386910D01*
X14672270Y5408090D01*
X14625030Y5418670D01*
X14597470Y5439830D01*
X14585660Y5476870D01*
X14593540Y5513920D01*
X14613220Y5540370D01*
X14640780Y5556250D01*
X14668340D01*
X14695900Y5545670D01*
X14719520Y5519210D01*
G01X14920310Y5556250D02*
X15014790D01*
G01X14967550D02*
Y5238750D01*
G01X14920310D02*
X15014790D01*
G01X15207700Y5556250D02*
X15357320D01*
X15207700Y5238750D01*
X15357320D01*
G01X15676210D02*
X15518730D01*
Y5556250D01*
X15676210D01*
G01X15613220Y5402800D02*
X15518730D01*
G01X17526600Y5715000D02*
Y0D01*
G01X18274630Y158750D02*
Y476250D01*
X18369120D01*
X18400610Y460370D01*
X18424240Y423330D01*
X18432110Y381000D01*
X18424240Y338670D01*
X18404550Y306910D01*
X18369120Y291030D01*
X18274630D01*
G01X18589590Y476250D02*
Y158750D01*
X18747070D01*
G01X18884860D02*
X18983290Y476250D01*
X19081720Y158750D01*
G01X19046280Y269870D02*
X18920290D01*
G01X19298250Y476250D02*
Y158750D01*
G01X19207700Y476250D02*
X19388800D01*
G01X19691950Y158750D02*
X19534470D01*
Y476250D01*
X19691950D01*
G01X19628960Y322800D02*
X19534470D01*
G01X19841560Y158750D02*
Y476250D01*
X19920290D01*
X19951790Y460370D01*
X19975410Y439210D01*
X19995100Y407460D01*
X20010850Y370410D01*
X20014780Y317500D01*
X20010850Y264580D01*
X19995100Y227540D01*
X19975410Y195780D01*
X19951790Y174620D01*
X19920290Y158750D01*
X19841560D01*
G01X18274630Y793750D02*
Y1111250D01*
X18369120D01*
X18400610Y1095370D01*
X18424240Y1058330D01*
X18432110Y1016000D01*
X18424240Y973670D01*
X18404550Y941910D01*
X18369120Y926030D01*
X18274630D01*
G01X18589590Y1111250D02*
Y793750D01*
X18747070D01*
G01X18884860D02*
X18983290Y1111250D01*
X19081720Y793750D01*
G01X19046280Y904870D02*
X18920290D01*
G01X19298250Y1111250D02*
Y793750D01*
G01X19207700Y1111250D02*
X19388800D01*
G01X19691950Y793750D02*
X19534470D01*
Y1111250D01*
X19691950D01*
G01X19628960Y957800D02*
X19534470D01*
G01X19841560Y793750D02*
Y1111250D01*
X19920290D01*
X19951790Y1095370D01*
X19975410Y1074210D01*
X19995100Y1042460D01*
X20010850Y1005410D01*
X20014780Y952500D01*
X20010850Y899580D01*
X19995100Y862540D01*
X19975410Y830780D01*
X19951790Y809620D01*
X19920290Y793750D01*
X19841560D01*
G01X18274630Y1428750D02*
Y1746250D01*
X18369120D01*
X18400610Y1730370D01*
X18424240Y1693330D01*
X18432110Y1651000D01*
X18424240Y1608670D01*
X18404550Y1576910D01*
X18369120Y1561030D01*
X18274630D01*
G01X18589590Y1746250D02*
Y1428750D01*
X18747070D01*
G01X18884860D02*
X18983290Y1746250D01*
X19081720Y1428750D01*
G01X19046280Y1539870D02*
X18920290D01*
G01X19298250Y1746250D02*
Y1428750D01*
G01X19207700Y1746250D02*
X19388800D01*
G01X19691950Y1428750D02*
X19534470D01*
Y1746250D01*
X19691950D01*
G01X19628960Y1592800D02*
X19534470D01*
G01X19841560Y1428750D02*
Y1746250D01*
X19920290D01*
X19951790Y1730370D01*
X19975410Y1709210D01*
X19995100Y1677460D01*
X20010850Y1640410D01*
X20014780Y1587500D01*
X20010850Y1534580D01*
X19995100Y1497540D01*
X19975410Y1465780D01*
X19951790Y1444620D01*
X19920290Y1428750D01*
X19841560D01*
G01X18274630Y2063750D02*
Y2381250D01*
X18369120D01*
X18400610Y2365370D01*
X18424240Y2328330D01*
X18432110Y2286000D01*
X18424240Y2243670D01*
X18404550Y2211910D01*
X18369120Y2196030D01*
X18274630D01*
G01X18589590Y2381250D02*
Y2063750D01*
X18747070D01*
G01X18884860D02*
X18983290Y2381250D01*
X19081720Y2063750D01*
G01X19046280Y2174870D02*
X18920290D01*
G01X19298250Y2381250D02*
Y2063750D01*
G01X19207700Y2381250D02*
X19388800D01*
G01X19691950Y2063750D02*
X19534470D01*
Y2381250D01*
X19691950D01*
G01X19628960Y2227800D02*
X19534470D01*
G01X19841560Y2063750D02*
Y2381250D01*
X19920290D01*
X19951790Y2365370D01*
X19975410Y2344210D01*
X19995100Y2312460D01*
X20010850Y2275410D01*
X20014780Y2222500D01*
X20010850Y2169580D01*
X19995100Y2132540D01*
X19975410Y2100780D01*
X19951790Y2079620D01*
X19920290Y2063750D01*
X19841560D01*
G01X18274630Y2698750D02*
Y3016250D01*
X18369120D01*
X18400610Y3000370D01*
X18424240Y2963330D01*
X18432110Y2921000D01*
X18424240Y2878670D01*
X18404550Y2846910D01*
X18369120Y2831030D01*
X18274630D01*
G01X18589590Y3016250D02*
Y2698750D01*
X18747070D01*
G01X18884860D02*
X18983290Y3016250D01*
X19081720Y2698750D01*
G01X19046280Y2809870D02*
X18920290D01*
G01X19298250Y3016250D02*
Y2698750D01*
G01X19207700Y3016250D02*
X19388800D01*
G01X19691950Y2698750D02*
X19534470D01*
Y3016250D01*
X19691950D01*
G01X19628960Y2862800D02*
X19534470D01*
G01X19841560Y2698750D02*
Y3016250D01*
X19920290D01*
X19951790Y3000370D01*
X19975410Y2979210D01*
X19995100Y2947460D01*
X20010850Y2910410D01*
X20014780Y2857500D01*
X20010850Y2804580D01*
X19995100Y2767540D01*
X19975410Y2735780D01*
X19951790Y2714620D01*
X19920290Y2698750D01*
X19841560D01*
G01X18274630Y3333750D02*
Y3651250D01*
X18369120D01*
X18400610Y3635370D01*
X18424240Y3598330D01*
X18432110Y3556000D01*
X18424240Y3513670D01*
X18404550Y3481910D01*
X18369120Y3466030D01*
X18274630D01*
G01X18589590Y3651250D02*
Y3333750D01*
X18747070D01*
G01X18884860D02*
X18983290Y3651250D01*
X19081720Y3333750D01*
G01X19046280Y3444870D02*
X18920290D01*
G01X19298250Y3651250D02*
Y3333750D01*
G01X19207700Y3651250D02*
X19388800D01*
G01X19691950Y3333750D02*
X19534470D01*
Y3651250D01*
X19691950D01*
G01X19628960Y3497800D02*
X19534470D01*
G01X19841560Y3333750D02*
Y3651250D01*
X19920290D01*
X19951790Y3635370D01*
X19975410Y3614210D01*
X19995100Y3582460D01*
X20010850Y3545410D01*
X20014780Y3492500D01*
X20010850Y3439580D01*
X19995100Y3402540D01*
X19975410Y3370780D01*
X19951790Y3349620D01*
X19920290Y3333750D01*
X19841560D01*
G01X18274630Y3968750D02*
Y4286250D01*
X18369120D01*
X18400610Y4270370D01*
X18424240Y4233330D01*
X18432110Y4191000D01*
X18424240Y4148670D01*
X18404550Y4116910D01*
X18369120Y4101030D01*
X18274630D01*
G01X18589590Y4286250D02*
Y3968750D01*
X18747070D01*
G01X18884860D02*
X18983290Y4286250D01*
X19081720Y3968750D01*
G01X19046280Y4079870D02*
X18920290D01*
G01X19298250Y4286250D02*
Y3968750D01*
G01X19207700Y4286250D02*
X19388800D01*
G01X19691950Y3968750D02*
X19534470D01*
Y4286250D01*
X19691950D01*
G01X19628960Y4132800D02*
X19534470D01*
G01X19841560Y3968750D02*
Y4286250D01*
X19920290D01*
X19951790Y4270370D01*
X19975410Y4249210D01*
X19995100Y4217460D01*
X20010850Y4180410D01*
X20014780Y4127500D01*
X20010850Y4074580D01*
X19995100Y4037540D01*
X19975410Y4005780D01*
X19951790Y3984620D01*
X19920290Y3968750D01*
X19841560D01*
G01X18274630Y4603750D02*
Y4921250D01*
X18369120D01*
X18400610Y4905370D01*
X18424240Y4868330D01*
X18432110Y4826000D01*
X18424240Y4783670D01*
X18404550Y4751910D01*
X18369120Y4736030D01*
X18274630D01*
G01X18589590Y4921250D02*
Y4603750D01*
X18747070D01*
G01X18884860D02*
X18983290Y4921250D01*
X19081720Y4603750D01*
G01X19046280Y4714870D02*
X18920290D01*
G01X19298250Y4921250D02*
Y4603750D01*
G01X19207700Y4921250D02*
X19388800D01*
G01X19691950Y4603750D02*
X19534470D01*
Y4921250D01*
X19691950D01*
G01X19628960Y4767800D02*
X19534470D01*
G01X19841560Y4603750D02*
Y4921250D01*
X19920290D01*
X19951790Y4905370D01*
X19975410Y4884210D01*
X19995100Y4852460D01*
X20010850Y4815410D01*
X20014780Y4762500D01*
X20010850Y4709580D01*
X19995100Y4672540D01*
X19975410Y4640780D01*
X19951790Y4619620D01*
X19920290Y4603750D01*
X19841560D01*
G01X18274630Y5238750D02*
Y5556250D01*
X18369120D01*
X18400610Y5540370D01*
X18424240Y5503330D01*
X18432110Y5461000D01*
X18424240Y5418670D01*
X18404550Y5386910D01*
X18369120Y5371030D01*
X18274630D01*
G01X18589590Y5556250D02*
Y5238750D01*
X18747070D01*
G01X18884860D02*
X18983290Y5556250D01*
X19081720Y5238750D01*
G01X19046280Y5349870D02*
X18920290D01*
G01X19298250Y5556250D02*
Y5238750D01*
G01X19207700Y5556250D02*
X19388800D01*
G01X19691950Y5238750D02*
X19534470D01*
Y5556250D01*
X19691950D01*
G01X19628960Y5402800D02*
X19534470D01*
G01X19841560Y5238750D02*
Y5556250D01*
X19920290D01*
X19951790Y5540370D01*
X19975410Y5519210D01*
X19995100Y5487460D01*
X20010850Y5450410D01*
X20014780Y5397500D01*
X20010850Y5344580D01*
X19995100Y5307540D01*
X19975410Y5275780D01*
X19951790Y5254620D01*
X19920290Y5238750D01*
X19841560D01*
G01X20754940Y5715000D02*
Y0D01*
G01X21739190Y158750D02*
Y476250D01*
X21691950Y412750D01*
G01Y158750D02*
X21786430D01*
G01X21664380Y1058330D02*
X21688010Y1090080D01*
X21715570Y1105960D01*
X21747070Y1111250D01*
X21786430Y1100670D01*
X21814000Y1074210D01*
X21821870Y1042460D01*
X21817930Y1010700D01*
X21802180Y984250D01*
X21723440Y931330D01*
X21688010Y894290D01*
X21664380Y841360D01*
X21656510Y793750D01*
X21821870D01*
G01X21652580Y1476360D02*
X21676190Y1449910D01*
X21703750Y1434040D01*
X21739190Y1428750D01*
X21774630Y1439330D01*
X21802180Y1460490D01*
X21821870Y1497540D01*
X21825800Y1539870D01*
X21817930Y1582200D01*
X21798240Y1608670D01*
X21770680Y1629830D01*
X21743130Y1635120D01*
X21715570Y1629830D01*
X21680140Y1608670D01*
X21691950Y1746250D01*
X21798240D01*
G01X21786430Y2063750D02*
Y2381250D01*
X21640760Y2153710D01*
X21837620D01*
G01X21786430Y2698750D02*
Y3016250D01*
X21640760Y2788710D01*
X21837620D01*
G01X21581710Y3333750D02*
Y3651250D01*
X21534470Y3587750D01*
G01Y3333750D02*
X21628950D01*
G01X21821860Y3598330D02*
X21845490Y3630080D01*
X21873050Y3645960D01*
X21904550Y3651250D01*
X21943910Y3640670D01*
X21971480Y3614210D01*
X21979350Y3582460D01*
X21975410Y3550700D01*
X21959660Y3524250D01*
X21880920Y3471330D01*
X21845490Y3434290D01*
X21821860Y3381360D01*
X21813990Y3333750D01*
X21979350D01*
G01X21581710Y3968750D02*
Y4286250D01*
X21534470Y4222750D01*
G01Y3968750D02*
X21628950D01*
G01X21896670Y4286250D02*
X21865170Y4275670D01*
X21841550Y4249210D01*
X21825800Y4217460D01*
X21813990Y4175120D01*
X21810060Y4127500D01*
X21813990Y4079870D01*
X21825800Y4037540D01*
X21841550Y4005780D01*
X21865170Y3979330D01*
X21896670Y3968750D01*
X21928160Y3979330D01*
X21951790Y4005780D01*
X21967540Y4037540D01*
X21979350Y4079870D01*
X21983280Y4127500D01*
X21979350Y4175120D01*
X21967540Y4217460D01*
X21951790Y4249210D01*
X21928160Y4275670D01*
X21896670Y4286250D01*
G01X21424230Y4603750D02*
Y4921250D01*
X21376990Y4857750D01*
G01Y4603750D02*
X21471470D01*
G01X21672260Y4640780D02*
X21699820Y4614330D01*
X21731310Y4603750D01*
X21762810Y4614330D01*
X21790370Y4646070D01*
X21810060Y4693710D01*
X21817930Y4741330D01*
Y4799540D01*
X21810060Y4847160D01*
X21790370Y4889500D01*
X21766750Y4910670D01*
X21739190Y4921250D01*
X21707690Y4910670D01*
X21684070Y4889500D01*
X21668320Y4857750D01*
X21660450Y4815410D01*
X21668320Y4778380D01*
X21688010Y4741330D01*
X21711630Y4720160D01*
X21739190Y4714870D01*
X21770680Y4725450D01*
X21794310Y4751910D01*
X21817930Y4799540D01*
G01X21967540Y4667250D02*
X21991150Y4630200D01*
X22022650Y4609040D01*
X22058090Y4603750D01*
X22089590Y4609040D01*
X22121080Y4635490D01*
X22140760Y4667250D01*
X22144700Y4699000D01*
X22136830Y4736030D01*
X22109270Y4762500D01*
X22081710Y4773090D01*
X22046270D01*
G01X22081710D02*
X22105330Y4788960D01*
X22125020Y4815410D01*
X22132890Y4847160D01*
X22125020Y4878920D01*
X22105330Y4905370D01*
X22069900Y4921250D01*
X22034470Y4915960D01*
X21999030Y4894790D01*
G01X21424230Y5238750D02*
X21392730Y5244040D01*
X21365180Y5265200D01*
X21341550Y5296960D01*
X21325800Y5334000D01*
X21317930Y5376330D01*
Y5418670D01*
X21325800Y5461000D01*
X21341550Y5498040D01*
X21365180Y5529790D01*
X21392730Y5550960D01*
X21424230Y5556250D01*
X21455720Y5550960D01*
X21483280Y5529790D01*
X21506910Y5498040D01*
X21522660Y5461000D01*
X21530530Y5418670D01*
Y5376330D01*
X21522660Y5334000D01*
X21506910Y5296960D01*
X21483280Y5265200D01*
X21455720Y5244040D01*
X21424230Y5238750D01*
G01X21455720Y5323420D02*
X21502970Y5238750D01*
G01X21739190Y5556250D02*
Y5238750D01*
G01X21648640Y5556250D02*
X21829740D01*
G01X22054150Y5238750D02*
Y5381620D01*
X21975410Y5556250D01*
G01X22132890D02*
X22054150Y5381620D01*
M02*
