G04 ================== begin FILE IDENTIFICATION RECORD ==================*
G04 Layout Name:  BQ24090_TEST_V10A.brd*
G04 Film Name:    PasteMask_Top*
G04 File Format:  Gerber RS274X*
G04 File Origin:  Cadence Allegro 16.6-2015-S088*
G04 Origin Date:  Thu Aug 31 17:17:54 2017*
G04 *
G04 Layer:  BOARD GEOMETRY/OUTLINE*
G04 Layer:  PIN/PASTEMASK_TOP*
G04 Layer:  PACKAGE GEOMETRY/PASTEMASK_TOP*
G04 *
G04 Offset:    (0.0000 0.0000)*
G04 Mirror:    No*
G04 Mode:      Positive*
G04 Rotation:  0*
G04 FullContactRelief:  No*
G04 UndefLineWidth:     0.1524*
G04 ================== end FILE IDENTIFICATION RECORD ====================*
%FSLAX55Y55*MOMM*%
%IR0*IPPOS*OFA0.00000B0.00000*MIA0B0*SFA1.00000B1.00000*%
%ADD17R,1.6X.3*%
%ADD12R,.9144X.9144*%
%ADD15R,2.2X1.1*%
%ADD19R,2.5X5.*%
%ADD18R,1.5X1.5*%
%ADD16R,1.6X2.7*%
%ADD14R,1.27X1.27*%
%ADD11R,1.016X1.2192*%
%ADD10C,6.35*%
%ADD13C,1.778*%
%ADD20C,.1524*%
G75*
%LPD*%
G75*
G54D10*
X330000Y330000D03*
Y5670000D03*
X7000000Y3000000D03*
X9670000Y330000D03*
Y5670000D03*
G54D20*
G01X330000Y0D02*
X9670000D01*
G03X10000000Y330000I0J330000D01*
G01Y5670000D01*
G03X9670000Y6000000I-330000J0D01*
G01X330000D01*
G03X0Y5670000I0J-330000D01*
G01Y330000D01*
G03X330000Y0I330000J0D01*
G54D11*
X461600Y930000D03*
X258400D03*
X471600Y4900000D03*
X268400D03*
X6961600Y750000D03*
X6758400D03*
X6961600Y480000D03*
X6758400D03*
X6931600Y5270000D03*
X6728400D03*
X6931600Y5510000D03*
X6728400D03*
G54D12*
X643800Y930000D03*
X796200D03*
X643800Y4900000D03*
X796200D03*
X4763800Y1380000D03*
Y1120000D03*
Y930000D03*
X4759540Y1881570D03*
X4763800Y1630000D03*
X4813800Y3440000D03*
Y3260000D03*
Y3940000D03*
Y3690000D03*
Y4200000D03*
X4916200Y1380000D03*
Y1120000D03*
Y930000D03*
X4911940Y1881570D03*
X4916200Y1630000D03*
X4966200Y3440000D03*
Y3260000D03*
Y3940000D03*
Y3690000D03*
Y4200000D03*
X7183800Y750000D03*
X7336200D03*
X7183800Y480000D03*
X7336200D03*
X7133800Y5510000D03*
X7286200D03*
X7133800Y5270000D03*
X7286200D03*
X7883800Y1380000D03*
Y1210000D03*
X7873800Y4580000D03*
Y4410000D03*
X8036200Y1380000D03*
Y1210000D03*
X8026200Y4580000D03*
Y4410000D03*
G54D13*
X2000000Y735000D03*
X1746000D03*
X2000000Y1265000D03*
X1746000D03*
X2000000Y4735000D03*
X1746000D03*
X2000000Y5265000D03*
X1746000D03*
X2254000Y735000D03*
Y1265000D03*
Y4735000D03*
Y5265000D03*
G54D14*
X2034140Y3000000D03*
X1825860D03*
X4739540Y2292160D03*
X4725860Y4660000D03*
X4947820Y2292160D03*
X4934140Y4660000D03*
X7895860Y1580000D03*
Y4760000D03*
X8104140Y1580000D03*
Y4760000D03*
G54D15*
X3450000Y1119000D03*
Y1373000D03*
Y1627000D03*
Y1881000D03*
Y3439000D03*
Y3693000D03*
Y3947000D03*
Y4201000D03*
X4430000Y1373000D03*
Y1119000D03*
Y1881000D03*
Y1627000D03*
Y3439000D03*
Y3947000D03*
Y3693000D03*
Y4201000D03*
G54D16*
X4160000Y2300000D03*
X4130000Y4650000D03*
X4440000Y2300000D03*
X4410000Y4650000D03*
G54D17*
X6770000Y1400000D03*
Y1450000D03*
Y1500000D03*
Y1550000D03*
Y1600000D03*
Y4400000D03*
Y4450000D03*
Y4500000D03*
Y4550000D03*
Y4600000D03*
X7230000Y1600000D03*
Y1550000D03*
Y1500000D03*
Y1450000D03*
Y1400000D03*
Y4550000D03*
Y4500000D03*
Y4450000D03*
Y4400000D03*
Y4600000D03*
G54D18*
X7000000Y1500000D03*
Y4500000D03*
G54D19*
X8185000Y408800D03*
X8585000D03*
X8565000Y5591200D03*
X8165000D03*
M02*
