G04 ================== begin FILE IDENTIFICATION RECORD ==================*
G04 Layout Name:  BQ24090_TEST_V10A.brd*
G04 Film Name:    SilkScreen_Top*
G04 File Format:  Gerber RS274X*
G04 File Origin:  Cadence Allegro 16.6-2015-S088*
G04 Origin Date:  Thu Aug 31 17:17:54 2017*
G04 *
G04 Layer:  BOARD GEOMETRY/OUTLINE*
G04 Layer:  REF DES/SILKSCREEN_TOP*
G04 Layer:  PACKAGE GEOMETRY/SILKSCREEN_TOP*
G04 Layer:  BOARD GEOMETRY/SILKSCREEN_TOP*
G04 *
G04 Offset:    (0.0000 0.0000)*
G04 Mirror:    No*
G04 Mode:      Positive*
G04 Rotation:  0*
G04 FullContactRelief:  No*
G04 UndefLineWidth:     0.1524*
G04 ================== end FILE IDENTIFICATION RECORD ====================*
%FSLAX55Y55*MOMM*%
%IR0*IPPOS*OFA0.00000B0.00000*MIA0B0*SFA1.00000B1.00000*%
%ADD10C,.2032*%
%ADD11C,.254*%
%ADD12C,.1524*%
%ADD13C,.1778*%
G75*
%LPD*%
G75*
G36*
G01X3490000Y2000000D02*
G03I-40000J0D01*
G37*
G36*
G01Y4320000D02*
G03I-40000J0D01*
G37*
G36*
G01X4040000Y1170000D02*
X3940000D01*
Y1060000D01*
X4040000D01*
Y1170000D01*
G37*
G36*
G01Y1430000D02*
X3940000D01*
Y1320000D01*
X4040000D01*
Y1430000D01*
G37*
G36*
G01Y1680000D02*
X3940000D01*
Y1570000D01*
X4040000D01*
Y1680000D01*
G37*
G36*
G01Y1940000D02*
X3940000D01*
Y1820000D01*
X4040000D01*
Y1940000D01*
G37*
G36*
G01Y3490000D02*
X3940000D01*
Y3380000D01*
X4040000D01*
Y3490000D01*
G37*
G36*
G01Y3750000D02*
X3940000D01*
Y3640000D01*
X4040000D01*
Y3750000D01*
G37*
G36*
G01Y4000000D02*
X3940000D01*
Y3890000D01*
X4040000D01*
Y4000000D01*
G37*
G36*
G01Y4260000D02*
X3940000D01*
Y4140000D01*
X4040000D01*
Y4260000D01*
G37*
G36*
G01X6680000Y1600000D02*
G03I-30000J0D01*
G37*
G36*
G01Y4600000D02*
G03I-30000J0D01*
G37*
G54D10*
G01X182200Y841100D02*
X537800D01*
Y1018900D01*
X182200D01*
Y841100D01*
G01X192200Y4811100D02*
X547800D01*
Y4988900D01*
X192200D01*
Y4811100D01*
G01X859700Y993500D02*
Y866500D01*
G01D02*
X580300D01*
Y993500D01*
X859700D01*
G01Y4963500D02*
Y4836500D01*
G01D02*
X580300D01*
Y4963500D01*
X859700D01*
G01X1744580Y3081280D02*
G03Y2918720I106888J-81280D01*
G01X2117960Y3081280D02*
G02Y2918720I-106888J-81280D01*
G01X1744580D02*
X2115420D01*
G01Y3081280D02*
X1744580D01*
G01X3680000Y1098320D02*
X3758740D01*
X3702310Y1134340D01*
Y1085660D01*
G01X3695750Y1391420D02*
X3686560Y1385580D01*
X3681310Y1377790D01*
X3680000Y1369030D01*
X3681310Y1361240D01*
X3687870Y1353450D01*
X3695750Y1348580D01*
X3703620Y1347610D01*
X3712810Y1349550D01*
X3719370Y1356370D01*
X3722000Y1363180D01*
Y1371950D01*
G01Y1363180D02*
X3725930Y1357340D01*
X3732490Y1352470D01*
X3740370Y1350530D01*
X3748240Y1352470D01*
X3754800Y1357340D01*
X3758740Y1366110D01*
X3757430Y1374870D01*
X3752180Y1383630D01*
G01X3745620Y1638500D02*
X3753490Y1632660D01*
X3757430Y1625840D01*
X3758740Y1618050D01*
X3756120Y1608320D01*
X3749550Y1601500D01*
X3741680Y1599550D01*
X3733800Y1600530D01*
X3727240Y1604420D01*
X3714120Y1623890D01*
X3704930Y1632660D01*
X3691810Y1638500D01*
X3680000Y1640450D01*
Y1599550D01*
G01Y1870000D02*
X3758740D01*
X3742990Y1881680D01*
G01X3680000D02*
Y1858320D01*
G01Y3418320D02*
X3758740D01*
X3702310Y3454340D01*
Y3405660D01*
G01X3695750Y3711420D02*
X3686560Y3705580D01*
X3681310Y3697790D01*
X3680000Y3689030D01*
X3681310Y3681240D01*
X3687870Y3673450D01*
X3695750Y3668580D01*
X3703620Y3667610D01*
X3712810Y3669550D01*
X3719370Y3676370D01*
X3722000Y3683180D01*
Y3691950D01*
G01Y3683180D02*
X3725930Y3677340D01*
X3732490Y3672470D01*
X3740370Y3670530D01*
X3748240Y3672470D01*
X3754800Y3677340D01*
X3758740Y3686110D01*
X3757430Y3694870D01*
X3752180Y3703630D01*
G01X3745620Y3958500D02*
X3753490Y3952660D01*
X3757430Y3945840D01*
X3758740Y3938050D01*
X3756120Y3928320D01*
X3749550Y3921500D01*
X3741680Y3919550D01*
X3733800Y3920530D01*
X3727240Y3924420D01*
X3714120Y3943890D01*
X3704930Y3952660D01*
X3691810Y3958500D01*
X3680000Y3960450D01*
Y3919550D01*
G01Y4190000D02*
X3758740D01*
X3742990Y4201680D01*
G01X3680000D02*
Y4178320D01*
G01X4130000Y1919370D02*
X4131310Y1927160D01*
X4136560Y1933970D01*
X4144430Y1939820D01*
X4153620Y1943710D01*
X4164120Y1945660D01*
X4174620D01*
X4185120Y1943710D01*
X4194310Y1939820D01*
X4202180Y1933970D01*
X4207430Y1927160D01*
X4208740Y1919370D01*
X4207430Y1911580D01*
X4202180Y1904770D01*
X4194310Y1898920D01*
X4185120Y1895030D01*
X4174620Y1893080D01*
X4164120D01*
X4153620Y1895030D01*
X4144430Y1898920D01*
X4136560Y1904770D01*
X4131310Y1911580D01*
X4130000Y1919370D01*
G01Y1863020D02*
X4208740D01*
X4130000Y1818240D01*
X4208740D01*
G01X4130000Y4239370D02*
X4131310Y4247160D01*
X4136560Y4253970D01*
X4144430Y4259820D01*
X4153620Y4263710D01*
X4164120Y4265660D01*
X4174620D01*
X4185120Y4263710D01*
X4194310Y4259820D01*
X4202180Y4253970D01*
X4207430Y4247160D01*
X4208740Y4239370D01*
X4207430Y4231580D01*
X4202180Y4224770D01*
X4194310Y4218920D01*
X4185120Y4215030D01*
X4174620Y4213080D01*
X4164120D01*
X4153620Y4215030D01*
X4144430Y4218920D01*
X4136560Y4224770D01*
X4131310Y4231580D01*
X4130000Y4239370D01*
G01Y4183020D02*
X4208740D01*
X4130000Y4138240D01*
X4208740D01*
G01X4700300Y1316500D02*
Y1443500D01*
G01D02*
X4979700D01*
Y1316500D01*
X4700300D01*
G01Y1056500D02*
Y1183500D01*
G01D02*
X4979700D01*
Y1056500D01*
X4700300D01*
G01Y866500D02*
Y993500D01*
G01D02*
X4979700D01*
Y866500D01*
X4700300D01*
G01X4696040Y1818070D02*
Y1945070D01*
G01D02*
X4975440D01*
Y1818070D01*
X4696040D01*
G01X4700300Y1566500D02*
Y1693500D01*
G01D02*
X4979700D01*
Y1566500D01*
X4700300D01*
G01X4658260Y2373440D02*
G03Y2210880I106888J-81280D01*
G01D02*
X5029100D01*
G01Y2373440D02*
X4658260D01*
G01X4750300Y3376500D02*
Y3503500D01*
G01D02*
X5029700D01*
Y3376500D01*
X4750300D01*
G01Y3196500D02*
Y3323500D01*
G01D02*
X5029700D01*
Y3196500D01*
X4750300D01*
G01Y3876500D02*
Y4003500D01*
G01D02*
X5029700D01*
Y3876500D01*
X4750300D01*
G01Y3626500D02*
Y3753500D01*
G01D02*
X5029700D01*
Y3626500D01*
X4750300D01*
G01Y4136500D02*
Y4263500D01*
G01D02*
X5029700D01*
Y4136500D01*
X4750300D01*
G01X4644580Y4741280D02*
G03Y4578720I106888J-81280D01*
G01D02*
X5015420D01*
G01Y4741280D02*
X4644580D01*
G01X5031640Y2373440D02*
G02Y2210880I-106888J-81280D01*
G01X5017960Y4741280D02*
G02Y4578720I-106888J-81280D01*
G01X6682200Y661100D02*
X7037800D01*
Y838900D01*
X6682200D01*
Y661100D01*
G01Y391100D02*
X7037800D01*
Y568900D01*
X6682200D01*
Y391100D01*
G01X6652200Y5181100D02*
X7007800D01*
Y5358900D01*
X6652200D01*
Y5181100D01*
G01Y5421100D02*
X7007800D01*
Y5598900D01*
X6652200D01*
Y5421100D01*
G01X7399700Y813500D02*
Y686500D01*
G01D02*
X7120300D01*
Y813500D01*
X7399700D01*
G01Y543500D02*
Y416500D01*
G01D02*
X7120300D01*
Y543500D01*
X7399700D01*
G01X7349700Y5573500D02*
Y5446500D01*
G01D02*
X7070300D01*
Y5573500D01*
X7349700D01*
G01Y5333500D02*
Y5206500D01*
G01D02*
X7070300D01*
Y5333500D01*
X7349700D01*
G01X8099700Y1316500D02*
X7820300D01*
Y1443500D01*
X8099700D01*
G01Y1146500D02*
X7820300D01*
Y1273500D01*
X8099700D01*
G01X7814580Y1661280D02*
G03Y1498720I106888J-81280D01*
G01D02*
X8185420D01*
G01Y1661280D02*
X7814580D01*
G01X8089700Y4516500D02*
X7810300D01*
Y4643500D01*
X8089700D01*
G01Y4346500D02*
X7810300D01*
Y4473500D01*
X8089700D01*
G01X7814580Y4841280D02*
G03Y4678720I106888J-81280D01*
G01D02*
X8185420D01*
G01Y4841280D02*
X7814580D01*
G01X8099700Y1443500D02*
Y1316500D01*
G01Y1273500D02*
Y1146500D01*
G01X8187960Y1661280D02*
G02Y1498720I-106888J-81280D01*
G01X8089700Y4643500D02*
Y4516500D01*
G01Y4473500D02*
Y4346500D01*
G01X8187960Y4841280D02*
G02Y4678720I-106888J-81280D01*
G54D11*
G01X-50000Y3420000D02*
X1400000D01*
Y2520000D01*
X-50000D01*
Y3420000D01*
G01X50000Y2450000D02*
X760000D01*
Y2240000D01*
X50000D01*
Y2450000D01*
G01X1570000Y1430000D02*
X2430000D01*
Y570000D01*
X1570000D01*
Y1430000D01*
G01Y5430000D02*
X2430000D01*
Y4570000D01*
X1570000D01*
Y5430000D01*
G01X1870000Y1140000D02*
X2130000D01*
Y860000D01*
X1870000D01*
Y1140000D01*
G01Y5140000D02*
X2130000D01*
Y4860000D01*
X1870000D01*
Y5140000D01*
G01X3640000Y2010000D02*
Y990000D01*
X4240000D01*
Y2010000D01*
X3640000D01*
G01Y4330000D02*
Y3310000D01*
X4240000D01*
Y4330000D01*
X3640000D01*
G01X3940000Y1058000D02*
Y1178000D01*
X4040000D01*
Y1060000D01*
G01X3940000Y1312000D02*
Y1432000D01*
X4040000D01*
Y1320000D01*
G01X4090000Y1430000D02*
X3790000D01*
Y1310000D01*
X4090000D01*
Y1430000D01*
G01Y1180000D02*
X3790000D01*
Y1060000D01*
X4090000D01*
Y1180000D01*
G01X3940000Y1566000D02*
Y1686000D01*
X4040000D01*
Y1570000D01*
G01Y1940000D02*
X3940000D01*
Y1820000D01*
G01X4090000Y1690000D02*
X3790000D01*
Y1560000D01*
X4090000D01*
Y1690000D01*
G01Y1940000D02*
X3790000D01*
Y1820000D01*
X4090000D01*
Y1940000D01*
X4040000D01*
Y1820000D01*
G01X4051080Y2462560D02*
X4548920D01*
Y2137440D01*
X4051080D01*
Y2462560D01*
G01X3940000Y3378000D02*
Y3498000D01*
X4040000D01*
Y3380000D01*
G01X4090000Y3500000D02*
X3790000D01*
Y3380000D01*
X4090000D01*
Y3500000D01*
G01X3940000Y3632000D02*
Y3752000D01*
X4040000D01*
Y3640000D01*
G01X3940000Y3886000D02*
Y4006000D01*
X4040000D01*
Y3890000D01*
G01X4090000Y3750000D02*
X3790000D01*
Y3630000D01*
X4090000D01*
Y3750000D01*
G01Y4010000D02*
X3790000D01*
Y3880000D01*
X4090000D01*
Y4010000D01*
G01X4040000Y4260000D02*
X3940000D01*
Y4140000D01*
G01X4090000Y4260000D02*
X3790000D01*
Y4140000D01*
X4090000D01*
Y4260000D01*
X4040000D01*
Y4140000D01*
G01X4021080Y4812560D02*
X4518920D01*
Y4487440D01*
X4021080D01*
Y4812560D01*
G01X5140000Y1140000D02*
Y4860000D01*
X7660000D01*
Y1140000D01*
X5140000D01*
G01X6960000Y1660000D02*
X6880000D01*
Y1340000D01*
X7120000D01*
Y1660000D01*
X7040000D01*
G01X6960000Y4660000D02*
X6880000D01*
Y4340000D01*
X7120000D01*
Y4660000D01*
X7040000D01*
G01Y1660000D02*
G02X6960000I-40000J0D01*
G01X7040000Y4660000D02*
G02X6960000I-40000J0D01*
G01X8770000Y5300000D02*
X8020700D01*
X7969900Y5350800D01*
X7970000Y5920000D01*
X8020000Y5970000D01*
X8770000D01*
Y5300000D01*
G01X7980000Y700000D02*
X8729300D01*
X8780100Y649200D01*
X8780000Y80000D01*
X8730000Y30000D01*
X7980000D01*
Y700000D01*
G01X8630000D02*
Y800000D01*
X8130000D01*
Y700000D01*
X8630000D01*
G01X8480000Y930000D02*
X8690000D01*
G01X8290000D02*
X8080000D01*
G01X8060000Y5070000D02*
X8270000D01*
G01X8670000D02*
X8460000D01*
G01X8160000Y4960000D02*
Y5170000D01*
G01X8120000Y5300000D02*
Y5200000D01*
X8620000D01*
Y5300000D01*
X8120000D01*
G01X8580000Y820000D02*
Y1030000D01*
G01X9560000Y1510000D02*
G03I-300000J0D01*
G01X8810000Y1170000D02*
X9970000D01*
G01X8810000Y1120000D02*
Y2660000D01*
X9970000D01*
Y1120000D01*
X8810000D01*
G01X8550000Y1510000D02*
X8760000D01*
G01X8650000Y1400000D02*
Y1610000D01*
G01X8970000Y1550000D02*
X9220000D01*
Y1800000D01*
G01Y1220000D02*
Y1470000D01*
X8970000D01*
G01X8810000Y1865000D02*
X9970000D01*
G01X8760000Y2270000D02*
X8550000D01*
G01X8970000Y2310000D02*
X9220000D01*
Y2560000D01*
G01Y1980000D02*
Y2230000D01*
X8970000D01*
G01X9560000Y2272000D02*
G03I-300000J0D01*
G01X8810000Y1915000D02*
X9970000D01*
G01X8810000Y2610000D02*
X9970000D01*
G01X8810000Y3430000D02*
X9970000D01*
G01X8810000Y3380000D02*
Y4920000D01*
X9970000D01*
Y3380000D01*
X8810000D01*
G01X8650000Y3660000D02*
Y3870000D01*
G01X8550000Y3770000D02*
X8760000D01*
G01X8970000Y3810000D02*
X9220000D01*
Y4060000D01*
G01Y3480000D02*
Y3730000D01*
X8970000D01*
G01X9560000Y3770000D02*
G03I-300000J0D01*
G01X8760000Y4530000D02*
X8550000D01*
G01X9220000Y4240000D02*
Y4490000D01*
X8970000D01*
G01X9560000Y4532000D02*
G03I-300000J0D01*
G01X8810000Y4175000D02*
X9970000D01*
G01X8810000Y4125000D02*
X9970000D01*
G01X8970000Y4570000D02*
X9220000D01*
Y4820000D01*
G01X8810000Y4870000D02*
X9970000D01*
G01X9550000Y1470000D02*
X9300000D01*
Y1220000D01*
G01Y1800000D02*
Y1550000D01*
X9550000D01*
G01X9300000Y2560000D02*
Y2310000D01*
X9550000D01*
G01Y2230000D02*
X9300000D01*
Y1980000D01*
G01X9550000Y3730000D02*
X9300000D01*
Y3480000D01*
G01Y4060000D02*
Y3810000D01*
X9550000D01*
G01Y4490000D02*
X9300000D01*
Y4240000D01*
G01Y4820000D02*
Y4570000D01*
X9550000D01*
G54D12*
G01X330000Y0D02*
X9670000D01*
G03X10000000Y330000I0J330000D01*
G01Y5670000D01*
G03X9670000Y6000000I-330000J0D01*
G01X330000D01*
G03X0Y5670000I0J-330000D01*
G01Y330000D01*
G03X330000Y0I330000J0D01*
G01X40670Y3480000D02*
Y3590000D01*
X67330D01*
X78000Y3584500D01*
X86000Y3577170D01*
X92670Y3566170D01*
X98000Y3553330D01*
X99330Y3535000D01*
X98000Y3516670D01*
X92670Y3503830D01*
X86000Y3492830D01*
X78000Y3485500D01*
X67330Y3480000D01*
X40670D01*
G01X189330Y3580830D02*
X181330Y3586330D01*
X172000Y3590000D01*
X161330D01*
X149330Y3584500D01*
X140000Y3575330D01*
X133330Y3564330D01*
X128000Y3546000D01*
X126670Y3529500D01*
X129330Y3513000D01*
X133330Y3502000D01*
X141330Y3491000D01*
X150670Y3483670D01*
X160000Y3480000D01*
X169330D01*
X178670Y3483670D01*
X186670Y3489160D01*
X193330Y3496500D01*
G01X250000Y3480000D02*
Y3590000D01*
X234000Y3568000D01*
G01Y3480000D02*
X266000D01*
G01X200670Y1060000D02*
Y1170000D01*
X227330D01*
X238000Y1164500D01*
X246000Y1157170D01*
X252670Y1146170D01*
X258000Y1133330D01*
X259330Y1115000D01*
X258000Y1096670D01*
X252670Y1083830D01*
X246000Y1072830D01*
X238000Y1065500D01*
X227330Y1060000D01*
X200670D01*
G01X294670Y1105830D02*
X304000Y1118670D01*
X312000Y1126000D01*
X322670Y1129670D01*
X332000Y1126000D01*
X338670Y1118670D01*
X344000Y1107670D01*
X345330Y1094830D01*
X344000Y1083830D01*
X338670Y1072830D01*
X330670Y1063670D01*
X321330Y1060000D01*
X310670Y1063670D01*
X301330Y1074660D01*
X296000Y1091170D01*
X294670Y1109500D01*
X297330Y1133330D01*
X301330Y1146170D01*
X308000Y1159000D01*
X317330Y1168170D01*
X326670Y1170000D01*
X336000Y1166330D01*
X342670Y1157170D01*
G01X583330Y1050000D02*
Y1160000D01*
X616670D01*
X627330Y1154500D01*
X634000Y1147170D01*
X636670Y1132500D01*
X634000Y1117830D01*
X626000Y1108670D01*
X616670Y1103170D01*
X583330D01*
G01X616670D02*
X636670Y1050000D01*
G01X674670Y1141670D02*
X682670Y1152660D01*
X692000Y1158170D01*
X702670Y1160000D01*
X716000Y1156330D01*
X725330Y1147170D01*
X728000Y1136170D01*
X726670Y1125160D01*
X721330Y1116000D01*
X694670Y1097670D01*
X682670Y1084830D01*
X674670Y1066500D01*
X672000Y1050000D01*
X728000D01*
G01X790000Y1160000D02*
X779330Y1156330D01*
X771330Y1147170D01*
X766000Y1136170D01*
X762000Y1121500D01*
X760670Y1105000D01*
X762000Y1088500D01*
X766000Y1073830D01*
X771330Y1062830D01*
X779330Y1053670D01*
X790000Y1050000D01*
X800670Y1053670D01*
X808670Y1062830D01*
X814000Y1073830D01*
X818000Y1088500D01*
X819330Y1105000D01*
X818000Y1121500D01*
X814000Y1136170D01*
X808670Y1147170D01*
X800670Y1156330D01*
X790000Y1160000D01*
G01X100670Y2290000D02*
Y2400000D01*
X127330D01*
X138000Y2394500D01*
X146000Y2387170D01*
X152670Y2376170D01*
X158000Y2363330D01*
X159330Y2345000D01*
X158000Y2326670D01*
X152670Y2313830D01*
X146000Y2302830D01*
X138000Y2295500D01*
X127330Y2290000D01*
X100670D01*
G01X249330Y2390830D02*
X241330Y2396330D01*
X232000Y2400000D01*
X221330D01*
X209330Y2394500D01*
X200000Y2385330D01*
X193330Y2374330D01*
X188000Y2356000D01*
X186670Y2339500D01*
X189330Y2323000D01*
X193330Y2312000D01*
X201330Y2301000D01*
X210670Y2293670D01*
X220000Y2290000D01*
X229330D01*
X238670Y2293670D01*
X246670Y2299160D01*
X253330Y2306500D01*
G01X280670D02*
X288670Y2297330D01*
X298000Y2291830D01*
X310000Y2290000D01*
X322000Y2293670D01*
X331330Y2301000D01*
X338000Y2313830D01*
X339330Y2328500D01*
X336670Y2343170D01*
X330000Y2352330D01*
X320670Y2359670D01*
X311330Y2361500D01*
X302000Y2359670D01*
X290000Y2352330D01*
X294000Y2400000D01*
X330000D01*
G01X366670D02*
X400000Y2290000D01*
X433330Y2400000D01*
G01X554670Y2381670D02*
X562670Y2392660D01*
X572000Y2398170D01*
X582670Y2400000D01*
X596000Y2396330D01*
X605330Y2387170D01*
X608000Y2376170D01*
X606670Y2365160D01*
X601330Y2356000D01*
X574670Y2337670D01*
X562670Y2324830D01*
X554670Y2306500D01*
X552000Y2290000D01*
X608000D01*
G01X636670D02*
X670000Y2400000D01*
X703330Y2290000D01*
G01X691330Y2328500D02*
X648670D01*
G01X200670Y5030000D02*
Y5140000D01*
X227330D01*
X238000Y5134500D01*
X246000Y5127170D01*
X252670Y5116170D01*
X258000Y5103330D01*
X259330Y5085000D01*
X258000Y5066670D01*
X252670Y5053830D01*
X246000Y5042830D01*
X238000Y5035500D01*
X227330Y5030000D01*
X200670D01*
G01X290670Y5052000D02*
X298670Y5039160D01*
X309330Y5031830D01*
X321330Y5030000D01*
X332000Y5031830D01*
X342670Y5041000D01*
X349330Y5052000D01*
X350670Y5063000D01*
X348000Y5075830D01*
X338670Y5085000D01*
X329330Y5088670D01*
X317330D01*
G01X329330D02*
X337330Y5094170D01*
X344000Y5103330D01*
X346670Y5114330D01*
X344000Y5125330D01*
X337330Y5134500D01*
X325330Y5140000D01*
X313330Y5138170D01*
X301330Y5130830D01*
G01X696010Y385880D02*
Y495880D01*
X730680Y404210D01*
X765350Y495880D01*
Y385880D01*
G01X792680D02*
Y495880D01*
G01X848680D02*
Y385880D01*
G01Y440880D02*
X792680D01*
G01X910680Y385880D02*
Y495880D01*
X894680Y473880D01*
G01Y385880D02*
X926680D01*
G01X593330Y5020000D02*
Y5130000D01*
X626670D01*
X637330Y5124500D01*
X644000Y5117170D01*
X646670Y5102500D01*
X644000Y5087830D01*
X636000Y5078670D01*
X626670Y5073170D01*
X593330D01*
G01X626670D02*
X646670Y5020000D01*
G01X710000D02*
Y5130000D01*
X694000Y5108000D01*
G01Y5020000D02*
X726000D01*
G01X800000Y5130000D02*
X789330Y5126330D01*
X781330Y5117170D01*
X776000Y5106170D01*
X772000Y5091500D01*
X770670Y5075000D01*
X772000Y5058500D01*
X776000Y5043830D01*
X781330Y5032830D01*
X789330Y5023670D01*
X800000Y5020000D01*
X810670Y5023670D01*
X818670Y5032830D01*
X824000Y5043830D01*
X828000Y5058500D01*
X829330Y5075000D01*
X828000Y5091500D01*
X824000Y5106170D01*
X818670Y5117170D01*
X810670Y5126330D01*
X800000Y5130000D01*
G01X696010Y5725880D02*
Y5835880D01*
X730680Y5744210D01*
X765350Y5835880D01*
Y5725880D01*
G01X792680D02*
Y5835880D01*
G01X848680D02*
Y5725880D01*
G01Y5780880D02*
X792680D01*
G01X926680Y5725880D02*
Y5835880D01*
X877350Y5757050D01*
X944010D01*
G01X1655670Y1570000D02*
Y1491170D01*
X1661000Y1474660D01*
X1671670Y1463670D01*
X1685000Y1460000D01*
X1698330Y1463670D01*
X1709000Y1474660D01*
X1714330Y1491170D01*
Y1570000D01*
G01X1791000Y1460000D02*
Y1570000D01*
X1741670Y1491170D01*
X1808330D01*
G01X1839330Y3220830D02*
X1831330Y3226330D01*
X1822000Y3230000D01*
X1811330D01*
X1799330Y3224500D01*
X1790000Y3215330D01*
X1783330Y3204330D01*
X1778000Y3186000D01*
X1776670Y3169500D01*
X1779330Y3153000D01*
X1783330Y3142000D01*
X1791330Y3131000D01*
X1800670Y3123670D01*
X1810000Y3120000D01*
X1819330D01*
X1828670Y3123670D01*
X1836670Y3129160D01*
X1843330Y3136500D01*
G01X1900000Y3120000D02*
Y3230000D01*
X1884000Y3208000D01*
G01Y3120000D02*
X1916000D01*
G01X1655670Y5570000D02*
Y5491170D01*
X1661000Y5474660D01*
X1671670Y5463670D01*
X1685000Y5460000D01*
X1698330Y5463670D01*
X1709000Y5474660D01*
X1714330Y5491170D01*
Y5570000D01*
G01X1749670Y5551670D02*
X1757670Y5562660D01*
X1767000Y5568170D01*
X1777670Y5570000D01*
X1791000Y5566330D01*
X1800330Y5557170D01*
X1803000Y5546170D01*
X1801670Y5535160D01*
X1796330Y5526000D01*
X1769670Y5507670D01*
X1757670Y5494830D01*
X1749670Y5476500D01*
X1747000Y5460000D01*
X1803000D01*
G01X2970000Y1430000D02*
X2959330Y1426330D01*
X2951330Y1417170D01*
X2946000Y1406170D01*
X2942000Y1391500D01*
X2940670Y1375000D01*
X2942000Y1358500D01*
X2946000Y1343830D01*
X2951330Y1332830D01*
X2959330Y1323670D01*
X2970000Y1320000D01*
X2980670Y1323670D01*
X2988670Y1332830D01*
X2994000Y1343830D01*
X2998000Y1358500D01*
X2999330Y1375000D01*
X2998000Y1391500D01*
X2994000Y1406170D01*
X2988670Y1417170D01*
X2980670Y1426330D01*
X2970000Y1430000D01*
G01X3060000Y1316330D02*
X3057330Y1318170D01*
Y1321830D01*
X3060000Y1323670D01*
X3062670Y1321830D01*
Y1318170D01*
X3060000Y1316330D01*
G01X3127330Y1332830D02*
X3136670Y1323670D01*
X3147330Y1320000D01*
X3158000Y1323670D01*
X3167330Y1334660D01*
X3174000Y1351170D01*
X3176670Y1367670D01*
Y1387830D01*
X3174000Y1404330D01*
X3167330Y1419000D01*
X3159330Y1426330D01*
X3150000Y1430000D01*
X3139330Y1426330D01*
X3131330Y1419000D01*
X3126000Y1408000D01*
X3123330Y1393330D01*
X3126000Y1380500D01*
X3132670Y1367670D01*
X3140670Y1360330D01*
X3150000Y1358500D01*
X3160670Y1362160D01*
X3168670Y1371330D01*
X3176670Y1387830D01*
G01X3206670Y1320000D02*
X3240000Y1430000D01*
X3273330Y1320000D01*
G01X3261330Y1358500D02*
X3218670D01*
G01X2970000Y1060000D02*
Y1170000D01*
X2954000Y1148000D01*
G01Y1060000D02*
X2986000D01*
G01X3060000Y1056330D02*
X3057330Y1058170D01*
Y1061830D01*
X3060000Y1063670D01*
X3062670Y1061830D01*
Y1058170D01*
X3060000Y1056330D01*
G01X3150000Y1170000D02*
X3139330Y1166330D01*
X3131330Y1157170D01*
X3126000Y1146170D01*
X3122000Y1131500D01*
X3120670Y1115000D01*
X3122000Y1098500D01*
X3126000Y1083830D01*
X3131330Y1072830D01*
X3139330Y1063670D01*
X3150000Y1060000D01*
X3160670Y1063670D01*
X3168670Y1072830D01*
X3174000Y1083830D01*
X3178000Y1098500D01*
X3179330Y1115000D01*
X3178000Y1131500D01*
X3174000Y1146170D01*
X3168670Y1157170D01*
X3160670Y1166330D01*
X3150000Y1170000D01*
G01X3206670Y1060000D02*
X3240000Y1170000D01*
X3273330Y1060000D01*
G01X3261330Y1098500D02*
X3218670D01*
G01X2960000Y1930000D02*
X2949330Y1926330D01*
X2941330Y1917170D01*
X2936000Y1906170D01*
X2932000Y1891500D01*
X2930670Y1875000D01*
X2932000Y1858500D01*
X2936000Y1843830D01*
X2941330Y1832830D01*
X2949330Y1823670D01*
X2960000Y1820000D01*
X2970670Y1823670D01*
X2978670Y1832830D01*
X2984000Y1843830D01*
X2988000Y1858500D01*
X2989330Y1875000D01*
X2988000Y1891500D01*
X2984000Y1906170D01*
X2978670Y1917170D01*
X2970670Y1926330D01*
X2960000Y1930000D01*
G01X3050000Y1816330D02*
X3047330Y1818170D01*
Y1821830D01*
X3050000Y1823670D01*
X3052670Y1821830D01*
Y1818170D01*
X3050000Y1816330D01*
G01X3110670Y1842000D02*
X3118670Y1829160D01*
X3129330Y1821830D01*
X3141330Y1820000D01*
X3152000Y1821830D01*
X3162670Y1831000D01*
X3169330Y1842000D01*
X3170670Y1853000D01*
X3168000Y1865830D01*
X3158670Y1875000D01*
X3149330Y1878670D01*
X3137330D01*
G01X3149330D02*
X3157330Y1884170D01*
X3164000Y1893330D01*
X3166670Y1904330D01*
X3164000Y1915330D01*
X3157330Y1924500D01*
X3145330Y1930000D01*
X3133330Y1928170D01*
X3121330Y1920830D01*
G01X3196670Y1820000D02*
X3230000Y1930000D01*
X3263330Y1820000D01*
G01X3251330Y1858500D02*
X3208670D01*
G01X2960000Y1670000D02*
X2949330Y1666330D01*
X2941330Y1657170D01*
X2936000Y1646170D01*
X2932000Y1631500D01*
X2930670Y1615000D01*
X2932000Y1598500D01*
X2936000Y1583830D01*
X2941330Y1572830D01*
X2949330Y1563670D01*
X2960000Y1560000D01*
X2970670Y1563670D01*
X2978670Y1572830D01*
X2984000Y1583830D01*
X2988000Y1598500D01*
X2989330Y1615000D01*
X2988000Y1631500D01*
X2984000Y1646170D01*
X2978670Y1657170D01*
X2970670Y1666330D01*
X2960000Y1670000D01*
G01X3050000Y1556330D02*
X3047330Y1558170D01*
Y1561830D01*
X3050000Y1563670D01*
X3052670Y1561830D01*
Y1558170D01*
X3050000Y1556330D01*
G01X3114670Y1605830D02*
X3124000Y1618670D01*
X3132000Y1626000D01*
X3142670Y1629670D01*
X3152000Y1626000D01*
X3158670Y1618670D01*
X3164000Y1607670D01*
X3165330Y1594830D01*
X3164000Y1583830D01*
X3158670Y1572830D01*
X3150670Y1563670D01*
X3141330Y1560000D01*
X3130670Y1563670D01*
X3121330Y1574660D01*
X3116000Y1591170D01*
X3114670Y1609500D01*
X3117330Y1633330D01*
X3121330Y1646170D01*
X3128000Y1659000D01*
X3137330Y1668170D01*
X3146670Y1670000D01*
X3156000Y1666330D01*
X3162670Y1657170D01*
G01X3196670Y1560000D02*
X3230000Y1670000D01*
X3263330Y1560000D01*
G01X3251330Y1598500D02*
X3208670D01*
G01X2960000Y3380000D02*
Y3490000D01*
X2944000Y3468000D01*
G01Y3380000D02*
X2976000D01*
G01X3050000Y3376330D02*
X3047330Y3378170D01*
Y3381830D01*
X3050000Y3383670D01*
X3052670Y3381830D01*
Y3378170D01*
X3050000Y3376330D01*
G01X3140000Y3490000D02*
X3129330Y3486330D01*
X3121330Y3477170D01*
X3116000Y3466170D01*
X3112000Y3451500D01*
X3110670Y3435000D01*
X3112000Y3418500D01*
X3116000Y3403830D01*
X3121330Y3392830D01*
X3129330Y3383670D01*
X3140000Y3380000D01*
X3150670Y3383670D01*
X3158670Y3392830D01*
X3164000Y3403830D01*
X3168000Y3418500D01*
X3169330Y3435000D01*
X3168000Y3451500D01*
X3164000Y3466170D01*
X3158670Y3477170D01*
X3150670Y3486330D01*
X3140000Y3490000D01*
G01X3196670Y3380000D02*
X3230000Y3490000D01*
X3263330Y3380000D01*
G01X3251330Y3418500D02*
X3208670D01*
G01X2960000Y3750000D02*
X2949330Y3746330D01*
X2941330Y3737170D01*
X2936000Y3726170D01*
X2932000Y3711500D01*
X2930670Y3695000D01*
X2932000Y3678500D01*
X2936000Y3663830D01*
X2941330Y3652830D01*
X2949330Y3643670D01*
X2960000Y3640000D01*
X2970670Y3643670D01*
X2978670Y3652830D01*
X2984000Y3663830D01*
X2988000Y3678500D01*
X2989330Y3695000D01*
X2988000Y3711500D01*
X2984000Y3726170D01*
X2978670Y3737170D01*
X2970670Y3746330D01*
X2960000Y3750000D01*
G01X3050000Y3636330D02*
X3047330Y3638170D01*
Y3641830D01*
X3050000Y3643670D01*
X3052670Y3641830D01*
Y3638170D01*
X3050000Y3636330D01*
G01X3117330Y3652830D02*
X3126670Y3643670D01*
X3137330Y3640000D01*
X3148000Y3643670D01*
X3157330Y3654660D01*
X3164000Y3671170D01*
X3166670Y3687670D01*
Y3707830D01*
X3164000Y3724330D01*
X3157330Y3739000D01*
X3149330Y3746330D01*
X3140000Y3750000D01*
X3129330Y3746330D01*
X3121330Y3739000D01*
X3116000Y3728000D01*
X3113330Y3713330D01*
X3116000Y3700500D01*
X3122670Y3687670D01*
X3130670Y3680330D01*
X3140000Y3678500D01*
X3150670Y3682160D01*
X3158670Y3691330D01*
X3166670Y3707830D01*
G01X3196670Y3640000D02*
X3230000Y3750000D01*
X3263330Y3640000D01*
G01X3251330Y3678500D02*
X3208670D01*
G01X2950000Y3990000D02*
X2939330Y3986330D01*
X2931330Y3977170D01*
X2926000Y3966170D01*
X2922000Y3951500D01*
X2920670Y3935000D01*
X2922000Y3918500D01*
X2926000Y3903830D01*
X2931330Y3892830D01*
X2939330Y3883670D01*
X2950000Y3880000D01*
X2960670Y3883670D01*
X2968670Y3892830D01*
X2974000Y3903830D01*
X2978000Y3918500D01*
X2979330Y3935000D01*
X2978000Y3951500D01*
X2974000Y3966170D01*
X2968670Y3977170D01*
X2960670Y3986330D01*
X2950000Y3990000D01*
G01X3040000Y3876330D02*
X3037330Y3878170D01*
Y3881830D01*
X3040000Y3883670D01*
X3042670Y3881830D01*
Y3878170D01*
X3040000Y3876330D01*
G01X3104670Y3925830D02*
X3114000Y3938670D01*
X3122000Y3946000D01*
X3132670Y3949670D01*
X3142000Y3946000D01*
X3148670Y3938670D01*
X3154000Y3927670D01*
X3155330Y3914830D01*
X3154000Y3903830D01*
X3148670Y3892830D01*
X3140670Y3883670D01*
X3131330Y3880000D01*
X3120670Y3883670D01*
X3111330Y3894660D01*
X3106000Y3911170D01*
X3104670Y3929500D01*
X3107330Y3953330D01*
X3111330Y3966170D01*
X3118000Y3979000D01*
X3127330Y3988170D01*
X3136670Y3990000D01*
X3146000Y3986330D01*
X3152670Y3977170D01*
G01X3186670Y3880000D02*
X3220000Y3990000D01*
X3253330Y3880000D01*
G01X3241330Y3918500D02*
X3198670D01*
G01X2950000Y4250000D02*
X2939330Y4246330D01*
X2931330Y4237170D01*
X2926000Y4226170D01*
X2922000Y4211500D01*
X2920670Y4195000D01*
X2922000Y4178500D01*
X2926000Y4163830D01*
X2931330Y4152830D01*
X2939330Y4143670D01*
X2950000Y4140000D01*
X2960670Y4143670D01*
X2968670Y4152830D01*
X2974000Y4163830D01*
X2978000Y4178500D01*
X2979330Y4195000D01*
X2978000Y4211500D01*
X2974000Y4226170D01*
X2968670Y4237170D01*
X2960670Y4246330D01*
X2950000Y4250000D01*
G01X3040000Y4136330D02*
X3037330Y4138170D01*
Y4141830D01*
X3040000Y4143670D01*
X3042670Y4141830D01*
Y4138170D01*
X3040000Y4136330D01*
G01X3100670Y4162000D02*
X3108670Y4149160D01*
X3119330Y4141830D01*
X3131330Y4140000D01*
X3142000Y4141830D01*
X3152670Y4151000D01*
X3159330Y4162000D01*
X3160670Y4173000D01*
X3158000Y4185830D01*
X3148670Y4195000D01*
X3139330Y4198670D01*
X3127330D01*
G01X3139330D02*
X3147330Y4204170D01*
X3154000Y4213330D01*
X3156670Y4224330D01*
X3154000Y4235330D01*
X3147330Y4244500D01*
X3135330Y4250000D01*
X3123330Y4248170D01*
X3111330Y4240830D01*
G01X3186670Y4140000D02*
X3220000Y4250000D01*
X3253330Y4140000D01*
G01X3241330Y4178500D02*
X3198670D01*
G01X3380000Y940000D02*
X3369330Y936330D01*
X3361330Y927170D01*
X3356000Y916170D01*
X3352000Y901500D01*
X3350670Y885000D01*
X3352000Y868500D01*
X3356000Y853830D01*
X3361330Y842830D01*
X3369330Y833670D01*
X3380000Y830000D01*
X3390670Y833670D01*
X3398670Y842830D01*
X3404000Y853830D01*
X3408000Y868500D01*
X3409330Y885000D01*
X3408000Y901500D01*
X3404000Y916170D01*
X3398670Y927170D01*
X3390670Y936330D01*
X3380000Y940000D01*
G01X3444670Y830000D02*
Y940000D01*
X3495330D01*
G01X3476670Y886830D02*
X3444670D01*
G01X3534670Y830000D02*
Y940000D01*
X3585330D01*
G01X3566670Y886830D02*
X3534670D01*
G01X3682000Y2074660D02*
X3692670Y2065500D01*
X3704670Y2060000D01*
X3715330D01*
X3726000Y2065500D01*
X3734000Y2074660D01*
X3738000Y2087500D01*
X3735330Y2100330D01*
X3728670Y2111330D01*
X3716670Y2118670D01*
X3700670Y2122330D01*
X3691330Y2129670D01*
X3687330Y2142500D01*
X3690000Y2155330D01*
X3696670Y2164500D01*
X3706000Y2170000D01*
X3715330D01*
X3724670Y2166330D01*
X3732670Y2157170D01*
G01X3760000Y2170000D02*
X3778670Y2060000D01*
X3800000Y2170000D01*
X3821330Y2060000D01*
X3840000Y2170000D01*
G01X3864670Y2151670D02*
X3872670Y2162660D01*
X3882000Y2168170D01*
X3892670Y2170000D01*
X3906000Y2166330D01*
X3915330Y2157170D01*
X3918000Y2146170D01*
X3916670Y2135160D01*
X3911330Y2126000D01*
X3884670Y2107670D01*
X3872670Y2094830D01*
X3864670Y2076500D01*
X3862000Y2060000D01*
X3918000D01*
G01X3390000Y3240000D02*
X3379330Y3236330D01*
X3371330Y3227170D01*
X3366000Y3216170D01*
X3362000Y3201500D01*
X3360670Y3185000D01*
X3362000Y3168500D01*
X3366000Y3153830D01*
X3371330Y3142830D01*
X3379330Y3133670D01*
X3390000Y3130000D01*
X3400670Y3133670D01*
X3408670Y3142830D01*
X3414000Y3153830D01*
X3418000Y3168500D01*
X3419330Y3185000D01*
X3418000Y3201500D01*
X3414000Y3216170D01*
X3408670Y3227170D01*
X3400670Y3236330D01*
X3390000Y3240000D01*
G01X3454670Y3130000D02*
Y3240000D01*
X3505330D01*
G01X3486670Y3186830D02*
X3454670D01*
G01X3544670Y3130000D02*
Y3240000D01*
X3595330D01*
G01X3576670Y3186830D02*
X3544670D01*
G01X3682000Y4394660D02*
X3692670Y4385500D01*
X3704670Y4380000D01*
X3715330D01*
X3726000Y4385500D01*
X3734000Y4394660D01*
X3738000Y4407500D01*
X3735330Y4420330D01*
X3728670Y4431330D01*
X3716670Y4438670D01*
X3700670Y4442330D01*
X3691330Y4449670D01*
X3687330Y4462500D01*
X3690000Y4475330D01*
X3696670Y4484500D01*
X3706000Y4490000D01*
X3715330D01*
X3724670Y4486330D01*
X3732670Y4477170D01*
G01X3760000Y4490000D02*
X3778670Y4380000D01*
X3800000Y4490000D01*
X3821330Y4380000D01*
X3840000Y4490000D01*
G01X3890000Y4380000D02*
Y4490000D01*
X3874000Y4468000D01*
G01Y4380000D02*
X3906000D01*
G01X4064670Y2500000D02*
Y2610000D01*
X4115330D01*
G01X4096670Y2556830D02*
X4064670D01*
G01X4154670Y2591670D02*
X4162670Y2602660D01*
X4172000Y2608170D01*
X4182670Y2610000D01*
X4196000Y2606330D01*
X4205330Y2597170D01*
X4208000Y2586170D01*
X4206670Y2575160D01*
X4201330Y2566000D01*
X4174670Y2547670D01*
X4162670Y2534830D01*
X4154670Y2516500D01*
X4152000Y2500000D01*
X4208000D01*
G01X4024670Y4850000D02*
Y4960000D01*
X4075330D01*
G01X4056670Y4906830D02*
X4024670D01*
G01X4140000Y4850000D02*
Y4960000D01*
X4124000Y4938000D01*
G01Y4850000D02*
X4156000D01*
G01X4723330Y282500D02*
Y392500D01*
X4756670D01*
X4767330Y387000D01*
X4774000Y379670D01*
X4776670Y365000D01*
X4774000Y350330D01*
X4766000Y341170D01*
X4756670Y335670D01*
X4723330D01*
G01X4756670D02*
X4776670Y282500D01*
G01X4840000D02*
Y392500D01*
X4824000Y370500D01*
G01Y282500D02*
X4856000D01*
G01X4904670Y328330D02*
X4914000Y341170D01*
X4922000Y348500D01*
X4932670Y352170D01*
X4942000Y348500D01*
X4948670Y341170D01*
X4954000Y330170D01*
X4955330Y317330D01*
X4954000Y306330D01*
X4948670Y295330D01*
X4940670Y286170D01*
X4931330Y282500D01*
X4920670Y286170D01*
X4911330Y297160D01*
X4906000Y313670D01*
X4904670Y332000D01*
X4907330Y355830D01*
X4911330Y368670D01*
X4918000Y381500D01*
X4927330Y390670D01*
X4936670Y392500D01*
X4946000Y388830D01*
X4952670Y379670D01*
G01X4723330Y140000D02*
Y250000D01*
X4756670D01*
X4767330Y244500D01*
X4774000Y237170D01*
X4776670Y222500D01*
X4774000Y207830D01*
X4766000Y198670D01*
X4756670Y193170D01*
X4723330D01*
G01X4756670D02*
X4776670Y140000D01*
G01X4840000D02*
Y250000D01*
X4824000Y228000D01*
G01Y140000D02*
X4856000D01*
G01X4927330D02*
X4930000Y163830D01*
X4934000Y184000D01*
X4939330Y202330D01*
X4946000Y222500D01*
X4956670Y250000D01*
X4903330D01*
G01X4370000Y840000D02*
X4359330Y841830D01*
X4350000Y849160D01*
X4342000Y860170D01*
X4336670Y873000D01*
X4334000Y887670D01*
Y902330D01*
X4336670Y917000D01*
X4342000Y929830D01*
X4350000Y940830D01*
X4359330Y948170D01*
X4370000Y950000D01*
X4380670Y948170D01*
X4390000Y940830D01*
X4398000Y929830D01*
X4403330Y917000D01*
X4406000Y902330D01*
Y887670D01*
X4403330Y873000D01*
X4398000Y860170D01*
X4390000Y849160D01*
X4380670Y841830D01*
X4370000Y840000D01*
G01X4429330D02*
Y950000D01*
X4490670Y840000D01*
Y950000D01*
G01X4723330Y710000D02*
Y820000D01*
X4756670D01*
X4767330Y814500D01*
X4774000Y807170D01*
X4776670Y792500D01*
X4774000Y777830D01*
X4766000Y768670D01*
X4756670Y763170D01*
X4723330D01*
G01X4756670D02*
X4776670Y710000D01*
G01X4840000D02*
Y820000D01*
X4824000Y798000D01*
G01Y710000D02*
X4856000D01*
G01X4900670Y732000D02*
X4908670Y719160D01*
X4919330Y711830D01*
X4931330Y710000D01*
X4942000Y711830D01*
X4952670Y721000D01*
X4959330Y732000D01*
X4960670Y743000D01*
X4958000Y755830D01*
X4948670Y765000D01*
X4939330Y768670D01*
X4927330D01*
G01X4939330D02*
X4947330Y774170D01*
X4954000Y783330D01*
X4956670Y794330D01*
X4954000Y805330D01*
X4947330Y814500D01*
X4935330Y820000D01*
X4923330Y818170D01*
X4911330Y810830D01*
G01X4723330Y567500D02*
Y677500D01*
X4756670D01*
X4767330Y672000D01*
X4774000Y664670D01*
X4776670Y650000D01*
X4774000Y635330D01*
X4766000Y626170D01*
X4756670Y620670D01*
X4723330D01*
G01X4756670D02*
X4776670Y567500D01*
G01X4840000D02*
Y677500D01*
X4824000Y655500D01*
G01Y567500D02*
X4856000D01*
G01X4946000D02*
Y677500D01*
X4896670Y598670D01*
X4963330D01*
G01X4723330Y425000D02*
Y535000D01*
X4756670D01*
X4767330Y529500D01*
X4774000Y522170D01*
X4776670Y507500D01*
X4774000Y492830D01*
X4766000Y483670D01*
X4756670Y478170D01*
X4723330D01*
G01X4756670D02*
X4776670Y425000D01*
G01X4840000D02*
Y535000D01*
X4824000Y513000D01*
G01Y425000D02*
X4856000D01*
G01X4900670Y441500D02*
X4908670Y432330D01*
X4918000Y426830D01*
X4930000Y425000D01*
X4942000Y428670D01*
X4951330Y436000D01*
X4958000Y448830D01*
X4959330Y463500D01*
X4956670Y478170D01*
X4950000Y487330D01*
X4940670Y494670D01*
X4931330Y496500D01*
X4922000Y494670D01*
X4910000Y487330D01*
X4914000Y535000D01*
X4950000D01*
G01X4719330Y2160830D02*
X4711330Y2166330D01*
X4702000Y2170000D01*
X4691330D01*
X4679330Y2164500D01*
X4670000Y2155330D01*
X4663330Y2144330D01*
X4658000Y2126000D01*
X4656670Y2109500D01*
X4659330Y2093000D01*
X4663330Y2082000D01*
X4671330Y2071000D01*
X4680670Y2063670D01*
X4690000Y2060000D01*
X4699330D01*
X4708670Y2063670D01*
X4716670Y2069160D01*
X4723330Y2076500D01*
G01X4750670D02*
X4758670Y2067330D01*
X4768000Y2061830D01*
X4780000Y2060000D01*
X4792000Y2063670D01*
X4801330Y2071000D01*
X4808000Y2083830D01*
X4809330Y2098500D01*
X4806670Y2113170D01*
X4800000Y2122330D01*
X4790670Y2129670D01*
X4781330Y2131500D01*
X4772000Y2129670D01*
X4760000Y2122330D01*
X4764000Y2170000D01*
X4800000D01*
G01X4753330Y2907500D02*
Y3017500D01*
X4786670D01*
X4797330Y3012000D01*
X4804000Y3004670D01*
X4806670Y2990000D01*
X4804000Y2975330D01*
X4796000Y2966170D01*
X4786670Y2960670D01*
X4753330D01*
G01X4786670D02*
X4806670Y2907500D01*
G01X4886000D02*
Y3017500D01*
X4836670Y2938670D01*
X4903330D01*
G01X4753330Y2622500D02*
Y2732500D01*
X4786670D01*
X4797330Y2727000D01*
X4804000Y2719670D01*
X4806670Y2705000D01*
X4804000Y2690330D01*
X4796000Y2681170D01*
X4786670Y2675670D01*
X4753330D01*
G01X4786670D02*
X4806670Y2622500D01*
G01X4844670Y2668330D02*
X4854000Y2681170D01*
X4862000Y2688500D01*
X4872670Y2692170D01*
X4882000Y2688500D01*
X4888670Y2681170D01*
X4894000Y2670170D01*
X4895330Y2657330D01*
X4894000Y2646330D01*
X4888670Y2635330D01*
X4880670Y2626170D01*
X4871330Y2622500D01*
X4860670Y2626170D01*
X4851330Y2637160D01*
X4846000Y2653670D01*
X4844670Y2672000D01*
X4847330Y2695830D01*
X4851330Y2708670D01*
X4858000Y2721500D01*
X4867330Y2730670D01*
X4876670Y2732500D01*
X4886000Y2728830D01*
X4892670Y2719670D01*
G01X4753330Y2480000D02*
Y2590000D01*
X4786670D01*
X4797330Y2584500D01*
X4804000Y2577170D01*
X4806670Y2562500D01*
X4804000Y2547830D01*
X4796000Y2538670D01*
X4786670Y2533170D01*
X4753330D01*
G01X4786670D02*
X4806670Y2480000D01*
G01X4867330D02*
X4870000Y2503830D01*
X4874000Y2524000D01*
X4879330Y2542330D01*
X4886000Y2562500D01*
X4896670Y2590000D01*
X4843330D01*
G01X4753330Y2765000D02*
Y2875000D01*
X4786670D01*
X4797330Y2869500D01*
X4804000Y2862170D01*
X4806670Y2847500D01*
X4804000Y2832830D01*
X4796000Y2823670D01*
X4786670Y2818170D01*
X4753330D01*
G01X4786670D02*
X4806670Y2765000D01*
G01X4840670Y2781500D02*
X4848670Y2772330D01*
X4858000Y2766830D01*
X4870000Y2765000D01*
X4882000Y2768670D01*
X4891330Y2776000D01*
X4898000Y2788830D01*
X4899330Y2803500D01*
X4896670Y2818170D01*
X4890000Y2827330D01*
X4880670Y2834670D01*
X4871330Y2836500D01*
X4862000Y2834670D01*
X4850000Y2827330D01*
X4854000Y2875000D01*
X4890000D01*
G01X4380000Y3140000D02*
X4369330Y3141830D01*
X4360000Y3149160D01*
X4352000Y3160170D01*
X4346670Y3173000D01*
X4344000Y3187670D01*
Y3202330D01*
X4346670Y3217000D01*
X4352000Y3229830D01*
X4360000Y3240830D01*
X4369330Y3248170D01*
X4380000Y3250000D01*
X4390670Y3248170D01*
X4400000Y3240830D01*
X4408000Y3229830D01*
X4413330Y3217000D01*
X4416000Y3202330D01*
Y3187670D01*
X4413330Y3173000D01*
X4408000Y3160170D01*
X4400000Y3149160D01*
X4390670Y3141830D01*
X4380000Y3140000D01*
G01X4439330D02*
Y3250000D01*
X4500670Y3140000D01*
Y3250000D01*
G01X4753330Y3050000D02*
Y3160000D01*
X4786670D01*
X4797330Y3154500D01*
X4804000Y3147170D01*
X4806670Y3132500D01*
X4804000Y3117830D01*
X4796000Y3108670D01*
X4786670Y3103170D01*
X4753330D01*
G01X4786670D02*
X4806670Y3050000D01*
G01X4840670Y3072000D02*
X4848670Y3059160D01*
X4859330Y3051830D01*
X4871330Y3050000D01*
X4882000Y3051830D01*
X4892670Y3061000D01*
X4899330Y3072000D01*
X4900670Y3083000D01*
X4898000Y3095830D01*
X4888670Y3105000D01*
X4879330Y3108670D01*
X4867330D01*
G01X4879330D02*
X4887330Y3114170D01*
X4894000Y3123330D01*
X4896670Y3134330D01*
X4894000Y3145330D01*
X4887330Y3154500D01*
X4875330Y3160000D01*
X4863330Y3158170D01*
X4851330Y3150830D01*
G01X4699330Y4870830D02*
X4691330Y4876330D01*
X4682000Y4880000D01*
X4671330D01*
X4659330Y4874500D01*
X4650000Y4865330D01*
X4643330Y4854330D01*
X4638000Y4836000D01*
X4636670Y4819500D01*
X4639330Y4803000D01*
X4643330Y4792000D01*
X4651330Y4781000D01*
X4660670Y4773670D01*
X4670000Y4770000D01*
X4679330D01*
X4688670Y4773670D01*
X4696670Y4779160D01*
X4703330Y4786500D01*
G01X4730670Y4792000D02*
X4738670Y4779160D01*
X4749330Y4771830D01*
X4761330Y4770000D01*
X4772000Y4771830D01*
X4782670Y4781000D01*
X4789330Y4792000D01*
X4790670Y4803000D01*
X4788000Y4815830D01*
X4778670Y4825000D01*
X4769330Y4828670D01*
X4757330D01*
G01X4769330D02*
X4777330Y4834170D01*
X4784000Y4843330D01*
X4786670Y4854330D01*
X4784000Y4865330D01*
X4777330Y4874500D01*
X4765330Y4880000D01*
X4753330Y4878170D01*
X4741330Y4870830D01*
G01X5143330Y4922000D02*
X5150000Y4911000D01*
X5158000Y4903670D01*
X5167330Y4900000D01*
X5178000Y4903670D01*
X5186000Y4911000D01*
X5194000Y4922000D01*
X5196670Y4936670D01*
Y5010000D01*
G01X5230670Y4922000D02*
X5238670Y4909160D01*
X5249330Y4901830D01*
X5261330Y4900000D01*
X5272000Y4901830D01*
X5282670Y4911000D01*
X5289330Y4922000D01*
X5290670Y4933000D01*
X5288000Y4945830D01*
X5278670Y4955000D01*
X5269330Y4958670D01*
X5257330D01*
G01X5269330D02*
X5277330Y4964170D01*
X5284000Y4973330D01*
X5286670Y4984330D01*
X5284000Y4995330D01*
X5277330Y5004500D01*
X5265330Y5010000D01*
X5253330Y5008170D01*
X5241330Y5000830D01*
G01X6483070Y708100D02*
Y818100D01*
X6509730D01*
X6520400Y812600D01*
X6528400Y805270D01*
X6535070Y794270D01*
X6540400Y781430D01*
X6541730Y763100D01*
X6540400Y744770D01*
X6535070Y731930D01*
X6528400Y720930D01*
X6520400Y713600D01*
X6509730Y708100D01*
X6483070D01*
G01X6618400D02*
Y818100D01*
X6569070Y739270D01*
X6635730D01*
G01X6483070Y438100D02*
Y548100D01*
X6509730D01*
X6520400Y542600D01*
X6528400Y535270D01*
X6535070Y524270D01*
X6540400Y511430D01*
X6541730Y493100D01*
X6540400Y474770D01*
X6535070Y461930D01*
X6528400Y450930D01*
X6520400Y443600D01*
X6509730Y438100D01*
X6483070D01*
G01X6573070Y454600D02*
X6581070Y445430D01*
X6590400Y439930D01*
X6602400Y438100D01*
X6614400Y441770D01*
X6623730Y449100D01*
X6630400Y461930D01*
X6631730Y476600D01*
X6629070Y491270D01*
X6622400Y500430D01*
X6613070Y507770D01*
X6603730Y509600D01*
X6594400Y507770D01*
X6582400Y500430D01*
X6586400Y548100D01*
X6622400D01*
G01X6700670Y1800000D02*
Y1721170D01*
X6706000Y1704660D01*
X6716670Y1693670D01*
X6730000Y1690000D01*
X6743330Y1693670D01*
X6754000Y1704660D01*
X6759330Y1721170D01*
Y1800000D01*
G01X6790670Y1712000D02*
X6798670Y1699160D01*
X6809330Y1691830D01*
X6821330Y1690000D01*
X6832000Y1691830D01*
X6842670Y1701000D01*
X6849330Y1712000D01*
X6850670Y1723000D01*
X6848000Y1735830D01*
X6838670Y1745000D01*
X6829330Y1748670D01*
X6817330D01*
G01X6829330D02*
X6837330Y1754170D01*
X6844000Y1763330D01*
X6846670Y1774330D01*
X6844000Y1785330D01*
X6837330Y1794500D01*
X6825330Y1800000D01*
X6813330Y1798170D01*
X6801330Y1790830D01*
G01X6710670Y4810000D02*
Y4731170D01*
X6716000Y4714660D01*
X6726670Y4703670D01*
X6740000Y4700000D01*
X6753330Y4703670D01*
X6764000Y4714660D01*
X6769330Y4731170D01*
Y4810000D01*
G01X6830000Y4700000D02*
Y4810000D01*
X6814000Y4788000D01*
G01Y4700000D02*
X6846000D01*
G01X6473070Y5218100D02*
Y5328100D01*
X6499730D01*
X6510400Y5322600D01*
X6518400Y5315270D01*
X6525070Y5304270D01*
X6530400Y5291430D01*
X6531730Y5273100D01*
X6530400Y5254770D01*
X6525070Y5241930D01*
X6518400Y5230930D01*
X6510400Y5223600D01*
X6499730Y5218100D01*
X6473070D01*
G01X6592400D02*
Y5328100D01*
X6576400Y5306100D01*
G01Y5218100D02*
X6608400D01*
G01X6473070Y5458100D02*
Y5568100D01*
X6499730D01*
X6510400Y5562600D01*
X6518400Y5555270D01*
X6525070Y5544270D01*
X6530400Y5531430D01*
X6531730Y5513100D01*
X6530400Y5494770D01*
X6525070Y5481930D01*
X6518400Y5470930D01*
X6510400Y5463600D01*
X6499730Y5458100D01*
X6473070D01*
G01X6567070Y5549770D02*
X6575070Y5560760D01*
X6584400Y5566270D01*
X6595070Y5568100D01*
X6608400Y5564430D01*
X6617730Y5555270D01*
X6620400Y5544270D01*
X6619070Y5533260D01*
X6613730Y5524100D01*
X6587070Y5505770D01*
X6575070Y5492930D01*
X6567070Y5474600D01*
X6564400Y5458100D01*
X6620400D01*
G01X7443330Y690000D02*
Y800000D01*
X7476670D01*
X7487330Y794500D01*
X7494000Y787170D01*
X7496670Y772500D01*
X7494000Y757830D01*
X7486000Y748670D01*
X7476670Y743170D01*
X7443330D01*
G01X7476670D02*
X7496670Y690000D01*
G01X7560000D02*
Y800000D01*
X7544000Y778000D01*
G01Y690000D02*
X7576000D01*
G01X7650000D02*
Y800000D01*
X7634000Y778000D01*
G01Y690000D02*
X7666000D01*
G01X7443330Y420000D02*
Y530000D01*
X7476670D01*
X7487330Y524500D01*
X7494000Y517170D01*
X7496670Y502500D01*
X7494000Y487830D01*
X7486000Y478670D01*
X7476670Y473170D01*
X7443330D01*
G01X7476670D02*
X7496670Y420000D01*
G01X7560000D02*
Y530000D01*
X7544000Y508000D01*
G01Y420000D02*
X7576000D01*
G01X7624670Y511670D02*
X7632670Y522660D01*
X7642000Y528170D01*
X7652670Y530000D01*
X7666000Y526330D01*
X7675330Y517170D01*
X7678000Y506170D01*
X7676670Y495160D01*
X7671330Y486000D01*
X7644670Y467670D01*
X7632670Y454830D01*
X7624670Y436500D01*
X7622000Y420000D01*
X7678000D01*
G01X7413330Y5450000D02*
Y5560000D01*
X7446670D01*
X7457330Y5554500D01*
X7464000Y5547170D01*
X7466670Y5532500D01*
X7464000Y5517830D01*
X7456000Y5508670D01*
X7446670Y5503170D01*
X7413330D01*
G01X7446670D02*
X7466670Y5450000D01*
G01X7504670Y5541670D02*
X7512670Y5552660D01*
X7522000Y5558170D01*
X7532670Y5560000D01*
X7546000Y5556330D01*
X7555330Y5547170D01*
X7558000Y5536170D01*
X7556670Y5525160D01*
X7551330Y5516000D01*
X7524670Y5497670D01*
X7512670Y5484830D01*
X7504670Y5466500D01*
X7502000Y5450000D01*
X7558000D01*
G01X7413330Y5210000D02*
Y5320000D01*
X7446670D01*
X7457330Y5314500D01*
X7464000Y5307170D01*
X7466670Y5292500D01*
X7464000Y5277830D01*
X7456000Y5268670D01*
X7446670Y5263170D01*
X7413330D01*
G01X7446670D02*
X7466670Y5210000D01*
G01X7530000D02*
Y5320000D01*
X7514000Y5298000D01*
G01Y5210000D02*
X7546000D01*
G01X7763330Y5872000D02*
X7770000Y5861000D01*
X7778000Y5853670D01*
X7787330Y5850000D01*
X7798000Y5853670D01*
X7806000Y5861000D01*
X7814000Y5872000D01*
X7816670Y5886670D01*
Y5960000D01*
G01X7880000Y5850000D02*
Y5960000D01*
X7864000Y5938000D01*
G01Y5850000D02*
X7896000D01*
G01X8143330Y1330000D02*
Y1440000D01*
X8176670D01*
X8187330Y1434500D01*
X8194000Y1427170D01*
X8196670Y1412500D01*
X8194000Y1397830D01*
X8186000Y1388670D01*
X8176670Y1383170D01*
X8143330D01*
G01X8176670D02*
X8196670Y1330000D01*
G01X8260000D02*
Y1440000D01*
X8244000Y1418000D01*
G01Y1330000D02*
X8276000D01*
G01X8327330Y1342830D02*
X8336670Y1333670D01*
X8347330Y1330000D01*
X8358000Y1333670D01*
X8367330Y1344660D01*
X8374000Y1361170D01*
X8376670Y1377670D01*
Y1397830D01*
X8374000Y1414330D01*
X8367330Y1429000D01*
X8359330Y1436330D01*
X8350000Y1440000D01*
X8339330Y1436330D01*
X8331330Y1429000D01*
X8326000Y1418000D01*
X8323330Y1403330D01*
X8326000Y1390500D01*
X8332670Y1377670D01*
X8340670Y1370330D01*
X8350000Y1368500D01*
X8360670Y1372160D01*
X8368670Y1381330D01*
X8376670Y1397830D01*
G01X8143330Y1160000D02*
Y1270000D01*
X8176670D01*
X8187330Y1264500D01*
X8194000Y1257170D01*
X8196670Y1242500D01*
X8194000Y1227830D01*
X8186000Y1218670D01*
X8176670Y1213170D01*
X8143330D01*
G01X8176670D02*
X8196670Y1160000D01*
G01X8260000D02*
Y1270000D01*
X8244000Y1248000D01*
G01Y1160000D02*
X8276000D01*
G01X8350000D02*
X8359330Y1161830D01*
X8370000Y1167330D01*
X8376670Y1176500D01*
X8379330Y1189330D01*
X8376670Y1202160D01*
X8368670Y1213170D01*
X8356670Y1218670D01*
X8343330D01*
X8335330Y1222330D01*
X8328670Y1231500D01*
X8326000Y1244330D01*
X8330000Y1257170D01*
X8339330Y1266330D01*
X8350000Y1270000D01*
X8360670Y1266330D01*
X8370000Y1257170D01*
X8374000Y1244330D01*
X8371330Y1231500D01*
X8364670Y1222330D01*
X8356670Y1218670D01*
X8343330D01*
X8331330Y1213170D01*
X8323330Y1202160D01*
X8320670Y1189330D01*
X8323330Y1176500D01*
X8330000Y1167330D01*
X8340670Y1161830D01*
X8350000Y1160000D01*
G01X8309330Y1620830D02*
X8301330Y1626330D01*
X8292000Y1630000D01*
X8281330D01*
X8269330Y1624500D01*
X8260000Y1615330D01*
X8253330Y1604330D01*
X8248000Y1586000D01*
X8246670Y1569500D01*
X8249330Y1553000D01*
X8253330Y1542000D01*
X8261330Y1531000D01*
X8270670Y1523670D01*
X8280000Y1520000D01*
X8289330D01*
X8298670Y1523670D01*
X8306670Y1529160D01*
X8313330Y1536500D01*
G01X8386000Y1520000D02*
Y1630000D01*
X8336670Y1551170D01*
X8403330D01*
G01X8133330Y4530000D02*
Y4640000D01*
X8166670D01*
X8177330Y4634500D01*
X8184000Y4627170D01*
X8186670Y4612500D01*
X8184000Y4597830D01*
X8176000Y4588670D01*
X8166670Y4583170D01*
X8133330D01*
G01X8166670D02*
X8186670Y4530000D01*
G01X8227330Y4542830D02*
X8236670Y4533670D01*
X8247330Y4530000D01*
X8258000Y4533670D01*
X8267330Y4544660D01*
X8274000Y4561170D01*
X8276670Y4577670D01*
Y4597830D01*
X8274000Y4614330D01*
X8267330Y4629000D01*
X8259330Y4636330D01*
X8250000Y4640000D01*
X8239330Y4636330D01*
X8231330Y4629000D01*
X8226000Y4618000D01*
X8223330Y4603330D01*
X8226000Y4590500D01*
X8232670Y4577670D01*
X8240670Y4570330D01*
X8250000Y4568500D01*
X8260670Y4572160D01*
X8268670Y4581330D01*
X8276670Y4597830D01*
G01X8133330Y4360000D02*
Y4470000D01*
X8166670D01*
X8177330Y4464500D01*
X8184000Y4457170D01*
X8186670Y4442500D01*
X8184000Y4427830D01*
X8176000Y4418670D01*
X8166670Y4413170D01*
X8133330D01*
G01X8166670D02*
X8186670Y4360000D01*
G01X8250000D02*
X8259330Y4361830D01*
X8270000Y4367330D01*
X8276670Y4376500D01*
X8279330Y4389330D01*
X8276670Y4402160D01*
X8268670Y4413170D01*
X8256670Y4418670D01*
X8243330D01*
X8235330Y4422330D01*
X8228670Y4431500D01*
X8226000Y4444330D01*
X8230000Y4457170D01*
X8239330Y4466330D01*
X8250000Y4470000D01*
X8260670Y4466330D01*
X8270000Y4457170D01*
X8274000Y4444330D01*
X8271330Y4431500D01*
X8264670Y4422330D01*
X8256670Y4418670D01*
X8243330D01*
X8231330Y4413170D01*
X8223330Y4402160D01*
X8220670Y4389330D01*
X8223330Y4376500D01*
X8230000Y4367330D01*
X8240670Y4361830D01*
X8250000Y4360000D01*
G01X8319330Y4800830D02*
X8311330Y4806330D01*
X8302000Y4810000D01*
X8291330D01*
X8279330Y4804500D01*
X8270000Y4795330D01*
X8263330Y4784330D01*
X8258000Y4766000D01*
X8256670Y4749500D01*
X8259330Y4733000D01*
X8263330Y4722000D01*
X8271330Y4711000D01*
X8280670Y4703670D01*
X8290000Y4700000D01*
X8299330D01*
X8308670Y4703670D01*
X8316670Y4709160D01*
X8323330Y4716500D01*
G01X8354670Y4791670D02*
X8362670Y4802660D01*
X8372000Y4808170D01*
X8382670Y4810000D01*
X8396000Y4806330D01*
X8405330Y4797170D01*
X8408000Y4786170D01*
X8406670Y4775160D01*
X8401330Y4766000D01*
X8374670Y4747670D01*
X8362670Y4734830D01*
X8354670Y4716500D01*
X8352000Y4700000D01*
X8408000D01*
G01X8853330Y572000D02*
X8860000Y561000D01*
X8868000Y553670D01*
X8877330Y550000D01*
X8888000Y553670D01*
X8896000Y561000D01*
X8904000Y572000D01*
X8906670Y586670D01*
Y660000D01*
G01X8986000Y550000D02*
Y660000D01*
X8936670Y581170D01*
X9003330D01*
G01X8955330Y5740000D02*
Y5850000D01*
X8990000Y5758330D01*
X9024670Y5850000D01*
Y5740000D01*
G01X9052000D02*
Y5850000D01*
G01X9108000D02*
Y5740000D01*
G01Y5795000D02*
X9052000D01*
G01X9140670Y5762000D02*
X9148670Y5749160D01*
X9159330Y5741830D01*
X9171330Y5740000D01*
X9182000Y5741830D01*
X9192670Y5751000D01*
X9199330Y5762000D01*
X9200670Y5773000D01*
X9198000Y5785830D01*
X9188670Y5795000D01*
X9179330Y5798670D01*
X9167330D01*
G01X9179330D02*
X9187330Y5804170D01*
X9194000Y5813330D01*
X9196670Y5824330D01*
X9194000Y5835330D01*
X9187330Y5844500D01*
X9175330Y5850000D01*
X9163330Y5848170D01*
X9151330Y5840830D01*
G01X9075330Y70000D02*
Y180000D01*
X9110000Y88330D01*
X9144670Y180000D01*
Y70000D01*
G01X9172000D02*
Y180000D01*
G01X9228000D02*
Y70000D01*
G01Y125000D02*
X9172000D01*
G01X9264670Y161670D02*
X9272670Y172660D01*
X9282000Y178170D01*
X9292670Y180000D01*
X9306000Y176330D01*
X9315330Y167170D01*
X9318000Y156170D01*
X9316670Y145160D01*
X9311330Y136000D01*
X9284670Y117670D01*
X9272670Y104830D01*
X9264670Y86500D01*
X9262000Y70000D01*
X9318000D01*
G01X9823330Y2752000D02*
X9830000Y2741000D01*
X9838000Y2733670D01*
X9847330Y2730000D01*
X9858000Y2733670D01*
X9866000Y2741000D01*
X9874000Y2752000D01*
X9876670Y2766670D01*
Y2840000D01*
G01X9910670Y2746500D02*
X9918670Y2737330D01*
X9928000Y2731830D01*
X9940000Y2730000D01*
X9952000Y2733670D01*
X9961330Y2741000D01*
X9968000Y2753830D01*
X9969330Y2768500D01*
X9966670Y2783170D01*
X9960000Y2792330D01*
X9950670Y2799670D01*
X9941330Y2801500D01*
X9932000Y2799670D01*
X9920000Y2792330D01*
X9924000Y2840000D01*
X9960000D01*
G01X9813330Y3242000D02*
X9820000Y3231000D01*
X9828000Y3223670D01*
X9837330Y3220000D01*
X9848000Y3223670D01*
X9856000Y3231000D01*
X9864000Y3242000D01*
X9866670Y3256670D01*
Y3330000D01*
G01X9904670Y3311670D02*
X9912670Y3322660D01*
X9922000Y3328170D01*
X9932670Y3330000D01*
X9946000Y3326330D01*
X9955330Y3317170D01*
X9958000Y3306170D01*
X9956670Y3295160D01*
X9951330Y3286000D01*
X9924670Y3267670D01*
X9912670Y3254830D01*
X9904670Y3236500D01*
X9902000Y3220000D01*
X9958000D01*
G54D13*
G01X390480Y866500D02*
X326980Y930000D01*
X390480Y993500D01*
Y866500D01*
X372700Y884280D01*
Y968100D01*
X360000Y955400D01*
Y904600D01*
X347300Y917300D01*
Y942700D01*
G01X400480Y4836500D02*
X336980Y4900000D01*
X400480Y4963500D01*
Y4836500D01*
X382700Y4854280D01*
Y4938100D01*
X370000Y4925400D01*
Y4874600D01*
X357300Y4887300D01*
Y4912700D01*
G01X6890480Y686500D02*
X6826980Y750000D01*
X6890480Y813500D01*
Y686500D01*
X6872700Y704280D01*
Y788100D01*
X6860000Y775400D01*
Y724600D01*
X6847300Y737300D01*
Y762700D01*
G01X6890480Y416500D02*
X6826980Y480000D01*
X6890480Y543500D01*
Y416500D01*
X6872700Y434280D01*
Y518100D01*
X6860000Y505400D01*
Y454600D01*
X6847300Y467300D01*
Y492700D01*
G01X6860480Y5206500D02*
X6796980Y5270000D01*
X6860480Y5333500D01*
Y5206500D01*
X6842700Y5224280D01*
Y5308100D01*
X6830000Y5295400D01*
Y5244600D01*
X6817300Y5257300D01*
Y5282700D01*
G01X6860480Y5446500D02*
X6796980Y5510000D01*
X6860480Y5573500D01*
Y5446500D01*
X6842700Y5464280D01*
Y5548100D01*
X6830000Y5535400D01*
Y5484600D01*
X6817300Y5497300D01*
Y5522700D01*
M02*
