G04 ================== begin FILE IDENTIFICATION RECORD ==================*
G04 Layout Name:  BQ24090_TEST_V10A.brd*
G04 Film Name:    SolderMask_Bottom*
G04 File Format:  Gerber RS274X*
G04 File Origin:  Cadence Allegro 16.6-2015-S088*
G04 Origin Date:  Thu Aug 31 17:17:54 2017*
G04 *
G04 Layer:  BOARD GEOMETRY/OUTLINE*
G04 Layer:  PIN/SOLDERMASK_BOTTOM*
G04 Layer:  PACKAGE GEOMETRY/SOLDERMASK_BOTTOM*
G04 Layer:  BOARD GEOMETRY/SOLDERMASK_BOTTOM*
G04 *
G04 Offset:    (0.0000 0.0000)*
G04 Mirror:    No*
G04 Mode:      Positive*
G04 Rotation:  0*
G04 FullContactRelief:  No*
G04 UndefLineWidth:     0.1524*
G04 ================== end FILE IDENTIFICATION RECORD ====================*
%FSLAX55Y55*MOMM*%
%IR0*IPPOS*OFA0.00000B0.00000*MIA0B0*SFA1.00000B1.00000*%
%ADD14R,2.7X5.*%
%ADD11O,4.15X2.15*%
%ADD12O,2.15X4.15*%
%ADD10C,6.35*%
%ADD13C,1.905*%
%ADD15C,2.667*%
%ADD16C,.1524*%
G75*
%LPD*%
G75*
G36*
G01X6870000Y1100000D02*
Y1980000D01*
X7130000D01*
Y1100000D01*
X6870000D01*
G37*
G36*
G01X7140000Y4200000D02*
Y4920000D01*
X6870000D01*
Y4200000D01*
X7140000D01*
G37*
G54D10*
X330000Y330000D03*
Y5670000D03*
X7000000Y3000000D03*
X9670000Y330000D03*
Y5670000D03*
G54D11*
X1120000Y2520000D03*
G54D12*
X800000Y3000000D03*
X1400000D03*
G54D13*
X2000000Y735000D03*
X1746000D03*
X2000000Y1265000D03*
X1746000D03*
X2000000Y4735000D03*
X1746000D03*
X2000000Y5265000D03*
X1746000D03*
X2254000Y735000D03*
Y1265000D03*
Y4735000D03*
Y5265000D03*
G54D14*
X8185000Y408800D03*
X8585000D03*
X8565000Y5591200D03*
X8165000D03*
G54D15*
X9760000Y1510000D03*
Y2272000D03*
Y3770000D03*
Y4532000D03*
G54D16*
G01X330000Y0D02*
X9670000D01*
G03X10000000Y330000I0J330000D01*
G01Y5670000D01*
G03X9670000Y6000000I-330000J0D01*
G01X330000D01*
G03X0Y5670000I0J-330000D01*
G01Y330000D01*
G03X330000Y0I330000J0D01*
M02*
